<?xml version="1.0" ?><svg style="enable-background:new 0 0 48 48;" version="1.1" viewBox="0 0 48 48" xml:space="preserve" xmlns="http://www.w3.org/2000/svg" xmlns:xlink="http://www.w3.org/1999/xlink"><g id="Icons"><g><g><path d="M38.70213,15.89066h-23.0117h-5.3199c-1.0501,0-1.9101-0.0767-1.9101,0.9833v2.4366v10.27v0.61     c0,1.0599-0.0695,1.92,0.9805,1.92h6.5396h22.7216c0.463,0,0.8384-0.3753,0.8384-0.8383v-14.5434     C39.54052,16.26586,39.16513,15.89066,38.70213,15.89066z" style="fill:#A6BF86;"/><path d="M38.04493,19.97936v8.0399c-1.43,0-2.59,1.1601-2.59,2.5901h-22.9c0-1.43-1.16-2.5901-2.59-2.5901     h-0.01c0-2.3299,0.01-5.7099,0.01-8.0399c1.43,0,2.59-1.16,2.59-2.5899h22.9     C35.45493,18.81936,36.61493,19.97936,38.04493,19.97936z" style="fill:#E6F4D0;"/><circle cx="23.9999" cy="23.99999" r="6.6106" style="fill:#A6BF86;"/><path d="M26.63232,24.40136c-0.1911-0.3094-0.4553-0.5527-0.7932-0.7314     c-0.338-0.1781-0.8596-0.3508-1.5651-0.5175c-0.7049-0.1671-1.1492-0.3272-1.3318-0.4815     c-0.1438-0.1205-0.2158-0.2662-0.2158-0.4363c0-0.1867,0.0768-0.3357,0.2305-0.4468c0.2383-0.1734,0.5681-0.2601,0.9893-0.2601     c0.4079,0,0.7139,0.0811,0.9181,0.2431c0.2041,0.1619,0.3371,0.4275,0.399,0.7973l1.4498-0.0637     c-0.023-0.661-0.262-1.1893-0.7173-1.585c-0.3452-0.2999-0.819-0.4852-1.4196-0.5579v-1.4049h-1.1382v1.4115     c-0.3275,0.0375-0.6329,0.0975-0.8901,0.2075c-0.3901,0.167-0.6887,0.4097-0.8962,0.7287     c-0.2075,0.3191-0.3109,0.6622-0.3109,1.0281c0,0.5695,0.2204,1.0523,0.661,1.4479c0.3135,0.2816,0.8588,0.5188,1.6357,0.7118     c0.604,0.1504,0.9908,0.2553,1.1608,0.3142c0.2479,0.0882,0.422,0.1923,0.5213,0.3116c0.0996,0.1193,0.1497,0.2642,0.1497,0.4342     c0,0.2648-0.1185,0.4965-0.3553,0.6944c-0.2368,0.1982-0.5884,0.2971-1.0552,0.2971c-0.4409,0-0.7911-0.1112-1.0508-0.3338     c-0.2593-0.2223-0.4315-0.571-0.5164-1.0453l-1.4105,0.1376c0.0949,0.8047,0.3853,1.4174,0.8718,1.8376     c0.3715,0.3212,0.8679,0.5175,1.4851,0.5932v1.3092h1.1382v-1.3124c0.3862-0.0374,0.7419-0.1011,1.0302-0.2218     c0.4179-0.1751,0.7409-0.4427,0.9696-0.8024c0.2286-0.3598,0.3427-0.7458,0.3427-1.1583     C26.91872,25.09236,26.82323,24.71036,26.63232,24.40136z" style="fill:#E6F4D0;"/></g><g><path d="M15.17292,22.29706h-1.5547l-0.1865,1.0607c0.3096-0.166,0.5957-0.2491,0.8574-0.2491     c0.21,0,0.4053,0.0396,0.5879,0.1182c0.1817,0.0786,0.3418,0.187,0.4795,0.3257c0.1377,0.1382,0.2451,0.3027,0.3242,0.4922     c0.0782,0.1899,0.1172,0.394,0.1172,0.6123c0,0.3164-0.0703,0.6045-0.2119,0.8638c-0.1426,0.2597-0.3467,0.4662-0.6142,0.6186     c-0.2676,0.1528-0.5752,0.2295-0.9249,0.2295c-0.3906,0-0.707-0.0723-0.9501-0.2163c-0.2432-0.1441-0.4161-0.3091-0.5176-0.4956     c-0.1016-0.1865-0.1524-0.3496-0.1524-0.4893c0-0.0854,0.0362-0.166,0.1065-0.2422c0.0713-0.0766,0.1601-0.1147,0.2666-0.1147     c0.1836,0,0.3203,0.1059,0.4092,0.3174c0.0878,0.1943,0.205,0.3452,0.3535,0.4531c0.1484,0.1084,0.3144,0.1621,0.498,0.1621     c0.168,0,0.3155-0.0434,0.4414-0.1309c0.127-0.0875,0.2246-0.207,0.293-0.3598c0.0693-0.1528,0.1035-0.3262,0.1035-0.5205     c0-0.2095-0.0371-0.3882-0.1113-0.5366c-0.0742-0.1486-0.1738-0.2593-0.2979-0.3326c-0.125-0.0727-0.2636-0.1093-0.416-0.1093     c-0.1875,0-0.3213,0.0229-0.4023,0.0688c-0.0811,0.0454-0.1973,0.126-0.3487,0.2402c-0.1513,0.1148-0.2763,0.1719-0.375,0.1719     c-0.1064,0-0.2011-0.0386-0.2841-0.1162c-0.083-0.0771-0.125-0.165-0.125-0.2632c0-0.0112,0.0127-0.0854,0.0361-0.2226     l0.2754-1.5679c0.0303-0.1875,0.0869-0.3242,0.1699-0.4092c0.083-0.0849,0.2178-0.1275,0.4063-0.1275h1.7275     c0.3408,0,0.5107,0.13,0.5107,0.3892c0,0.1138-0.042,0.2056-0.124,0.2754C15.45712,22.26256,15.33502,22.29706,15.17292,22.29706     z" style="fill:#A6BF86;"/></g><g><path d="M35.14952,22.29706h-1.5547l-0.1865,1.0607c0.3095-0.166,0.5957-0.2491,0.8574-0.2491     c0.21,0,0.4053,0.0396,0.5879,0.1182c0.1816,0.0786,0.3418,0.187,0.4795,0.3257c0.1377,0.1382,0.2451,0.3027,0.3242,0.4922     c0.0781,0.1899,0.1172,0.394,0.1172,0.6123c0,0.3164-0.0703,0.6045-0.2119,0.8638c-0.1426,0.2597-0.3467,0.4662-0.6143,0.6186     c-0.2676,0.1528-0.5752,0.2295-0.9248,0.2295c-0.3906,0-0.707-0.0723-0.9502-0.2163c-0.2431-0.1441-0.416-0.3091-0.5176-0.4956     c-0.1015-0.1865-0.1523-0.3496-0.1523-0.4893c0-0.0854,0.0361-0.166,0.1064-0.2422c0.0713-0.0766,0.1602-0.1147,0.2666-0.1147     c0.1836,0,0.3204,0.1059,0.4092,0.3174c0.0879,0.1943,0.2051,0.3452,0.3535,0.4531c0.1485,0.1084,0.3145,0.1621,0.4981,0.1621     c0.168,0,0.3154-0.0434,0.4414-0.1309c0.1269-0.0875,0.2246-0.207,0.293-0.3598c0.0693-0.1528,0.1035-0.3262,0.1035-0.5205     c0-0.2095-0.0371-0.3882-0.1114-0.5366c-0.0742-0.1486-0.1738-0.2593-0.2978-0.3326c-0.125-0.0727-0.2637-0.1093-0.416-0.1093     c-0.1875,0-0.3213,0.0229-0.4024,0.0688c-0.081,0.0454-0.1972,0.126-0.3486,0.2402c-0.1514,0.1148-0.2764,0.1719-0.375,0.1719     c-0.1064,0-0.2012-0.0386-0.2842-0.1162c-0.083-0.0771-0.125-0.165-0.125-0.2632c0-0.0112,0.0127-0.0854,0.0362-0.2226     l0.2753-1.5679c0.0303-0.1875,0.087-0.3242,0.17-0.4092c0.083-0.0849,0.2177-0.1275,0.4062-0.1275h1.7276     c0.3408,0,0.5107,0.13,0.5107,0.3892c0,0.1138-0.042,0.2056-0.124,0.2754C35.43372,22.26256,35.31163,22.29706,35.14952,22.29706     z" style="fill:#A6BF86;"/></g></g></g></svg>