<?xml version="1.0" ?><svg style="enable-background:new 0 0 48 48;" version="1.1" viewBox="0 0 48 48" xml:space="preserve" xmlns="http://www.w3.org/2000/svg" xmlns:xlink="http://www.w3.org/1999/xlink"><g id="Icons"><g><g><path d="M38.70213,15.89066h-23.0117h-5.3199c-1.0501,0-1.9101-0.0767-1.9101,0.9833v2.4366v10.27v0.61     c0,1.05989-0.0695,1.92,0.9805,1.92h6.5396h22.7216c0.463,0,0.8384-0.3753,0.8384-0.8383v-14.5434     C39.54052,16.26586,39.16513,15.89066,38.70213,15.89066z" style="fill:#A6BF86;"/><path d="M38.04493,19.97936v8.0399c-1.43,0-2.59,1.1601-2.59,2.5901h-22.9c0-1.43-1.16-2.5901-2.59-2.5901     h-0.01c0-2.3299,0.01-5.7099,0.01-8.0399c1.43,0,2.59-1.16,2.59-2.58991h22.9     C35.45493,18.81936,36.61493,19.97936,38.04493,19.97936z" style="fill:#E6F4D0;"/><circle cx="23.9999" cy="23.99999" r="6.6106" style="fill:#A6BF86;"/><path d="M26.63232,24.40136c-0.1911-0.3094-0.4553-0.5527-0.7932-0.7314     c-0.338-0.1781-0.8596-0.3508-1.5651-0.51751c-0.7049-0.16709-1.1492-0.32719-1.3318-0.48149     c-0.1438-0.12051-0.2158-0.2662-0.2158-0.4363c0-0.1867,0.0768-0.3357,0.2305-0.4468c0.2383-0.17341,0.5681-0.2601,0.9893-0.2601     c0.4079,0,0.7139,0.0811,0.9181,0.2431c0.2041,0.1619,0.3371,0.4275,0.399,0.7973l1.4498-0.06371     c-0.023-0.661-0.262-1.18929-0.7173-1.585c-0.3452-0.29989-0.819-0.48519-1.4196-0.55789v-1.4049h-1.1382v1.4115     c-0.3275,0.0375-0.6329,0.0975-0.8901,0.2075c-0.3901,0.167-0.6887,0.4097-0.8962,0.7287     c-0.2075,0.31909-0.3109,0.6622-0.3109,1.02809c0,0.56951,0.2204,1.05231,0.661,1.44791     c0.3135,0.2816,0.8588,0.5188,1.6357,0.7118c0.604,0.1504,0.9908,0.25529,1.1608,0.3142     c0.2479,0.0882,0.422,0.1923,0.5213,0.3116c0.0996,0.1193,0.1497,0.2642,0.1497,0.4342c0,0.2648-0.1185,0.4965-0.3553,0.6944     c-0.2368,0.1982-0.5884,0.2971-1.0552,0.2971c-0.4409,0-0.7911-0.11121-1.0508-0.3338c-0.2593-0.2223-0.4315-0.571-0.5164-1.0453     l-1.4105,0.1376c0.0949,0.8047,0.3853,1.4174,0.8718,1.8376c0.3715,0.3212,0.8679,0.5175,1.4851,0.5932v1.3092h1.1382v-1.3124     c0.3862-0.0374,0.7419-0.1011,1.0302-0.2218c0.4179-0.1751,0.7409-0.4427,0.9696-0.8024     c0.2286-0.3598,0.3427-0.7458,0.3427-1.1583C26.91872,25.09236,26.82323,24.71036,26.63232,24.40136z" style="fill:#E6F4D0;"/></g><g><g><path d="M13.15012,22.61036h-1.3409l-0.1612,0.915c0.2677-0.1425,0.5137-0.2138,0.7394-0.2138      c0.1816,0,0.3496,0.0331,0.5068,0.1015c0.1571,0.06739,0.2959,0.1612,0.4141,0.2803c0.1191,0.12009,0.2119,0.2617,0.2793,0.4258      c0.0683,0.1631,0.1015,0.3398,0.1015,0.52729c0,0.27351-0.0606,0.52151-0.1836,0.74611      c-0.1221,0.2237-0.2988,0.4014-0.5293,0.5331c-0.2304,0.132-0.4961,0.1984-0.7978,0.1984      c-0.3369,0-0.6104-0.0625-0.8203-0.18661c-0.209-0.125-0.3585-0.26749-0.4454-0.42779      c-0.0878-0.161-0.1318-0.3016-0.1318-0.4227c0-0.0733,0.0302-0.1426,0.0917-0.209c0.0616-0.06551,0.1378-0.0987,0.2306-0.0987      c0.1582,0,0.2753,0.0918,0.3525,0.2744c0.0752,0.167,0.1768,0.2979,0.3057,0.3907c0.1279,0.0937,0.2704,0.1396,0.4287,0.1396      c0.1444,0,0.2725-0.0371,0.3808-0.1123c0.1093-0.07521,0.1934-0.1797,0.253-0.3105c0.0595-0.1319,0.0888-0.2822,0.0888-0.4492      c0-0.1807-0.0322-0.335-0.0957-0.4629c-0.0644-0.128-0.1494-0.2237-0.2569-0.2871c-0.1073-0.06251-0.2264-0.0948-0.3583-0.0948      c-0.1621,0-0.2783,0.0195-0.3476,0.0595c-0.0694,0.0392-0.17,0.1085-0.3008,0.207c-0.1309,0.0997-0.2383,0.1486-0.3233,0.1486      c-0.0927,0-0.1739-0.0332-0.2462-0.0996c-0.0712-0.0674-0.1073-0.1426-0.1073-0.2276c0-0.0097,0.0108-0.0732,0.0312-0.1924      l0.2374-1.3525c0.0262-0.1621,0.0751-0.2793,0.1474-0.3525c0.0712-0.0733,0.1875-0.1104,0.3495-0.1104h1.4913      c0.294,0,0.4405,0.1123,0.4405,0.3359c0,0.0977-0.0362,0.1768-0.1074,0.2374      C13.39522,22.58106,13.28973,22.61036,13.15012,22.61036z" style="fill:#A6BF86;"/><path d="M16.60892,24.02246c0,0.30861-0.0185,0.57421-0.0555,0.79691      c-0.0381,0.2217-0.1075,0.4228-0.2091,0.6035c-0.1278,0.2227-0.2938,0.39359-0.497,0.51459      c-0.2031,0.12021-0.4297,0.18071-0.6777,0.18071c-0.2862,0-0.543-0.081-0.7695-0.2432      c-0.2266-0.1621-0.3975-0.3857-0.5127-0.6718c-0.0586-0.1563-0.1016-0.3291-0.128-0.5186      c-0.0273-0.1885-0.041-0.3935-0.041-0.6142c0-0.2842,0.0147-0.5401,0.0449-0.7677c0.0303-0.2275,0.0771-0.4237,0.1407-0.5878      c0.1113-0.2705,0.2723-0.4775,0.4843-0.6192c0.2119-0.1425,0.4649-0.2138,0.7587-0.2138c0.1934,0,0.3693,0.0322,0.5275,0.0947      c0.1582,0.0635,0.2968,0.1553,0.417,0.2774c0.119,0.121,0.2206,0.2714,0.3037,0.4501      C16.53773,23.01466,16.60892,23.45406,16.60892,24.02246z M15.83552,23.96586c0-0.3438-0.0204-0.626-0.0614-0.8457      c-0.042-0.2188-0.1114-0.3848-0.209-0.4961c-0.0986-0.1124-0.2334-0.169-0.4073-0.169c-0.248,0-0.4208,0.126-0.5175,0.376      c-0.0977,0.25-0.1455,0.6366-0.1455,1.1582c0,0.3534,0.0205,0.6436,0.0614,0.8691c0.0421,0.2256,0.1114,0.3965,0.2091,0.5127      c0.0985,0.1163,0.2305,0.1739,0.3984,0.1739c0.1729,0,0.3086-0.0606,0.4063-0.1807c0.0986-0.1211,0.167-0.293,0.2059-0.5166      C15.81602,24.62306,15.83552,24.32906,15.83552,23.96586z" style="fill:#A6BF86;"/></g><g><g><path d="M33.67142,22.61036h-1.3407l-0.1611,0.915c0.2675-0.1425,0.5137-0.2138,0.7392-0.2138       c0.1816,0,0.3496,0.0331,0.5069,0.1015c0.1572,0.06739,0.2959,0.1612,0.4139,0.2803       c0.1193,0.12009,0.2121,0.2617,0.2793,0.4258c0.0685,0.1631,0.1016,0.3398,0.1016,0.52729       c0,0.27351-0.0604,0.52151-0.1836,0.74611c-0.122,0.2237-0.2987,0.4014-0.5293,0.5331       c-0.2305,0.132-0.496,0.1984-0.7977,0.1984c-0.3369,0-0.6105-0.0625-0.8204-0.18661       c-0.2089-0.125-0.3583-0.26749-0.4453-0.42779c-0.0879-0.161-0.1318-0.3016-0.1318-0.4227c0-0.0733,0.0303-0.1426,0.0918-0.209       c0.0615-0.06551,0.1376-0.0987,0.2304-0.0987c0.1582,0,0.2755,0.0918,0.3526,0.2744c0.0752,0.167,0.1768,0.2979,0.3056,0.3907       c0.128,0.0937,0.2706,0.1396,0.4288,0.1396c0.1445,0,0.2723-0.0371,0.3808-0.1123c0.1094-0.07521,0.1934-0.1797,0.2529-0.3105       c0.0596-0.1319,0.0889-0.2822,0.0889-0.4492c0-0.1807-0.0323-0.335-0.0958-0.4629c-0.0643-0.128-0.1493-0.2237-0.2567-0.2871       c-0.1075-0.06251-0.2266-0.0948-0.3584-0.0948c-0.1622,0-0.2783,0.0195-0.3477,0.0595       c-0.0694,0.0392-0.1699,0.1085-0.3007,0.207c-0.1309,0.0997-0.2383,0.1486-0.3233,0.1486       c-0.0928,0-0.1738-0.0332-0.2461-0.0996c-0.0713-0.0674-0.1075-0.1426-0.1075-0.2276c0-0.0097,0.0108-0.0732,0.0314-0.1924       l0.2373-1.3525c0.0263-0.1621,0.0752-0.2793,0.1474-0.3525c0.0713-0.0733,0.1875-0.1104,0.3496-0.1104h1.4912       c0.294,0,0.4404,0.1123,0.4404,0.3359c0,0.0977-0.0361,0.1768-0.1073,0.2374       C33.91673,22.58106,33.81113,22.61036,33.67142,22.61036z" style="fill:#A6BF86;"/><path d="M37.13052,24.02246c0,0.30861-0.0185,0.57421-0.0556,0.79691       c-0.0382,0.2217-0.1075,0.4228-0.209,0.6035c-0.1279,0.2227-0.294,0.39359-0.4972,0.51459       c-0.203,0.12021-0.4296,0.18071-0.6777,0.18071c-0.2861,0-0.543-0.081-0.7696-0.2432       c-0.2264-0.1621-0.3973-0.3857-0.5126-0.6718c-0.0586-0.1563-0.1015-0.3291-0.1279-0.5186       c-0.0274-0.1885-0.041-0.3935-0.041-0.6142c0-0.2842,0.0146-0.5401,0.0449-0.7677c0.0303-0.2275,0.0772-0.4237,0.1407-0.5878       c0.1112-0.2705,0.2724-0.4775,0.4843-0.6192c0.2119-0.1425,0.4648-0.2138,0.7588-0.2138c0.1934,0,0.3691,0.0322,0.5273,0.0947       c0.1583,0.0635,0.2968,0.1553,0.4171,0.2774c0.1191,0.121,0.2207,0.2714,0.3037,0.4501       C37.05922,23.01466,37.13052,23.45406,37.13052,24.02246z M36.35712,23.96586c0-0.3438-0.0205-0.626-0.0615-0.8457       c-0.0421-0.2188-0.1114-0.3848-0.209-0.4961c-0.0986-0.1124-0.2334-0.169-0.4072-0.169c-0.2482,0-0.421,0.126-0.5177,0.376       c-0.0976,0.25-0.1454,0.6366-0.1454,1.1582c0,0.3534,0.0204,0.6436,0.0615,0.8691c0.042,0.2256,0.1113,0.3965,0.2089,0.5127       c0.0987,0.1163,0.2304,0.1739,0.3984,0.1739c0.173,0,0.3086-0.0606,0.4064-0.1807c0.0986-0.1211,0.1669-0.293,0.206-0.5166       C36.33762,24.62306,36.35712,24.32906,36.35712,23.96586z" style="fill:#A6BF86;"/></g></g></g></g></g></svg>