<?xml version="1.0" ?><svg style="enable-background:new 0 0 48 48;" version="1.1" viewBox="0 0 48 48" xml:space="preserve" xmlns="http://www.w3.org/2000/svg" xmlns:xlink="http://www.w3.org/1999/xlink"><g id="Icons"><g><ellipse cx="24" cy="24" rx="15.25834" ry="15.25834" style="fill:#FFC601;" transform="matrix(0.00717 -0.99997 0.99997 0.00717 -0.17139 47.82738)"/><ellipse cx="24" cy="24.00002" rx="12.34487" ry="12.34487" style="fill:#E09807;" transform="matrix(0.00717 -0.99997 0.99997 0.00717 -0.17146 47.82735)"/><g><path d="M20.61815,30.88645c0,0.1059-0.0264,0.22019-0.0781,0.34319     c-0.0527,0.12311-0.1338,0.24421-0.2461,0.36231c-0.1113,0.11869-0.2539,0.2149-0.4277,0.2891     c-0.1739,0.0737-0.376,0.1108-0.6075,0.1108c-0.1748,0-0.3339-0.0166-0.4775-0.0498c-0.1436-0.0332-0.2734-0.0849-0.3906-0.1553     c-0.1172-0.0703-0.2246-0.1626-0.3233-0.2773c-0.0869-0.104-0.1621-0.2207-0.2236-0.3501     c-0.0625-0.1289-0.1084-0.2666-0.1396-0.4131c-0.0313-0.1465-0.0459-0.3022-0.0459-0.4668c0-0.2671,0.038-0.5063,0.1162-0.71781     c0.0781-0.21139,0.1894-0.392,0.334-0.54239c0.1455-0.1504,0.3144-0.2647,0.5097-0.3433     c0.1944-0.0781,0.4024-0.1177,0.6231-0.1177c0.2685,0,0.5078,0.0537,0.7177,0.1607c0.21,0.1074,0.3702,0.23969,0.4825,0.3974     c0.1113,0.1582,0.1679,0.3072,0.1679,0.4478c0,0.0767-0.0273,0.14449-0.082,0.2036c-0.0547,0.0591-0.1201,0.0884-0.1973,0.0884     c-0.0859,0-0.1504-0.02051-0.1933-0.0611c-0.043-0.041-0.0908-0.1113-0.1436-0.2109c-0.0879-0.16451-0.1914-0.2876-0.3096-0.3691     c-0.1181-0.0816-0.2646-0.1221-0.4384-0.1221c-0.2764,0-0.4961,0.105-0.6602,0.3145c-0.1631,0.2099-0.2451,0.5083-0.2451,0.895     c0,0.2578,0.0361,0.4726,0.1084,0.644s0.1748,0.2993,0.3076,0.3843c0.1328,0.0845,0.2891,0.1265,0.4668,0.1265     c0.1934,0,0.3565-0.0479,0.4902-0.14361c0.1338-0.09619,0.2344-0.23679,0.3028-0.42239     c0.0283-0.0879,0.0644-0.1591,0.1064-0.2143c0.042-0.0552,0.1104-0.0825,0.2041-0.0825c0.0801,0,0.1485,0.0278,0.2061,0.0839     C20.58885,30.73405,20.61815,30.80335,20.61815,30.88645z" style="fill:#AA6D0B;"/><path d="M23.41015,29.13345h-1.5146v0.8155h1.3955c0.1025,0,0.1787,0.0229,0.2295,0.0693     c0.0507,0.0459,0.0761,0.10639,0.0761,0.1821c0,0.0757-0.0254,0.1372-0.0752,0.1846c-0.0498,0.0474-0.1269,0.0713-0.2304,0.0713     h-1.3955v0.9443h1.5673c0.1055,0,0.1856,0.0249,0.2383,0.0737c0.0537,0.04939,0.0811,0.1143,0.0811,0.1958     c0,0.0787-0.0274,0.14259-0.0811,0.1915c-0.0527,0.0493-0.1328,0.0737-0.2383,0.0737h-1.8281     c-0.1465,0-0.2519-0.0322-0.3154-0.0972c-0.0645-0.0649-0.0967-0.1699-0.0967-0.3149v-2.4961     c0-0.0967,0.0147-0.1753,0.043-0.2363c0.0283-0.0616,0.0742-0.106,0.1347-0.1338c0.0616-0.0279,0.1397-0.042,0.2344-0.042h1.7754     c0.1074,0,0.1875,0.0239,0.2393,0.0713c0.0517,0.0478,0.0781,0.1098,0.0781,0.187c0,0.0786-0.0264,0.1416-0.0781,0.1889     C23.59765,29.11005,23.51755,29.13345,23.41015,29.13345z" style="fill:#AA6D0B;"/><path d="M25.19335,28.96164l1.293,1.95651v-1.9746c0-0.1284,0.0273-0.2246,0.083-0.2891     c0.0547-0.0639,0.1289-0.0962,0.2226-0.0962c0.0967,0,0.1729,0.0323,0.2286,0.0962c0.0556,0.0645,0.0839,0.1607,0.0839,0.2891     v2.6113c0,0.2915-0.121,0.437-0.3623,0.437c-0.0605,0-0.1152-0.0088-0.163-0.0259c-0.0489-0.0175-0.0938-0.0449-0.1358-0.083     c-0.042-0.0376-0.082-0.0815-0.1182-0.13231c-0.0361-0.05079-0.0722-0.102-0.1084-0.15529l-1.2617-1.934v1.94529     c0,0.12691-0.0293,0.22311-0.0879,0.28811c-0.0595,0.0644-0.1347,0.0971-0.2265,0.0971c-0.0957,0-0.1719-0.0327-0.2295-0.0986     c-0.0567-0.0654-0.086-0.1611-0.086-0.28661v-2.56159c0-0.10841,0.0127-0.1938,0.0362-0.2558     c0.0293-0.0679,0.0771-0.1235,0.1435-0.1665c0.0664-0.043,0.1377-0.0645,0.2149-0.0645c0.0605,0,0.1123,0.0098,0.1553,0.0293     c0.0429,0.02,0.08,0.0464,0.1132,0.0796c0.0323,0.0332,0.0655,0.0762,0.0996,0.1289     C25.12205,28.84885,25.15725,28.90395,25.19335,28.96164z" style="fill:#AA6D0B;"/><path d="M29.99705,29.16964h-0.7334v2.41211c0,0.1391-0.0312,0.2422-0.0937,0.3095     c-0.0615,0.0669-0.1416,0.1006-0.2393,0.1006c-0.0996,0-0.1816-0.03421-0.2441-0.102c-0.0625-0.0679-0.0938-0.1704-0.0938-0.3081     v-2.41211h-0.7334c-0.1152,0-0.2002-0.02489-0.2558-0.07569c-0.0567-0.0508-0.084-0.1172-0.084-0.2002     c0-0.0864,0.0283-0.1543,0.0869-0.20411c0.0586-0.04979,0.1426-0.07469,0.2529-0.07469h2.1377     c0.1162,0,0.2031,0.0259,0.2598,0.0771c0.0566,0.0513,0.0849,0.1187,0.0849,0.2017s-0.0292,0.1494-0.0869,0.2002     C30.19825,29.14475,30.11135,29.16964,29.99705,29.16964z" style="fill:#AA6D0B;"/></g><path d="M22.20075,26.52625h-1.9521v-7.3573c-0.7134,0.6668-1.5542,1.1601-2.522,1.4798v-1.7713    c0.5093-0.167,1.063-0.483,1.6607-0.94881c0.5971-0.46529,1.0073-1.00829,1.2295-1.62889h1.5839V26.52625z" style="fill:#AA6D0B;"/><path d="M26.99575,16.29975c0.9868,0,1.7578,0.352,2.3134,1.0562    c0.6626,0.8335,0.9937,2.2158,0.9937,4.1474c0,1.9268-0.3335,3.3115-1.0005,4.1542c-0.5513,0.6949-1.3198,1.0425-2.3066,1.0425    c-0.9912,0-1.7901-0.3809-2.3965-1.1431c-0.607-0.7617-0.9102-2.12-0.9102-4.0746c0-1.9174,0.3335-3.2973,1.0005-4.1406    C25.24035,16.64695,26.00935,16.29975,26.99575,16.29975z M26.99575,17.91845c-0.2359,0-0.4468,0.07519-0.6319,0.2256    c-0.1855,0.1507-0.3291,0.4204-0.4311,0.8095c-0.1343,0.5049-0.2012,1.355-0.2012,2.5498c0,1.1949,0.0601,2.0161,0.1807,2.4628    c0.1201,0.4468,0.2719,0.7446,0.455,0.8926c0.1827,0.1484,0.3926,0.2222,0.6285,0.2222c0.2363,0,0.4472-0.0752,0.6323-0.2256    c0.185-0.1504,0.3291-0.4204,0.4307-0.8096c0.1342-0.5,0.2016-1.3475,0.2016-2.5424c0-1.1948-0.06-2.0161-0.1806-2.4629    c-0.1207-0.4467-0.272-0.7457-0.4551-0.8964C27.44155,17.99364,27.23205,17.91845,26.99575,17.91845z" style="fill:#AA6D0B;"/></g></g></svg>