<?xml version="1.0" ?><svg style="enable-background:new 0 0 48 48;" version="1.1" viewBox="0 0 48 48" xml:space="preserve" xmlns="http://www.w3.org/2000/svg" xmlns:xlink="http://www.w3.org/1999/xlink"><g id="Icons"><g><g><g><path d="M9.6126,19.23949c0-0.29831,0.3189-0.4894,0.5785-0.3424      c1.92,1.08709,8.3122,4.2609,16.0037,0.2105c7.5836-3.9935,13.1315-1.7813,14.7077-0.97441      c0.2823,0.14451,0.4551,0.43261,0.4551,0.74971v14.6272c0,0.2982-0.319,0.4893-0.5786,0.3424      c-1.92-1.0871-8.3122-4.261-16.0037-0.2106c-7.592,3.99329-13.1337,1.7816-14.7081,0.9746      c-0.2821-0.1446-0.4546-0.4325-0.4546-0.7495V19.23949z" style="fill:#A6BF86;"/><g><path d="M27.4874,26.35479c-0.1865-0.21461-0.421-0.369-0.7041-0.4642       c-0.2832-0.0949-0.7074-0.1623-1.2726-0.202c-0.565-0.04-0.9279-0.1075-1.0882-0.20341       c-0.1261-0.075-0.2-0.17829-0.2213-0.30949c-0.0236-0.1441,0.0168-0.2686,0.1214-0.3738       c0.1619-0.16371,0.4054-0.2722,0.7304-0.3253c0.3146-0.0515,0.5609-0.02741,0.7388,0.0718       c0.1779,0.0991,0.3141,0.2873,0.4083,0.56479l1.1104-0.232c-0.101-0.50709-0.352-0.88449-0.7531-1.13239       c-0.3041-0.1879-0.693-0.271-1.1655-0.2514l-0.1771-1.0837l-0.878,0.14349l0.1779,1.08881       c-0.2479,0.07019-0.4759,0.1551-0.6605,0.2723c-0.2799,0.1781-0.4797,0.40289-0.5996,0.6752       c-0.1197,0.2723-0.1562,0.5499-0.1101,0.8324c0.0718,0.43929,0.3027,0.7839,0.6924,1.0336       c0.2773,0.17769,0.728,0.2919,1.3517,0.3429c0.4848,0.0399,0.7964,0.072,0.9351,0.096       c0.2023,0.0367,0.3497,0.0952,0.4414,0.1747c0.0919,0.0794,0.1488,0.1848,0.1702,0.31609       c0.0334,0.20431-0.0289,0.39791-0.1866,0.58031c-0.1576,0.1828-0.4164,0.3035-0.7765,0.3623       c-0.3401,0.0556-0.6243,0.014-0.8527-0.125c-0.2281-0.1389-0.405-0.3861-0.5302-0.7413l-1.0708,0.2839       c0.1747,0.60879,0.476,1.045,0.9042,1.30779c0.3271,0.20091,0.7347,0.28981,1.2205,0.27051l0.165,1.0098l0.8781-0.1434       l-0.1655-1.0125c0.2933-0.0776,0.5596-0.1715,0.7668-0.3009c0.3003-0.1878,0.5158-0.435,0.6469-0.7413       c0.1309-0.3063,0.1703-0.6186,0.1183-0.9367C27.7955,26.85169,27.6736,26.56909,27.4874,26.35479z" style="fill:#E6F4D0;"/></g><path d="M26.4983,31.37189c-0.0092,0-0.0184,0.0092-0.0275,0.0092      c-0.7887,0.2934-1.5681,0.6419-2.3384,1.0453c-2.7235,1.4306-5.4287,2.155-8.0421,2.155c-1.0637,0-2.0174-0.1284-2.8152-0.2935      c0.0917-0.2475,0.1375-0.5226,0.1375-0.79771c0-1.348-1.082-2.43009-2.4208-2.43009v-7.7945      c1.0362,0,1.9257-0.6511,2.265-1.5681c1.6781,0.5319,3.402,0.7886,5.1443,0.7886c1.7974,0,3.5672-0.2842,5.3095-0.8436h0.0183      h-0.0183c-1.669,0.8253-2.7419,2.8702-2.5309,5.1352c0.2659,2.8152,2.4025,4.9151,4.7867,4.6951      c0.1742-0.0184,0.3393-0.0459,0.5044-0.0917C26.4799,31.39018,26.4891,31.39018,26.4983,31.37189" style="fill:#E6F4D0;"/><path d="M27.2044,31.12429c0.0183,0,0.0275,0,0.0366-0.0092c1.6873-0.8161,2.7602-2.8702,2.5493-5.1444      c-0.2659-2.8152-2.4025-4.9151-4.7867-4.695c-0.1559,0.0183-0.3118,0.0458-0.4677,0.08249c-0.0092,0-0.0184,0-0.0275,0      l-0.0092,0.00921l0.0092-0.00921c0.0091,0,0.0183,0,0.0275,0c0.7794-0.28429,1.5405-0.64189,2.3017-1.03619      c2.7143-1.4305,5.4194-2.1549,8.0329-2.1549c1.0545,0,1.9899,0.1192,2.7785,0.3026c-0.0642,0.2109-0.0917,0.431-0.0917,0.6602      c0,1.3388,1.0821,2.4209,2.4209,2.4209v7.7945c-1.0821,0-1.9991,0.7153-2.3108,1.6965      c-1.6598-0.5227-3.3654-0.7795-5.0986-0.7795c-1.7973,0-3.5855,0.2843-5.3278,0.8528      C27.2319,31.12429,27.2227,31.12429,27.2044,31.12429" style="fill:#E6F4D0;"/><path d="M15.782,29.59929v-2.7313c-0.5077,0.39-0.8498,0.5853-1.0262,0.5853      c-0.0842,0-0.1585-0.0336-0.2239-0.1008c-0.0644-0.0667-0.0976-0.1442-0.0976-0.2324c0-0.1021,0.0323-0.1768,0.0967-0.2252      c0.0636-0.0479,0.1765-0.10971,0.3385-0.1858c0.2427-0.1142,0.4361-0.2342,0.5812-0.3605      c0.1451-0.1258,0.2732-0.2668,0.3859-0.4231c0.112-0.1558,0.1845-0.2521,0.2186-0.2879      c0.034-0.0362,0.0985-0.0542,0.1925-0.0542c0.1057,0,0.1908,0.0413,0.2552,0.1232c0.0636,0.0819,0.0959,0.1952,0.0959,0.339      v3.4364c0,0.4021-0.137,0.6036-0.4111,0.6036c-0.1227,0-0.2203-0.0412-0.2947-0.1232      C15.8188,29.88059,15.782,29.75918,15.782,29.59929z" style="fill:#A6BF86;"/><path d="M34.3513,25.73618v-2.73139c-0.5078,0.39-0.8498,0.5852-1.0262,0.5852      c-0.0842,0-0.1585-0.0335-0.2239-0.1007c-0.0644-0.0667-0.0976-0.1442-0.0976-0.2324c0-0.1021,0.0322-0.1768,0.0967-0.2252      c0.0636-0.0479,0.1764-0.1097,0.3385-0.1858c0.2427-0.1142,0.4361-0.2342,0.5812-0.3605      c0.145-0.1258,0.2732-0.2669,0.3859-0.4231c0.112-0.1558,0.1845-0.25211,0.2186-0.2879      c0.034-0.0363,0.0984-0.0541,0.1925-0.0541c0.1057,0,0.1908,0.0411,0.2552,0.123c0.0636,0.082,0.0959,0.1952,0.0959,0.339      v3.4365c0,0.4021-0.137,0.6036-0.4111,0.6036c-0.1227,0-0.2203-0.04121-0.2947-0.12321      C34.3881,26.01729,34.3513,25.89599,34.3513,25.73618z" style="fill:#A6BF86;"/></g><path d="M36.0258,26.87759v3.5823c0,0.29-0.27,0.49-0.5,0.34c-1.6599-1.09-7.2-4.26-13.87-0.21     c-5.7299,3.47-10.1099,2.25-12.0399,1.34v-2.3114c2.6599,0.66,6.6532,0.37769,11.9132-2.39231     C27.599,24.02618,33.1358,25.64759,36.0258,26.87759z" style="opacity:0.1;"/><path d="M6.6424,14.48989c0-0.2982,0.319-0.4893,0.5786-0.3424c1.92,1.0871,8.3122,4.261,16.0037,0.2106     c7.5836-3.9935,13.1314-1.7813,14.7077-0.9745c0.2823,0.14459,0.455,0.43259,0.455,0.7498v14.6271     c0,0.2983-0.3189,0.4894-0.5785,0.3425c-1.92-1.0871-8.3122-4.261-16.0037-0.2106c-7.592,3.9933-13.1337,1.7816-14.7081,0.9746     c-0.2821-0.1446-0.4547-0.4326-0.4547-0.7496V14.48989z" style="fill:#A6BF86;"/><g><path d="M24.5173,21.60529c-0.1865-0.2146-0.421-0.369-0.7042-0.4642      c-0.2831-0.09491-0.7073-0.1623-1.2725-0.202c-0.5651-0.04-0.9279-0.1075-1.0882-0.2034      c-0.1262-0.075-0.2-0.1783-0.2214-0.30951c-0.0235-0.14409,0.0168-0.26859,0.1214-0.37379      c0.162-0.1638,0.4055-0.2723,0.7304-0.3253c0.3147-0.0515,0.561-0.0275,0.7389,0.0718      c0.1779,0.0991,0.314,0.28729,0.4083,0.5647l1.1104-0.232c-0.101-0.507-0.352-0.88441-0.7531-1.1323      c-0.3041-0.1879-0.693-0.271-1.1655-0.2514l-0.1771-1.08371l-0.878,0.14351l0.1779,1.0888      c-0.2479,0.0702-0.476,0.1551-0.6606,0.2723c-0.2798,0.1781-0.4796,0.4029-0.5995,0.6752      c-0.1198,0.27219-0.1563,0.5499-0.1101,0.8323c0.0718,0.4394,0.3027,0.784,0.6924,1.0337      c0.2773,0.1777,0.7279,0.2919,1.3517,0.3428c0.4848,0.0399,0.7964,0.072,0.935,0.0961      c0.2023,0.0367,0.3498,0.0951,0.4415,0.1746c0.0919,0.0795,0.1487,0.1849,0.1702,0.3161      c0.0333,0.2043-0.0289,0.398-0.1866,0.5804c-0.1577,0.1828-0.4164,0.3034-0.7766,0.3623      c-0.3401,0.0556-0.6243,0.014-0.8527-0.12511c-0.228-0.13879-0.4049-0.386-0.5302-0.74119l-1.0708,0.2839      c0.1747,0.6088,0.476,1.045,0.9043,1.3078c0.3271,0.2009,0.7347,0.2898,1.2204,0.27049l0.1651,1.00981l0.878-0.1434      l-0.1654-1.0125c0.2932-0.0776,0.5595-0.1715,0.7668-0.301c0.3003-0.1878,0.5158-0.43491,0.6468-0.7413      c0.131-0.3062,0.1703-0.6185,0.1183-0.93661C24.8253,22.10218,24.7034,21.81959,24.5173,21.60529z" style="fill:#E6F4D0;"/></g><path d="M23.5281,26.62239c-0.0091,0-0.0183,0.0091-0.0275,0.0091     c-0.7886,0.2935-1.5681,0.6419-2.3383,1.0454c-2.7235,1.4305-5.4287,2.155-8.0421,2.155c-1.0638,0-2.0175-0.1284-2.8152-0.2935     c0.0917-0.2476,0.1375-0.5227,0.1375-0.7978c0-1.348-1.0821-2.43-2.4209-2.43v-7.7945c1.0362,0,1.9257-0.6511,2.265-1.5681     c1.6781,0.5318,3.4021,0.7886,5.1444,0.7886c1.7973,0,3.5671-0.2843,5.3094-0.8436h0.0184h-0.0184     c-1.6689,0.8253-2.7418,2.87019-2.5309,5.13519c0.2659,2.81521,2.4026,4.91511,4.7868,4.695     c0.1742-0.01829,0.3393-0.04579,0.5043-0.09169C23.5098,26.64069,23.519,26.64069,23.5281,26.62239" style="fill:#E6F4D0;"/><path d="M24.2342,26.37479c0.0184,0,0.0275,0,0.0367-0.0092c1.6873-0.8161,2.7602-2.8702,2.5493-5.14441     c-0.266-2.81519-2.4026-4.91509-4.7868-4.695c-0.1559,0.01831-0.3118,0.04581-0.4677,0.08251c-0.0091,0-0.0183,0-0.0275,0     l-0.0091,0.0092l0.0091-0.0092c0.0092,0,0.0184,0,0.0275,0c0.7795-0.2843,1.5406-0.6419,2.3017-1.0362     c2.7143-1.4305,5.4195-2.155,8.033-2.155c1.0545,0,1.9898,0.1192,2.7785,0.3026c-0.0642,0.211-0.0917,0.431-0.0917,0.6603     c0,1.33879,1.082,2.4209,2.4209,2.4209v7.7945c-1.0821,0-1.9991,0.7152-2.3109,1.69639     c-1.6598-0.52269-3.3654-0.77939-5.0985-0.77939c-1.7973,0-3.5855,0.2843-5.3278,0.8528     C24.2617,26.37479,24.2526,26.37479,24.2342,26.37479" style="fill:#E6F4D0;"/></g><g><path d="M11.4088,25.12209v-2.8926c-0.5643,0.4136-0.9442,0.6201-1.1395,0.6201     c-0.0939,0-0.1768-0.0356-0.249-0.10641c-0.0723-0.07129-0.1084-0.15329-0.1084-0.24659c0-0.1079,0.0361-0.1875,0.1074-0.2383     c0.0713-0.0508,0.1963-0.1167,0.3769-0.1973c0.2686-0.1206,0.4834-0.2475,0.6446-0.3813     c0.1611-0.1333,0.3037-0.2827,0.4287-0.4482c0.124-0.1651,0.205-0.2666,0.2431-0.3047     c0.0381-0.03861,0.1094-0.0577,0.2138-0.0577c0.1172,0,0.212,0.0435,0.2833,0.1304c0.0713,0.0869,0.1064,0.2066,0.1064,0.3594     v3.6392c0,0.4262-0.1524,0.63909-0.4571,0.63909c-0.1346,0-0.2441-0.04339-0.326-0.13039     C11.4509,25.41989,11.4088,25.29149,11.4088,25.12209z" style="fill:#A6BF86;"/><path d="M16.3181,23.27249c0,0.3471-0.0224,0.646-0.0664,0.896c-0.0449,0.25-0.127,0.477-0.2471,0.6801     c-0.1513,0.25-0.3466,0.4429-0.587,0.5787c-0.2402,0.1357-0.5067,0.2036-0.7998,0.2036c-0.3378,0-0.6405-0.0913-0.9091-0.2735     c-0.2676-0.1821-0.4698-0.4345-0.6046-0.7563c-0.0692-0.1763-0.1201-0.3706-0.1522-0.5835     c-0.0323-0.2129-0.0478-0.44341-0.0478-0.69141c0-0.31979,0.0174-0.60789,0.0527-0.86429     c0.036-0.2563,0.0917-0.477,0.1669-0.6611c0.1309-0.3052,0.3223-0.53761,0.5723-0.6978c0.25-0.1601,0.5478-0.2402,0.8946-0.2402     c0.2294,0,0.4375,0.0356,0.624,0.10639c0.1865,0.07131,0.3505,0.17491,0.4912,0.31161c0.1416,0.1367,0.2608,0.3056,0.3584,0.5073     C16.2332,22.13769,16.3181,22.63229,16.3181,23.27249z M15.4041,23.20849c0-0.3877-0.0245-0.7051-0.0733-0.9517     c-0.0488-0.247-0.1308-0.4335-0.2461-0.5595c-0.1162-0.126-0.2764-0.189-0.4806-0.189c-0.2929,0-0.497,0.1406-0.6113,0.42289     c-0.1152,0.28171-0.1718,0.71581-0.1718,1.30321c0,0.3979,0.0245,0.7246,0.0733,0.9785     c0.0488,0.2544,0.1308,0.4468,0.2461,0.5771c0.1162,0.1304,0.2723,0.1954,0.4706,0.1954c0.2041,0,0.3642-0.0679,0.4806-0.20321     c0.1152-0.13569,0.1961-0.32959,0.2431-0.582C15.3816,23.94829,15.4041,23.61769,15.4041,23.20849z" style="fill:#A6BF86;"/></g><g><path d="M29.4303,21.68749l0.0098-2.8926c-0.5654,0.4117-0.9463,0.6172-1.1416,0.6162     c-0.0937,0-0.1768-0.0361-0.249-0.10691c-0.0712-0.07179-0.1074-0.15379-0.1074-0.24709     c0.001-0.10791,0.037-0.1875,0.1083-0.2378c0.0713-0.0507,0.1963-0.1162,0.378-0.1962c0.2686-0.1197,0.4835-0.2457,0.6456-0.379     c0.161-0.1328,0.3046-0.2817,0.4296-0.4467c0.125-0.1651,0.2061-0.2661,0.2441-0.30421     c0.0392-0.03859,0.1105-0.05719,0.2149-0.05669c0.1172,0,0.2119,0.044,0.2822,0.1314c0.0713,0.0869,0.1064,0.2065,0.1054,0.3594     l-0.0116,3.6391c-0.0019,0.4263-0.1544,0.6387-0.459,0.6377c-0.1348-0.0005-0.2441-0.04391-0.3262-0.1313     C29.4713,21.98539,29.4303,21.85689,29.4303,21.68749z" style="fill:#A6BF86;"/><path d="M34.3463,19.85399c-0.0018,0.34719-0.0253,0.646-0.0692,0.896     c-0.046,0.25-0.1289,0.4766-0.25,0.67919c-0.1524,0.24951-0.3478,0.44191-0.5889,0.57671     c-0.2402,0.1352-0.5069,0.2021-0.7998,0.2011c-0.338-0.0009-0.6407-0.0932-0.9093-0.2763     c-0.2665-0.1831-0.4676-0.4361-0.6015-0.7583c-0.0684-0.1768-0.1191-0.3711-0.1503-0.584     c-0.0313-0.2134-0.046-0.4439-0.046-0.6919c0.001-0.3198,0.0196-0.6079,0.0557-0.8638c0.0372-0.2563,0.0938-0.477,0.17-0.6606     c0.1317-0.3047,0.3231-0.5366,0.5741-0.6958c0.25-0.1597,0.5489-0.2388,0.8956-0.2373c0.2294,0.0005,0.4375,0.0371,0.623,0.1084     c0.1865,0.0717,0.3505,0.17579,0.4902,0.313c0.1417,0.1372,0.2598,0.3066,0.3575,0.5087     C34.2644,18.71918,34.3484,19.21389,34.3463,19.85399z M33.4323,19.78709c0.001-0.3877-0.0224-0.7051-0.0703-0.9516     c-0.0478-0.2476-0.1299-0.4341-0.2442-0.5606c-0.1161-0.1265-0.2753-0.1899-0.4794-0.1904     c-0.2929-0.001-0.498,0.13869-0.6133,0.4209c-0.1163,0.2812-0.1739,0.7153-0.1757,1.3027     c-0.002,0.398,0.0214,0.7246,0.0692,0.9785c0.0489,0.2544,0.1299,0.4473,0.2441,0.5782     c0.1164,0.1303,0.2725,0.1962,0.4708,0.1967c0.2041,0.0005,0.3642-0.0669,0.4804-0.2016     c0.1162-0.1353,0.1983-0.3291,0.2451-0.5811C33.407,20.52689,33.4303,20.19629,33.4323,19.78709z" style="fill:#A6BF86;"/></g></g></g></svg>