<?xml version="1.0" ?><svg style="enable-background:new 0 0 48 48;" version="1.1" viewBox="0 0 48 48" xml:space="preserve" xmlns="http://www.w3.org/2000/svg" xmlns:xlink="http://www.w3.org/1999/xlink"><g id="Icons"><g><g><g><path d="M9.6126,19.23949c0-0.2983,0.3189-0.4894,0.5785-0.3424      c1.92,1.0871,8.3122,4.2609,16.0037,0.2105c7.5836-3.9935,13.1315-1.7813,14.7077-0.9744      c0.2823,0.1445,0.4551,0.4326,0.4551,0.74969v14.62721c0,0.2982-0.319,0.4893-0.5786,0.3424      c-1.92-1.0871-8.3122-4.261-16.0037-0.21061c-7.592,3.99331-13.1337,1.78161-14.7081,0.97461      c-0.2821-0.14461-0.4546-0.4325-0.4546-0.7495V19.23949z" style="fill:#A6BF86;"/><g><path d="M27.4874,26.35479c-0.1865-0.2146-0.421-0.369-0.7041-0.4642       c-0.2832-0.0949-0.7074-0.1623-1.2726-0.202c-0.565-0.04-0.9279-0.1075-1.0882-0.2034c-0.1261-0.075-0.2-0.17831-0.2213-0.3095       c-0.0236-0.1441,0.0168-0.2686,0.1214-0.37381c0.1619-0.16379,0.4054-0.27219,0.7304-0.32529       c0.3146-0.0515,0.5609-0.0274,0.7388,0.0718c0.1779,0.0991,0.3141,0.2873,0.4083,0.5648l1.1104-0.232       c-0.101-0.5071-0.352-0.8845-0.7531-1.1324c-0.3041-0.18791-0.693-0.271-1.1655-0.2514l-0.1771-1.0837l-0.878,0.1435       l0.1779,1.0888c-0.2479,0.0702-0.4759,0.1551-0.6605,0.2723c-0.2799,0.1781-0.4797,0.4029-0.5996,0.6752       c-0.1197,0.2722-0.1562,0.5499-0.1101,0.83239c0.0718,0.43931,0.3027,0.78391,0.6924,1.03361       c0.2773,0.1777,0.728,0.2919,1.3517,0.3429c0.4848,0.0399,0.7964,0.072,0.9351,0.096       c0.2023,0.0367,0.3497,0.0952,0.4414,0.1747c0.0919,0.0794,0.1488,0.18479,0.1702,0.3161       c0.0334,0.2043-0.0289,0.3979-0.1866,0.5803c-0.1576,0.1828-0.4164,0.3035-0.7765,0.3623       c-0.3401,0.0556-0.6243,0.014-0.8527-0.125c-0.2281-0.13891-0.405-0.3861-0.5302-0.7413l-1.0708,0.2839       c0.1747,0.6088,0.476,1.045,0.9042,1.3078c0.3271,0.2009,0.7347,0.2898,1.2205,0.2705l0.165,1.0098l0.8781-0.1434       l-0.1655-1.0125c0.2933-0.0776,0.5596-0.1715,0.7668-0.3009c0.3003-0.18781,0.5158-0.435,0.6469-0.7413       c0.1309-0.3063,0.1703-0.6186,0.1183-0.9367C27.7955,26.85169,27.6736,26.56909,27.4874,26.35479z" style="fill:#E6F4D0;"/></g><path d="M26.4983,31.37188c-0.0092,0-0.0184,0.00911-0.0275,0.00911      c-0.7887,0.2935-1.5681,0.642-2.3384,1.0454c-2.7235,1.4306-5.4287,2.155-8.0421,2.155c-1.0637,0-2.0174-0.1284-2.8152-0.29351      c0.0917-0.24749,0.1375-0.52259,0.1375-0.79769c0-1.348-1.082-2.4301-2.4208-2.4301v-7.7945      c1.0362,0,1.9257-0.6511,2.265-1.5681c1.6781,0.5319,3.402,0.7886,5.1443,0.7886c1.7974,0,3.5672-0.28421,5.3095-0.8436h0.0183      h-0.0183c-1.669,0.8253-2.7419,2.8702-2.5309,5.1352c0.2659,2.81519,2.4025,4.9151,4.7867,4.695      c0.1742-0.0183,0.3393-0.04581,0.5044-0.0917C26.4799,31.39019,26.4891,31.39019,26.4983,31.37188" style="fill:#E6F4D0;"/><path d="M27.2044,31.12429c0.0183,0,0.0275,0,0.0366-0.0092c1.6873-0.8161,2.7602-2.87021,2.5493-5.1444      c-0.2659-2.8152-2.4025-4.9151-4.7867-4.695c-0.1559,0.0183-0.3118,0.0458-0.4677,0.0825c-0.0092,0-0.0184,0-0.0275,0      l-0.0092,0.0092l0.0092-0.0092c0.0091,0,0.0183,0,0.0275,0c0.7794-0.28431,1.5405-0.6419,2.3017-1.0362      c2.7143-1.4305,5.4194-2.155,8.0329-2.155c1.0545,0,1.9899,0.1193,2.7785,0.3027c-0.0642,0.2109-0.0917,0.431-0.0917,0.66019      c0,1.33881,1.0821,2.42091,2.4209,2.42091v7.7945c-1.0821,0-1.9991,0.7153-2.3108,1.6965      c-1.6598-0.5227-3.3654-0.7795-5.0986-0.7795c-1.7973,0-3.5855,0.2843-5.3278,0.8528      C27.2319,31.12429,27.2227,31.12429,27.2044,31.12429" style="fill:#E6F4D0;"/><path d="M15.782,29.59929v-2.7313c-0.5077,0.39-0.8498,0.5853-1.0262,0.5853      c-0.0842,0-0.1585-0.0336-0.2239-0.1008c-0.0644-0.0667-0.0976-0.1442-0.0976-0.2324c0-0.1021,0.0323-0.1768,0.0967-0.22521      c0.0636-0.04789,0.1765-0.10969,0.3385-0.18579c0.2427-0.11421,0.4361-0.23421,0.5812-0.3605      c0.1451-0.1258,0.2732-0.2668,0.3859-0.4231c0.112-0.1558,0.1845-0.2521,0.2186-0.2879      c0.034-0.0362,0.0985-0.0542,0.1925-0.0542c0.1057,0,0.1908,0.0413,0.2552,0.1231c0.0636,0.082,0.0959,0.1953,0.0959,0.3391      v3.4364c0,0.4021-0.137,0.6036-0.4111,0.6036c-0.1227,0-0.2203-0.0412-0.2947-0.1232      C15.8188,29.88059,15.782,29.75919,15.782,29.59929z" style="fill:#A6BF86;"/><path d="M34.3513,25.73619v-2.7314c-0.5078,0.39-0.8498,0.5852-1.0262,0.5852      c-0.0842,0-0.1585-0.0335-0.2239-0.1007c-0.0644-0.0667-0.0976-0.1442-0.0976-0.23241c0-0.10209,0.0322-0.17679,0.0967-0.22519      c0.0636-0.0479,0.1764-0.1097,0.3385-0.18581c0.2427-0.11419,0.4361-0.23419,0.5812-0.36049      c0.145-0.1258,0.2732-0.2669,0.3859-0.4231c0.112-0.1558,0.1845-0.2521,0.2186-0.2879c0.034-0.0363,0.0984-0.0542,0.1925-0.0542      c0.1057,0,0.1908,0.0412,0.2552,0.1231c0.0636,0.082,0.0959,0.1952,0.0959,0.339v3.4365c0,0.40209-0.137,0.6036-0.4111,0.6036      c-0.1227,0-0.2203-0.0412-0.2947-0.1232C34.3881,26.01729,34.3513,25.89599,34.3513,25.73619z" style="fill:#A6BF86;"/></g><path d="M36.0258,26.87759v3.58229c0,0.29-0.27,0.49-0.5,0.34c-1.6599-1.09-7.2-4.26-13.87-0.21     c-5.7299,3.47-10.1099,2.25-12.0399,1.34v-2.31139c2.6599,0.66,6.6532,0.3777,11.9132-2.3923     C27.599,24.02619,33.1358,25.64759,36.0258,26.87759z" style="opacity:0.1;"/><path d="M6.6424,14.48988c0-0.29819,0.319-0.48929,0.5786-0.34239     c1.92,1.0871,8.3122,4.261,16.0037,0.2106c7.5836-3.9935,13.1314-1.7813,14.7077-0.9745c0.2823,0.1446,0.455,0.4326,0.455,0.7498     v14.6271c0,0.2983-0.3189,0.48939-0.5785,0.3425c-1.92-1.08711-8.3122-4.261-16.0037-0.2106     c-7.592,3.9933-13.1337,1.7816-14.7081,0.9746c-0.2821-0.1446-0.4547-0.4326-0.4547-0.7496V14.48988z" style="fill:#A6BF86;"/><g><path d="M24.5173,21.60529c-0.1865-0.2146-0.421-0.369-0.7042-0.4642      c-0.2831-0.0949-0.7073-0.1623-1.2725-0.202c-0.5651-0.04-0.9279-0.1075-1.0882-0.2034c-0.1262-0.075-0.2-0.1783-0.2214-0.3095      c-0.0235-0.1441,0.0168-0.2686,0.1214-0.3738c0.162-0.1638,0.4055-0.2723,0.7304-0.3254      c0.3147-0.0514,0.561-0.0274,0.7389,0.07189c0.1779,0.09911,0.314,0.28731,0.4083,0.56471l1.1104-0.232      c-0.101-0.507-0.352-0.8844-0.7531-1.1323c-0.3041-0.1879-0.693-0.271-1.1655-0.25141l-0.1771-1.08369l-0.878,0.1435      l0.1779,1.0888c-0.2479,0.0702-0.476,0.1551-0.6606,0.2723c-0.2798,0.17809-0.4796,0.4029-0.5995,0.6752      c-0.1198,0.2722-0.1563,0.54989-0.1101,0.8323c0.0718,0.4394,0.3027,0.784,0.6924,1.0337      c0.2773,0.1777,0.7279,0.29189,1.3517,0.3428c0.4848,0.0399,0.7964,0.072,0.935,0.09609      c0.2023,0.03671,0.3498,0.09511,0.4415,0.17461c0.0919,0.0795,0.1487,0.1849,0.1702,0.3161      c0.0333,0.20429-0.0289,0.398-0.1866,0.5804c-0.1577,0.1828-0.4164,0.3034-0.7766,0.3623      c-0.3401,0.05559-0.6243,0.014-0.8527-0.1251c-0.228-0.1388-0.4049-0.386-0.5302-0.7412l-1.0708,0.28389      c0.1747,0.60881,0.476,1.04491,0.9043,1.30781c0.3271,0.2009,0.7347,0.2898,1.2204,0.2705l0.1651,1.0098l0.878-0.1434      l-0.1654-1.0125c0.2932-0.0776,0.5595-0.1715,0.7668-0.301c0.3003-0.1878,0.5158-0.4349,0.6468-0.7413      c0.131-0.3062,0.1703-0.6185,0.1183-0.9366C24.8253,22.10219,24.7034,21.81959,24.5173,21.60529z" style="fill:#E6F4D0;"/></g><path d="M23.5281,26.62239c-0.0091,0-0.0183,0.0091-0.0275,0.0091     c-0.7886,0.2935-1.5681,0.6419-2.3383,1.04539c-2.7235,1.43051-5.4287,2.155-8.0421,2.155     c-1.0638,0-2.0175-0.12839-2.8152-0.29349c0.0917-0.2476,0.1375-0.5227,0.1375-0.7978c0-1.348-1.0821-2.43-2.4209-2.43v-7.7945     c1.0362,0,1.9257-0.6511,2.265-1.5681c1.6781,0.5318,3.4021,0.7886,5.1444,0.7886c1.7973,0,3.5671-0.2843,5.3094-0.8436h0.0184     h-0.0184c-1.6689,0.8253-2.7418,2.8702-2.5309,5.1352c0.2659,2.8152,2.4026,4.9151,4.7868,4.695     c0.1742-0.01831,0.3393-0.0458,0.5043-0.0917C23.5098,26.64069,23.519,26.64069,23.5281,26.62239" style="fill:#E6F4D0;"/><path d="M24.2342,26.37479c0.0184,0,0.0275,0,0.0367-0.0092c1.6873-0.8161,2.7602-2.8702,2.5493-5.1444     c-0.266-2.8152-2.4026-4.9151-4.7868-4.695c-0.1559,0.0183-0.3118,0.0458-0.4677,0.0825c-0.0091,0-0.0183,0-0.0275,0     l-0.0091,0.00919l0.0091-0.00919c0.0092,0,0.0184,0,0.0275,0c0.7795-0.2843,1.5406-0.6419,2.3017-1.0362     c2.7143-1.4305,5.4195-2.155,8.033-2.155c1.0545,0,1.9898,0.1192,2.7785,0.3026c-0.0642,0.2109-0.0917,0.431-0.0917,0.6603     c0,1.3388,1.082,2.4209,2.4209,2.4209v7.7945c-1.0821,0-1.9991,0.7152-2.3109,1.6964c-1.6598-0.5227-3.3654-0.7794-5.0985-0.7794     c-1.7973,0-3.5855,0.2843-5.3278,0.8528C24.2617,26.37479,24.2526,26.37479,24.2342,26.37479" style="fill:#E6F4D0;"/></g><g><g><g><path d="M11.2167,24.36349l1.5303,0.021c0.1524,0.0025,0.2676,0.0352,0.3467,0.0986       c0.0791,0.064,0.1182,0.1499,0.1172,0.2574c-0.002,0.0957-0.0352,0.1762-0.0996,0.2417       c-0.0645,0.0654-0.1602,0.0976-0.2891,0.09569l-2.1572-0.03029c-0.1465-0.002-0.2608-0.0439-0.3418-0.1265       c-0.0801-0.082-0.1201-0.1777-0.1192-0.2871c0.001-0.0708,0.0293-0.1636,0.0831-0.2793       c0.0546-0.1152,0.1132-0.206,0.1767-0.2715c0.2637-0.2661,0.5029-0.4941,0.7139-0.6836       c0.2109-0.1894,0.3623-0.3139,0.4531-0.373c0.1611-0.1108,0.2969-0.2231,0.4053-0.3364       c0.1074-0.1128,0.1904-0.2285,0.248-0.3482c0.0567-0.11911,0.086-0.2363,0.0879-0.3515       c0.001-0.125-0.0264-0.2373-0.0849-0.3374c-0.0577-0.09921-0.1377-0.1773-0.2393-0.2334       c-0.1016-0.0562-0.2139-0.085-0.335-0.0865c-0.2558-0.0039-0.459,0.106-0.6074,0.3282       c-0.0195,0.0293-0.0537,0.1093-0.1016,0.2397c-0.0478,0.1299-0.1015,0.23-0.1601,0.2993       c-0.0586,0.0699-0.1436,0.10349-0.2549,0.1021c-0.0976-0.0015-0.1787-0.0347-0.2422-0.1001       c-0.0635-0.0654-0.0947-0.1538-0.0928-0.2652c0.002-0.1347,0.0342-0.27531,0.0967-0.4209       c0.0625-0.1455,0.1553-0.2773,0.2774-0.3945c0.1211-0.1177,0.2754-0.21191,0.4609-0.2822       c0.1846-0.0713,0.4014-0.105,0.6494-0.1016c0.2989,0.0044,0.5537,0.0547,0.7627,0.15189       c0.1367,0.06441,0.2549,0.15181,0.3584,0.26271c0.1016,0.1108,0.1797,0.2387,0.2354,0.3828       c0.0556,0.14449,0.083,0.2944,0.081,0.4487c-0.0039,0.2422-0.0674,0.4614-0.1904,0.6582       c-0.1221,0.1968-0.2481,0.35059-0.374,0.461c-0.127,0.1103-0.3379,0.2841-0.6358,0.52       c-0.2978,0.2368-0.5019,0.4204-0.6133,0.5517C11.3154,24.22679,11.2665,24.28979,11.2167,24.36349z" style="fill:#A6BF86;"/><path d="M16.2665,23.01779c-0.0048,0.3203-0.0283,0.5957-0.0703,0.8262       c-0.042,0.23-0.1172,0.438-0.2256,0.624c-0.1367,0.229-0.3115,0.4043-0.5244,0.5264c-0.2119,0.122-0.4472,0.1811-0.705,0.1777       c-0.2969-0.0044-0.5625-0.0918-0.7959-0.26321c-0.2325-0.17139-0.4073-0.40669-0.5225-0.70509       c-0.0576-0.163-0.0996-0.3427-0.125-0.54c-0.0254-0.1968-0.0371-0.4092-0.0342-0.6377       c0.0039-0.2949,0.0235-0.561,0.0576-0.7969c0.0352-0.2358,0.0869-0.4384,0.1553-0.6079       c0.1191-0.2798,0.29-0.4917,0.5117-0.6357c0.2217-0.1445,0.4864-0.2153,0.791-0.211c0.2012,0.003,0.3829,0.0381,0.5459,0.1065       c0.1631,0.0674,0.3067,0.1655,0.4287,0.293c0.1221,0.1279,0.2256,0.2851,0.3086,0.4716       C16.207,21.97039,16.2744,22.42749,16.2665,23.01779z M15.4638,22.94799c0.0049-0.3579-0.0127-0.6504-0.0527-0.8784       c-0.0401-0.2285-0.1094-0.4019-0.209-0.5196c-0.1006-0.11711-0.2402-0.1772-0.4199-0.18011       c-0.2578-0.00349-0.4395,0.124-0.544,0.38231c-0.1035,0.2588-0.1592,0.65869-0.167,1.2002       c-0.0049,0.3672,0.0127,0.668,0.0518,0.9038c0.04,0.2349,0.1094,0.4131,0.21,0.53469       c0.0996,0.12151,0.2363,0.18361,0.4101,0.186c0.1797,0.00241,0.3213-0.05809,0.4248-0.18159       c0.1035-0.1236,0.1768-0.3013,0.2217-0.5332C15.4335,23.62959,15.458,23.32488,15.4638,22.94799z" style="fill:#A6BF86;"/></g></g><g><g><path d="M29.249,21.13499l1.5283,0.0674c0.1522,0.0068,0.2675,0.043,0.3446,0.1094       c0.0772,0.0654,0.1143,0.1523,0.1094,0.2597c-0.0048,0.0957-0.0401,0.1758-0.1065,0.2393       c-0.0663,0.0625-0.164,0.0918-0.2928,0.0859l-2.1563-0.0947c-0.1455-0.0068-0.2578-0.0518-0.3359-0.1357       c-0.0791-0.085-0.1152-0.1817-0.1104-0.2911c0.003-0.07131,0.0332-0.1631,0.0909-0.27631       c0.0576-0.11429,0.1201-0.20319,0.1855-0.26659c0.2705-0.2578,0.5156-0.4785,0.7334-0.6612       c0.2168-0.1836,0.3721-0.3037,0.4648-0.3603c0.1641-0.1055,0.3028-0.21291,0.4141-0.3233       c0.1113-0.1093,0.1982-0.22261,0.2588-0.3408c0.0615-0.1172,0.0937-0.2334,0.0986-0.3486       c0.0059-0.125-0.0185-0.2383-0.0742-0.3399c-0.0547-0.1015-0.1328-0.1806-0.2324-0.2402       c-0.1006-0.0596-0.2119-0.0918-0.333-0.0967c-0.2549-0.0117-0.461,0.0918-0.6172,0.30959       c-0.0205,0.02831-0.0576,0.10741-0.1094,0.23631c-0.0517,0.1289-0.1074,0.2266-0.168,0.2949       c-0.0615,0.0674-0.1474,0.0987-0.2578,0.09379c-0.0976-0.00389-0.1777-0.04-0.2392-0.10739       c-0.0615-0.0674-0.0899-0.1563-0.085-0.26661c0.0059-0.13479,0.043-0.27539,0.1094-0.419       c0.0674-0.14349,0.1641-0.27239,0.2891-0.38569c0.124-0.11431,0.2812-0.2031,0.4687-0.2686       c0.1875-0.0654,0.4063-0.0918,0.6533-0.081c0.2989,0.0127,0.5518,0.07129,0.7588,0.1748       c0.1338,0.0683,0.249,0.1592,0.3485,0.2724c0.0987,0.1143,0.1729,0.2442,0.2247,0.3897       c0.0517,0.1465,0.0742,0.2969,0.0673,0.4512c-0.0106,0.24219-0.081,0.4599-0.2099,0.6523       c-0.1289,0.1934-0.2587,0.3428-0.3876,0.4492c-0.1299,0.1065-0.3467,0.2735-0.6514,0.501       c-0.3056,0.2275-0.5137,0.4043-0.6289,0.5322C29.3525,21.00119,29.3017,21.06269,29.249,21.13499z" style="fill:#A6BF86;"/><path d="M34.3368,19.94259c-0.0137,0.3194-0.0459,0.5938-0.0948,0.82329       c-0.0488,0.22851-0.1308,0.43361-0.2441,0.61621c-0.1444,0.2246-0.3233,0.3955-0.5391,0.5107       c-0.2168,0.1152-0.4541,0.167-0.7119,0.1563c-0.2959-0.0137-0.5586-0.1094-0.7861-0.2871       c-0.2285-0.1778-0.3946-0.418-0.501-0.7207c-0.0537-0.1641-0.0898-0.3448-0.1093-0.543       c-0.0196-0.1973-0.0245-0.4102-0.0147-0.6387c0.0127-0.2949,0.04-0.5596,0.082-0.7949       c0.042-0.2344,0.0997-0.4346,0.1729-0.6026c0.1279-0.2753,0.3048-0.4824,0.5302-0.6201       c0.2266-0.1377,0.4922-0.2002,0.7959-0.1865c0.2012,0.0088,0.3828,0.0498,0.544,0.1221       c0.1611,0.0732,0.3017,0.1748,0.4189,0.3056c0.1182,0.1319,0.2168,0.292,0.2949,0.4815       C34.3085,18.89379,34.3631,19.35279,34.3368,19.94259z M33.537,19.84788c0.0156-0.35739,0.0068-0.65039-0.0264-0.87989       c-0.0321-0.2285-0.0977-0.4043-0.1934-0.5254c-0.0967-0.1201-0.2343-0.1846-0.414-0.1924       c-0.2569-0.0107-0.4424,0.1114-0.5547,0.3662c-0.1123,0.2549-0.1797,0.6534-0.203,1.1944       c-0.0168,0.3662-0.008,0.668,0.0243,0.9043c0.0332,0.2363,0.0977,0.416,0.1933,0.541c0.0967,0.125,0.2315,0.1904,0.4044,0.1982       c0.1796,0.0078,0.3232-0.0488,0.4296-0.1689c0.1074-0.1201,0.1865-0.2959,0.2384-0.5264       C33.4862,20.52859,33.5205,20.22479,33.537,19.84788z" style="fill:#A6BF86;"/></g></g></g></g></g></svg>