<?xml version="1.0" ?><svg style="enable-background:new 0 0 48 48;" version="1.1" viewBox="0 0 48 48" xml:space="preserve" xmlns="http://www.w3.org/2000/svg" xmlns:xlink="http://www.w3.org/1999/xlink"><g id="Icons"><g><ellipse cx="24.00005" cy="24" rx="15.25829" ry="15.25834" style="fill:#FFC601;" transform="matrix(0.00717 -0.99997 0.99997 0.00717 -0.17141 47.82736)"/><ellipse cx="24.0001" cy="24.00005" rx="12.34482" ry="12.34487" style="fill:#E09807;" transform="matrix(0.00717 -0.99997 0.99997 0.00717 -0.17139 47.82748)"/><g><path d="M25.14425,26.6978h-2.1681v-8.1713c-0.7922,0.74069-1.7258,1.2886-2.8009,1.6435v-1.9676     c0.5658-0.18521,1.1806-0.5363,1.8441-1.05321c0.6636-0.517,1.1189-1.12009,1.3658-1.80939h1.7591V26.6978z" style="fill:#AA6D0B;"/><g><path d="M20.61825,30.8863c0,0.106-0.0264,0.2202-0.0781,0.3433      c-0.0528,0.123-0.1338,0.2441-0.2461,0.3623c-0.1114,0.1186-0.2539,0.2148-0.4278,0.289      c-0.1738,0.0738-0.3759,0.1109-0.6074,0.1109c-0.1748,0-0.334-0.01661-0.4775-0.0498c-0.1436-0.0332-0.2735-0.085-0.3907-0.1553      c-0.1171-0.0703-0.2246-0.1626-0.3232-0.2773c-0.0869-0.104-0.1621-0.2207-0.2236-0.3501      c-0.0625-0.1289-0.1084-0.2666-0.1397-0.41311c-0.0312-0.14649-0.0459-0.30219-0.0459-0.46669      c0-0.2671,0.0381-0.5064,0.1162-0.7179c0.0782-0.2113,0.1895-0.392,0.334-0.54241c0.1455-0.15039,0.3145-0.26459,0.5098-0.34319      c0.1943-0.0782,0.4023-0.1177,0.623-0.1177c0.2686,0,0.5078,0.0537,0.7178,0.1606c0.21,0.1075,0.3701,0.2397,0.4824,0.3975      c0.1114,0.1582,0.168,0.3071,0.168,0.44779c0,0.07661-0.0274,0.14441-0.082,0.20361c-0.0547,0.059-0.1202,0.0883-0.1973,0.0883      c-0.0859,0-0.1504-0.0205-0.1934-0.061c-0.0429-0.041-0.0908-0.1113-0.1435-0.21091      c-0.0879-0.16459-0.1914-0.28759-0.3096-0.36919c-0.1182-0.0815-0.2646-0.122-0.4385-0.122      c-0.2763,0-0.4961,0.1049-0.6601,0.3144c-0.1631,0.21-0.2451,0.5082-0.2451,0.895c0,0.2577,0.0361,0.4726,0.1084,0.644      c0.0722,0.1714,0.1748,0.2993,0.3076,0.3843c0.1328,0.0844,0.289,0.1264,0.4668,0.1264c0.1933,0,0.3564-0.0478,0.4902-0.1435      c0.1338-0.0962,0.2344-0.2369,0.3027-0.42241c0.0284-0.08789,0.0645-0.15919,0.1065-0.21439      c0.042-0.0551,0.1103-0.0825,0.2041-0.0825c0.0801,0,0.1484,0.02789,0.206,0.084      C20.58895,30.734,20.61825,30.8033,20.61825,30.8863z" style="fill:#AA6D0B;"/><path d="M23.41025,29.1335h-1.5147v0.8154h1.3955c0.1026,0,0.1787,0.023,0.2295,0.0694      c0.0508,0.04589,0.0762,0.1063,0.0762,0.1821c0,0.0757-0.0254,0.1372-0.0752,0.1846c-0.0498,0.0473-0.127,0.0711-0.2305,0.0711      h-1.3955v0.9444h1.5674c0.1055,0,0.1856,0.0249,0.2383,0.07369c0.0537,0.04931,0.081,0.11431,0.081,0.19581      c0,0.0786-0.0273,0.1426-0.081,0.1914c-0.0527,0.0493-0.1328,0.0737-0.2383,0.0737h-1.8281      c-0.1465,0-0.252-0.0322-0.3154-0.0971c-0.0645-0.065-0.0967-0.1699-0.0967-0.315v-2.496c0-0.0966,0.0146-0.1754,0.0429-0.2364      c0.0284-0.06141,0.0743-0.1058,0.1348-0.1337c0.0615-0.0278,0.1397-0.042,0.2344-0.042h1.7754      c0.1074,0,0.1875,0.024,0.2392,0.07129c0.0518,0.04791,0.0782,0.10991,0.0782,0.187c0,0.07861-0.0264,0.14161-0.0782,0.189      C23.59775,29.1101,23.51765,29.1335,23.41025,29.1335z" style="fill:#AA6D0B;"/><path d="M25.19335,28.9616l1.2929,1.9565v-1.9746c0-0.1284,0.0274-0.2246,0.0831-0.289      c0.0546-0.064,0.1289-0.0962,0.2226-0.0962c0.0967,0,0.1729,0.0322,0.2285,0.0962c0.0557,0.0644,0.084,0.1606,0.084,0.289      v2.6113c0,0.2915-0.1211,0.437-0.3623,0.437c-0.0605,0-0.1152-0.0088-0.1631-0.0259c-0.0488-0.0176-0.0937-0.0449-0.1357-0.083      c-0.042-0.0376-0.0821-0.0815-0.1182-0.1323c-0.0361-0.0508-0.0723-0.1021-0.1084-0.1553l-1.2617-1.934v1.9452      c0,0.127-0.0293,0.2232-0.0879,0.2881c-0.0595,0.0645-0.1348,0.0972-0.2265,0.0972c-0.0958,0-0.1719-0.0327-0.2295-0.09861      c-0.0567-0.06549-0.086-0.16119-0.086-0.28669v-2.5614c0-0.1085,0.0127-0.1938,0.0361-0.25591      c0.0294-0.06779,0.0772-0.12359,0.1436-0.16659c0.0664-0.0428,0.1378-0.0643,0.2148-0.0643      c0.0606,0,0.1123,0.0098,0.1553,0.0293c0.043,0.02,0.0801,0.0464,0.1133,0.07959c0.0322,0.03321,0.0654,0.07621,0.0996,0.12891      C25.12205,28.8488,25.15715,28.904,25.19335,28.9616z" style="fill:#AA6D0B;"/><path d="M29.99705,29.1696h-0.7334v2.412c0,0.1392-0.0313,0.2422-0.0938,0.30959      c-0.0615,0.06691-0.1416,0.10061-0.2392,0.10061c-0.0996,0-0.1817-0.0342-0.2442-0.1021      c-0.0625-0.0678-0.0937-0.1704-0.0937-0.3081v-2.412h-0.7334c-0.1152,0-0.2002-0.025-0.2559-0.0757      c-0.0566-0.05071-0.084-0.1173-0.084-0.2003c0-0.0863,0.0284-0.1542,0.087-0.204c0.0586-0.0498,0.1425-0.0747,0.2529-0.0747      h2.1377c0.1162,0,0.2031,0.0259,0.2598,0.0772c0.0566,0.0513,0.0849,0.1185,0.0849,0.2015s-0.0293,0.14959-0.0869,0.2003      C30.19825,29.1446,30.11125,29.1696,29.99705,29.1696z" style="fill:#AA6D0B;"/></g></g></g></g></svg>