<?xml version="1.0" ?><svg style="enable-background:new 0 0 48 48;" version="1.1" viewBox="0 0 48 48" xml:space="preserve" xmlns="http://www.w3.org/2000/svg" xmlns:xlink="http://www.w3.org/1999/xlink"><g id="Icons"><g><g><path d="M33.27649,30.68048c-0.3756,0.3756-0.8618,0.7181-1.4252,1.0385     c-0.4309,0.2431-0.906,0.4751-1.4252,0.685c-0.453,0.1768-0.9281,0.3425-1.4363,0.4972     c-0.453,0.14359-0.928,0.2651-1.4252,0.3756c-0.464,0.1105-0.9391,0.2099-1.4252,0.2873     c-0.464,0.0884-0.9391,0.1546-1.4252,0.2099c-0.4862,0.0663-0.9833,0.1105-1.4915,0.1436     c-0.4972,0.04419-0.9944,0.0663-1.5026,0.0884c-0.3425,0.0111-0.685,0.0111-1.0385,0.0111c-0.1547,0-0.3094,0-0.453-0.0111     c-0.5082,0-1.0054-0.011-1.5026-0.04421c-0.5082-0.03309-1.0053-0.06629-1.4915-0.12149     c-0.5192-0.0442-1.0164-0.1105-1.5025-0.1878c-0.5082-0.0774-1.0054-0.1658-1.4915-0.2652     c-0.5193-0.1105-1.0165-0.2431-1.4915-0.3756c-0.5303-0.1437-1.0386-0.3094-1.5026-0.4862     c-0.5413-0.2099-1.0385-0.4419-1.4915-0.6739c-0.5966-0.3204-1.0938-0.6629-1.5025-1.0275     c-0.7403-0.6518-1.1491-1.381-1.1491-2.1433h0.0015v-2.41869l6.8609-3.0455l8.8322-1.2392l8.6745,3.53739l2.7038,2.61371     L33.27649,30.68048z" style="fill:#DB9A16;"/><path d="M15.70429,21.33368c-5.0429,0.7955-8.5995,2.7077-8.5995,4.9284     c0,0.7623,0.429,1.4906,1.1883,2.1425c0.4192,0.3646,0.9292,0.7071,1.5411,1.0275c0.4646,0.232,0.9746,0.464,1.5298,0.6739     c2.4931,0.917,5.9154,1.4915,9.6777,1.4915c3.7508,0,7.1731-0.5745,9.6889-1.5026l0.8094-1.8087l-0.4731-2.6362l-9.2603-4.5738     L15.70429,21.33368z" style="fill:#FCC69D;"/><path d="M15.70429,21.33368c-5.0429,0.7955-8.5995,2.7077-8.5995,4.9284     c0,0.7623,0.429,1.4906,1.1883,2.1425c0.4192,0.3646,0.9292,0.7071,1.5411,1.0275c0.4646,0.232,0.9746,0.464,1.5298,0.6739     c2.4931,0.917,5.9154,1.4915,9.6777,1.4915c3.7508,0,7.1731-0.5745,9.6889-1.5026l0.8094-1.8087l-0.4731-2.6362l-9.2603-4.5738     L15.70429,21.33368z" style="fill:#FFC601;"/><path d="M34.17419,28.12477l-0.9,2.56c-0.37,0.37-0.86,0.71-1.42,1.03c-0.04,0.02-0.08,0.05-0.12,0.07     c-0.01,0-0.01,0-0.01,0c-1.61-0.37-3.47-0.86-3.47-0.86c-4.35-0.33-10.67-3-13.75-6.33c-1.31-1.41-1.17-2.33-0.58-2.92     c0.57-0.13,1.16-0.24,1.78-0.34l6.1-0.26l5.77,2.85l3.9,1.59L34.17419,28.12477z" style="opacity:0.1;"/><path d="M15.79539,15.87318l-0.9621,2.2191l-0.0014-0.0006c-1.1734,2.7064,3.4524,7.313,10.3351,10.29709     c6.8827,2.984,13.4172,3.216,14.5906,0.50961l-0.0048-0.002l0.9622-2.2191" style="fill:#DB9A16;"/><ellipse cx="28.25516" cy="21.27522" rx="5.33902" ry="13.58045" style="fill:#FFC601;" transform="matrix(0.39778 -0.91748 0.91748 0.39778 -2.50381 38.7359)"/><g><path d="M9.69149,29.35438l0.0131,2.47c-0.4677-0.2485-0.8231-0.5-1.1631-0.76v-2.46      C8.87149,28.86438,9.25149,29.12438,9.69149,29.35438z" style="fill:#E4AC1D;"/><path d="M14.87149,31.04438v2.46c-0.21-0.04-0.42-0.08-0.63-0.12c-0.52-0.11-1.02-0.24-1.49-0.37      c-0.21-0.06-0.4099-0.12-0.61-0.18v-2.46C12.97149,30.63438,13.89149,30.86438,14.87149,31.04438z" style="fill:#E4AC1D;"/><path d="M11.03149,29.97398v2.4604c-0.2-0.0797-0.39-0.1593-0.58-0.249v-2.4604      C10.65239,29.82308,10.82809,29.88448,11.03149,29.97398z" style="fill:#E4AC1D;"/><path d="M24.01149,31.47438v2.38c-0.26,0.03-0.52,0.04-0.79,0.06c-0.44,0.04-0.8799,0.07-1.33,0.08      v-2.4068C22.61149,31.57758,23.32149,31.53438,24.01149,31.47438z" style="fill:#E4AC1D;"/><path d="M26.88149,31.10438v2.33c-0.25,0.04-0.49,0.09-0.74,0.13c-0.25,0.05-0.5,0.09-0.75,0.13      l-0.0172-2.3618C25.88439,31.27258,26.39149,31.19438,26.88149,31.10438z" style="fill:#E4AC1D;"/></g><g><path d="M17.24599,20.16598l-0.9203,2.2745c-0.3121-0.3582-0.5761-0.6859-0.7966-1.0343l0.9046-2.3091      C16.68089,19.44418,16.92079,19.81398,17.24599,20.16598z" style="fill:#E4AC1D;"/><path d="M21.37939,23.64128l-0.9233,2.2441c-0.1797-0.1159-0.351-0.2142-0.5307-0.33      c-0.4408-0.2971-0.8555-0.6051-1.2424-0.9019c-0.1722-0.1344-0.346-0.3044-0.5089-0.4351l0.9337-2.241      C19.77959,22.52977,20.53849,23.10677,21.37939,23.64128z" style="fill:#E4AC1D;"/><path d="M18.26969,21.23008l-0.8982,2.2843c-0.1555-0.1489-0.3264-0.2975-0.4689-0.4519l0.9175-2.2674      C17.96319,20.94977,18.11049,21.09048,18.26969,21.23008z" style="fill:#E4AC1D;"/><path d="M29.73919,27.49968l-0.9077,2.2352c-0.2523-0.0697-0.5145-0.1606-0.7723-0.2434      c-0.4228-0.1279-0.7945-0.2672-1.2154-0.4267l0.8877-2.25529C28.40269,27.07028,29.07709,27.29648,29.73919,27.49968z" style="fill:#E4AC1D;"/><path d="M32.54809,28.20088l-0.9418,2.221c-0.2467-0.0567-0.5121-0.1007-0.7588-0.1574      c-0.2505-0.0475-0.485-0.1174-0.7317-0.1741l0.9043-2.2321C31.51529,27.99398,32.06019,28.10058,32.54809,28.20088z" style="fill:#E4AC1D;"/></g></g><g><g><g><path d="M23.83879,20.11458l-0.7192,0.4818l-3.5035-1.7949c0.3098-0.16271,0.6813-0.277,1.1144-0.3429       c0.4331-0.0659,1.1306-0.0902,2.0926-0.0731c0.7756,0.013,1.2723,0.0068,1.49-0.0185       c0.2974-0.0366,0.5241-0.1072,0.6803-0.2118c0.1727-0.1157,0.2455-0.2353,0.2185-0.3588       c-0.0269-0.1235-0.1459-0.2393-0.357-0.3474c-0.2087-0.1069-0.4233-0.1594-0.644-0.1573       c-0.2207,0.00209-0.4535,0.0739-0.6984,0.2156l-0.9187-0.5619c0.4854-0.2552,0.9774-0.3647,1.476-0.3287       c0.4985,0.036,0.9826,0.1743,1.4521,0.4149c0.5145,0.2636,0.8113,0.5427,0.8904,0.8373       c0.0791,0.2947-0.0411,0.5491-0.3608,0.7632c-0.1818,0.1219-0.3971,0.2163-0.6457,0.2833       c-0.2485,0.067-0.5542,0.1141-0.9168,0.1412c-0.2403,0.018-0.6302,0.0213-1.1697,0.0099       c-0.5395-0.0114-0.8881-0.0141-1.0457-0.0079c-0.1577,0.0061-0.2975,0.0191-0.4195,0.03919L23.83879,20.11458z" style="fill:#D19D0B;"/><path d="M24.50339,20.29228l1.0759,0.4566c-0.1461,0.1315-0.2002,0.2673-0.1622,0.4072       c0.0379,0.14,0.1482,0.2568,0.3308,0.3503c0.2087,0.1069,0.451,0.15339,0.727,0.1395c0.276-0.0139,0.5462-0.1094,0.8108-0.2867       c0.248-0.1661,0.3622-0.3275,0.3428-0.484c-0.0195-0.1566-0.1442-0.2938-0.3742-0.4116       c-0.2869-0.147-0.6425-0.213-1.0667-0.1979l-0.72-0.4764l2.6146-1.1462l2.6428,1.3539l-0.7247,0.4855l-1.8852-0.9658       l-0.8426,0.3796c0.3092,0.0563,0.58,0.144,0.8124,0.2631c0.4435,0.2271,0.6944,0.5034,0.7528,0.8287       c0.0584,0.3253-0.1117,0.6215-0.5103,0.8885c-0.3325,0.2228-0.7537,0.3578-1.2635,0.405       c-0.6955,0.0651-1.3444-0.0567-1.9467-0.3653c-0.4813-0.2466-0.7737-0.5147-0.8769-0.8043       C24.13699,20.82228,24.22469,20.54908,24.50339,20.29228z" style="fill:#D19D0B;"/></g></g><path d="M34.21599,22.59848l0.5679-0.2664l-0.5177-0.2567l-0.5265,0.24439     c-0.0231-0.01259-0.041-0.025-0.0644-0.03769c-0.9797-0.5231-1.8482-0.8285-2.5996-0.9087     c-0.4982-0.055-0.8859-0.00261-1.17,0.1559c-0.2764,0.1539-0.4515,0.4318-0.4958,0.717     c-0.0552,0.3137,0.0997,0.6442,0.3045,0.9294l0.1123,0.1507c0.1523,0.188,0.3434,0.3719,0.5521,0.5539l-0.8617,0.4001     l0.5186,0.2793l0.7498-0.3518c0.3242,0.2378,0.6915,0.4704,1.1147,0.6954c0.5483,0.2914,1.0541,0.5132,1.5193,0.6536     l0.3402-0.5333c-0.4539-0.0585-0.9859-0.24881-1.5952-0.5767c-0.3124-0.167-0.5674-0.3412-0.7761-0.5218l2.2513-1.0562     c0.3522,0.2093,0.6113,0.411,0.7747,0.6055l0.5929-0.33661C34.78519,22.95868,34.51209,22.77898,34.21599,22.59848z      M30.87519,23.09138c-0.0107-0.5961,0.4827-0.7869,0.4827-0.7869c0.1489-0.0749,0.3423-0.0981,0.5747-0.0831     c0.356,0.0323,0.7596,0.1596,1.2044,0.3782l-2.0889,0.9699C30.93429,23.41458,30.87569,23.25338,30.87519,23.09138z" style="fill:#D19D0B;"/></g></g></g></svg>