<?xml version="1.0" ?><svg style="enable-background:new 0 0 48 48;" version="1.1" viewBox="0 0 48 48" xml:space="preserve" xmlns="http://www.w3.org/2000/svg" xmlns:xlink="http://www.w3.org/1999/xlink"><g id="Icons"><g><g><path d="M6.69085,16.2189c0-0.3253,0.3479-0.5337,0.6309-0.3734     c2.0938,1.18549,9.0646,4.6466,17.4523,0.2296c8.2699-4.355,14.32-1.9426,16.0388-1.0626     c0.3079,0.1576,0.4963,0.4717,0.4963,0.8176v15.951c0,0.3253-0.3478,0.5337-0.6309,0.3734     c-2.0938-1.18551-9.0646-4.6466-17.4522-0.2296c-8.2792,4.3548-14.3224,1.9428-16.0394,1.0628     c-0.3076-0.15771-0.4957-0.47171-0.4957-0.8174L6.69085,16.2189z" style="fill:#A6BF86;"/><g><path d="M26.18365,23.9782c-0.2034-0.234-0.4591-0.4024-0.7679-0.50621      c-0.3088-0.10349-0.7714-0.177-1.3877-0.22029c-0.6162-0.0436-1.0119-0.1172-1.1867-0.2218      c-0.1376-0.0818-0.2181-0.1944-0.2414-0.3375c-0.0257-0.1571,0.0183-0.2929,0.1324-0.4076      c0.1766-0.1786,0.4421-0.2969,0.7965-0.35481c0.3431-0.05609,0.6117-0.02989,0.8057,0.07831      c0.194,0.1081,0.3425,0.3133,0.4453,0.6159l1.2109-0.253c-0.1102-0.5529-0.3839-0.9645-0.8213-1.2348      c-0.3316-0.2049-0.7557-0.2956-1.271-0.2742l-0.1931-1.1818l-0.9575,0.1565l0.194,1.1874      c-0.2703,0.0765-0.519,0.1691-0.7203,0.2969c-0.3052,0.1942-0.5231,0.4394-0.6538,0.7363      c-0.1306,0.2969-0.1704,0.5997-0.1201,0.9077c0.0783,0.4791,0.3301,0.8549,0.7551,1.1272      c0.3024,0.1938,0.7938,0.3183,1.474,0.3739c0.5287,0.0435,0.8685,0.0785,1.0197,0.10469      c0.2206,0.04011,0.3814,0.10381,0.4814,0.19051c0.1002,0.0866,0.1622,0.2016,0.1856,0.3447      c0.0364,0.22279-0.0315,0.434-0.2035,0.6329c-0.1719,0.1993-0.4541,0.33089-0.8468,0.3951      c-0.3709,0.0606-0.6808,0.0152-0.9299-0.1364c-0.2487-0.1514-0.4416-0.421-0.5782-0.8083l-1.1677,0.3096      c0.1905,0.66389,0.5191,1.1395,0.9861,1.4261c0.3567,0.2191,0.8012,0.3161,1.3309,0.295l0.18,1.1012l0.9575-0.15641      l-0.1804-1.10409c0.3198-0.0846,0.6102-0.187,0.8362-0.3282c0.3275-0.2048,0.5625-0.4743,0.7054-0.8084      c0.1428-0.334,0.1857-0.6745,0.129-1.0214C26.51955,24.5201,26.38665,24.2119,26.18365,23.9782z" style="fill:#E6F4D0;"/></g><path d="M25.10495,29.4494c-0.01,0-0.02,0.01-0.03,0.01c-0.86,0.32-1.71,0.7-2.55,1.14     c-2.97,1.56-5.92,2.35-8.77,2.35c-1.16,0-2.2-0.14-3.07-0.32c0.1-0.27,0.15-0.57,0.15-0.87c0-1.47-1.18-2.65-2.64-2.65v-8.5     c1.13,0,2.1-0.71,2.47-1.71c1.83,0.58,3.71,0.86,5.61,0.86c1.96,0,3.89-0.31,5.79-0.92h0.02h-0.02c-1.82,0.9-2.99,3.13-2.76,5.6     c0.29,3.07,2.62,5.36,5.22,5.12c0.19-0.02,0.37-0.05,0.55-0.1C25.08495,29.4694,25.09495,29.4694,25.10495,29.4494" style="fill:#E6F4D0;"/><path d="M25.87495,29.1794c0.02,0,0.03,0,0.04-0.01c1.84-0.89,3.01-3.13,2.78-5.61     c-0.29-3.07-2.62-5.36-5.22-5.12c-0.17,0.02-0.34,0.05-0.51,0.09c-0.01,0-0.02,0-0.03,0l-0.01,0.01l0.01-0.01     c0.01,0,0.02,0,0.03,0c0.85-0.31,1.68-0.7,2.51-1.13c2.96-1.56,5.91-2.35,8.76-2.35c1.15,0,2.17,0.13,3.03,0.33     c-0.07,0.23-0.1,0.47-0.1,0.72c0,1.46,1.18,2.64,2.64,2.64v8.5c-1.18,0-2.18,0.78-2.52,1.85c-1.81-0.57-3.67-0.85-5.56-0.85     c-1.96,0-3.91,0.31-5.81,0.93C25.90495,29.1794,25.89495,29.1794,25.87495,29.1794" style="fill:#E6F4D0;"/></g><g><g><g><path d="M11.83255,27.1122h1.7002c0.1689,0,0.2988,0.0347,0.3877,0.104       c0.0889,0.0699,0.1338,0.1641,0.1338,0.2837c0,0.1065-0.0361,0.1963-0.1065,0.27c-0.0703,0.0738-0.1777,0.1109-0.3203,0.1109       h-2.3974c-0.1631,0-0.2901-0.0449-0.3809-0.1353c-0.0908-0.0898-0.1367-0.1958-0.1367-0.3174       c0-0.07811,0.0293-0.1816,0.0879-0.311c0.0586-0.1294,0.122-0.2309,0.1924-0.3047c0.288-0.2993,0.5488-0.5561,0.7812-0.77       s0.3984-0.3545,0.4981-0.4219c0.1787-0.1259,0.3261-0.2524,0.4453-0.3794c0.1181-0.1269,0.208-0.2573,0.2695-0.3906       c0.0625-0.1338,0.0928-0.2646,0.0928-0.3926c0-0.1391-0.0332-0.2631-0.0987-0.373c-0.0664-0.1094-0.1562-0.1948-0.2705-0.2554       c-0.1142-0.061-0.2382-0.0913-0.373-0.0913c-0.2842,0-0.5078,0.125-0.6709,0.3745c-0.0215,0.0327-0.0586,0.1216-0.1094,0.2671       s-0.1084,0.2573-0.1719,0.3355c-0.0644,0.0781-0.1582,0.1171-0.2822,0.1171c-0.1084,0-0.1982-0.0356-0.2705-0.10741       c-0.0713-0.07179-0.1074-0.16939-0.1074-0.29289c0-0.1499,0.0342-0.3062,0.1015-0.4693       c0.0665-0.1626,0.167-0.3105,0.3008-0.4429c0.1338-0.1323,0.3028-0.2392,0.5078-0.3208       c0.2051-0.0815,0.4463-0.122,0.7217-0.122c0.3321,0,0.6153,0.0522,0.8496,0.1562c0.1524,0.0694,0.2862,0.1651,0.4014,0.2866       c0.1143,0.1216,0.2041,0.2623,0.2686,0.4219c0.0634,0.1597,0.0957,0.32519,0.0957,0.4966c0,0.269-0.0665,0.5142-0.2002,0.7344       c-0.1338,0.22019-0.2696,0.393-0.4082,0.5176c-0.1397,0.125-0.3721,0.3208-0.6993,0.5878       c-0.3261,0.2671-0.5507,0.4747-0.6728,0.6221C11.93995,26.9589,11.88725,27.0297,11.83255,27.1122z" style="fill:#A6BF86;"/><path d="M17.42145,25.53899c0,0.35641-0.0215,0.66261-0.0655,0.91841       c-0.0429,0.2564-0.123,0.4888-0.2402,0.6973c-0.1484,0.2559-0.3389,0.4536-0.5732,0.5928       c-0.2344,0.1387-0.4952,0.208-0.7823,0.208c-0.33,0-0.6259-0.0933-0.8867-0.2798c-0.2617-0.187-0.459-0.4453-0.5918-0.7754       c-0.0674-0.1802-0.1162-0.3794-0.1474-0.5976c-0.0323-0.2178-0.0479-0.4541-0.0479-0.708c0-0.3282,0.0176-0.6231,0.0527-0.8858       c0.0342-0.2627,0.0889-0.4888,0.1622-0.6777c0.1279-0.3125,0.3144-0.5508,0.5585-0.7149       c0.2442-0.164,0.5362-0.2456,0.875-0.2456c0.2237,0,0.4268,0.0362,0.6084,0.1089c0.1827,0.0728,0.3428,0.1792,0.4805,0.3193       c0.1377,0.1397,0.2549,0.313,0.3506,0.51909C17.33935,24.3764,17.42145,24.8832,17.42145,25.53899z M16.52885,25.47399       c0-0.39739-0.0234-0.72259-0.0713-0.97549c-0.0478-0.253-0.1279-0.4439-0.2412-0.5733       c-0.1123-0.1289-0.2686-0.1933-0.4688-0.1933c-0.2861,0-0.4853,0.144-0.5976,0.43309       c-0.1123,0.28851-0.168,0.73391-0.168,1.33491c0,0.4082,0.0244,0.7427,0.0723,1.0034       c0.0478,0.2603,0.1279,0.4576,0.2402,0.5909c0.1133,0.13379,0.2666,0.2002,0.46,0.2002c0.1992,0,0.3554-0.06941,0.4687-0.208       c0.1123-0.1392,0.1924-0.3379,0.2373-0.5962C16.50635,26.2319,16.52885,25.89299,16.52885,25.47399z" style="fill:#A6BF86;"/></g></g><g><g><path d="M31.89115,23.7704l1.7002,0.0235c0.1689,0.0029,0.2988,0.039,0.3867,0.1093       c0.0879,0.0713,0.1309,0.1661,0.1299,0.2862c-0.002,0.1054-0.0391,0.1953-0.1104,0.26759       c-0.0712,0.07321-0.1796,0.10841-0.3222,0.10641l-2.3975-0.0332c-0.1631-0.002-0.289-0.0488-0.3789-0.1406       c-0.0898-0.0908-0.1338-0.1983-0.1318-0.3194c0.001-0.0781,0.0312-0.1806,0.0918-0.3095       c0.0605-0.128,0.125-0.2295,0.1963-0.3018c0.2929-0.29491,0.5566-0.5488,0.792-0.7588       c0.2353-0.2109,0.4033-0.3496,0.5039-0.415c0.1806-0.124,0.33-0.24811,0.4511-0.37311       c0.1201-0.12589,0.211-0.25479,0.2744-0.38769c0.0645-0.1328,0.0967-0.2627,0.0987-0.3906       c0.0019-0.1396-0.0293-0.26371-0.0938-0.375c-0.0644-0.1103-0.1533-0.1963-0.2666-0.2588s-0.2373-0.0947-0.372-0.0967       c-0.2842-0.0039-0.5098,0.1182-0.6758,0.3653c-0.0225,0.0322-0.0606,0.1211-0.1133,0.2656       c-0.0527,0.1445-0.1123,0.25589-0.1768,0.333c-0.0654,0.0772-0.1591,0.1152-0.2832,0.1133       c-0.1084-0.002-0.1982-0.0381-0.2695-0.1113c-0.0703-0.0723-0.1045-0.1709-0.1035-0.294       c0.0019-0.1504,0.039-0.3056,0.1084-0.4678c0.0683-0.1621,0.1709-0.3085,0.3066-0.4394       c0.1358-0.12991,0.3067-0.2344,0.5127-0.3135c0.2061-0.0781,0.4483-0.1152,0.7237-0.1123       c0.332,0.00489,0.6142,0.0615,0.8466,0.169c0.1514,0.0712,0.2842,0.16889,0.3975,0.292       c0.1133,0.123,0.2012,0.2646,0.2627,0.4257c0.0615,0.16019,0.0918,0.32619,0.0889,0.4981       c-0.0039,0.2685-0.0733,0.5127-0.21,0.7314c-0.1367,0.2178-0.2754,0.38869-0.416,0.51169       c-0.1406,0.12311-0.376,0.31551-0.7071,0.57821c-0.33,0.2627-0.5576,0.46679-0.6816,0.6123       C32.00055,23.6191,31.94685,23.6884,31.89115,23.7704z" style="fill:#A6BF86;"/><path d="M37.50245,22.2753c-0.0058,0.3565-0.0312,0.6621-0.0791,0.917       c-0.0459,0.2559-0.1299,0.4873-0.25,0.6943c-0.1513,0.254-0.3447,0.4483-0.581,0.584       c-0.2364,0.1358-0.4981,0.2012-0.7852,0.1973c-0.3301-0.00491-0.625-0.1016-0.8828-0.292       c-0.2588-0.1904-0.4531-0.4512-0.5811-0.7832c-0.0644-0.18071-0.1103-0.3809-0.1386-0.5996       c-0.0293-0.2188-0.042-0.45511-0.0381-0.709c0.0039-0.32811,0.0264-0.623,0.0644-0.8848       c0.0381-0.2627,0.0957-0.48731,0.1719-0.6757c0.1328-0.31061,0.3223-0.5459,0.5684-0.7071       c0.247-0.1601,0.54-0.2383,0.8789-0.2334c0.2236,0.003,0.4258,0.042,0.6064,0.1172c0.1817,0.0762,0.3408,0.1846,0.4766,0.3262       c0.1357,0.1416,0.25,0.3164,0.3428,0.5244C37.43605,21.1113,37.51125,21.6191,37.50245,22.2753z M36.60985,22.1982       c0.0059-0.3975-0.0126-0.7237-0.0576-0.9766c-0.0439-0.2539-0.1211-0.4463-0.2324-0.5771       c-0.1113-0.1309-0.2666-0.1973-0.4668-0.2002c-0.2861-0.0039-0.4873,0.13769-0.6035,0.4248       c-0.1162,0.2871-0.1777,0.7314-0.1865,1.333c-0.0059,0.4082,0.0136,0.7431,0.0586,1.00489       c0.0439,0.26071,0.1211,0.45891,0.2314,0.59371c0.1113,0.1357,0.2637,0.2041,0.457,0.207       c0.1993,0.002,0.3565-0.0644,0.4717-0.2021c0.1143-0.1377,0.1973-0.335,0.2461-0.5928       C36.57765,22.95499,36.60405,22.6171,36.60985,22.1982z" style="fill:#A6BF86;"/></g></g></g></g></g></svg>