<?xml version="1.0" ?><svg style="enable-background:new 0 0 48 48;" version="1.1" viewBox="0 0 48 48" xml:space="preserve" xmlns="http://www.w3.org/2000/svg" xmlns:xlink="http://www.w3.org/1999/xlink"><g id="Icons"><g><path d="M35.4131,30.71371v1.8199l0.0008,0.0034c0,0.23-0.05,0.45-0.15,0.67    c-0.24,0.59-0.83,1.14-1.67,1.61c-0.32,0.19-0.68,0.36-1.07,0.52c-0.33,0.13-0.69,0.26-1.08,0.37c-0.34,0.11-0.7,0.2-1.07,0.29    c-0.35,0.08-0.71,0.15-1.08,0.21c-0.35,0.06-0.7,0.12-1.07,0.16c-0.37,0.05-0.74,0.08-1.12,0.11c-0.37,0.03-0.75,0.05-1.13,0.06    c-0.5669,0.0149-1.1349,0.0089-1.7017-0.008c-0.6387-0.019-1.275-0.0803-1.9107-0.1423    c-0.3005-0.0293-0.5998-0.0701-0.8976-0.1197c-0.39-0.06-0.76-0.12-1.12-0.2c-0.39-0.08-0.76-0.17-1.12-0.27    c-0.4-0.11-0.78-0.24-1.13-0.37c-0.41-0.16-0.78-0.33-1.12-0.51c-0.94-0.49-1.59-1.07-1.85-1.71c-0.1-0.22-0.15-0.44-0.15-0.67    v-1.82" style="fill:#DB9A16;"/><path d="M15.3483,29.6356c-0.2439,0.3441-0.3744,0.7067-0.3744,1.0814c0,0.56,0.29,1.1,0.82,1.58    c0.02,0.01,0.03,0.03,0.05,0.04c0.3,0.27,0.69,0.53,1.13,0.76c0.34,0.18,0.71,0.35,1.12,0.51c1.83,0.69,4.34,1.12,7.1,1.12    c2.88,0,5.48-0.47,7.33-1.21c0.87-0.36,1.57-0.77,2.07-1.22c0.02-0.02,0.05-0.05,0.07-0.07c0.48-0.46,0.75-0.97,0.75-1.51    c0-0.13881-0.0179-0.2759-0.0528-0.411c0,0-0.0637-0.485-0.2667-0.756" style="fill:#FFC601;"/><path d="M35.4131,26.7333v1.82l0.0008,0.0034c0,0.23-0.05,0.45-0.15,0.67c-0.24,0.59-0.83,1.14-1.67,1.61    c-0.32,0.19-0.68,0.36-1.07,0.52c-0.33,0.13-0.69,0.26-1.08,0.37c-0.34,0.11-0.7,0.2-1.07,0.29c-0.35,0.08-0.71,0.15-1.08,0.21    c-0.35,0.06-0.7,0.12-1.07,0.16c-0.37,0.05-0.74,0.08-1.12,0.11c-0.37,0.03-0.75,0.05-1.13,0.06    c-0.5669,0.0149-1.1349,0.0089-1.7017-0.008c-0.6387-0.0191-1.275-0.0804-1.9107-0.1423    c-0.3005-0.0293-0.5998-0.0701-0.8976-0.1197c-0.39-0.06-0.76-0.12-1.12-0.2c-0.39-0.08-0.76-0.17-1.12-0.27    c-0.4-0.11-0.78-0.24-1.13-0.37c-0.41-0.16-0.78-0.33-1.12-0.51c-0.94-0.49-1.59-1.07-1.85-1.71c-0.1-0.22-0.15-0.44-0.15-0.67    v-1.82" style="fill:#DB9A16;"/><path d="M35.3611,26.32561c0.0349,0.1352,0.0528,0.2723,0.0528,0.411c0,0.5401-0.27,1.0501-0.75,1.51    c-0.02,0.0201-0.05,0.05-0.07,0.07c-0.5,0.4501-1.2,0.86-2.07,1.2201c-1.85,0.74-4.45,1.2099-7.33,1.2099    c-2.76,0-5.27-0.43-7.1-1.12c-0.41-0.1599-0.78-0.33-1.12-0.51c-0.44-0.2299-0.83-0.49-1.13-0.76    c-0.02-0.0099-0.03-0.0299-0.05-0.04c-0.53-0.4799-0.82-1.02-0.82-1.58c0-0.555,0.2863-1.0837,0.8038-1.5646" style="fill:#FFC601;"/><path d="M36.1924,22.92801v1.8199l0.0008,0.0034c0,0.23-0.05,0.45-0.15,0.67    c-0.24,0.59-0.83,1.14-1.67,1.61c-0.32,0.19-0.68,0.36-1.07,0.52c-0.33,0.13-0.69,0.26-1.08,0.37c-0.34,0.11-0.7,0.2-1.07,0.29    c-0.35,0.08-0.71,0.15-1.08,0.21c-0.35,0.06-0.7,0.12-1.07,0.16c-0.37,0.05-0.74,0.08-1.12,0.11c-0.37,0.03-0.75,0.05-1.13,0.06    c-0.5669,0.01489-1.1349,0.00889-1.7017-0.0079c-0.6387-0.0191-1.2751-0.0804-1.9107-0.1423    c-0.3005-0.0293-0.5998-0.0701-0.8976-0.1198c-0.39-0.06-0.76-0.12-1.12-0.2c-0.39-0.08-0.76-0.17-1.12-0.27    c-0.4-0.11-0.78-0.24-1.13-0.37c-0.41-0.16-0.78-0.33-1.12-0.51c-0.94-0.49-1.59-1.07-1.85-1.71c-0.1-0.22-0.15-0.44-0.15-0.67    v-0.9932" style="fill:#DB9A16;"/><path d="M16.0269,23.8625c0.1351,0.2253,0.3185,0.4426,0.5462,0.6488    c0.0201,0.01,0.0301,0.0301,0.0501,0.04c0.3,0.27,0.69,0.53,1.13,0.76c0.34,0.18,0.71,0.3501,1.12,0.51    c1.8299,0.69,4.34,1.12,7.1,1.12c2.88,0,5.4799-0.4699,7.33-1.2099c0.87-0.3601,1.57-0.7701,2.07-1.2201    c0.0199-0.02,0.05-0.05,0.07-0.07c0.48-0.4599,0.75-0.9699,0.75-1.51c0-1.167-1.2657-2.218-3.2857-2.9524l-1.7547-0.4945    l-9.496,1.4146L16.0269,23.8625z" style="fill:#FFC601;"/><path d="M34.5995,23.0608c-0.8,0.78-1.88,1.27-2.94,1.59c-2.14,0.64-4.45,0.69-6.67,0.57    c-2.08-0.1-4.15-0.39-6.2-0.77c-0.91-0.18-1.83-0.36-2.73-0.6l0.01-0.01l5.59-2.94l9.49-1.42l1.76,0.5    c0.9,0.32,1.65,0.72,2.21,1.15C35.3195,21.76081,35.1995,22.46081,34.5995,23.0608z" style="opacity:0.1;"/><path d="M11.8068,18.7702v1.82c0,0.23,0.05,0.45,0.15,0.67c0.26,0.64,0.91,1.22,1.85,1.71    c0.34,0.18,0.71,0.35,1.12,0.51c0.35,0.13,0.73,0.26,1.13,0.37c0.36,0.1,0.73,0.19,1.12,0.27c0.36,0.08,0.73,0.14,1.12,0.2    c0.2978,0.04961,0.5971,0.09041,0.8976,0.11971c0.6357,0.062,1.272,0.12329,1.9107,0.14229    c0.5668,0.01691,1.1348,0.02291,1.7017,0.008c0.38-0.01,0.76-0.03,1.13-0.06c0.38-0.03,0.75-0.06,1.12-0.11    c0.37-0.04,0.72-0.1,1.07-0.16c0.37-0.06,0.73-0.13,1.08-0.21c0.37-0.09,0.73-0.18,1.07-0.29c0.39-0.11,0.75-0.24,1.08-0.37    c0.39-0.16,0.75-0.33,1.07-0.52c0.84-0.47,1.43-1.02,1.67-1.61c0.1-0.22,0.15-0.44,0.15-0.67V20.2005" style="fill:#DB9A16;"/><path d="M31.5018,20.2732v0.01c-0.02,0.02-0.06,0.05-0.07,0.07h-0.01c-0.07,0.07-0.13,0.12-0.2,0.17    c0,0.01-0.01,0.01-0.01,0.01c-0.23,0.18-0.49,0.36-0.78,0.53c-0.32,0.17-0.68,0.35-1.07,0.51c-1.86,0.74-4.46,1.21-7.34,1.21    c-2.76,0-5.27-0.43-7.09-1.12h-0.01c-0.42-0.16-0.78-0.33-1.11-0.51h-0.01c-0.44-0.23-0.82-0.49-1.12-0.76c0,0-0.01,0-0.01-0.01    c-0.02-0.01-0.03-0.02-0.05-0.03c-0.52-0.48-0.81-1.02-0.81-1.58c0-1.14,1.21-2.18,3.16-2.9c0.01-0.01,0.03-0.02,0.04-0.02" style="fill:#FFC601;"/><g><path d="M35.4131,15.47111v1.8199l0.0008,0.0034c0,0.23-0.05,0.45-0.15,0.67     c-0.24,0.59-0.83,1.14-1.67,1.61c-0.32,0.19-0.68,0.36-1.07,0.52c-0.33,0.13-0.69,0.26-1.08,0.37c-0.34,0.11-0.7,0.2-1.07,0.29     c-0.35,0.08-0.71,0.15-1.08,0.21c-0.35,0.06-0.7,0.12-1.07,0.16c-0.37,0.05-0.74,0.08-1.12,0.11c-0.37,0.03-0.75,0.05-1.13,0.06     c-0.5669,0.0149-1.1349,0.009-1.7017-0.0079c-0.6387-0.0191-1.275-0.0804-1.9107-0.14231     c-0.3005-0.02929-0.5998-0.07009-0.8976-0.11979c-0.39-0.06-0.76-0.12-1.12-0.2c-0.39-0.08-0.76-0.17-1.12-0.27     c-0.4-0.11-0.78-0.24-1.13-0.37c-0.41-0.16-0.78-0.33-1.12-0.51c-0.94-0.49-1.59-1.07-1.85-1.71c-0.1-0.22-0.15-0.44-0.15-0.67     v-1.82" style="fill:#DB9A16;"/><path d="M35.4139,15.47441c0,0.5401-0.27,1.0501-0.75,1.51c-0.02,0.0201-0.05,0.05-0.07,0.07     c-0.5,0.4501-1.2,0.86-2.07,1.2201c-1.85,0.74-4.45,1.2099-7.33,1.2099c-2.76,0-5.27-0.43-7.1-1.12     c-0.41-0.1599-0.78-0.33-1.12-0.51c-0.44-0.2299-0.83-0.49-1.13-0.76c-0.02-0.0099-0.03-0.0299-0.05-0.04     c-0.53-0.4799-0.82-1.02-0.82-1.58c0-2.2199,4.58-4.0199,10.22-4.0199S35.4139,13.25451,35.4139,15.47441z" style="fill:#FFC601;"/></g><g><g><g><g><path d="M22.142,17.1816h-0.9228l1.2775-3.0531c-0.4525,0.2766-0.9354,0.4812-1.4488,0.6138        l0.3075-0.735c0.2704-0.0694,0.5864-0.2003,0.9494-0.3935c0.3629-0.1932,0.651-0.4188,0.864-0.6761h0.7489L22.142,17.1816z" style="fill:#D19D0B;"/></g></g><path d="M26.5995,16.5864l0.7242-2.1596c0.4114,0.0152,0.7389,0.0735,0.9673,0.1768l0.2783-0.6008      c-0.3088-0.0698-0.6702-0.1039-1.0636-0.1187l0.1536-0.45791h-0.5574l-0.152,0.45321      c-0.8533,0.0231-1.5569,0.1614-2.0997,0.4269c-0.3984,0.1961-0.6578,0.4365-0.7906,0.7274c0,0-0.2214,0.4934-0.0126,0.9677      c0.1265,0.291,0.3921,0.5377,0.7969,0.7401c0.3006,0.1486,0.6471,0.2582,1.0352,0.3309l-0.1902,0.5672h0.5574l0.1657-0.4942      c0.2214,0.0205,0.4523,0.0325,0.6963,0.0325c0.5439,0,1.0183-0.0506,1.4294-0.1455v-0.6641      c-0.3606,0.1708-0.8412,0.253-1.4421,0.253C26.9168,16.62131,26.7543,16.60719,26.5995,16.5864z M25.8685,16.36831      c-0.1644-0.0886-0.2846-0.215-0.3668-0.3669c-0.272-0.4933-0.0063-0.9677-0.0063-0.9677      c0.0759-0.1454,0.2024-0.2656,0.3795-0.36051c0.2391-0.12909,0.5365-0.20729,0.8886-0.23789l-0.6802,2.0283      C26.0079,16.4352,25.9348,16.4048,25.8685,16.36831z" style="fill:#D19D0B;"/></g></g><g><path d="M17.1695,17.95081v1.82c-0.07-0.03-0.14-0.07-0.2-0.1c-0.36-0.19-0.68-0.39-0.95-0.61v-1.82     c0.27,0.22,0.59,0.42,0.95,0.61C17.0295,17.88081,17.0995,17.9208,17.1695,17.95081z" style="fill:#E4AC1D;"/><path d="M22.3495,19.3208v1.82c-0.3-0.03-0.59-0.07-0.89-0.12c-0.39-0.06-0.76-0.12-1.12-0.2     c-0.25-0.05-0.49-0.11-0.72-0.17v-1.81C20.4495,19.0508,21.3695,19.21081,22.3495,19.3208z" style="fill:#E4AC1D;"/><path d="M18.5095,18.51081v1.82c-0.14-0.05-0.28-0.1-0.42-0.15c-0.06-0.02-0.11-0.04-0.16-0.07v-1.82     c0.05,0.03,0.1,0.05,0.16,0.07C18.2295,18.4108,18.3695,18.46081,18.5095,18.51081z" style="fill:#E4AC1D;"/><path d="M31.4895,18.62081v1.82c-0.02,0.01-0.03,0.02-0.05,0.02c-0.34,0.11-0.7,0.2-1.07,0.29     c-0.32,0.07-0.66,0.14-1,0.19v-1.81C30.1295,19.0008,30.8395,18.8308,31.4895,18.62081z" style="fill:#E4AC1D;"/><path d="M34.3595,17.2408v1.82c-0.22,0.18-0.48,0.35-0.77,0.51c-0.22,0.13-0.46,0.25-0.72,0.37v-1.83     C33.4595,17.85081,33.9595,17.5608,34.3595,17.2408z" style="fill:#E4AC1D;"/></g><g><path d="M17.0695,33.15081v1.82c-0.04-0.02-0.07-0.03-0.1-0.05c-0.41-0.21-0.76-0.44-1.05-0.69v-1.82     c0.29,0.24,0.65,0.48,1.05,0.69C16.9995,33.1208,17.0295,33.13081,17.0695,33.15081z" style="fill:#E4AC1D;"/><path d="M22.2495,34.56081v1.82c-0.26-0.03-0.53-0.07-0.79-0.11c-0.39-0.06-0.76-0.12-1.12-0.2     c-0.28-0.06-0.56-0.12-0.82-0.19v-1.82C20.3495,34.2808,21.2695,34.45081,22.2495,34.56081z" style="fill:#E4AC1D;"/><path d="M18.4095,33.72081v1.82c-0.11-0.03-0.22-0.07-0.32-0.11c-0.09-0.03-0.18-0.07-0.26-0.11v-1.82     c0.08,0.04,0.17,0.08,0.26,0.11C18.1895,33.65081,18.2995,33.6908,18.4095,33.72081z" style="fill:#E4AC1D;"/><path d="M31.3895,33.90081v1.82c-0.32,0.11-0.67,0.19-1.02,0.28c-0.35,0.08-0.71,0.15-1.08,0.21     c-0.01,0-0.01,0-0.02,0v-1.82C30.0295,34.27081,30.7395,34.1008,31.3895,33.90081z" style="fill:#E4AC1D;"/><path d="M34.2595,32.5708v1.81c-0.2,0.16-0.42,0.3-0.67,0.44c-0.25,0.15-0.53,0.29-0.83,0.41v-1.82     C33.3495,33.1608,33.8595,32.8708,34.2595,32.5708z" style="fill:#E4AC1D;"/></g><g><path d="M17.1695,29.2208v1.82c-0.07-0.03-0.14-0.07-0.2-0.1c-0.36-0.19-0.68-0.39-0.95-0.61v-1.82     c0.27,0.22,0.59,0.42,0.95,0.61C17.0295,29.1508,17.0995,29.19081,17.1695,29.2208z" style="fill:#E4AC1D;"/><path d="M22.3495,30.59081v1.82c-0.3-0.03-0.59-0.07-0.89-0.12c-0.39-0.06-0.76-0.12-1.12-0.2     c-0.25-0.05-0.49-0.11-0.72-0.17v-1.81C20.4495,30.3208,21.3695,30.4808,22.3495,30.59081z" style="fill:#E4AC1D;"/><path d="M18.5095,29.78081v1.82c-0.14-0.05-0.28-0.1-0.42-0.15c-0.06-0.02-0.11-0.04-0.16-0.07v-1.82     c0.05,0.03,0.1,0.05,0.16,0.07C18.2295,29.68081,18.3695,29.7308,18.5095,29.78081z" style="fill:#E4AC1D;"/><path d="M31.4895,29.8908v1.82c-0.02,0.01-0.03,0.02-0.05,0.02c-0.34,0.11-0.7,0.2-1.07,0.29     c-0.32,0.07-0.66,0.14-1,0.19v-1.81C30.1295,30.27081,30.8395,30.10081,31.4895,29.8908z" style="fill:#E4AC1D;"/><path d="M34.3595,28.51081v1.82c-0.22,0.18-0.48,0.35-0.77,0.51c-0.22,0.13-0.46,0.25-0.72,0.36v-1.82     C33.4595,29.12081,33.9595,28.8308,34.3595,28.51081z" style="fill:#E4AC1D;"/></g><g><path d="M18.0895,25.4808v1.82c-0.12-0.06-0.23-0.11-0.34-0.17c-0.3-0.16-0.57-0.32-0.81-0.5v-1.82     c0.24,0.18,0.51,0.34,0.81,0.5C17.8595,25.37081,17.9695,25.4208,18.0895,25.4808z" style="fill:#E4AC1D;"/><path d="M23.2695,26.8008v1.81c-0.04,0-0.09-0.01-0.13-0.01c-0.3-0.03-0.6-0.07-0.9-0.12     c-0.39-0.06-0.76-0.12-1.12-0.2c-0.2-0.04-0.39-0.08-0.58-0.13v-1.82C21.3695,26.53081,22.2895,26.69081,23.2695,26.8008z" style="fill:#E4AC1D;"/><path d="M19.4295,26.01081v1.82c-0.2-0.06-0.38-0.12-0.56-0.19c-0.01,0-0.01-0.01-0.02-0.01v-1.82     c0.01,0,0.01,0.01,0.02,0.01C19.0495,25.8908,19.2395,25.95081,19.4295,26.01081z" style="fill:#E4AC1D;"/><path d="M32.4366,26.04081l-0.0271,1.82c-0.06,0.02-0.13,0.04-0.19,0.06c-0.34,0.11-0.7,0.2-1.07,0.29     c-0.28,0.06-0.56,0.12-0.86,0.17v-1.82C31.0495,26.43081,31.7866,26.2508,32.4366,26.04081z" style="fill:#E4AC1D;"/><path d="M35.2972,24.5781l-0.0177,1.8227c-0.26,0.23-0.56,0.43-0.91,0.63c-0.18,0.11-0.37,0.21-0.58,0.3     l-0.03-1.8001C34.3595,25.25071,34.9071,24.9181,35.2972,24.5781z" style="fill:#E4AC1D;"/></g><g><path d="M13.6395,21.0608v1.82c-0.47-0.26-0.86-0.54-1.15-0.85v-1.81c0.04,0.05,0.08,0.09,0.13,0.13     c0.02,0.01,0.03,0.02,0.05,0.03c0,0.01,0.01,0.01,0.01,0.01C12.9395,20.6308,13.2695,20.85081,13.6395,21.0608z" style="fill:#E4AC1D;"/><path d="M16.0895,22.04081c0.82,0.23,1.74,0.41,2.73,0.54v1.81c-0.17-0.01-0.34-0.04-0.52-0.07     c-0.39-0.06-0.76-0.12-1.12-0.2c-0.38-0.08-0.74-0.17-1.09-0.26V22.04081z" style="fill:#E4AC1D;"/><path d="M14.9295,21.6608c0.02,0.01,0.03,0.01,0.05,0.02v1.82c-0.02-0.01-0.03-0.01-0.05-0.02     c-0.18-0.07-0.36-0.15-0.53-0.22v-1.82c0.16,0.08,0.34,0.15,0.52,0.22H14.9295z" style="fill:#E4AC1D;"/><path d="M25.8395,22.4808c0.76-0.11,1.47-0.26,2.12-0.45v1.82c-0.24,0.08-0.49,0.14-0.75,0.2     c-0.35,0.08-0.71,0.15-1.08,0.21c-0.1,0.02-0.19,0.03-0.29,0.05V22.4808z" style="fill:#E4AC1D;"/><path d="M30.8295,20.8108v1.81c-0.13,0.09-0.26,0.17-0.4,0.25c-0.32,0.19-0.68,0.36-1.07,0.52     c-0.01,0-0.02,0.01-0.03,0.01v-1.82c0.01,0,0.02-0.01,0.03-0.01c0.39-0.16,0.75-0.34,1.07-0.51     C30.5695,20.9808,30.7095,20.8908,30.8295,20.8108z" style="fill:#E4AC1D;"/></g></g></g></svg>