<?xml version="1.0" ?><svg style="enable-background:new 0 0 48 48;" version="1.1" viewBox="0 0 48 48" xml:space="preserve" xmlns="http://www.w3.org/2000/svg" xmlns:xlink="http://www.w3.org/1999/xlink"><g id="Icons"><g><g><path d="M6.6909,16.2189c0-0.3253,0.3478-0.5337,0.6309-0.37341     C9.4156,17.031,16.3864,20.4921,24.774,16.0751c8.27-4.355,14.32-1.94261,16.0389-1.06261     c0.3078,0.15761,0.4962,0.47171,0.4962,0.81761v15.951c0,0.3253-0.3478,0.5337-0.6309,0.37339     C38.5844,30.969,31.6136,27.5079,23.226,31.9249c-8.2792,4.3548-14.3224,1.9428-16.0393,1.0628     C6.879,32.83,6.6909,32.516,6.6909,32.1703V16.2189z" style="fill:#A6BF86;"/><g><path d="M26.1836,23.9782c-0.2034-0.234-0.4591-0.4024-0.7679-0.5062      c-0.3088-0.10351-0.7714-0.177-1.3877-0.2203c-0.6162-0.0436-1.0119-0.11721-1.1867-0.2218      c-0.1376-0.0818-0.2181-0.19441-0.2414-0.3375c-0.0257-0.1571,0.0183-0.29291,0.1324-0.4076      c0.1766-0.1786,0.4421-0.2969,0.7965-0.3548c0.3431-0.0561,0.6117-0.0299,0.8057,0.0783      c0.194,0.1081,0.3425,0.3133,0.4453,0.6159l1.2109-0.253c-0.1102-0.5529-0.3839-0.9645-0.8213-1.2348      c-0.3316-0.20491-0.7557-0.2956-1.271-0.2742l-0.1931-1.1818l-0.9575,0.1565l0.194,1.1874      c-0.2703,0.0765-0.519,0.1691-0.7203,0.2969c-0.3052,0.1942-0.5231,0.4394-0.6538,0.73629      c-0.1306,0.29691-0.1704,0.59971-0.1201,0.90771c0.0783,0.4791,0.3301,0.8549,0.7551,1.1272      c0.3024,0.1938,0.7938,0.3183,1.474,0.3739c0.5287,0.0435,0.8685,0.0785,1.0197,0.1047      c0.2206,0.0401,0.3814,0.1038,0.4814,0.19049c0.1002,0.08661,0.1622,0.2016,0.1856,0.34471      c0.0364,0.2228-0.0315,0.434-0.2035,0.6329c-0.1719,0.1993-0.4541,0.3309-0.8468,0.3951      c-0.3709,0.0606-0.6808,0.0152-0.9299-0.1364c-0.2487-0.1514-0.4416-0.421-0.5782-0.80831l-1.1677,0.30961      c0.1905,0.6639,0.5191,1.1395,0.9861,1.4261c0.3567,0.2191,0.8012,0.3161,1.3309,0.295l0.18,1.1012l0.9575-0.1564      l-0.1804-1.1041c0.3198-0.0846,0.6102-0.187,0.8362-0.3282c0.3275-0.2048,0.5625-0.4743,0.7054-0.8084      c0.1428-0.334,0.1857-0.6745,0.129-1.0214C26.5195,24.5201,26.3866,24.2119,26.1836,23.9782z" style="fill:#E6F4D0;"/></g><path d="M25.1049,29.4494c-0.01,0-0.02,0.01-0.03,0.01c-0.86,0.32-1.71,0.7-2.55,1.14     c-2.97,1.56-5.92,2.35-8.77,2.35c-1.16,0-2.2-0.14-3.07-0.32c0.1-0.27,0.15-0.57,0.15-0.87c0-1.47-1.18-2.65-2.64-2.65v-8.5     c1.13,0,2.1-0.71,2.47-1.71c1.83,0.58,3.71,0.86,5.61,0.86c1.96,0,3.89-0.31,5.79-0.92h0.02h-0.02c-1.82,0.9-2.99,3.13-2.76,5.6     c0.29,3.07,2.62,5.36,5.22,5.12c0.19-0.02,0.37-0.05,0.55-0.1C25.0849,29.4694,25.0949,29.4694,25.1049,29.4494" style="fill:#E6F4D0;"/><path d="M25.8749,29.1794c0.02,0,0.03,0,0.04-0.01c1.84-0.89,3.01-3.13,2.78-5.61     c-0.29-3.07-2.62-5.36-5.22-5.12c-0.17,0.02-0.34,0.05-0.51,0.09c-0.01,0-0.02,0-0.03,0l-0.01,0.01l0.01-0.01     c0.01,0,0.02,0,0.03,0c0.85-0.31,1.68-0.7,2.51-1.13c2.96-1.56,5.91-2.35,8.76-2.35c1.15,0,2.17,0.13,3.03,0.33     c-0.07,0.23-0.1,0.47-0.1,0.72c0,1.46,1.18,2.64,2.64,2.64v8.5c-1.18,0-2.18,0.78-2.52,1.85c-1.81-0.57-3.67-0.85-5.56-0.85     c-1.96,0-3.91,0.31-5.81,0.93C25.9049,29.1794,25.8949,29.1794,25.8749,29.1794" style="fill:#E6F4D0;"/></g><g><g><g><path d="M13.4321,23.9102h-1.5478l-0.1856,1.0557c0.3086-0.165,0.5928-0.2471,0.8535-0.2471       c0.209,0,0.4034,0.0391,0.585,0.1172c0.1807,0.0782,0.3398,0.1856,0.4766,0.3233c0.1367,0.1386,0.2441,0.3017,0.3222,0.49019       c0.0781,0.1895,0.1182,0.3926,0.1182,0.60941c0,0.3144-0.0713,0.6015-0.2119,0.8594       c-0.1416,0.2587-0.3448,0.4638-0.6114,0.61619C12.9653,27.8858,12.6587,27.962,12.311,27.962       c-0.3887,0-0.7041-0.0713-0.9453-0.2148c-0.2422-0.1436-0.4141-0.30771-0.5146-0.4932       c-0.1016-0.1856-0.1514-0.3477-0.1514-0.4873c0-0.085,0.0351-0.165,0.1055-0.24121       c0.0703-0.07519,0.1591-0.11329,0.2656-0.11329c0.1816,0,0.3174,0.1055,0.4072,0.3154       c0.086,0.1934,0.2041,0.3438,0.3516,0.4512c0.1474,0.1074,0.3125,0.1611,0.4951,0.1611c0.167,0,0.3135-0.0429,0.4394-0.1299       c0.126-0.0869,0.2227-0.206,0.2911-0.3583c0.0683-0.1524,0.1025-0.3243,0.1025-0.5176c0-0.209-0.0361-0.3867-0.1104-0.5342       c-0.0742-0.1475-0.1728-0.2578-0.2958-0.3311c-0.1241-0.0722-0.2618-0.10931-0.4141-0.10931       c-0.1865,0-0.3203,0.02341-0.4004,0.06931c-0.0801,0.0449-0.1963,0.125-0.3467,0.2393       c-0.1513,0.1132-0.2754,0.1709-0.373,0.1709c-0.1065,0-0.2012-0.0391-0.2832-0.1163c-0.083-0.0771-0.1241-0.164-0.1241-0.2617       c0-0.0107,0.0118-0.0849,0.0362-0.2217l0.2734-1.5595c0.0303-0.1875,0.0869-0.32331,0.169-0.40731       c0.083-0.08489,0.2168-0.12689,0.4043-0.12689h1.7197c0.3379,0,0.5078,0.12889,0.5078,0.3877       c0,0.1123-0.041,0.2041-0.124,0.2734C13.7143,23.8761,13.5923,23.9102,13.4321,23.9102z" style="fill:#A6BF86;"/><path d="M17.4214,25.5392c0,0.3564-0.0215,0.6621-0.0655,0.9179       c-0.0429,0.2569-0.123,0.4893-0.2402,0.6973c-0.1484,0.2558-0.3389,0.45409-0.5732,0.5928       c-0.2344,0.1386-0.4952,0.208-0.7823,0.208c-0.33,0-0.6259-0.0928-0.8867-0.2793c-0.2617-0.1875-0.459-0.4453-0.5918-0.77541       c-0.0674-0.18069-0.1162-0.37989-0.1474-0.59769c-0.0323-0.2178-0.0479-0.4541-0.0479-0.708       c0-0.3281,0.0176-0.623,0.0527-0.8857c0.0342-0.2627,0.0889-0.4893,0.1622-0.6778c0.1279-0.3125,0.3144-0.5507,0.5585-0.71481       c0.2442-0.16409,0.5362-0.24609,0.875-0.24609c0.2237,0,0.4268,0.03609,0.6084,0.1094       c0.1827,0.0722,0.3428,0.17869,0.4805,0.3193c0.1377,0.1397,0.2549,0.3125,0.3506,0.5186       C17.3393,24.3761,17.4214,24.8829,17.4214,25.5392z M16.5288,25.4737c0-0.3974-0.0234-0.7226-0.0713-0.9756       c-0.0478-0.2529-0.1279-0.4433-0.2412-0.5732c-0.1123-0.1289-0.2686-0.19341-0.4688-0.19341       c-0.2861,0-0.4853,0.14461-0.5976,0.43361c-0.1123,0.2881-0.168,0.73339-0.168,1.335c0,0.4082,0.0244,0.7422,0.0723,1.0029       c0.0478,0.2608,0.1279,0.458,0.2402,0.5908c0.1133,0.1338,0.2666,0.2002,0.46,0.2002c0.1992,0,0.3554-0.0693,0.4687-0.208       c0.1123-0.1386,0.1924-0.3379,0.2373-0.5957C16.5063,26.23149,16.5288,25.8927,16.5288,25.4737z" style="fill:#A6BF86;"/></g></g><g><g><path d="M33.5356,20.5909l-1.5478-0.0215l-0.2002,1.0528c0.3105-0.1602,0.5957-0.2383,0.8564-0.2354       c0.209,0.0029,0.4033,0.0449,0.584,0.126c0.1787,0.0801,0.3369,0.1904,0.4717,0.3301       c0.1348,0.1396,0.2402,0.30459,0.3154,0.4951c0.0752,0.1894,0.1123,0.39349,0.1094,0.6103       c-0.0039,0.3145-0.0791,0.6006-0.2236,0.8565c-0.1455,0.2568-0.3516,0.459-0.6202,0.6064       c-0.2675,0.1485-0.5751,0.2207-0.9228,0.2158c-0.3887-0.0058-0.7031-0.082-0.9424-0.22851       c-0.2402-0.14649-0.4101-0.31349-0.5078-0.5c-0.0986-0.18749-0.1465-0.34959-0.1445-0.48919       c0.0009-0.085,0.0371-0.1641,0.1084-0.2393c0.0722-0.0752,0.1611-0.1113,0.2675-0.1103       c0.1817,0.0029,0.3165,0.1103,0.4034,0.3212c0.083,0.1954,0.1992,0.3467,0.3447,0.4561       c0.1465,0.1104,0.3105,0.166,0.4932,0.1689c0.1669,0.002,0.3134-0.04,0.4414-0.125c0.1269-0.0849,0.2255-0.2031,0.2959-0.35441       c0.0703-0.15039,0.1064-0.32229,0.1093-0.51569c0.003-0.209-0.0302-0.3877-0.1025-0.5361       c-0.0723-0.1484-0.1689-0.2598-0.291-0.334c-0.1231-0.0752-0.2608-0.1133-0.4131-0.11521       c-0.1865-0.003-0.3203,0.01851-0.4014,0.06251c-0.081,0.0449-0.1982,0.123-0.3496,0.2353       c-0.1533,0.1114-0.2783,0.167-0.376,0.1651c-0.1064-0.001-0.2002-0.041-0.2812-0.1192       c-0.082-0.0791-0.1221-0.167-0.1201-0.2646c0-0.0108,0.0127-0.084,0.039-0.2207l0.295-1.5557       c0.0332-0.1865,0.0918-0.3213,0.1748-0.4053c0.0839-0.083,0.2187-0.124,0.4062-0.1211l1.7197,0.0245       c0.3379,0.0039,0.5059,0.1357,0.502,0.3945c-0.001,0.1123-0.044,0.2031-0.1279,0.2715       C33.8179,20.5606,33.6958,20.5938,33.5356,20.5909z" style="fill:#A6BF86;"/><path d="M37.5024,22.2755c-0.0058,0.35641-0.0312,0.66211-0.0791,0.917       c-0.0459,0.25581-0.1299,0.48731-0.25,0.69431c-0.1513,0.2539-0.3447,0.4482-0.581,0.584       c-0.2364,0.13569-0.4981,0.2012-0.7852,0.1973c-0.3301-0.0049-0.625-0.10161-0.8828-0.292       c-0.2588-0.1905-0.4531-0.4512-0.5811-0.7832c-0.0644-0.1807-0.1103-0.3809-0.1386-0.5996       c-0.0293-0.21881-0.042-0.4551-0.0381-0.709c0.0039-0.3282,0.0264-0.6231,0.0644-0.88481       c0.0381-0.2627,0.0957-0.4873,0.1719-0.67579c0.1328-0.3105,0.3223-0.5459,0.5684-0.707       c0.247-0.16021,0.54-0.2383,0.8789-0.2334c0.2236,0.0029,0.4258,0.042,0.6064,0.11719       c0.1817,0.07621,0.3408,0.18451,0.4766,0.32621c0.1357,0.1416,0.25,0.3164,0.3428,0.5244       C37.436,21.1114,37.5112,21.6192,37.5024,22.2755z M36.6098,22.1983c0.0059-0.3974-0.0126-0.7236-0.0576-0.9765       c-0.0439-0.2539-0.1211-0.44631-0.2324-0.5772c-0.1113-0.1308-0.2666-0.1972-0.4668-0.2002       c-0.2861-0.0039-0.4873,0.1377-0.6035,0.4248s-0.1777,0.7315-0.1865,1.333c-0.0059,0.4082,0.0136,0.7432,0.0586,1.0049       c0.0439,0.2608,0.1211,0.459,0.2314,0.5938c0.1113,0.1357,0.2637,0.2041,0.457,0.207c0.1993,0.002,0.3565-0.0645,0.4717-0.2021       c0.1143-0.1377,0.1973-0.335,0.2461-0.5928C36.5776,22.9552,36.604,22.6173,36.6098,22.1983z" style="fill:#A6BF86;"/></g></g></g></g></g></svg>