<?xml version="1.0" ?><svg style="enable-background:new 0 0 48 48;" version="1.1" viewBox="0 0 48 48" xml:space="preserve" xmlns="http://www.w3.org/2000/svg" xmlns:xlink="http://www.w3.org/1999/xlink"><g id="Icons"><g><g><path d="M33.27649,30.68048c-0.3756,0.3756-0.8618,0.7181-1.4252,1.0385     c-0.4309,0.2431-0.906,0.4751-1.4252,0.685c-0.453,0.1768-0.9281,0.3425-1.4363,0.4972c-0.453,0.1436-0.928,0.2651-1.4252,0.3756     c-0.464,0.1105-0.9391,0.2099-1.4252,0.2873c-0.464,0.0884-0.9391,0.1546-1.4252,0.2099     c-0.4862,0.0663-0.9833,0.1105-1.4915,0.1436c-0.4972,0.0442-0.9944,0.0663-1.5026,0.0884     c-0.3425,0.0111-0.685,0.0111-1.0385,0.0111c-0.1547,0-0.3094,0-0.453-0.0111c-0.5082,0-1.0054-0.011-1.5026-0.0442     c-0.5082-0.0331-1.0053-0.0663-1.4915-0.1215c-0.5192-0.0442-1.0164-0.1105-1.5025-0.1878     c-0.5082-0.0774-1.0054-0.1658-1.4915-0.2652c-0.5193-0.1105-1.0165-0.2431-1.4915-0.3756     c-0.5303-0.1437-1.0386-0.3094-1.5026-0.4862c-0.5413-0.2099-1.0385-0.4419-1.4915-0.6739     c-0.5966-0.3204-1.0938-0.6629-1.5025-1.0275c-0.7403-0.6518-1.1491-1.381-1.1491-2.1433h0.0015v-2.4187l6.8609-3.0455     l8.8322-1.2392l8.6745,3.5374l2.7038,2.6137L33.27649,30.68048z" style="fill:#DB9A16;"/><path d="M15.70429,21.33368c-5.0429,0.7955-8.5995,2.7077-8.5995,4.9284     c0,0.7623,0.429,1.4906,1.1883,2.1425c0.4192,0.3646,0.9292,0.7071,1.5411,1.0275c0.4646,0.232,0.9746,0.464,1.5298,0.6739     c2.4931,0.917,5.9154,1.4915,9.6777,1.4915c3.7508,0,7.1731-0.5745,9.6889-1.5026l0.8094-1.8087l-0.4731-2.6362l-9.2603-4.5738     L15.70429,21.33368z" style="fill:#FCC69D;"/><path d="M15.70429,21.33368c-5.0429,0.7955-8.5995,2.7077-8.5995,4.9284     c0,0.7623,0.429,1.4906,1.1883,2.1425c0.4192,0.3646,0.9292,0.7071,1.5411,1.0275c0.4646,0.232,0.9746,0.464,1.5298,0.6739     c2.4931,0.917,5.9154,1.4915,9.6777,1.4915c3.7508,0,7.1731-0.5745,9.6889-1.5026l0.8094-1.8087l-0.4731-2.6362l-9.2603-4.5738     L15.70429,21.33368z" style="fill:#FFC601;"/><path d="M34.17419,28.12477l-0.9,2.56c-0.37,0.37-0.86,0.71-1.42,1.03c-0.04,0.02-0.08,0.05-0.12,0.07     c-0.01,0-0.01,0-0.01,0c-1.61-0.37-3.47-0.86-3.47-0.86c-4.35-0.33-10.67-3-13.75-6.33c-1.31-1.41-1.17-2.33-0.58-2.92     c0.57-0.13,1.16-0.24,1.78-0.34l6.1-0.26l5.77,2.85l3.9,1.59L34.17419,28.12477z" style="opacity:0.1;"/><path d="M15.79539,15.87318l-0.9621,2.2191l-0.0014-0.0006c-1.1734,2.7064,3.4524,7.313,10.3351,10.2971     c6.8827,2.984,13.4172,3.216,14.5906,0.5096l-0.0048-0.002l0.9622-2.2191" style="fill:#DB9A16;"/><ellipse cx="28.25516" cy="21.27522" rx="5.33902" ry="13.58045" style="fill:#FFC601;" transform="matrix(0.39778 -0.91748 0.91748 0.39778 -2.50381 38.7359)"/><g><path d="M9.69149,29.35438l0.0131,2.47c-0.4677-0.2485-0.8231-0.5-1.1631-0.76v-2.46      C8.87149,28.86438,9.25149,29.12438,9.69149,29.35438z" style="fill:#E4AC1D;"/><path d="M14.87149,31.04438v2.46c-0.21-0.04-0.42-0.08-0.63-0.12c-0.52-0.11-1.02-0.24-1.49-0.37      c-0.21-0.06-0.4099-0.12-0.61-0.18v-2.46C12.97149,30.63438,13.89149,30.86438,14.87149,31.04438z" style="fill:#E4AC1D;"/><path d="M11.03149,29.97398v2.4604c-0.2-0.0797-0.39-0.1593-0.58-0.249v-2.4604      C10.65239,29.82308,10.82809,29.88448,11.03149,29.97398z" style="fill:#E4AC1D;"/><path d="M24.01149,31.47438v2.38c-0.26,0.03-0.52,0.04-0.79,0.06c-0.44,0.04-0.8799,0.07-1.33,0.08      v-2.4068C22.61149,31.57758,23.32149,31.53438,24.01149,31.47438z" style="fill:#E4AC1D;"/><path d="M26.88149,31.10438v2.33c-0.25,0.04-0.49,0.09-0.74,0.13c-0.25,0.05-0.5,0.09-0.75,0.13      l-0.0172-2.3618C25.88439,31.27258,26.39149,31.19438,26.88149,31.10438z" style="fill:#E4AC1D;"/></g><g><path d="M17.24599,20.16598l-0.9203,2.2745c-0.3121-0.3582-0.5761-0.6859-0.7966-1.0343l0.9046-2.3091      C16.68089,19.44418,16.92079,19.81398,17.24599,20.16598z" style="fill:#E4AC1D;"/><path d="M21.37939,23.64128l-0.9233,2.2441c-0.1797-0.1159-0.351-0.2142-0.5307-0.33      c-0.4408-0.2971-0.8555-0.6051-1.2424-0.9019c-0.1722-0.1344-0.346-0.3044-0.5089-0.4351l0.9337-2.241      C19.77959,22.52977,20.53849,23.10677,21.37939,23.64128z" style="fill:#E4AC1D;"/><path d="M18.26969,21.23008l-0.8982,2.2843c-0.1555-0.1489-0.3264-0.2975-0.4689-0.4519l0.9175-2.2674      C17.96319,20.94977,18.11049,21.09048,18.26969,21.23008z" style="fill:#E4AC1D;"/><path d="M29.73919,27.49968l-0.9077,2.2352c-0.2523-0.0697-0.5145-0.1606-0.7723-0.2434      c-0.4228-0.1279-0.7945-0.2672-1.2154-0.4267l0.8877-2.25529C28.40269,27.07028,29.07709,27.29648,29.73919,27.49968z" style="fill:#E4AC1D;"/><path d="M32.54809,28.20088l-0.9418,2.221c-0.2467-0.0567-0.5121-0.1007-0.7588-0.1574      c-0.2505-0.0475-0.485-0.1174-0.7317-0.1741l0.9043-2.2321C31.51529,27.99398,32.06019,28.10058,32.54809,28.20088z" style="fill:#E4AC1D;"/></g></g><g><g><g><path d="M20.28949,17.86818l1.1925,0.5044c-0.1593,0.116-0.2164,0.2421-0.1714,0.3788       c0.0449,0.1367,0.1673,0.2546,0.3699,0.3557c0.2321,0.115,0.4988,0.1749,0.8039,0.179       c0.3031,0.0037,0.5999-0.0701,0.8876-0.2232c0.2701-0.143,0.393-0.2902,0.3684-0.4411       c-0.0245-0.1508-0.1654-0.2903-0.4194-0.4171c-0.3199-0.1589-0.7117-0.244-1.1784-0.2566l-0.8022-0.5004l2.8587-0.9317       l2.9344,1.4602l-0.7894,0.4188l-2.0944-1.0425l-0.9203,0.311c0.3414,0.0733,0.6412,0.1735,0.9002,0.302       c0.4919,0.245,0.7731,0.5252,0.8432,0.8398c0.07,0.3145-0.1112,0.5875-0.5448,0.8181       c-0.3621,0.1922-0.8235,0.2943-1.3834,0.3076c-0.7653,0.0188-1.4802-0.1385-2.149-0.4714       c-0.5356-0.2659-0.8628-0.5412-0.981-0.8244C19.89519,18.35177,19.98689,18.09638,20.28949,17.86818z" style="fill:#D19D0B;"/><path d="M29.93259,19.28938c0.561,0.2797,0.8473,0.578,0.859,0.8969       c0.0164,0.3783-0.3921,0.7887-1.2261,1.2312c-0.8319,0.4422-1.6197,0.665-2.3631,0.6693       c-0.613,0.0036-1.1994-0.1343-1.7603-0.414c-0.5635-0.2802-0.8529-0.5929-0.8697-0.9398       c-0.0161-0.3467,0.3998-0.7431,1.2433-1.1908c0.8282-0.4397,1.6123-0.662,2.3546-0.6671       C28.78569,18.87258,29.37149,19.01028,29.93259,19.28938z M29.23329,19.66058c-0.1347-0.0673-0.2868-0.1093-0.4562-0.1267       c-0.1712-0.0184-0.3686,0.0031-0.5954,0.0632c-0.294,0.0776-0.6991,0.253-1.2156,0.5268       c-0.5158,0.274-0.8351,0.4796-0.9602,0.6159c-0.1241,0.1371-0.1659,0.248-0.1265,0.3336       c0.0406,0.0859,0.1266,0.1615,0.2612,0.2287c0.1335,0.0665,0.2867,0.1094,0.4572,0.1276       c0.1701,0.0175,0.3688-0.0037,0.5943-0.064c0.2917-0.0768,0.6955-0.2525,1.2113-0.5264       c0.5165-0.2739,0.8372-0.4779,0.9619-0.6149c0.1245-0.1364,0.1672-0.2477,0.1274-0.3341       C29.45489,19.80428,29.36679,19.72698,29.23329,19.66058z" style="fill:#D19D0B;"/></g></g><path d="M34.78439,22.83577l0.5678-0.26649l-0.5176-0.2567l-0.5265,0.2445     c-0.0231-0.0127-0.041-0.0251-0.0645-0.0378c-0.9796-0.523-1.8482-0.8285-2.5995-0.9087c-0.4982-0.055-0.8859-0.0025-1.17,0.156     c-0.2764,0.1539-0.4515,0.4318-0.4958,0.717c-0.0552,0.3137,0.0997,0.6442,0.3045,0.9293l0.1123,0.1507     c0.1523,0.1881,0.3434,0.372,0.5521,0.5539l-0.8617,0.4001l0.5186,0.2794l0.7498-0.3518     c0.3242,0.2378,0.6915,0.4703,1.1147,0.6953c0.5482,0.2914,1.0541,0.5132,1.5193,0.6536l0.3401-0.5332     c-0.4538-0.0586-0.9858-0.2488-1.5952-0.5767c-0.3123-0.167-0.5673-0.3412-0.776-0.5218l2.2513-1.0563     c0.3522,0.2093,0.6113,0.4111,0.7747,0.6056l0.5929-0.3367C35.35359,23.19588,35.08049,23.01618,34.78439,22.83577z      M31.44359,23.32868c-0.0107-0.5961,0.4827-0.7869,0.4827-0.7869c0.1489-0.0749,0.3423-0.0982,0.5747-0.0831     c0.356,0.0322,0.7596,0.1596,1.2044,0.3782l-2.0889,0.9699C31.50269,23.65177,31.44409,23.49058,31.44359,23.32868z" style="fill:#D19D0B;"/></g></g></g></svg>