<?xml version="1.0" ?><svg style="enable-background:new 0 0 48 48;" version="1.1" viewBox="0 0 48 48" xml:space="preserve" xmlns="http://www.w3.org/2000/svg" xmlns:xlink="http://www.w3.org/1999/xlink"><g id="Icons"><g><g><g><path d="M9.6126,19.23951c0-0.29829,0.319-0.4894,0.5785-0.34239      c1.92,1.0871,8.3123,4.2609,16.0037,0.2105c7.5836-3.9935,13.1315-1.7813,14.7077-0.9744      c0.2823,0.1445,0.4551,0.4326,0.4551,0.7497v14.6272c0,0.2982-0.319,0.4893-0.5785,0.34239      c-1.92-1.08709-8.3123-4.261-16.0038-0.21059c-7.592,3.9933-13.1336,1.78159-14.7081,0.97459      c-0.2821-0.14459-0.4546-0.4325-0.4546-0.74949V19.23951z" style="fill:#A6BF86;"/><g><path d="M27.4874,26.35481c-0.1865-0.2146-0.4209-0.369-0.7041-0.4642       c-0.2832-0.0949-0.7074-0.1623-1.2725-0.202c-0.5651-0.04-0.928-0.1075-1.0882-0.2034c-0.1262-0.075-0.2-0.1783-0.2214-0.3095       c-0.0236-0.1441,0.0168-0.2686,0.1214-0.3738c0.1619-0.1638,0.4054-0.2722,0.7304-0.3253       c0.3146-0.0515,0.5609-0.0274,0.7388,0.0718c0.1779,0.09909,0.3141,0.2873,0.4084,0.5648l1.1104-0.232       c-0.1011-0.5071-0.3521-0.8845-0.7532-1.1324c-0.3041-0.1879-0.693-0.271-1.1655-0.2514l-0.1771-1.0837l-0.878,0.1435       l0.1779,1.0888c-0.2479,0.0702-0.4759,0.1551-0.6605,0.2723c-0.2799,0.1781-0.4797,0.4029-0.5995,0.67519       c-0.1198,0.27221-0.1563,0.54991-0.1102,0.83241c0.0718,0.4393,0.3027,0.7839,0.6925,1.03359       c0.2773,0.17771,0.7279,0.29191,1.3516,0.34291c0.4848,0.0399,0.7964,0.0719,0.9351,0.096       c0.2023,0.0367,0.3497,0.0952,0.4414,0.1747c0.0919,0.0794,0.1488,0.1848,0.1702,0.3161       c0.0334,0.20429-0.0289,0.3979-0.1866,0.58029c-0.1576,0.18281-0.4164,0.3035-0.7765,0.36231       c-0.3401,0.0556-0.6243,0.014-0.8527-0.125c-0.2281-0.1389-0.405-0.3861-0.5302-0.74131l-1.0708,0.28391       c0.1747,0.6088,0.476,1.045,0.9042,1.3078c0.3271,0.2009,0.7347,0.2898,1.2205,0.2705l0.165,1.00979l0.8781-0.14339       l-0.1655-1.0125c0.2933-0.0776,0.5596-0.1715,0.7668-0.3009c0.3004-0.1878,0.5159-0.435,0.6469-0.7413       c0.1309-0.3063,0.1703-0.6186,0.1183-0.9367C27.7955,26.85171,27.6736,26.56911,27.4874,26.35481z" style="fill:#E6F4D0;"/></g><path d="M26.4983,31.37191c-0.0092,0-0.0184,0.0091-0.0275,0.0091      c-0.7887,0.2935-1.5681,0.6419-2.3384,1.0454c-2.7235,1.4306-5.4286,2.155-8.0421,2.155c-1.0637,0-2.0174-0.1284-2.8152-0.2935      c0.0917-0.2475,0.1376-0.5226,0.1376-0.7977c0-1.348-1.0821-2.4301-2.4209-2.4301v-7.7945      c1.0362,0,1.9257-0.65111,2.265-1.56811c1.6781,0.53191,3.402,0.7886,5.1444,0.7886c1.7973,0,3.5671-0.2842,5.3094-0.84361      h0.0183h-0.0183c-1.669,0.82531-2.7418,2.8702-2.5309,5.13521c0.2659,2.8152,2.4025,4.9151,4.7867,4.695      c0.1742-0.0183,0.3393-0.0458,0.5044-0.0917C26.4799,31.39021,26.4891,31.39021,26.4983,31.37191" style="fill:#E6F4D0;"/><path d="M27.2044,31.12431c0.0183,0,0.0275,0,0.0367-0.0092c1.6872-0.8161,2.7601-2.8702,2.5492-5.1444      c-0.2659-2.8152-2.4025-4.9151-4.7867-4.695c-0.1559,0.0183-0.3118,0.04579-0.4677,0.0825c-0.0092,0-0.0183,0-0.0275,0      l-0.0092,0.0092l0.0092-0.0092c0.0092,0,0.0183,0,0.0275,0c0.7794-0.2843,1.5406-0.6419,2.3017-1.0362      c2.7143-1.43051,5.4195-2.155,8.0329-2.155c1.0546,0,1.9899,0.1193,2.7785,0.3027c-0.0642,0.2109-0.0917,0.4309-0.0917,0.6602      c0,1.3388,1.0821,2.4209,2.4209,2.4209v7.7945c-1.0821,0-1.9991,0.7153-2.3108,1.6965      c-1.6598-0.5227-3.3654-0.7795-5.0986-0.7795c-1.7973,0-3.5854,0.2843-5.3277,0.8528      C27.2319,31.12431,27.2227,31.12431,27.2044,31.12431" style="fill:#E6F4D0;"/><path d="M15.782,29.59931v-2.7313c-0.5077,0.39-0.8498,0.5853-1.0262,0.5853      c-0.0842,0-0.1585-0.0336-0.2238-0.10081c-0.0645-0.06669-0.0977-0.14419-0.0977-0.23239c0-0.1021,0.0323-0.1768,0.0967-0.2252      c0.0636-0.0479,0.1765-0.1097,0.3385-0.1858c0.2427-0.1142,0.4361-0.2342,0.5812-0.3605      c0.1451-0.1258,0.2732-0.2668,0.386-0.42311c0.1119-0.15579,0.1845-0.25209,0.2185-0.28789      c0.034-0.0362,0.0985-0.0542,0.1926-0.0542c0.1056,0,0.1907,0.0413,0.2552,0.12309c0.0635,0.082,0.0958,0.19531,0.0958,0.33911      v3.4364c0,0.4021-0.137,0.6036-0.4111,0.6036c-0.1227,0-0.2203-0.0412-0.2946-0.1232      C15.8188,29.88061,15.782,29.75921,15.782,29.59931z" style="fill:#A6BF86;"/><path d="M34.3513,25.73621v-2.7314c-0.5077,0.39-0.8498,0.5852-1.0262,0.5852      c-0.0842,0-0.1585-0.03351-0.2239-0.1007c-0.0644-0.0667-0.0976-0.1442-0.0976-0.2324c0-0.1021,0.0323-0.1768,0.0967-0.2252      c0.0636-0.0479,0.1765-0.1097,0.3385-0.1858c0.2427-0.1142,0.4361-0.2342,0.5812-0.3605      c0.1451-0.1258,0.2732-0.2669,0.386-0.4231c0.1119-0.15581,0.1845-0.2521,0.2185-0.288      c0.034-0.0362,0.0985-0.0541,0.1925-0.0541c0.1057,0,0.1908,0.0412,0.2552,0.1231c0.0636,0.082,0.0959,0.19519,0.0959,0.339      v3.4365c0,0.4021-0.137,0.6036-0.4111,0.6036c-0.1227,0-0.2203-0.0412-0.2946-0.1232      C34.3881,26.01731,34.3513,25.89601,34.3513,25.73621z" style="fill:#A6BF86;"/></g><path d="M36.0258,26.87761v3.5823c0,0.29-0.27,0.49-0.5,0.34c-1.6599-1.09-7.2-4.26-13.87-0.21     c-5.7299,3.47-10.1099,2.25-12.0399,1.34v-2.31141c2.6599,0.66,6.6532,0.3777,11.9132-2.39229     C27.599,24.02621,33.1358,25.64761,36.0258,26.87761z" style="opacity:0.1;"/><path d="M6.6424,14.48991c0-0.2982,0.319-0.4893,0.5786-0.34241     c1.92,1.08711,8.3122,4.261,16.0037,0.21061c7.5836-3.99361,13.1315-1.7813,14.7077-0.9745     c0.2823,0.1446,0.455,0.4326,0.455,0.7498v14.62709c0,0.29831-0.3189,0.4894-0.5785,0.34241     c-1.92-1.087-8.3122-4.2609-16.0037-0.2105c-7.592,3.9933-13.1337,1.7816-14.7081,0.9746     c-0.2821-0.1446-0.4546-0.4326-0.4546-0.7496L6.6424,14.48991z" style="fill:#A6BF86;"/><g><path d="M24.5173,21.60531c-0.1865-0.2146-0.421-0.369-0.7042-0.4642      c-0.2831-0.0949-0.7073-0.1623-1.2725-0.202c-0.565-0.04-0.9279-0.1075-1.0882-0.2034c-0.1262-0.075-0.2-0.1783-0.2214-0.3095      c-0.0235-0.1441,0.0168-0.2686,0.1215-0.3738c0.1619-0.1638,0.4054-0.2723,0.7304-0.3254      c0.3146-0.0514,0.5609-0.0274,0.7388,0.0719c0.1779,0.0991,0.3141,0.2872,0.4083,0.5647l1.1104-0.232      c-0.101-0.507-0.352-0.8844-0.7531-1.1323c-0.3041-0.1879-0.693-0.271-1.1655-0.2514l-0.1771-1.0837l-0.878,0.1435      l0.1779,1.08879c-0.2479,0.07021-0.476,0.15511-0.6605,0.27231c-0.2799,0.1781-0.4797,0.4029-0.5996,0.6752      c-0.1197,0.2722-0.1562,0.5499-0.1101,0.8323c0.0718,0.4394,0.3027,0.784,0.6924,1.0337      c0.2773,0.1777,0.7279,0.2919,1.3517,0.3428c0.4848,0.0399,0.7964,0.072,0.935,0.0961      c0.2023,0.0367,0.3498,0.0951,0.4415,0.17459c0.0919,0.07951,0.1487,0.18491,0.1702,0.3161      c0.0334,0.2043-0.0289,0.398-0.1866,0.5804c-0.1577,0.1828-0.4164,0.3034-0.7765,0.3623      c-0.3402,0.0556-0.6243,0.0139-0.8528-0.1251c-0.228-0.1388-0.4049-0.386-0.5302-0.7412l-1.0708,0.2839      c0.1747,0.6088,0.4761,1.0449,0.9043,1.3078c0.3271,0.2009,0.7347,0.28979,1.2204,0.2705l0.1651,1.0098l0.878-0.1434      l-0.1654-1.0125c0.2933-0.07761,0.5596-0.1715,0.7668-0.301c0.3003-0.1878,0.5158-0.4349,0.6469-0.7413      c0.1309-0.3062,0.1702-0.6185,0.1182-0.9366C24.8253,22.10221,24.7035,21.81961,24.5173,21.60531z" style="fill:#E6F4D0;"/></g><path d="M23.5281,26.62241c-0.0091,0-0.0183,0.00909-0.0275,0.00909     c-0.7886,0.2935-1.568,0.6419-2.3383,1.0454c-2.7235,1.4305-5.4287,2.155-8.0421,2.155c-1.0638,0-2.0174-0.12841-2.8152-0.2935     c0.0917-0.2476,0.1375-0.5227,0.1375-0.7978c0-1.348-1.082-2.43-2.4209-2.43v-7.7945c1.0362,0,1.9257-0.6511,2.265-1.5681     c1.6781,0.5318,3.4021,0.7886,5.1444,0.7886c1.7973,0,3.5671-0.2843,5.3095-0.8436h0.0183h-0.0183     c-1.669,0.8253-2.7419,2.8702-2.531,5.1352c0.266,2.8152,2.4026,4.9151,4.7868,4.695c0.1742-0.0183,0.3393-0.0458,0.5043-0.09171     C23.5098,26.64071,23.519,26.64071,23.5281,26.62241" style="fill:#E6F4D0;"/><path d="M24.2342,26.37481c0.0184,0,0.0275,0,0.0367-0.0092c1.6873-0.81611,2.7602-2.8702,2.5493-5.1444     c-0.266-2.8152-2.4026-4.9151-4.7868-4.695c-0.1559,0.0183-0.3118,0.0458-0.4676,0.0825c-0.0092,0-0.0184,0-0.0276,0     l-0.0091,0.0092l0.0091-0.0092c0.0092,0,0.0184,0,0.0276,0c0.7794-0.2843,1.5405-0.6419,2.3016-1.03621     c2.7144-1.43049,5.4195-2.155,8.033-2.155c1.0545,0,1.9899,0.11921,2.7785,0.30261c-0.0642,0.2109-0.0917,0.431-0.0917,0.6603     c0,1.3388,1.082,2.4209,2.4209,2.4209v7.7945c-1.0821,0-1.9991,0.7152-2.3109,1.6964     c-1.6597-0.52271-3.3654-0.7794-5.0985-0.7794c-1.7973,0-3.5855,0.2843-5.3278,0.8528     C24.2617,26.37481,24.2526,26.37481,24.2342,26.37481" style="fill:#E6F4D0;"/></g><g><g><g><path d="M12.7144,21.64271l-1.3916-0.0196l-0.1797,0.9473c0.2783-0.1445,0.5351-0.2148,0.7695-0.21191       c0.1875,0.00291,0.3633,0.041,0.5254,0.11331c0.1621,0.0721,0.3027,0.1718,0.4258,0.2978       c0.1211,0.126,0.2158,0.2743,0.2832,0.4453c0.0683,0.1709,0.1006,0.3535,0.0986,0.5489       c-0.0049,0.2841-0.0713,0.541-0.2021,0.7714c-0.1299,0.2315-0.3155,0.4131-0.5567,0.5469       c-0.2412,0.1328-0.5185,0.1973-0.831,0.19339c-0.3496-0.00489-0.6319-0.07329-0.8487-0.20509       c-0.2158-0.1328-0.3681-0.2822-0.456-0.4512c-0.0889-0.1679-0.1328-0.3144-0.1309-0.4394       c0.001-0.0762,0.0342-0.1485,0.0986-0.2159c0.0645-0.0673,0.1446-0.1005,0.2403-0.0996       c0.164,0.003,0.2842,0.0986,0.3623,0.2901c0.0762,0.1748,0.1797,0.3115,0.3105,0.41009       c0.1309,0.09771,0.2793,0.14841,0.4434,0.15041c0.1504,0.003,0.2822-0.0351,0.3965-0.1113       c0.1142-0.0762,0.2041-0.1827,0.2676-0.3184c0.0634-0.13571,0.0957-0.291,0.0986-0.4648       c0.0019-0.1875-0.0283-0.3486-0.0938-0.4825c-0.0644-0.1337-0.1513-0.2333-0.2617-0.3007       c-0.1103-0.0674-0.2344-0.1016-0.3711-0.1035c-0.1679-0.002-0.2881,0.0166-0.3613,0.0566       c-0.0723,0.0401-0.1768,0.1104-0.3145,0.211c-0.1367,0.1005-0.25,0.1503-0.3378,0.1494       c-0.0957-0.002-0.1807-0.0371-0.254-0.1075c-0.0732-0.0713-0.1084-0.1503-0.1074-0.2383c0-0.0097,0.0117-0.0751,0.0352-0.1992       l0.2656-1.4003c0.0293-0.167,0.082-0.2881,0.1572-0.3633c0.0752-0.0752,0.1983-0.1123,0.3662-0.1104l1.5459,0.0215       c0.3057,0.0049,0.4561,0.1231,0.4532,0.3555c-0.002,0.1015-0.0401,0.1836-0.1153,0.2451       C12.9692,21.61531,12.8599,21.64461,12.7144,21.64271z" style="fill:#A6BF86;"/><path d="M16.2856,23.15831c-0.0048,0.3203-0.0283,0.5956-0.0703,0.82619       c-0.042,0.23041-0.1172,0.43841-0.2256,0.624c-0.1367,0.22941-0.3115,0.40431-0.5244,0.52631       c-0.2119,0.1221-0.4472,0.18169-0.705,0.1778c-0.2969-0.0039-0.5625-0.0918-0.7959-0.2627       c-0.2325-0.172-0.4073-0.4072-0.5225-0.7051c-0.0576-0.1631-0.0996-0.3429-0.125-0.54       c-0.0254-0.19731-0.0371-0.4092-0.0342-0.6377c0.0039-0.2949,0.0235-0.5615,0.0576-0.7969       c0.0352-0.2363,0.0869-0.4385,0.1553-0.6084c0.1191-0.2793,0.29-0.4912,0.5117-0.6357       c0.2217-0.14461,0.4864-0.2149,0.791-0.211c0.2012,0.003,0.3829,0.0381,0.5459,0.1065       c0.1631,0.0673,0.3067,0.166,0.4287,0.29289c0.1221,0.128,0.2256,0.28521,0.3086,0.47171       C16.2261,22.11141,16.2935,22.56841,16.2856,23.15831z M15.4829,23.08891c0.0049-0.3583-0.0127-0.6503-0.0527-0.879       c-0.0401-0.2284-0.1094-0.4012-0.209-0.51941c-0.1006-0.1172-0.2402-0.17669-0.4199-0.1797       c-0.2578-0.0039-0.4395,0.124-0.544,0.3819c-0.1035,0.25879-0.1592,0.6591-0.167,1.2002       c-0.0049,0.367,0.0127,0.6679,0.0518,0.9043c0.04,0.23429,0.1094,0.413,0.21,0.5341c0.0996,0.1221,0.2363,0.1836,0.4101,0.1866       c0.1797,0.0019,0.3213-0.0586,0.4248-0.1817c0.1035-0.124,0.1768-0.30171,0.2217-0.5333       C15.4526,23.77061,15.4771,23.46591,15.4829,23.08891z" style="fill:#A6BF86;"/></g></g><g><g><path d="M30.8324,18.45991l-1.3906-0.06041l-0.209,0.94141c0.2842-0.1367,0.544-0.1992,0.7774-0.18941       c0.1875,0.00871,0.3614,0.05171,0.5214,0.12891c0.1602,0.0771,0.297,0.1805,0.4161,0.3095       c0.1171,0.1299,0.207,0.2813,0.2705,0.454c0.0625,0.173,0.0898,0.35759,0.081,0.5519       c-0.0126,0.2841-0.0869,0.5381-0.2246,0.7656c-0.1367,0.2265-0.329,0.4024-0.5732,0.5293       c-0.2452,0.125-0.5244,0.1816-0.836,0.168c-0.3496-0.0156-0.6308-0.0928-0.8427-0.2305       c-0.212-0.13871-0.3594-0.293-0.4424-0.4639c-0.084-0.1709-0.1231-0.3194-0.1182-0.4444       c0.0039-0.0761,0.0391-0.1464,0.1055-0.2118c0.0664-0.0654,0.1474-0.0967,0.2431-0.0918       c0.1631,0.0068,0.2813,0.1064,0.3536,0.2998c0.0703,0.1768,0.1699,0.31639,0.2988,0.4188       c0.1279,0.1027,0.2745,0.1574,0.4375,0.1642c0.1504,0.0068,0.2842-0.0264,0.4004-0.09861       c0.1172-0.07329,0.2099-0.17679,0.2773-0.31059c0.0674-0.1338,0.1045-0.2881,0.1123-0.462       c0.0078-0.1874-0.0176-0.3485-0.078-0.4843c-0.0606-0.1357-0.1456-0.2382-0.254-0.3087       c-0.1084-0.0702-0.2315-0.1083-0.3682-0.1151c-0.167-0.0069-0.2871,0.0078-0.3613,0.0459       c-0.0742,0.0381-0.1815,0.1055-0.3223,0.2012c-0.1406,0.0967-0.2548,0.14259-0.3427,0.1387       c-0.0948-0.004-0.1778-0.042-0.2491-0.1153c-0.0713-0.0722-0.1054-0.1524-0.1014-0.2402       c0.001-0.0098,0.0145-0.0752,0.041-0.1983l0.3085-1.3916c0.0342-0.166,0.0898-0.2851,0.167-0.3584       c0.0781-0.0732,0.2011-0.1064,0.3691-0.0986l1.5459,0.0684c0.3047,0.0127,0.4522,0.1367,0.4425,0.3681       c-0.005,0.1016-0.046,0.1826-0.1222,0.2412C31.0883,18.44051,30.977,18.46691,30.8324,18.45991z" style="fill:#A6BF86;"/><path d="M34.3559,20.08311c-0.0137,0.3193-0.0459,0.5937-0.0948,0.8232       c-0.0488,0.2285-0.1308,0.4336-0.2441,0.61619c-0.1444,0.22471-0.3233,0.39561-0.5391,0.51081       c-0.2168,0.11519-0.4541,0.167-0.7119,0.15619c-0.2959-0.01359-0.5586-0.10929-0.7861-0.28709       c-0.2285-0.1777-0.3946-0.41791-0.501-0.7207c-0.0537-0.164-0.0898-0.3448-0.1093-0.5429       c-0.0196-0.19731-0.0245-0.4102-0.0147-0.6387c0.0127-0.2949,0.04-0.5596,0.082-0.7949       c0.042-0.2344,0.0997-0.4346,0.1729-0.6026c0.1279-0.2754,0.3048-0.4824,0.5302-0.62011       c0.2266-0.1377,0.4922-0.2002,0.7959-0.18659c0.2012,0.0089,0.3828,0.0499,0.544,0.1222       c0.1611,0.0732,0.3017,0.1748,0.4189,0.3056c0.1182,0.1319,0.2168,0.292,0.2949,0.4815       C34.3276,19.03431,34.3822,19.49321,34.3559,20.08311z M33.5561,19.98841c0.0156-0.3575,0.0068-0.6505-0.0264-0.87991       c-0.0321-0.22859-0.0977-0.40429-0.1934-0.52539c-0.0967-0.1202-0.2343-0.1846-0.414-0.1924       c-0.2569-0.0108-0.4424,0.1112-0.5547,0.3662c-0.1123,0.2549-0.1797,0.6533-0.203,1.1944       c-0.0168,0.36619-0.008,0.6679,0.0243,0.9043c0.0332,0.2363,0.0977,0.416,0.1933,0.541       c0.0967,0.125,0.2315,0.1903,0.4044,0.1982c0.1796,0.0078,0.3232-0.0489,0.4296-0.1689       c0.1074-0.1202,0.1865-0.296,0.2384-0.52641C33.5053,20.66891,33.5396,20.36531,33.5561,19.98841z" style="fill:#A6BF86;"/></g></g></g></g></g></svg>