<?xml version="1.0" ?><svg style="enable-background:new 0 0 48 48.00004;" version="1.1" viewBox="0 0 48 48.00004" xml:space="preserve" xmlns="http://www.w3.org/2000/svg" xmlns:xlink="http://www.w3.org/1999/xlink"><g id="Icons"><g><ellipse cx="24" cy="24.00002" rx="15.25835" ry="15.25834" style="fill:#FFC601;" transform="matrix(0.00717 -0.99997 0.99997 0.00717 -0.1714 47.82741)"/><ellipse cx="24" cy="24.00005" rx="12.34487" ry="12.34487" style="fill:#E09807;" transform="matrix(0.00717 -0.99997 0.99997 0.00717 -0.17149 47.82738)"/><g><path d="M20.61815,30.88647c0,0.1059-0.0264,0.2202-0.0781,0.3432     c-0.0527,0.1231-0.1338,0.2442-0.2461,0.3623c-0.1113,0.1187-0.2539,0.2149-0.4277,0.28909     c-0.1739,0.07371-0.376,0.11081-0.6075,0.11081c-0.1748,0-0.3339-0.0166-0.4775-0.04981     c-0.1436-0.03319-0.2734-0.08489-0.3906-0.15529c-0.1172-0.0703-0.2246-0.1626-0.3233-0.2773     c-0.0869-0.104-0.1621-0.2207-0.2236-0.3501c-0.0625-0.1289-0.1084-0.2666-0.1396-0.4131     c-0.0313-0.1465-0.0459-0.30221-0.0459-0.4668c0-0.2671,0.038-0.5063,0.1162-0.7178c0.0781-0.2114,0.1894-0.392,0.334-0.5424     c0.1455-0.1504,0.3144-0.2647,0.5097-0.3433c0.1944-0.0781,0.4024-0.1177,0.6231-0.1177c0.2685,0,0.5078,0.0537,0.7177,0.1607     c0.21,0.1074,0.3702,0.2397,0.4825,0.3974c0.1113,0.1582,0.1679,0.3072,0.1679,0.4478c0,0.0767-0.0273,0.1445-0.082,0.2036     s-0.1201,0.0884-0.1973,0.0884c-0.0859,0-0.1504-0.0205-0.1933-0.06111c-0.043-0.041-0.0908-0.11129-0.1436-0.21089     c-0.0879-0.1645-0.1914-0.2876-0.3096-0.36911c-0.1181-0.08159-0.2646-0.12209-0.4384-0.12209     c-0.2764,0-0.4961,0.105-0.6602,0.3145c-0.1631,0.2099-0.2451,0.5083-0.2451,0.895c0,0.2578,0.0361,0.47259,0.1084,0.644     c0.0723,0.1714,0.1748,0.2993,0.3076,0.3843c0.1328,0.0845,0.2891,0.1265,0.4668,0.1265c0.1934,0,0.3565-0.0479,0.4902-0.1436     c0.1338-0.0962,0.2344-0.2368,0.3028-0.4224c0.0283-0.0879,0.0644-0.1591,0.1064-0.2143     c0.042-0.0552,0.1104-0.0825,0.2041-0.0825c0.0801,0,0.1485,0.0278,0.2061,0.0839     C20.58885,30.73407,20.61815,30.80338,20.61815,30.88647z" style="fill:#AA6D0B;"/><path d="M23.41015,29.13347h-1.5146v0.8155h1.3955c0.1025,0,0.1787,0.0229,0.2295,0.0693     c0.0507,0.0459,0.0761,0.1064,0.0761,0.1821c0,0.07569-0.0254,0.1372-0.0752,0.1846c-0.0498,0.0474-0.1269,0.0713-0.2304,0.0713     h-1.3955v0.9443h1.5673c0.1055,0,0.1856,0.0249,0.2383,0.0737c0.0537,0.0494,0.0811,0.1143,0.0811,0.19579     c0,0.07871-0.0274,0.14261-0.0811,0.19151c-0.0527,0.0493-0.1328,0.0737-0.2383,0.0737h-1.8281     c-0.1465,0-0.2519-0.03221-0.3154-0.09721c-0.0645-0.06489-0.0967-0.16989-0.0967-0.31489v-2.49611     c0-0.09669,0.0147-0.17529,0.043-0.23629c0.0283-0.0616,0.0742-0.106,0.1347-0.1338c0.0616-0.02791,0.1397-0.042,0.2344-0.042     h1.7754c0.1074,0,0.1875,0.0239,0.2393,0.0713c0.0517,0.04779,0.0781,0.10979,0.0781,0.187c0,0.0786-0.0264,0.1416-0.0781,0.1889     C23.59765,29.11007,23.51755,29.13347,23.41015,29.13347z" style="fill:#AA6D0B;"/><path d="M25.19335,28.96168l1.293,1.9565v-1.9746c0-0.1284,0.0273-0.2246,0.083-0.2891     c0.0547-0.0639,0.1289-0.0962,0.2226-0.0962c0.0967,0,0.1729,0.0323,0.2286,0.0962c0.0556,0.0645,0.0839,0.1607,0.0839,0.2891     v2.6113c0,0.2915-0.121,0.437-0.3623,0.437c-0.0605,0-0.1152-0.00881-0.163-0.0259c-0.0489-0.0175-0.0938-0.04491-0.1358-0.083     c-0.042-0.0376-0.082-0.0815-0.1182-0.1323c-0.0361-0.0508-0.0722-0.102-0.1084-0.1553l-1.2617-1.934v1.9453     c0,0.1269-0.0293,0.2231-0.0879,0.2881c-0.0595,0.0644-0.1347,0.0971-0.2265,0.0971c-0.0957,0-0.1719-0.0327-0.2295-0.0986     c-0.0567-0.0654-0.086-0.1611-0.086-0.2866v-2.56161c0-0.10839,0.0127-0.19379,0.0362-0.25579     c0.0293-0.0679,0.0771-0.1235,0.1435-0.1665c0.0664-0.043,0.1377-0.0645,0.2149-0.0645c0.0605,0,0.1123,0.00979,0.1553,0.0293     c0.0429,0.02,0.08,0.0464,0.1132,0.0796c0.0323,0.0332,0.0655,0.0762,0.0996,0.12889     C25.12205,28.84888,25.15725,28.90397,25.19335,28.96168z" style="fill:#AA6D0B;"/><path d="M29.99705,29.16967h-0.7334v2.4121c0,0.1391-0.0312,0.2422-0.0937,0.3095     c-0.0615,0.0669-0.1416,0.1006-0.2393,0.1006c-0.0996,0-0.1816-0.0342-0.2441-0.102c-0.0625-0.0679-0.0938-0.1704-0.0938-0.3081     v-2.4121h-0.7334c-0.1152,0-0.2002-0.0249-0.2558-0.0757c-0.0567-0.0508-0.084-0.1172-0.084-0.2002     c0-0.0864,0.0283-0.1543,0.0869-0.2041c0.0586-0.0498,0.1426-0.0747,0.2529-0.0747h2.1377c0.1162,0,0.2031,0.0259,0.2598,0.07709     c0.0566,0.05131,0.0849,0.11871,0.0849,0.20171s-0.0292,0.1494-0.0869,0.2002     C30.19825,29.14478,30.11135,29.16967,29.99705,29.16967z" style="fill:#AA6D0B;"/></g><path d="M20.15235,23.65137l2.1854-0.226c0.0622,0.4946,0.2468,0.8859,0.5541,1.17469    c0.3068,0.28871,0.6604,0.43281,1.0614,0.43281c0.4578,0,0.8454-0.1856,1.1629-0.55781    c0.3174-0.37219,0.4759-0.93269,0.4759-1.68189c0-0.7024-0.1574-1.2294-0.4722-1.5803c-0.3148-0.3515-0.7248-0.527-1.2294-0.527    c-0.6296,0-1.1937,0.2781-1.6936,0.8348l-1.7792-0.2573l1.1236-5.955h5.7992v2.0525h-4.1365l-0.3435,1.9435    c0.4892-0.2446,0.9885-0.3669,1.4985-0.3669c0.9731,0,1.7978,0.3542,2.4742,1.0614c0.6764,0.7077,1.0145,1.6261,1.0145,2.755    c0,0.94219-0.2733,1.7824-0.8194,2.5209c-0.7444,1.0098-1.7771,1.5145-3.0984,1.5145c-1.0566,0-1.9175-0.2835-2.5838-0.8508    C20.68035,25.37157,20.28205,24.60907,20.15235,23.65137z" style="fill:#AA6D0B;"/></g></g></svg>