<?xml version="1.0" ?><svg style="enable-background:new 0 0 48 48;" version="1.1" viewBox="0 0 48 48" xml:space="preserve" xmlns="http://www.w3.org/2000/svg" xmlns:xlink="http://www.w3.org/1999/xlink"><g id="Icons"><g><path d="M38.70213,15.89066h-23.0117h-5.3199c-1.0501,0-1.9101-0.0767-1.9101,0.9833v2.4366v10.27v0.61    c0,1.05989-0.0695,1.92,0.9805,1.92h6.5396h22.7216c0.463,0,0.8384-0.3753,0.8384-0.8383v-14.5434    C39.54052,16.26586,39.16513,15.89066,38.70213,15.89066z" style="fill:#A6BF86;"/><path d="M38.04493,19.97936v8.0399c-1.43,0-2.59,1.1601-2.59,2.5901h-22.9c0-1.43-1.16-2.5901-2.59-2.5901    h-0.01c0-2.3299,0.01-5.7099,0.01-8.0399c1.43,0,2.59-1.16,2.59-2.58991h22.9    C35.45493,18.81936,36.61493,19.97936,38.04493,19.97936z" style="fill:#E6F4D0;"/><circle cx="23.9999" cy="23.99998" r="6.6106" style="fill:#A6BF86;"/><path d="M26.63232,24.40136c-0.1911-0.3094-0.4553-0.5527-0.7932-0.7314    c-0.338-0.1781-0.8596-0.3508-1.5651-0.51751c-0.7049-0.16709-1.1492-0.32719-1.3318-0.48149    c-0.1438-0.12051-0.2158-0.2662-0.2158-0.4363c0-0.1867,0.0768-0.3357,0.2305-0.4468c0.2383-0.17341,0.5681-0.2601,0.9893-0.2601    c0.4079,0,0.7139,0.0811,0.9181,0.2431c0.2041,0.1619,0.3371,0.4275,0.399,0.7973l1.4498-0.06371    c-0.023-0.661-0.262-1.18929-0.7173-1.585c-0.3452-0.29989-0.819-0.48519-1.4196-0.55789v-1.4049h-1.1382v1.4115    c-0.3275,0.0375-0.6329,0.0975-0.8901,0.2075c-0.3901,0.167-0.6887,0.4097-0.8962,0.7287    c-0.2075,0.31909-0.3109,0.6622-0.3109,1.02809c0,0.56951,0.2204,1.05231,0.661,1.44791    c0.3135,0.2816,0.8588,0.5188,1.6357,0.7118c0.604,0.1504,0.9908,0.25529,1.1608,0.3142c0.2479,0.0882,0.422,0.1923,0.5213,0.3116    c0.0996,0.1193,0.1497,0.2642,0.1497,0.4342c0,0.2648-0.1185,0.4965-0.3553,0.6944c-0.2368,0.1982-0.5884,0.2971-1.0552,0.2971    c-0.4409,0-0.7911-0.11121-1.0508-0.3338c-0.2593-0.2223-0.4315-0.571-0.5164-1.0453l-1.4105,0.1376    c0.0949,0.8047,0.3853,1.4174,0.8718,1.8376c0.3715,0.3212,0.8679,0.5175,1.4851,0.5932v1.3092h1.1382v-1.3124    c0.3862-0.0374,0.7419-0.1011,1.0302-0.2218c0.4179-0.1751,0.7409-0.4427,0.9696-0.8024    c0.2286-0.3598,0.3427-0.7458,0.3427-1.1583C26.91872,25.09236,26.82323,24.71036,26.63232,24.40136z" style="fill:#E6F4D0;"/><g><g><path d="M12.10532,25.62966v-2.5698c-0.4775,0.3672-0.7998,0.5508-0.9658,0.5508      c-0.0791,0-0.1485-0.0318-0.21-0.0948c-0.0615-0.063-0.0918-0.1357-0.0918-0.2187c0-0.0962,0.0303-0.1665,0.0908-0.2119      c0.0596-0.045,0.166-0.1036,0.3184-0.17481c0.2275-0.10749,0.4101-0.22029,0.5469-0.33889      c0.1367-0.1187,0.2568-0.2515,0.3623-0.3984c0.1054-0.1465,0.1748-0.2369,0.206-0.271      c0.0323-0.03371,0.0928-0.0508,0.1807-0.0508c0.1006,0,0.1807,0.0386,0.2402,0.1157c0.0606,0.0771,0.0908,0.1836,0.0908,0.3193      v3.2329c0,0.3785-0.1289,0.5679-0.3867,0.5679c-0.1152,0-0.207-0.0386-0.2773-0.1162      C12.14042,25.89386,12.10532,25.78006,12.10532,25.62966z" style="fill:#A6BF86;"/><path d="M16.26253,23.98606c0,0.3086-0.0185,0.5743-0.0556,0.79639      c-0.0381,0.22221-0.1075,0.42341-0.209,0.604c-0.128,0.22221-0.294,0.39361-0.4971,0.51421s-0.4297,0.1807-0.6777,0.1807      c-0.2862,0-0.543-0.0811-0.7696-0.2427c-0.2265-0.1621-0.3974-0.38621-0.5127-0.6724c-0.0586-0.1562-0.1015-0.3286-0.1279-0.518      c-0.0273-0.189-0.041-0.3941-0.041-0.6143c0-0.2842,0.0146-0.54,0.0449-0.7681c0.0303-0.2275,0.0772-0.4233,0.1406-0.58741      c0.1114-0.271,0.2725-0.47749,0.4844-0.61959c0.2119-0.1421,0.4649-0.21341,0.7588-0.21341      c0.1934,0,0.3691,0.03181,0.5273,0.09471c0.1583,0.063,0.2969,0.15529,0.417,0.2769c0.1192,0.1216,0.2207,0.2715,0.3038,0.4502      C16.19123,22.97776,16.26253,23.41776,16.26253,23.98606z M15.48913,23.92945c0-0.34419-0.0205-0.626-0.0615-0.84569      c-0.042-0.2192-0.1114-0.3848-0.209-0.4966c-0.0987-0.1123-0.2334-0.1684-0.4073-0.1684c-0.248,0-0.4209,0.1254-0.5175,0.3759      c-0.0977,0.25-0.1455,0.6363-0.1455,1.15779c0,0.35351,0.0205,0.64351,0.0615,0.86961c0.042,0.2256,0.1113,0.3965,0.209,0.5122      c0.0986,0.11619,0.2304,0.1738,0.3984,0.1738c0.1729,0,0.3086-0.06,0.4063-0.18061c0.0986-0.12069,0.1669-0.293,0.206-0.51659      C15.46953,24.58666,15.48913,24.29276,15.48913,23.92945z" style="fill:#A6BF86;"/></g><g><path d="M32.77723,25.62966v-2.5698c-0.4776,0.3672-0.7998,0.5508-0.9659,0.5508      c-0.0791,0-0.1484-0.0318-0.2099-0.0948s-0.0918-0.1357-0.0918-0.2187c0-0.0962,0.0303-0.1665,0.0908-0.2119      c0.0596-0.045,0.166-0.1036,0.3184-0.17481c0.2275-0.10749,0.4101-0.22029,0.5468-0.33889      c0.1368-0.1187,0.2569-0.2515,0.3623-0.3984c0.1055-0.1465,0.1749-0.2369,0.2061-0.271      c0.0322-0.03371,0.0928-0.0508,0.1807-0.0508c0.1006,0,0.1806,0.0386,0.2402,0.1157c0.0605,0.0771,0.0908,0.1836,0.0908,0.3193      v3.2329c0,0.3785-0.1289,0.5679-0.3867,0.5679c-0.1152,0-0.207-0.0386-0.2773-0.1162      C32.81232,25.89386,32.77723,25.78006,32.77723,25.62966z" style="fill:#A6BF86;"/><path d="M36.93443,23.98606c0,0.3086-0.0186,0.5743-0.0557,0.79639      c-0.0381,0.22221-0.1074,0.42341-0.209,0.604c-0.1279,0.22221-0.2939,0.39361-0.497,0.51421      c-0.2032,0.1206-0.4297,0.1807-0.6778,0.1807c-0.2861,0-0.5429-0.0811-0.7695-0.2427      c-0.2266-0.1621-0.3975-0.38621-0.5127-0.6724c-0.0586-0.1562-0.1015-0.3286-0.1279-0.518      c-0.0274-0.189-0.041-0.3941-0.041-0.6143c0-0.2842,0.0146-0.54,0.0449-0.7681c0.0303-0.2275,0.0771-0.4233,0.1406-0.58741      c0.1113-0.271,0.2725-0.47749,0.4844-0.61959c0.2119-0.1421,0.4648-0.21341,0.7588-0.21341      c0.1933,0,0.3691,0.03181,0.5273,0.09471c0.1582,0.063,0.2969,0.15529,0.417,0.2769c0.1192,0.1216,0.2207,0.2715,0.3037,0.4502      C36.86312,22.97776,36.93443,23.41776,36.93443,23.98606z M36.16103,23.92945c0-0.34419-0.0206-0.626-0.0616-0.84569      c-0.042-0.2192-0.1113-0.3848-0.209-0.4966c-0.0986-0.1123-0.2334-0.1684-0.4072-0.1684c-0.248,0-0.4209,0.1254-0.5176,0.3759      c-0.0976,0.25-0.1455,0.6363-0.1455,1.15779c0,0.35351,0.0205,0.64351,0.0616,0.86961c0.042,0.2256,0.1113,0.3965,0.2089,0.5122      c0.0987,0.11619,0.2305,0.1738,0.3985,0.1738c0.1728,0,0.3086-0.06,0.4062-0.18061c0.0987-0.12069,0.167-0.293,0.2061-0.51659      C36.14143,24.58666,36.16103,24.29276,36.16103,23.92945z" style="fill:#A6BF86;"/></g></g></g></g></svg>