<?xml version="1.0" ?><svg style="enable-background:new 0 0 48 48;" version="1.1" viewBox="0 0 48 48" xml:space="preserve" xmlns="http://www.w3.org/2000/svg" xmlns:xlink="http://www.w3.org/1999/xlink"><g id="Icons"><g><g><ellipse cx="23.99998" cy="23.99998" rx="15.25829" ry="15.25829" style="fill:#FFC601;" transform="matrix(0.00717 -0.99997 0.99997 0.00717 -0.17138 47.82734)"/><ellipse cx="24" cy="23.99997" rx="12.34486" ry="12.34482" style="fill:#E09807;" transform="matrix(0.00717 -0.99997 0.99997 0.00717 -0.17141 47.8273)"/><g><path d="M20.6182,30.8864c0,0.1059-0.0264,0.2202-0.0781,0.3432      c-0.0527,0.1231-0.1338,0.2442-0.2461,0.3623c-0.1113,0.1187-0.2539,0.2149-0.4277,0.2891      c-0.1739,0.0737-0.376,0.1108-0.6075,0.1108c-0.1748,0-0.3339-0.0166-0.4775-0.0498c-0.1436-0.0332-0.2734-0.0849-0.3906-0.1553      c-0.1172-0.0703-0.2246-0.1626-0.3233-0.2773c-0.0869-0.104-0.1621-0.2207-0.2236-0.3501      c-0.0625-0.1289-0.1084-0.2666-0.1396-0.4131c-0.0313-0.1465-0.0459-0.3022-0.0459-0.4668c0-0.2671,0.038-0.5063,0.1162-0.7178      c0.0781-0.2114,0.1894-0.392,0.334-0.5424c0.1455-0.1504,0.3144-0.26471,0.5097-0.3433      c0.1944-0.0781,0.4024-0.1177,0.6231-0.1177c0.2685,0,0.5078,0.0537,0.7177,0.1607c0.21,0.1074,0.3702,0.2397,0.4825,0.3974      c0.1113,0.15819,0.1679,0.30719,0.1679,0.4478c0,0.0767-0.0273,0.1445-0.082,0.2036c-0.0547,0.0591-0.1201,0.0884-0.1973,0.0884      c-0.0859,0-0.1504-0.0205-0.1933-0.0611c-0.043-0.041-0.0908-0.1113-0.1436-0.2109c-0.0879-0.1645-0.1914-0.28761-0.3096-0.3691      c-0.1181-0.0816-0.2646-0.1221-0.4384-0.1221c-0.2764,0-0.4961,0.105-0.6602,0.3145c-0.1631,0.2099-0.2451,0.5083-0.2451,0.895      c0,0.2578,0.0361,0.4726,0.1084,0.644s0.1748,0.2993,0.3076,0.3843c0.1328,0.0845,0.2891,0.1265,0.4668,0.1265      c0.1934,0,0.3565-0.0479,0.4902-0.1436c0.1338-0.0962,0.2344-0.2368,0.3028-0.4224c0.0283-0.0879,0.0644-0.1591,0.1064-0.2143      c0.042-0.0552,0.1104-0.0825,0.2041-0.0825c0.0801,0,0.1485,0.0278,0.2061,0.0839      C20.5889,30.734,20.6182,30.8033,20.6182,30.8864z" style="fill:#AA6D0B;"/><path d="M23.4102,29.1334h-1.5146v0.8155h1.3955c0.1025,0,0.1787,0.0229,0.2295,0.0693      c0.0507,0.0459,0.0761,0.1064,0.0761,0.1821c0,0.0757-0.0254,0.13719-0.0752,0.1846c-0.0498,0.0474-0.1269,0.0713-0.2304,0.0713      h-1.3955v0.94429h1.5673c0.1055,0,0.1856,0.02491,0.2383,0.07371c0.0537,0.0494,0.0811,0.11429,0.0811,0.1958      c0,0.0787-0.0274,0.1426-0.0811,0.19149c-0.0527,0.0493-0.1328,0.07371-0.2383,0.07371h-1.8281      c-0.1465,0-0.2519-0.0322-0.3154-0.0972c-0.0645-0.0649-0.0967-0.1699-0.0967-0.3149V29.027      c0-0.0967,0.0147-0.1753,0.043-0.2363c0.0283-0.0616,0.0742-0.106,0.1347-0.1338c0.0616-0.0279,0.1397-0.042,0.2344-0.042      h1.7754c0.1074,0,0.1875,0.0239,0.2393,0.0713c0.0517,0.0478,0.0781,0.1098,0.0781,0.187c0,0.0786-0.0264,0.1416-0.0781,0.1889      C23.5977,29.11,23.5176,29.1334,23.4102,29.1334z" style="fill:#AA6D0B;"/><path d="M25.1933,28.9616l1.293,1.9565v-1.97461c0-0.1284,0.0273-0.22459,0.083-0.28909      c0.0547-0.06391,0.1289-0.0962,0.2226-0.0962c0.0967,0,0.1729,0.03229,0.2286,0.0962c0.0556,0.0645,0.084,0.1607,0.084,0.28909      v2.61131c0,0.2915-0.121,0.437-0.3624,0.437c-0.0605,0-0.1152-0.0088-0.163-0.0259c-0.0489-0.0175-0.0938-0.0449-0.1358-0.083      c-0.042-0.0376-0.082-0.0815-0.1182-0.1323c-0.0361-0.0508-0.0722-0.102-0.1084-0.1553l-1.2617-1.934v1.9453      c0,0.12689-0.0293,0.2231-0.0879,0.2881c-0.0595,0.0644-0.1346,0.0971-0.2265,0.0971c-0.0957,0-0.1719-0.0327-0.2295-0.0986      c-0.0566-0.0654-0.086-0.1611-0.086-0.2866V29.045c0-0.1084,0.0127-0.1938,0.0362-0.2558      c0.0293-0.0679,0.0772-0.1235,0.1435-0.1665c0.0664-0.043,0.1377-0.0645,0.2149-0.0645c0.0605,0,0.1123,0.0098,0.1553,0.02929      c0.0429,0.02,0.08,0.04641,0.1132,0.07961c0.0323,0.0332,0.0655,0.0762,0.0996,0.1289      C25.122,28.8488,25.1572,28.9039,25.1933,28.9616z" style="fill:#AA6D0B;"/><path d="M29.997,29.1696h-0.7334v2.4121c0,0.1391-0.0311,0.2422-0.0937,0.3095      c-0.0614,0.0669-0.1416,0.1006-0.2393,0.1006c-0.0996,0-0.1816-0.0342-0.2441-0.102c-0.0625-0.0679-0.0938-0.1704-0.0938-0.3081      v-2.4121h-0.7334c-0.1152,0-0.2002-0.0249-0.2558-0.0757c-0.0567-0.0508-0.084-0.1172-0.084-0.2002      c0-0.0864,0.0283-0.1543,0.087-0.2041c0.0585-0.0498,0.1425-0.0747,0.2528-0.0747h2.1377c0.1162,0,0.2031,0.0259,0.2598,0.0771      c0.0567,0.0513,0.0849,0.1187,0.0849,0.2017s-0.0292,0.1494-0.0869,0.2002C30.1982,29.1447,30.1113,29.1696,29.997,29.1696z" style="fill:#AA6D0B;"/></g></g><path d="M17.087,24.1657l1.939-0.20021c0.0556,0.43851,0.2193,0.78611,0.4917,1.042    c0.2724,0.25581,0.5864,0.38471,0.9419,0.38471c0.4062,0,0.7504-0.165,1.0322-0.4951c0.2812-0.3301,0.4223-0.8281,0.4223-1.493    c0-0.6231-0.1396-1.0909-0.4188-1.4024c-0.2799-0.3115-0.6432-0.4678-1.0909-0.4678c-0.5586,0-1.0596,0.2471-1.503,0.7412    l-1.5791-0.2285l0.9971-5.28411h5.146v1.82121H19.795l-0.3052,1.7247c0.4341-0.2168,0.8775-0.3252,1.3301-0.3252    c0.8634,0,1.5952,0.3134,2.1954,0.9414c0.6,0.62789,0.9003,1.4433,0.9003,2.4453c0,0.8358-0.2427,1.5809-0.727,2.2362    c-0.6607,0.8965-1.5772,1.3438-2.7496,1.3438c-0.9375,0-1.7016-0.251-2.2924-0.7549    C17.5553,25.692,17.2023,25.0153,17.087,24.1657z" style="fill:#AA6D0B;"/><path d="M27.9533,16.5827c0.9833,0,1.7523,0.3507,2.3061,1.05279    c0.6606,0.83111,0.9907,2.209,0.9907,4.13481c0,1.9199-0.3325,3.3006-0.9976,4.1415c-0.5492,0.6924-1.3159,1.0381-2.2992,1.0381    c-0.9879,0-1.7843-0.3799-2.3893-1.1387c-0.6049-0.7598-0.9072-2.1132-0.9072-4.0625c0-1.9111,0.3325-3.287,0.9971-4.127    C26.2033,16.92849,26.9698,16.5827,27.9533,16.5827z M27.9533,18.196c-0.2354,0-0.4454,0.0752-0.63,0.2256    c-0.185,0.1494-0.328,0.419-0.4297,0.8067c-0.1338,0.5029-0.2006,1.3506-0.2006,2.542c0,1.1904,0.06,2.0088,0.1801,2.4549    c0.1197,0.4454,0.271,0.7422,0.4536,0.8897c0.1822,0.1475,0.3912,0.2217,0.6266,0.2217c0.2357,0,0.4457-0.0752,0.6303-0.2256    c0.1845-0.1494,0.3277-0.419,0.4292-0.8067c0.1343-0.4979,0.2011-1.3436,0.2011-2.534c0-1.1914-0.06-2.00981-0.1801-2.4561    c-0.1201-0.4453-0.2715-0.7432-0.4535-0.8926C28.3975,18.2712,28.189,18.196,27.9533,18.196z" style="fill:#AA6D0B;"/></g></g></svg>