<?xml version="1.0" ?><svg style="enable-background:new 0 0 48 48;" version="1.1" viewBox="0 0 48 48" xml:space="preserve" xmlns="http://www.w3.org/2000/svg" xmlns:xlink="http://www.w3.org/1999/xlink"><g id="Icons"><g><path d="M6.6909,16.2189c0-0.3253,0.3478-0.5337,0.6309-0.3734c2.0938,1.1855,9.0646,4.6466,17.4522,0.2296    c8.27-4.355,14.32-1.9426,16.0389-1.0626c0.3078,0.1576,0.4962,0.4717,0.4962,0.8176v15.951c0,0.3253-0.3478,0.5337-0.6309,0.3734    c-2.0938-1.1855-9.0646-4.6466-17.4522-0.2296c-8.2792,4.3548-14.3224,1.9428-16.0393,1.0628    C6.879,32.83,6.6909,32.516,6.6909,32.1703V16.2189z" style="fill:#A6BF86;"/><g><path d="M26.1836,23.9782c-0.2034-0.234-0.4591-0.4024-0.7679-0.5062     c-0.3088-0.1035-0.7714-0.177-1.3877-0.2203c-0.6162-0.0436-1.0119-0.1172-1.1867-0.2218     c-0.1376-0.0818-0.2181-0.1944-0.2414-0.3375c-0.0257-0.1571,0.0183-0.2929,0.1324-0.4076     c0.1766-0.1786,0.4421-0.2969,0.7965-0.3548c0.3431-0.0561,0.6117-0.0299,0.8057,0.0783     c0.194,0.1081,0.3425,0.3133,0.4453,0.6159l1.2109-0.253c-0.1102-0.5529-0.3839-0.9645-0.8213-1.2348     c-0.3316-0.2049-0.7557-0.2956-1.271-0.2742l-0.1931-1.1818l-0.9575,0.1565l0.194,1.1874     c-0.2703,0.0765-0.519,0.1691-0.7203,0.2969c-0.3052,0.1942-0.5231,0.4394-0.6538,0.7363     c-0.1306,0.2969-0.1704,0.5997-0.1201,0.9077c0.0783,0.4791,0.3301,0.8549,0.7551,1.1272     c0.3024,0.1938,0.7938,0.3183,1.474,0.3739c0.5287,0.0435,0.8685,0.0785,1.0197,0.1047     c0.2206,0.0401,0.3814,0.1038,0.4814,0.1905c0.1002,0.0866,0.1622,0.2016,0.1856,0.3447     c0.0364,0.2228-0.0315,0.434-0.2035,0.6329c-0.1719,0.1993-0.4541,0.3309-0.8468,0.3951     c-0.3709,0.0606-0.6808,0.0152-0.9299-0.1364c-0.2487-0.1514-0.4416-0.421-0.5782-0.8083l-1.1677,0.3096     c0.1905,0.6639,0.5191,1.1395,0.9861,1.4261c0.3567,0.2191,0.8012,0.3161,1.3309,0.295l0.18,1.1012l0.9575-0.1564l-0.1804-1.1041     c0.3198-0.0846,0.6102-0.187,0.8362-0.3282c0.3275-0.2048,0.5625-0.4743,0.7054-0.8084c0.1428-0.334,0.1857-0.6745,0.129-1.0214     C26.5195,24.5201,26.3866,24.2119,26.1836,23.9782z" style="fill:#E6F4D0;"/></g><path d="M25.1049,29.4494c-0.01,0-0.02,0.01-0.03,0.01c-0.86,0.32-1.71,0.7-2.55,1.14    c-2.97,1.56-5.92,2.35-8.77,2.35c-1.16,0-2.2-0.14-3.07-0.32c0.1-0.27,0.15-0.57,0.15-0.87c0-1.47-1.18-2.65-2.64-2.65v-8.5    c1.13,0,2.1-0.71,2.47-1.71c1.83,0.58,3.71,0.86,5.61,0.86c1.96,0,3.89-0.31,5.79-0.92h0.02h-0.02c-1.82,0.9-2.99,3.13-2.76,5.6    c0.29,3.07,2.62,5.36,5.22,5.12c0.19-0.02,0.37-0.05,0.55-0.1C25.0849,29.4694,25.0949,29.4694,25.1049,29.4494" style="fill:#E6F4D0;"/><path d="M25.8749,29.1794c0.02,0,0.03,0,0.04-0.01c1.84-0.89,3.01-3.13,2.78-5.61    c-0.29-3.07-2.62-5.36-5.22-5.12c-0.17,0.02-0.34,0.05-0.51,0.09c-0.01,0-0.02,0-0.03,0l-0.01,0.01l0.01-0.01    c0.01,0,0.02,0,0.03,0c0.85-0.31,1.68-0.7,2.51-1.13c2.96-1.56,5.91-2.35,8.76-2.35c1.15,0,2.17,0.13,3.03,0.33    c-0.07,0.23-0.1,0.47-0.1,0.72c0,1.46,1.18,2.64,2.64,2.64v8.5c-1.18,0-2.18,0.78-2.52,1.85c-1.81-0.57-3.67-0.85-5.56-0.85    c-1.96,0-3.91,0.31-5.81,0.93C25.9049,29.1794,25.8949,29.1794,25.8749,29.1794" style="fill:#E6F4D0;"/><g><g><path d="M15.1,24.0083h-1.5546l-0.1866,1.0605c0.3096-0.166,0.5957-0.249,0.8574-0.249      c0.21,0,0.4053,0.0395,0.5879,0.1182c0.1817,0.0786,0.3418,0.187,0.4795,0.3256c0.1377,0.1382,0.2451,0.3028,0.3243,0.4922      c0.0781,0.19,0.1171,0.3941,0.1171,0.6123c0,0.3164-0.0703,0.6045-0.2119,0.8638c-0.1426,0.2598-0.3467,0.4663-0.6142,0.6187      c-0.2676,0.1528-0.5752,0.2294-0.9248,0.2294c-0.3907,0-0.7071-0.0722-0.9502-0.2163c-0.2432-0.144-0.416-0.309-0.5176-0.4956      c-0.1016-0.1865-0.1524-0.3496-0.1524-0.4892c0-0.0855,0.0362-0.166,0.1065-0.2422c0.0713-0.0767,0.1601-0.1148,0.2666-0.1148      c0.1836,0,0.3203,0.106,0.4092,0.3174c0.0879,0.1944,0.205,0.3452,0.3535,0.4531c0.1484,0.1084,0.3144,0.1622,0.498,0.1622      c0.168,0,0.3155-0.0435,0.4414-0.1309c0.127-0.0874,0.2246-0.207,0.293-0.3599c0.0693-0.1528,0.1035-0.3261,0.1035-0.5205      c0-0.2094-0.0371-0.3882-0.1113-0.5366c-0.0742-0.1484-0.1738-0.2593-0.2979-0.3325c-0.125-0.0728-0.2636-0.1094-0.416-0.1094      c-0.1875,0-0.3213,0.023-0.4023,0.0689c-0.0811,0.0454-0.1973,0.1259-0.3486,0.2402c-0.1514,0.1147-0.2764,0.1719-0.375,0.1719      c-0.1065,0-0.2012-0.0386-0.2842-0.1162c-0.083-0.0772-0.125-0.1651-0.125-0.2632c0-0.0113,0.0127-0.0855,0.0361-0.2227      l0.2754-1.5679c0.0303-0.1875,0.0869-0.3242,0.1699-0.4091c0.083-0.085,0.2178-0.1275,0.4063-0.1275h1.7275      c0.3408,0,0.5107,0.1299,0.5107,0.3892c0,0.1138-0.0419,0.2056-0.124,0.2754C15.3842,23.9736,15.2621,24.0083,15.1,24.0083z" style="fill:#A6BF86;"/></g><g><path d="M34.5756,20.018l-1.5527,0.0752l-0.1348,1.0689c0.3018-0.1812,0.583-0.2783,0.8448-0.291      c0.2099-0.0098,0.4062,0.02,0.5917,0.0898c0.1856,0.0698,0.3516,0.1699,0.4961,0.3018c0.1436,0.1318,0.2588,0.2905,0.3467,0.476      c0.0879,0.1861,0.1367,0.3882,0.1465,0.606c0.0156,0.3164-0.041,0.6074-0.1699,0.873c-0.1289,0.2666-0.3223,0.4825-0.583,0.648      c-0.2598,0.165-0.5635,0.2568-0.9131,0.2739c-0.3887,0.0186-0.709-0.0381-0.959-0.1699      c-0.249-0.1323-0.4307-0.2886-0.541-0.4702c-0.1104-0.1817-0.169-0.3413-0.1758-0.481      c-0.0039-0.0859,0.0283-0.1675,0.0947-0.247c0.0674-0.0801,0.1543-0.1226,0.2608-0.128      c0.1836-0.0088,0.3242,0.0908,0.4238,0.2974c0.0977,0.1899,0.2217,0.3345,0.375,0.4355      c0.1543,0.1011,0.3213,0.1465,0.5049,0.1377c0.168-0.0083,0.3135-0.0586,0.4355-0.1523      c0.1231-0.0933,0.2139-0.2173,0.2744-0.3735c0.0625-0.1563,0.0879-0.3306,0.0782-0.525      c-0.0098-0.2089-0.0557-0.3857-0.1367-0.5307c-0.0821-0.1445-0.1856-0.2505-0.3135-0.3174      c-0.1289-0.0669-0.2686-0.0962-0.4209-0.0889c-0.1875,0.0093-0.3194,0.0386-0.3985,0.0879      c-0.0791,0.0493-0.1914,0.1358-0.3369,0.2569c-0.1455,0.1225-0.2685,0.185-0.3662,0.1899      c-0.1055,0.0049-0.2021-0.0288-0.289-0.102c-0.087-0.0733-0.1329-0.1592-0.1377-0.2574      c-0.001-0.0112,0.0078-0.0854,0.0254-0.2236l0.1992-1.5796c0.0205-0.189,0.0713-0.3281,0.1484-0.4165      c0.0791-0.0894,0.2119-0.1382,0.4004-0.1475l1.7256-0.0835c0.3398-0.0166,0.5166,0.105,0.5283,0.3638      c0.0059,0.1138-0.0312,0.207-0.1103,0.2808C34.8588,19.9697,34.7377,20.0102,34.5756,20.018z" style="fill:#A6BF86;"/></g></g></g></g></svg>