<?xml version="1.0" ?><svg style="enable-background:new 0 0 48 48;" version="1.1" viewBox="0 0 48 48" xml:space="preserve" xmlns="http://www.w3.org/2000/svg" xmlns:xlink="http://www.w3.org/1999/xlink"><g id="Icons"><g><g><path d="M9.6126,19.23946c0-0.2983,0.3189-0.4894,0.5785-0.3424c1.92,1.0871,8.3122,4.2609,16.0037,0.2106     c7.5836-3.9936,13.1315-1.7814,14.7077-0.9745c0.2823,0.1445,0.4551,0.43259,0.4551,0.7498v14.6271     c0,0.2983-0.319,0.4894-0.5786,0.3424c-1.92-1.0871-8.3122-4.2609-16.0037-0.2105c-7.592,3.9933-13.1337,1.7815-14.7081,0.9745     c-0.2821-0.1445-0.4546-0.4325-0.4546-0.7495V19.23946z" style="fill:#A6BF86;"/><g><path d="M27.4874,26.35475c-0.1865-0.21459-0.421-0.369-0.7041-0.46419      c-0.2832-0.0949-0.7074-0.1623-1.2726-0.202c-0.565-0.04-0.9279-0.1075-1.0882-0.2034c-0.1261-0.075-0.2-0.1782-0.2213-0.3095      c-0.0236-0.144,0.0168-0.2686,0.1214-0.3737c0.1619-0.1638,0.4054-0.2723,0.7304-0.3254      c0.3146-0.0514,0.5609-0.0274,0.7388,0.0718c0.1779,0.0991,0.3141,0.2873,0.4083,0.5648l1.1104-0.232      c-0.101-0.507-0.352-0.8845-0.7531-1.1323c-0.3041-0.1879-0.693-0.27111-1.1655-0.2515l-0.1771-1.0837l-0.878,0.1435      l0.1779,1.0889c-0.2479,0.0701-0.4759,0.155-0.6605,0.2722c-0.2799,0.1781-0.4797,0.403-0.5996,0.6752      c-0.1197,0.27229-0.1562,0.55-0.1101,0.8324c0.0718,0.4393,0.3027,0.78389,0.6924,1.0336      c0.2773,0.1778,0.728,0.2919,1.3517,0.3429c0.4848,0.0399,0.7964,0.072,0.9351,0.096c0.2023,0.0368,0.3497,0.0952,0.4414,0.1747      c0.0919,0.0794,0.1488,0.1849,0.1702,0.3161c0.0334,0.2043-0.0289,0.398-0.1866,0.5804      c-0.1576,0.1827-0.4164,0.3034-0.7765,0.3623c-0.3401,0.0555-0.6243,0.01389-0.8527-0.12511      c-0.2281-0.13879-0.405-0.38609-0.5302-0.74119l-1.0708,0.2839c0.1747,0.6088,0.476,1.0449,0.9042,1.3077      c0.3271,0.2009,0.7347,0.2899,1.2205,0.2705l0.165,1.0098l0.8781-0.1434l-0.1655-1.0124      c0.2933-0.0776,0.5596-0.1715,0.7668-0.301c0.3003-0.1878,0.5158-0.43491,0.6469-0.7413      c0.1309-0.3063,0.1703-0.6185,0.1183-0.93661C27.7955,26.85166,27.6736,26.56906,27.4874,26.35475z" style="fill:#E6F4D0;"/></g><path d="M26.4983,31.37186c-0.0092,0-0.0184,0.0092-0.0275,0.0092     c-0.7887,0.2934-1.5681,0.6419-2.3384,1.0454c-2.7235,1.4305-5.4287,2.1549-8.0421,2.1549c-1.0637,0-2.0174-0.1284-2.8152-0.2934     c0.0917-0.2476,0.1375-0.5227,0.1375-0.7978c0-1.348-1.082-2.4301-2.4208-2.4301v-7.7945c1.0362,0,1.9257-0.6511,2.265-1.5681     c1.6781,0.5319,3.402,0.7887,5.1443,0.7887c1.7974,0,3.5672-0.2843,5.3095-0.8437h0.0183h-0.0183     c-1.669,0.82529-2.7419,2.8702-2.5309,5.1352c0.2659,2.8152,2.4025,4.9152,4.7867,4.69509     c0.1742-0.01839,0.3393-0.04589,0.5044-0.09169C26.4799,31.39025,26.4891,31.39025,26.4983,31.37186" style="fill:#E6F4D0;"/><path d="M27.2044,31.12426c0.0183,0,0.0275,0,0.0366-0.0091c1.6873-0.8162,2.7602-2.8703,2.5493-5.14441     c-0.2659-2.81519-2.4025-4.91519-4.7867-4.69509c-0.1559,0.0184-0.3118,0.0459-0.4677,0.0826c-0.0092,0-0.0184,0-0.0275,0     l-0.0092,0.0091l0.0092-0.0091c0.0091,0,0.0183,0,0.0275,0c0.7794-0.2843,1.5405-0.6419,2.3017-1.0363     c2.7143-1.4305,5.4194-2.1549,8.0329-2.1549c1.0545,0,1.9899,0.1192,2.7785,0.3026c-0.0642,0.2109-0.0917,0.431-0.0917,0.6602     c0,1.33889,1.0821,2.42089,2.4209,2.42089v7.79451c-1.0821,0-1.9991,0.7153-2.3108,1.69649     c-1.6598-0.52269-3.3654-0.77949-5.0986-0.77949c-1.7973,0-3.5855,0.2843-5.3278,0.8529     C27.2319,31.12426,27.2227,31.12426,27.2044,31.12426" style="fill:#E6F4D0;"/><path d="M15.782,29.59936v-2.7313c-0.5077,0.39-0.8498,0.5852-1.0262,0.5852     c-0.0842,0-0.1585-0.0336-0.2239-0.1008c-0.0644-0.06671-0.0976-0.1441-0.0976-0.2324c0-0.102,0.0323-0.1768,0.0967-0.2252     c0.0636-0.0478,0.1765-0.1096,0.3385-0.1858c0.2427-0.1141,0.4361-0.2342,0.5812-0.3604     c0.1451-0.1258,0.2732-0.26691,0.3859-0.4231c0.112-0.15581,0.1846-0.2521,0.2186-0.288     c0.034-0.0362,0.0985-0.0542,0.1925-0.0542c0.1057,0,0.1908,0.0413,0.2552,0.1232c0.0636,0.082,0.0959,0.19519,0.0959,0.339     v3.4365c0,0.4021-0.137,0.6035-0.4111,0.6035c-0.1227,0-0.2203-0.0411-0.2947-0.1231     C15.8188,29.88056,15.782,29.75926,15.782,29.59936z" style="fill:#A6BF86;"/><path d="M34.3513,25.73616v-2.73141c-0.5078,0.39-0.8498,0.58531-1.0262,0.58531     c-0.0842,0-0.1585-0.0336-0.2239-0.1007c-0.0644-0.0668-0.0976-0.1443-0.0976-0.2325c0-0.10211,0.0322-0.1768,0.0967-0.2252     c0.0636-0.04791,0.1764-0.1097,0.3385-0.1858c0.2427-0.1142,0.4361-0.2342,0.5812-0.3605     c0.145-0.1258,0.2732-0.2668,0.3859-0.4231c0.112-0.1558,0.1845-0.2521,0.2186-0.2879c0.034-0.0362,0.0985-0.0541,0.1925-0.0541     c0.1057,0,0.1908,0.0412,0.2552,0.123c0.0636,0.082,0.0959,0.1953,0.0959,0.3391v3.43639c0,0.40211-0.137,0.60361-0.4111,0.60361     c-0.1227,0-0.2203-0.0412-0.2947-0.1232C34.3881,26.01736,34.3513,25.89596,34.3513,25.73616z" style="fill:#A6BF86;"/></g><path d="M36.0258,26.87766v3.5822c0,0.29-0.27,0.49-0.5,0.34c-1.6599-1.09-7.2-4.26-13.87-0.21    c-5.7299,3.47-10.1099,2.25-12.0399,1.34v-2.3114c2.6599,0.66,6.6532,0.3777,11.9132-2.3923    C27.599,24.02616,33.1358,25.64766,36.0258,26.87766z" style="opacity:0.1;"/><path d="M6.6424,14.48996c0-0.2983,0.319-0.4894,0.5786-0.3424c1.92,1.0871,8.3122,4.2609,16.0037,0.2105    c7.5836-3.9935,13.1314-1.78131,14.7077-0.9744c0.2823,0.1445,0.455,0.4326,0.455,0.7497v14.6272    c0,0.2983-0.3189,0.4894-0.5785,0.3424c-1.92-1.0871-8.3122-4.2609-16.0037-0.2106c-7.592,3.99339-13.1337,1.7816-14.7081,0.9746    c-0.2821-0.1446-0.4547-0.4325-0.4547-0.7495V14.48996z" style="fill:#A6BF86;"/><g><path d="M24.5173,21.60526c-0.1865-0.2146-0.421-0.369-0.7042-0.4642     c-0.2831-0.0949-0.7073-0.16231-1.2725-0.202c-0.565-0.04-0.9279-0.1075-1.0882-0.2034c-0.1262-0.075-0.2-0.1783-0.2214-0.3095     c-0.0235-0.144,0.0168-0.2686,0.1214-0.3738c0.162-0.1637,0.4055-0.2722,0.7304-0.3253c0.3147-0.0515,0.561-0.0274,0.7389,0.0718     c0.1779,0.0991,0.314,0.2873,0.4083,0.5648l1.1104-0.232c-0.101-0.507-0.352-0.8845-0.7531-1.1323     c-0.3041-0.1879-0.693-0.2711-1.1655-0.2515l-0.1771-1.0837l-0.878,0.1435l0.1779,1.0889     c-0.2479,0.0701-0.476,0.155-0.6606,0.27219c-0.2798,0.17811-0.4796,0.403-0.5995,0.67521     c-0.1198,0.2723-0.1563,0.5499-0.1101,0.8324c0.0718,0.4393,0.3027,0.7839,0.6924,1.0336     c0.2773,0.1777,0.7279,0.2919,1.3517,0.3429c0.4848,0.03989,0.7964,0.072,0.935,0.096c0.2023,0.0368,0.3498,0.0952,0.4415,0.1747     c0.0919,0.0794,0.1487,0.1849,0.1702,0.3161c0.0334,0.2043-0.0289,0.398-0.1866,0.5803     c-0.1577,0.18279-0.4164,0.3035-0.7766,0.3624c-0.3401,0.0555-0.6243,0.0139-0.8527-0.1251     c-0.228-0.1389-0.4049-0.3861-0.5302-0.7412l-1.0708,0.2839c0.1747,0.60879,0.476,1.0449,0.9043,1.3077     c0.3271,0.2009,0.7347,0.2899,1.2204,0.2705l0.1651,1.0098l0.878-0.1434l-0.1654-1.0125     c0.2932-0.0775,0.5595-0.1714,0.7668-0.3009c0.3003-0.1878,0.5158-0.435,0.6468-0.7413c0.131-0.3063,0.1703-0.6185,0.1183-0.9367     C24.8253,22.10216,24.7034,21.81956,24.5173,21.60526z" style="fill:#E6F4D0;"/></g><path d="M23.5281,26.62236c-0.0091,0-0.0183,0.0092-0.0275,0.0092    c-0.7886,0.2934-1.5681,0.6419-2.3383,1.0454c-2.7235,1.4305-5.4287,2.1549-8.0421,2.1549c-1.0638,0-2.0175-0.1284-2.8152-0.2934    c0.0917-0.2476,0.1375-0.52271,0.1375-0.7978c0-1.348-1.0821-2.4301-2.4209-2.4301v-7.7945c1.0362,0,1.9257-0.6511,2.265-1.5681    c1.6781,0.5319,3.4021,0.7886,5.1444,0.7886c1.7973,0,3.5671-0.2842,5.3094-0.8436h0.0184h-0.0184    c-1.6689,0.8253-2.7418,2.8702-2.5309,5.1352c0.2659,2.8152,2.4026,4.9151,4.7868,4.6951    c0.1742-0.0184,0.3393-0.0459,0.5043-0.0917C23.5098,26.64066,23.519,26.64066,23.5281,26.62236" style="fill:#E6F4D0;"/><path d="M24.2342,26.37475c0.0184,0,0.0275,0,0.0367-0.00919c1.6873-0.8161,2.7602-2.8702,2.5493-5.1443    c-0.266-2.8152-2.4026-4.9152-4.7868-4.6951c-0.1559,0.0183-0.3118,0.0459-0.4677,0.0825c-0.0091,0-0.0183,0-0.0275,0    l-0.0091,0.0092l0.0091-0.0092c0.0092,0,0.0184,0,0.0275,0c0.7795-0.2842,1.5406-0.64191,2.3017-1.0362    c2.7143-1.4305,5.4195-2.1549,8.033-2.1549c1.0545,0,1.9899,0.11919,2.7785,0.3026c-0.0642,0.2109-0.0917,0.431-0.0917,0.6602    c0,1.3388,1.082,2.4209,2.4209,2.4209v7.79449c-1.0821,0-1.9991,0.71531-2.3109,1.69651    c-1.6598-0.5227-3.3654-0.77951-5.0985-0.77951c-1.7973,0-3.5855,0.28431-5.3278,0.85281    C24.2617,26.37475,24.2526,26.37475,24.2342,26.37475" style="fill:#E6F4D0;"/><g><path d="M14.7413,21.68966l-1.5537,0.0435l-0.1572,1.0654c0.3047-0.17481,0.5888-0.2656,0.8506-0.2729     c0.2098-0.0064,0.4051,0.0278,0.5897,0.1015c0.1847,0.0733,0.3478,0.1773,0.4894,0.312     c0.1415,0.1338,0.2529,0.2955,0.3378,0.4825c0.0831,0.188,0.1279,0.39109,0.1348,0.6093c0.0088,0.316-0.0537,0.606-0.1875,0.8692     c-0.1358,0.2637-0.3341,0.4761-0.5976,0.6352c-0.2627,0.1607-0.5674,0.2456-0.9171,0.2559     c-0.3905,0.0107-0.7089-0.0527-0.956-0.1899c-0.247-0.1368-0.4249-0.2969-0.5322-0.4805     c-0.1064-0.1836-0.1621-0.3452-0.166-0.4849c-0.002-0.0854,0.0321-0.167,0.0995-0.2451     c0.0694-0.07811,0.1573-0.1187,0.2638-0.12211c0.1835-0.00489,0.3232,0.09671,0.4178,0.30571     c0.0939,0.1919,0.215,0.3394,0.3662,0.4434c0.1515,0.104,0.3194,0.1528,0.503,0.14789     c0.168-0.00489,0.3144-0.05219,0.4375-0.14359c0.124-0.0908,0.2178-0.2133,0.2823-0.3681     c0.0645-0.1548,0.0936-0.3291,0.0889-0.523c-0.0059-0.2094-0.048-0.3867-0.1271-0.5332     c-0.078-0.1465-0.1807-0.2544-0.3057-0.3242c-0.1269-0.0693-0.2665-0.102-0.4188-0.0976     c-0.1875,0.0053-0.3214,0.0322-0.4005,0.08c-0.08,0.0479-0.1942,0.1319-0.3427,0.25     c-0.1475,0.1192-0.2715,0.17969-0.3701,0.18269c-0.1064,0.00291-0.2022-0.03279-0.2872-0.10839     c-0.0848-0.0748-0.1299-0.1612-0.1327-0.2593c0-0.01131,0.0106-0.086,0.0302-0.2232l0.2314-1.5752     c0.0245-0.1884,0.0782-0.3266,0.1583-0.414c0.0811-0.0874,0.2139-0.1338,0.4024-0.1392l1.7265-0.0483     c0.3407-0.0098,0.5147,0.1152,0.5225,0.3745c0.0028,0.1138-0.0362,0.207-0.1163,0.2788     C15.0245,21.64675,14.9033,21.68475,14.7413,21.68966z" style="fill:#A6BF86;"/></g><g><path d="M31.8077,18.04756l-1.5537,0.0435l-0.1572,1.0654c0.3047-0.1748,0.5888-0.2656,0.8506-0.2729     c0.2098-0.0064,0.4051,0.0278,0.5897,0.1015c0.1847,0.0733,0.3478,0.1773,0.4894,0.3121     c0.1415,0.1337,0.2529,0.2954,0.3378,0.4824c0.0831,0.188,0.128,0.3911,0.1348,0.6093c0.0088,0.316-0.0537,0.606-0.1875,0.8692     c-0.1358,0.26369-0.3341,0.4761-0.5976,0.6352c-0.2627,0.1607-0.5674,0.2456-0.9171,0.2559     c-0.3905,0.0107-0.7089-0.0527-0.9561-0.1899c-0.2469-0.1368-0.4248-0.2969-0.5321-0.48051     c-0.1064-0.18359-0.1621-0.34519-0.166-0.48489c-0.002-0.0854,0.0321-0.167,0.0996-0.24511     c0.0693-0.07809,0.1572-0.11859,0.2637-0.12209c0.1836-0.0048,0.3232,0.0967,0.4179,0.3057     c0.0938,0.1919,0.2149,0.33939,0.3661,0.44339c0.1515,0.104,0.3194,0.15281,0.503,0.14791     c0.168-0.00491,0.3144-0.0522,0.4375-0.1435c0.124-0.0909,0.2179-0.21341,0.2823-0.3682     c0.0645-0.1548,0.0937-0.3291,0.0888-0.523c-0.0059-0.2094-0.0478-0.3867-0.127-0.53321     c-0.078-0.14639-0.1806-0.25439-0.3056-0.32419c-0.127-0.0693-0.2665-0.102-0.4189-0.0976     c-0.1875,0.0053-0.3213,0.0322-0.4005,0.08c-0.08,0.0479-0.1942,0.1319-0.3427,0.25c-0.1475,0.1192-0.2715,0.1797-0.3701,0.1827     c-0.1064,0.0029-0.2021-0.0328-0.2872-0.1084c-0.0848-0.0747-0.1299-0.1612-0.1327-0.2593c0-0.01121,0.0106-0.086,0.0303-0.22321     l0.2313-1.57519c0.0245-0.1884,0.0782-0.3266,0.1583-0.414c0.0811-0.0874,0.2138-0.13381,0.4023-0.1392l1.7266-0.0483     c0.3408-0.0098,0.5147,0.1152,0.5224,0.3745c0.0029,0.1138-0.036,0.207-0.1162,0.2788     C32.0908,18.00466,31.9697,18.04275,31.8077,18.04756z" style="fill:#A6BF86;"/></g></g></g></svg>