<?xml version="1.0" ?><svg style="enable-background:new 0 0 48 48;" version="1.1" viewBox="0 0 48 48" xml:space="preserve" xmlns="http://www.w3.org/2000/svg" xmlns:xlink="http://www.w3.org/1999/xlink"><g id="Icons"><g><path d="M38.70213,15.89067h-23.0117h-5.3199c-1.0501,0-1.9101-0.0767-1.9101,0.9833v2.43659v10.27v0.61    c0,1.05991-0.0695,1.92,0.9805,1.92h6.5396h22.7216c0.463,0,0.8384-0.37529,0.8384-0.83829v-14.5434    C39.54052,16.26587,39.16513,15.89067,38.70213,15.89067z" style="fill:#A6BF86;"/><path d="M38.04493,19.97937v8.0399c-1.43,0-2.59,1.1601-2.59,2.5901h-22.9c0-1.43-1.16-2.5901-2.59-2.5901    h-0.01c0-2.3299,0.01-5.7099,0.01-8.0399c1.43,0,2.59-1.16,2.59-2.5899h22.9    C35.45493,18.81937,36.61493,19.97937,38.04493,19.97937z" style="fill:#E6F4D0;"/><circle cx="23.9999" cy="23.99999" r="6.6106" style="fill:#A6BF86;"/><path d="M26.63232,24.40137c-0.1911-0.3094-0.4553-0.5527-0.7932-0.7314    c-0.338-0.1781-0.8596-0.3508-1.5651-0.5175c-0.7049-0.1671-1.1492-0.3272-1.3318-0.4815    c-0.1438-0.1205-0.2158-0.2662-0.2158-0.4363c0-0.1867,0.0768-0.3357,0.2305-0.4468c0.2383-0.1734,0.5681-0.2601,0.9893-0.2601    c0.4079,0,0.7139,0.0811,0.9181,0.2431c0.2041,0.1619,0.3371,0.4275,0.399,0.7973l1.4498-0.0637    c-0.023-0.661-0.262-1.1893-0.7173-1.585c-0.3452-0.29991-0.819-0.4852-1.4196-0.55791v-1.40489h-1.1382v1.4115    c-0.3275,0.0375-0.6329,0.0975-0.8901,0.2075c-0.3901,0.167-0.6887,0.4097-0.8962,0.7287    c-0.2075,0.3191-0.3109,0.66219-0.3109,1.0281c0,0.5695,0.2204,1.0523,0.661,1.4479c0.3135,0.2816,0.8588,0.5188,1.6357,0.7118    c0.604,0.15039,0.9908,0.2553,1.1608,0.3142c0.2479,0.08819,0.422,0.1923,0.5213,0.3116    c0.0996,0.1193,0.1497,0.2642,0.1497,0.4342c0,0.2648-0.1185,0.4965-0.3553,0.69439    c-0.2368,0.19821-0.5884,0.29711-1.0552,0.29711c-0.4409,0-0.7911-0.1112-1.0508-0.3338    c-0.2593-0.22231-0.4315-0.571-0.5164-1.04531l-1.4105,0.13761c0.0949,0.8047,0.3853,1.41739,0.8718,1.8376    c0.3715,0.3212,0.8679,0.5175,1.4851,0.5932v1.3092h1.1382v-1.3124c0.3862-0.0374,0.7419-0.1011,1.0302-0.2218    c0.4179-0.1751,0.7409-0.4427,0.9696-0.80241c0.2286-0.35979,0.3427-0.74579,0.3427-1.15829    C26.91872,25.09237,26.82323,24.71037,26.63232,24.40137z" style="fill:#E6F4D0;"/><g><g><path d="M11.76332,25.32107h1.4747c0.1464,0,0.2587,0.0303,0.3359,0.0903      c0.0771,0.0606,0.1152,0.1421,0.1152,0.2456c0,0.0923-0.0303,0.1705-0.0918,0.2344c-0.0605,0.064-0.1533,0.09619-0.2773,0.09619      h-2.0791c-0.1406,0-0.251-0.03909-0.3301-0.11719c-0.0791-0.0781-0.1182-0.1699-0.1182-0.2754      c0-0.0678,0.0254-0.1577,0.0762-0.2695c0.0508-0.11191,0.1065-0.2002,0.166-0.2642c0.251-0.25971,0.4766-0.4824,0.6778-0.6679      c0.2021-0.1851,0.3457-0.3072,0.4326-0.3653c0.1543-0.1093,0.2822-0.2192,0.3847-0.3291      c0.1036-0.11041,0.1817-0.2231,0.2344-0.3388c0.0537-0.1158,0.0811-0.229,0.0811-0.3404c0-0.1206-0.0293-0.228-0.086-0.32321      c-0.0576-0.09519-0.1357-0.169-0.2343-0.22169c-0.0996-0.0527-0.2071-0.0791-0.3233-0.0791      c-0.2471,0-0.4404,0.1084-0.582,0.3247c-0.0186,0.0283-0.0508,0.1055-0.0947,0.2315c-0.044,0.1264-0.0938,0.2231-0.1495,0.291      c-0.0556,0.0678-0.1367,0.1015-0.2441,0.1015c-0.0947,0-0.1728-0.0312-0.2344-0.0932c-0.0625-0.062-0.0937-0.1465-0.0937-0.2539      c0-0.1299,0.0293-0.26581,0.0879-0.40681c0.0586-0.14109,0.1455-0.269,0.2607-0.38379      c0.1162-0.11521,0.2627-0.208,0.4404-0.2783c0.1788-0.07091,0.3868-0.10591,0.626-0.10591      c0.2881,0,0.5332,0.04541,0.7373,0.13571c0.1319,0.0601,0.2471,0.1431,0.3467,0.2485c0.0996,0.105,0.1777,0.2271,0.2334,0.3653      c0.0557,0.1387,0.083,0.2822,0.083,0.43049c0,0.23351-0.0576,0.44591-0.1738,0.63691      c-0.1153,0.1914-0.2334,0.3408-0.3545,0.44909c-0.1201,0.10851-0.3223,0.27841-0.6055,0.50981      c-0.2832,0.2315-0.4775,0.41119-0.583,0.5391C11.85713,25.18827,11.81122,25.24977,11.76332,25.32107z" style="fill:#A6BF86;"/><path d="M16.60902,23.95727c0,0.3086-0.0185,0.57429-0.0556,0.79629      c-0.0381,0.22231-0.1074,0.42351-0.209,0.604c-0.1279,0.22231-0.2939,0.39371-0.4971,0.51431      c-0.2031,0.1206-0.4297,0.1806-0.6777,0.1806c-0.2861,0-0.543-0.081-0.7695-0.2426c-0.2266-0.1621-0.3975-0.38631-0.5127-0.6724      c-0.0586-0.1562-0.1016-0.3286-0.128-0.5181c-0.0273-0.1889-0.041-0.394-0.041-0.6142c0-0.2842,0.0147-0.5401,0.0449-0.7681      c0.0303-0.22751,0.0772-0.4233,0.1407-0.58751c0.1113-0.271,0.2724-0.47739,0.4843-0.61949      c0.212-0.1421,0.4649-0.21351,0.7588-0.21351c0.1934,0,0.3692,0.03181,0.5274,0.09481c0.1582,0.063,0.2968,0.15519,0.417,0.2769      c0.1191,0.1216,0.2207,0.2715,0.3037,0.4502C16.53782,22.94897,16.60902,23.38897,16.60902,23.95727z M15.83562,23.90056      c0-0.34409-0.0205-0.626-0.0615-0.84559c-0.042-0.2192-0.1113-0.3848-0.209-0.4966c-0.0986-0.1123-0.2334-0.1684-0.4072-0.1684      c-0.2481,0-0.4209,0.1254-0.5176,0.3759c-0.0977,0.25-0.1455,0.6363-0.1455,1.15769c0,0.35361,0.0205,0.64361,0.0615,0.86971      c0.042,0.2256,0.1113,0.3965,0.209,0.5122c0.0986,0.11609,0.2305,0.1738,0.3984,0.1738c0.1729,0,0.3086-0.0601,0.4063-0.18071      c0.0986-0.12059,0.167-0.293,0.206-0.51659C15.81612,24.55787,15.83562,24.26397,15.83562,23.90056z" style="fill:#A6BF86;"/></g><g><g><path d="M32.28482,25.32107h1.4746c0.1465,0,0.2588,0.0303,0.336,0.0903       c0.0771,0.0606,0.1152,0.1421,0.1152,0.2456c0,0.0923-0.0303,0.1705-0.0918,0.2344       c-0.0605,0.064-0.1533,0.09619-0.2773,0.09619h-2.0791c-0.1407,0-0.251-0.03909-0.3301-0.11719s-0.1182-0.1699-0.1182-0.2754       c0-0.0678,0.0254-0.1577,0.0762-0.2695c0.0508-0.11191,0.1064-0.2002,0.166-0.2642c0.251-0.25971,0.4766-0.4824,0.6777-0.6679       c0.2022-0.1851,0.3457-0.3072,0.4327-0.3653c0.1543-0.1093,0.2822-0.2192,0.3847-0.3291       c0.1035-0.11041,0.1817-0.2231,0.2344-0.3388c0.0537-0.1158,0.0811-0.229,0.0811-0.3404c0-0.1206-0.0293-0.228-0.086-0.32321       c-0.0576-0.09519-0.1357-0.169-0.2344-0.22169c-0.0996-0.0527-0.207-0.0791-0.3232-0.0791       c-0.2471,0-0.4404,0.1084-0.582,0.3247c-0.0186,0.0283-0.0508,0.1055-0.0948,0.2315c-0.0439,0.1264-0.0937,0.2231-0.1494,0.291       c-0.0556,0.0678-0.1367,0.1015-0.2441,0.1015c-0.0947,0-0.1729-0.0312-0.2344-0.0932       c-0.0625-0.062-0.0937-0.1465-0.0937-0.2539c0-0.1299,0.0293-0.26581,0.0879-0.40681       c0.0585-0.14109,0.1455-0.269,0.2607-0.38379c0.1162-0.11521,0.2627-0.208,0.4404-0.2783       c0.1787-0.07091,0.3867-0.10591,0.626-0.10591c0.2881,0,0.5332,0.04541,0.7373,0.13571       c0.1318,0.0601,0.2471,0.1431,0.3467,0.2485c0.0996,0.105,0.1777,0.2271,0.2334,0.3653       c0.0557,0.1387,0.083,0.2822,0.083,0.43049c0,0.23351-0.0576,0.44591-0.1738,0.63691       c-0.1153,0.1914-0.2334,0.3408-0.3545,0.44909c-0.1201,0.10851-0.3223,0.27841-0.6055,0.50981       c-0.2832,0.2315-0.4775,0.41119-0.583,0.5391C32.37862,25.18827,32.33273,25.24977,32.28482,25.32107z" style="fill:#A6BF86;"/><path d="M37.13052,23.95727c0,0.3086-0.0185,0.57429-0.0556,0.79629       c-0.0381,0.22231-0.1075,0.42351-0.209,0.604c-0.1279,0.22231-0.294,0.39371-0.4971,0.51431       c-0.2031,0.1206-0.4297,0.1806-0.6777,0.1806c-0.2862,0-0.543-0.081-0.7696-0.2426       c-0.2265-0.1621-0.3974-0.38631-0.5127-0.6724c-0.0585-0.1562-0.1015-0.3286-0.1279-0.5181       c-0.0273-0.1889-0.041-0.394-0.041-0.6142c0-0.2842,0.0147-0.5401,0.0449-0.7681c0.0303-0.22751,0.0772-0.4233,0.1407-0.58751       c0.1113-0.271,0.2724-0.47739,0.4843-0.61949c0.2119-0.1421,0.4649-0.21351,0.7588-0.21351       c0.1934,0,0.3692,0.03181,0.5274,0.09481c0.1582,0.063,0.2968,0.15519,0.417,0.2769c0.1191,0.1216,0.2207,0.2715,0.3037,0.4502       C37.05922,22.94897,37.13052,23.38897,37.13052,23.95727z M36.35712,23.90056c0-0.34409-0.0205-0.626-0.0615-0.84559       c-0.042-0.2192-0.1114-0.3848-0.209-0.4966c-0.0986-0.1123-0.2334-0.1684-0.4072-0.1684c-0.2481,0-0.4209,0.1254-0.5176,0.3759       c-0.0977,0.25-0.1455,0.6363-0.1455,1.15769c0,0.35361,0.0205,0.64361,0.0615,0.86971c0.042,0.2256,0.1113,0.3965,0.209,0.5122       c0.0986,0.11609,0.2304,0.1738,0.3984,0.1738c0.1729,0,0.3086-0.0601,0.4063-0.18071c0.0986-0.12059,0.167-0.293,0.206-0.51659       C36.33762,24.55787,36.35712,24.26397,36.35712,23.90056z" style="fill:#A6BF86;"/></g></g></g></g></g></svg>