<?xml version="1.0" ?><svg style="enable-background:new 0 0 48 48;" version="1.1" viewBox="0 0 48 48" xml:space="preserve" xmlns="http://www.w3.org/2000/svg" xmlns:xlink="http://www.w3.org/1999/xlink"><g id="Icons"><g><g><path d="M38.70213,15.89066h-23.0117h-5.3199c-1.0501,0-1.9101-0.0767-1.9101,0.9833v2.4366v10.27v0.61     c0,1.0599-0.0695,1.92,0.9805,1.92h6.5396h22.7216c0.463,0,0.8384-0.3753,0.8384-0.8383V16.72886     C39.54052,16.26586,39.16513,15.89066,38.70213,15.89066z" style="fill:#A6BF86;"/><path d="M38.04493,19.97936v8.0399c-1.43,0-2.59,1.1601-2.59,2.5901h-22.9c0-1.43-1.16-2.5901-2.59-2.5901     h-0.01c0-2.3299,0.01-5.7099,0.01-8.0399c1.43,0,2.59-1.16,2.59-2.5899h22.9     C35.45493,18.81936,36.61493,19.97936,38.04493,19.97936z" style="fill:#E6F4D0;"/><circle cx="23.9999" cy="23.99999" r="6.6106" style="fill:#A6BF86;"/><path d="M26.63232,24.40136c-0.1911-0.3094-0.4553-0.5527-0.7932-0.7314     c-0.338-0.17811-0.8596-0.3508-1.5651-0.5175c-0.7049-0.1671-1.1492-0.3272-1.3318-0.4815     c-0.1438-0.1205-0.2158-0.2662-0.2158-0.4363c0-0.1867,0.0768-0.3357,0.2305-0.44681     c0.2383-0.17339,0.5681-0.26009,0.9893-0.26009c0.4079,0,0.7139,0.08109,0.9181,0.24309     c0.2041,0.16191,0.3371,0.42751,0.399,0.79731l1.4498-0.0637c-0.023-0.661-0.262-1.1893-0.7173-1.585     c-0.3452-0.2999-0.819-0.4852-1.4196-0.5579v-1.4049h-1.1382v1.4115c-0.3275,0.0375-0.6329,0.0975-0.8901,0.2075     c-0.3901,0.167-0.6887,0.4097-0.8962,0.7287c-0.2075,0.3191-0.3109,0.6622-0.3109,1.0281c0,0.5695,0.2204,1.0523,0.661,1.4479     c0.3135,0.2816,0.8588,0.5188,1.6357,0.7118c0.604,0.1504,0.9908,0.2553,1.1608,0.3142c0.2479,0.0882,0.422,0.1923,0.5213,0.3116     c0.0996,0.1193,0.1497,0.2642,0.1497,0.4342c0,0.2648-0.1185,0.4965-0.3553,0.6944c-0.2368,0.1982-0.5884,0.2971-1.0552,0.2971     c-0.4409,0-0.7911-0.1112-1.0508-0.33381c-0.2593-0.2223-0.4315-0.571-0.5164-1.0453l-1.4105,0.1376     c0.0949,0.8047,0.3853,1.4174,0.8718,1.8376c0.3715,0.3212,0.8679,0.5175,1.4851,0.5932v1.3092h1.1382v-1.3124     c0.3862-0.0374,0.7419-0.1011,1.0302-0.2218c0.4179-0.17511,0.7409-0.4427,0.9696-0.8024     c0.2286-0.3598,0.3427-0.7458,0.3427-1.1583C26.91872,25.09236,26.82323,24.71036,26.63232,24.40136z" style="fill:#E6F4D0;"/></g><g><g><g><path d="M11.47742,25.40426v-1.7566c-0.3266,0.251-0.5467,0.3769-0.6604,0.3769       c-0.0541,0-0.1017-0.0215-0.1438-0.0653c-0.0419-0.0429-0.0625-0.0923-0.0625-0.1493c0-0.0653,0.0206-0.1139,0.0617-0.1446       c0.0409-0.0307,0.1137-0.0709,0.2183-0.1194c0.1557-0.0737,0.2797-0.15111,0.374-0.2322       c0.0932-0.0812,0.1754-0.1717,0.2472-0.2724c0.0728-0.0999,0.1194-0.1614,0.1418-0.1848       c0.0215-0.0233,0.0625-0.0355,0.1232-0.0355c0.0681,0,0.1231,0.027,0.1642,0.0794c0.041,0.0532,0.0616,0.1259,0.0616,0.2183       v2.2109c0,0.2584-0.0877,0.3881-0.2642,0.3881c-0.0792,0-0.1417-0.0271-0.1893-0.0793       C11.50173,25.58526,11.47742,25.50786,11.47742,25.40426z" style="fill:#A6BF86;"/><path d="M14.29663,24.28106c0,0.2109-0.0131,0.39279-0.0393,0.5449       c-0.0252,0.1511-0.0726,0.2891-0.1427,0.4123c-0.0867,0.152-0.2005,0.26959-0.3395,0.3517       c-0.139,0.0821-0.293,0.1241-0.4636,0.1241c-0.1951,0-0.3704-0.056-0.5262-0.1661c-0.1548-0.111-0.2714-0.264-0.3498-0.4599       c-0.0401-0.1064-0.0691-0.2248-0.0877-0.3545c-0.0187-0.12871-0.028-0.26871-0.028-0.4198c0-0.194,0.0103-0.3694,0.0308-0.5252       c0.0204-0.1558,0.0523-0.2892,0.096-0.4012c0.0766-0.1856,0.1867-0.32651,0.3313-0.42351       c0.1445-0.09789,0.3181-0.14639,0.5187-0.14639c0.1323,0,0.2528,0.02139,0.3609,0.0653       c0.1083,0.0429,0.2024,0.1053,0.2845,0.1883c0.0822,0.083,0.1512,0.1857,0.2081,0.3089       C14.24722,23.59176,14.29663,23.89206,14.29663,24.28106z M13.76762,24.24286c0-0.236-0.0139-0.42819-0.0428-0.57839       c-0.028-0.1502-0.0756-0.2631-0.1429-0.33961c-0.0671-0.07739-0.1595-0.11559-0.278-0.11559       c-0.1698,0-0.2881,0.0858-0.3545,0.2574c-0.0661,0.1708-0.0988,0.4348-0.0988,0.7911c0,0.2426,0.014,0.4403,0.042,0.5952       c0.0288,0.15389,0.0764,0.2705,0.1427,0.3498c0.0672,0.0793,0.1577,0.1185,0.2724,0.1185c0.1185,0,0.2117-0.041,0.2781-0.1232       c0.0671-0.082,0.1138-0.1996,0.1408-0.3535C13.75373,24.69156,13.76762,24.49096,13.76762,24.24286z" style="fill:#A6BF86;"/><path d="M16.59063,24.28106c0,0.2109-0.0131,0.39279-0.0393,0.5449       c-0.0252,0.1511-0.0728,0.2891-0.1428,0.4123c-0.0866,0.152-0.2004,0.26959-0.3395,0.3517       c-0.1389,0.0821-0.2929,0.1241-0.4637,0.1241c-0.1948,0-0.3702-0.056-0.526-0.1661c-0.1549-0.111-0.2716-0.264-0.3498-0.4599       c-0.0402-0.1064-0.0692-0.2248-0.0877-0.3545c-0.0187-0.12871-0.028-0.26871-0.028-0.4198c0-0.194,0.0102-0.3694,0.0308-0.5252       c0.0204-0.1558,0.0522-0.2892,0.096-0.4012c0.0766-0.1856,0.1865-0.32651,0.3312-0.42351       c0.1446-0.09789,0.318-0.14639,0.5186-0.14639c0.1326,0,0.2528,0.02139,0.3611,0.0653       c0.1083,0.0429,0.2024,0.1053,0.2845,0.1883c0.0822,0.083,0.1512,0.1857,0.208,0.3089       C16.54103,23.59176,16.59063,23.89206,16.59063,24.28106z M16.06162,24.24286c0-0.236-0.014-0.42819-0.043-0.57839       c-0.028-0.1502-0.0756-0.2631-0.1427-0.33961c-0.0671-0.07739-0.1595-0.11559-0.2779-0.11559       c-0.1699,0-0.2883,0.0858-0.3546,0.2574c-0.0663,0.1708-0.0988,0.4348-0.0988,0.7911c0,0.2426,0.0139,0.4403,0.042,0.5952       c0.0288,0.15389,0.0764,0.2705,0.1427,0.3498c0.0672,0.0793,0.1577,0.1185,0.2724,0.1185c0.1185,0,0.2117-0.041,0.278-0.1232       c0.0672-0.082,0.1137-0.1996,0.1409-0.3535C16.04762,24.69156,16.06162,24.49096,16.06162,24.24286z" style="fill:#A6BF86;"/></g></g><g><g><path d="M32.05162,25.40426v-1.7566c-0.3265,0.251-0.5466,0.3769-0.6604,0.3769       c-0.0542,0-0.1017-0.0215-0.1437-0.0653c-0.0421-0.0429-0.0625-0.0923-0.0625-0.1493c0-0.0653,0.0204-0.1139,0.0615-0.1446       c0.0411-0.0307,0.1139-0.0709,0.2184-0.1194c0.1556-0.0737,0.2798-0.15111,0.3739-0.2322       c0.0934-0.0812,0.1755-0.1717,0.2472-0.2724c0.0728-0.0999,0.1196-0.1614,0.1419-0.1848       c0.0214-0.0233,0.0626-0.0355,0.1232-0.0355c0.068,0,0.123,0.027,0.1642,0.0794c0.0409,0.0532,0.0615,0.1259,0.0615,0.2183       v2.2109c0,0.2584-0.0876,0.3881-0.264,0.3881c-0.0794,0-0.1419-0.0271-0.1893-0.0793       C32.07592,25.58526,32.05162,25.50786,32.05162,25.40426z" style="fill:#A6BF86;"/><path d="M34.87072,24.28106c0,0.2109-0.0131,0.39279-0.0391,0.5449       c-0.0252,0.1511-0.0727,0.2891-0.1427,0.4123c-0.0869,0.152-0.2006,0.26959-0.3396,0.3517       c-0.1391,0.0821-0.2929,0.1241-0.4636,0.1241c-0.195,0-0.3704-0.056-0.5263-0.1661c-0.1548-0.111-0.2713-0.264-0.3498-0.4599       c-0.0401-0.1064-0.0689-0.2248-0.0877-0.3545c-0.0185-0.12871-0.028-0.26871-0.028-0.4198c0-0.194,0.0103-0.3694,0.0309-0.5252       c0.0205-0.1558,0.0522-0.2892,0.0961-0.4012c0.0764-0.1856,0.1865-0.32651,0.3311-0.42351       c0.1447-0.09789,0.3181-0.14639,0.5187-0.14639c0.1325,0,0.2529,0.02139,0.3611,0.0653       c0.1081,0.0429,0.2024,0.1053,0.2845,0.1883c0.0821,0.083,0.151,0.1857,0.208,0.3089       C34.82143,23.59176,34.87072,23.89206,34.87072,24.28106z M34.34193,24.24286c0-0.236-0.0141-0.42819-0.043-0.57839       c-0.028-0.1502-0.0755-0.2631-0.1427-0.33961c-0.0672-0.07739-0.1595-0.11559-0.278-0.11559       c-0.1698,0-0.2883,0.0858-0.3545,0.2574c-0.0663,0.1708-0.0989,0.4348-0.0989,0.7911c0,0.2426,0.014,0.4403,0.0419,0.5952       c0.029,0.15389,0.0766,0.2705,0.1427,0.3498c0.0673,0.0793,0.1577,0.1185,0.2724,0.1185c0.1186,0,0.2119-0.041,0.278-0.1232       c0.0672-0.082,0.114-0.1996,0.141-0.3535C34.32782,24.69156,34.34193,24.49096,34.34193,24.24286z" style="fill:#A6BF86;"/><path d="M37.16473,24.28106c0,0.2109-0.0131,0.39279-0.0391,0.5449       c-0.0252,0.1511-0.0728,0.2891-0.1428,0.4123c-0.0867,0.152-0.2005,0.26959-0.3395,0.3517       c-0.1391,0.0821-0.293,0.1241-0.4637,0.1241c-0.1949,0-0.3703-0.056-0.5262-0.1661c-0.1548-0.111-0.2714-0.264-0.3498-0.4599       c-0.0401-0.1064-0.069-0.2248-0.0877-0.3545c-0.0186-0.12871-0.028-0.26871-0.028-0.4198c0-0.194,0.0103-0.3694,0.0308-0.5252       c0.0206-0.1558,0.0522-0.2892,0.096-0.4012c0.0766-0.1856,0.1867-0.32651,0.3312-0.42351       c0.1446-0.09789,0.3182-0.14639,0.5188-0.14639c0.1325,0,0.2528,0.02139,0.3609,0.0653       c0.1083,0.0429,0.2026,0.1053,0.2847,0.1883c0.082,0.083,0.151,0.1857,0.208,0.3089       C37.11533,23.59176,37.16473,23.89206,37.16473,24.28106z M36.63583,24.24286c0-0.236-0.014-0.42819-0.0429-0.57839       c-0.028-0.1502-0.0756-0.2631-0.1427-0.33961c-0.0672-0.07739-0.1597-0.11559-0.278-0.11559       c-0.1698,0-0.2883,0.0858-0.3545,0.2574c-0.0663,0.1708-0.099,0.4348-0.099,0.7911c0,0.2426,0.0141,0.4403,0.0421,0.5952       c0.0289,0.15389,0.0765,0.2705,0.1426,0.3498c0.0673,0.0793,0.1577,0.1185,0.2724,0.1185c0.1186,0,0.2119-0.041,0.278-0.1232       c0.0673-0.082,0.1139-0.1996,0.141-0.3535C36.62183,24.69156,36.63583,24.49096,36.63583,24.24286z" style="fill:#A6BF86;"/></g></g></g></g></g></svg>