<?xml version="1.0" ?><svg style="enable-background:new 0 0 48 48;" version="1.1" viewBox="0 0 48 48" xml:space="preserve" xmlns="http://www.w3.org/2000/svg" xmlns:xlink="http://www.w3.org/1999/xlink"><g id="Icons"><g><path d="M33.27649,30.68048c-0.3756,0.3756-0.8618,0.7181-1.4252,1.0385    c-0.4309,0.2431-0.906,0.4751-1.4252,0.685c-0.453,0.1768-0.9281,0.3425-1.4363,0.4972c-0.453,0.1436-0.928,0.2651-1.4252,0.3756    c-0.464,0.1105-0.9391,0.2099-1.4252,0.2873c-0.464,0.0884-0.9391,0.1546-1.4252,0.2099    c-0.4862,0.0663-0.9833,0.1105-1.4915,0.1436c-0.4972,0.0442-0.9944,0.0663-1.5026,0.0884    c-0.3425,0.0111-0.685,0.0111-1.0385,0.0111c-0.1547,0-0.3094,0-0.453-0.0111c-0.5082,0-1.0054-0.011-1.5026-0.0442    c-0.5082-0.0331-1.0053-0.0663-1.4915-0.1215c-0.5192-0.0442-1.0164-0.1105-1.5025-0.1878    c-0.5082-0.0774-1.0054-0.1658-1.4915-0.2652c-0.5193-0.1105-1.0165-0.2431-1.4915-0.3756    c-0.5303-0.1437-1.0386-0.3094-1.5026-0.4862c-0.5413-0.2099-1.0385-0.4419-1.4915-0.6739    c-0.5966-0.3204-1.0938-0.6629-1.5025-1.0275c-0.7403-0.6518-1.1491-1.381-1.1491-2.1433h0.0015v-2.4187l6.8609-3.0455    l8.8322-1.2392l8.6745,3.5374l2.7038,2.6137L33.27649,30.68048z" style="fill:#DB9A16;"/><path d="M15.70429,21.33368c-5.0429,0.7955-8.5995,2.7077-8.5995,4.9284    c0,0.7623,0.429,1.4906,1.1883,2.1425c0.4192,0.3646,0.9292,0.7071,1.5411,1.0275c0.4646,0.232,0.9746,0.464,1.5298,0.6739    c2.4931,0.917,5.9154,1.4915,9.6777,1.4915c3.7508,0,7.1731-0.5745,9.6889-1.50261l0.8094-1.80869l-0.4731-2.6362l-9.2603-4.5738    L15.70429,21.33368z" style="fill:#FCC69D;"/><path d="M15.70429,21.33368c-5.0429,0.7955-8.5995,2.7077-8.5995,4.9284    c0,0.7623,0.429,1.4906,1.1883,2.1425c0.4192,0.3646,0.9292,0.7071,1.5411,1.0275c0.4646,0.232,0.9746,0.464,1.5298,0.6739    c2.4931,0.917,5.9154,1.4915,9.6777,1.4915c3.7508,0,7.1731-0.5745,9.6889-1.50261l0.8094-1.80869l-0.4731-2.6362l-9.2603-4.5738    L15.70429,21.33368z" style="fill:#FFC601;"/><path d="M34.17419,28.12478l-0.9,2.56c-0.37,0.37-0.86,0.71-1.42,1.03c-0.04,0.02-0.08,0.05-0.12,0.07    c-0.01,0-0.01,0-0.01,0c-1.61-0.37-3.47-0.86-3.47-0.86c-4.35-0.33-10.67-3-13.75-6.33c-1.31-1.41-1.17-2.33-0.58-2.92    c0.57-0.13,1.16-0.24,1.78-0.34l6.1-0.26l5.77,2.85l3.9,1.59L34.17419,28.12478z" style="opacity:0.1;"/><path d="M15.79539,15.87318l-0.9621,2.2191l-0.0014-0.0006c-1.1734,2.7064,3.4524,7.313,10.3351,10.2971    c6.8827,2.984,13.4172,3.216,14.5906,0.5096l-0.0048-0.002l0.9622-2.2191" style="fill:#DB9A16;"/><ellipse cx="28.25516" cy="21.27523" rx="5.33902" ry="13.58045" style="fill:#FFC601;" transform="matrix(0.39778 -0.91748 0.91748 0.39778 -2.50381 38.7359)"/><g><path d="M9.69149,29.35438l0.0131,2.47c-0.4677-0.24851-0.8231-0.5-1.1631-0.76v-2.46     C8.87149,28.86438,9.25149,29.12438,9.69149,29.35438z" style="fill:#E4AC1D;"/><path d="M14.87149,31.04438v2.46c-0.21-0.04-0.42-0.08-0.63-0.12c-0.52-0.11-1.02-0.24-1.49-0.37     c-0.21-0.06-0.4099-0.12-0.61-0.18v-2.46C12.97149,30.63438,13.89149,30.86438,14.87149,31.04438z" style="fill:#E4AC1D;"/><path d="M11.03149,29.97398v2.4604c-0.2-0.0797-0.39-0.1593-0.58-0.249v-2.4604     C10.65239,29.82308,10.82809,29.88448,11.03149,29.97398z" style="fill:#E4AC1D;"/><path d="M24.01149,31.47438v2.38c-0.26,0.03-0.52,0.04-0.79,0.06c-0.44,0.04-0.8799,0.07-1.33,0.08     v-2.4068C22.61149,31.57758,23.32149,31.53438,24.01149,31.47438z" style="fill:#E4AC1D;"/><path d="M26.88149,31.10438v2.33c-0.25,0.04-0.49,0.09-0.74,0.13c-0.25,0.05-0.5,0.09-0.75,0.13     l-0.0172-2.3618C25.88439,31.27258,26.39149,31.19438,26.88149,31.10438z" style="fill:#E4AC1D;"/></g><g><path d="M17.24599,20.16598l-0.9203,2.2745c-0.3121-0.3582-0.5761-0.6859-0.7966-1.0343l0.9046-2.3091     C16.68089,19.44418,16.92079,19.81398,17.24599,20.16598z" style="fill:#E4AC1D;"/><path d="M21.37939,23.64128l-0.9233,2.2441c-0.1797-0.1159-0.351-0.2142-0.5307-0.33     c-0.4408-0.2971-0.8555-0.6051-1.2424-0.9019c-0.1722-0.1344-0.346-0.3044-0.5089-0.4351l0.9337-2.241     C19.77959,22.52978,20.53849,23.10678,21.37939,23.64128z" style="fill:#E4AC1D;"/><path d="M18.26969,21.23008l-0.8982,2.2843c-0.1555-0.1489-0.3264-0.29751-0.4689-0.4519l0.9175-2.2674     C17.96319,20.94978,18.11049,21.09048,18.26969,21.23008z" style="fill:#E4AC1D;"/><path d="M29.73919,27.49968l-0.9077,2.23519c-0.2523-0.06969-0.5145-0.16059-0.7723-0.24339     c-0.4228-0.1279-0.7945-0.2672-1.2154-0.4267l0.8877-2.2553C28.40269,27.07028,29.07709,27.29648,29.73919,27.49968z" style="fill:#E4AC1D;"/><path d="M32.54809,28.20087l-0.9418,2.221c-0.2467-0.05669-0.5121-0.10069-0.7588-0.15739     c-0.2505-0.0475-0.485-0.1174-0.7317-0.1741l0.9043-2.2321C31.51529,27.99398,32.06019,28.10058,32.54809,28.20087z" style="fill:#E4AC1D;"/></g><g><path d="M26.21339,18.69558c-0.2639-0.156-0.574-0.2793-0.9304-0.3701l0.9992-0.3614l2.1401,1.2646     l0.8678-0.4925l-3.0003-1.7729l-3.0988,1.0854l0.8117,0.6059c0.4938,0.0191,0.9036,0.1248,1.2293,0.31729     c0.2611,0.15431,0.3989,0.32181,0.4133,0.50241c0.0144,0.1804-0.1269,0.3551-0.4238,0.5235     c-0.3168,0.1799-0.6359,0.2659-0.9573,0.25809c-0.3215-0.00769-0.6007-0.08159-0.8376-0.22159     c-0.2073-0.1225-0.3293-0.2652-0.3661-0.4285c-0.0367-0.1632,0.0332-0.3135,0.2099-0.4512l-1.2263-0.6139     c-0.3374,0.2696-0.4537,0.5741-0.3489,0.914c0.1048,0.3396,0.4305,0.6709,0.9769,0.9939     c0.6838,0.404,1.4315,0.5987,2.2432,0.5839c0.595-0.0101,1.0915-0.1284,1.4897-0.3544c0.4773-0.271,0.6905-0.5948,0.6397-0.9714     C26.99389,19.33018,26.71679,18.99308,26.21339,18.69558z" style="fill:#D19D0B;"/><path d="M33.31259,21.79928l0.6863-0.3219l-0.6255-0.3103l-0.6363,0.2954     c-0.0278-0.0153-0.0496-0.0302-0.0779-0.04561c-1.1837-0.632-2.2334-1.00109-3.1413-1.098     c-0.6021-0.06659-1.0705-0.00319-1.4139,0.18831c-0.3339,0.1861-0.5456,0.5219-0.5991,0.8665     c-0.0667,0.3791,0.1205,0.7785,0.3679,1.123l0.1358,0.1821c0.1841,0.2273,0.4149,0.4495,0.6671,0.6694l-1.0413,0.4834     l0.6268,0.3377l0.9061-0.4251c0.3917,0.2874,0.8355,0.5684,1.347,0.8402c0.6624,0.3521,1.2738,0.6203,1.8359,0.7898l0.411-0.6444     c-0.5484-0.0707-1.1913-0.3006-1.9277-0.69691c-0.3774-0.20179-0.6855-0.41219-0.9377-0.63049l2.7205-1.2763     c0.4255,0.25279,0.7387,0.4966,0.9361,0.73179l0.7165-0.407C34.00049,22.23458,33.67049,22.01738,33.31259,21.79928z      M29.27559,22.39487c-0.0129-0.72029,0.5834-0.95089,0.5834-0.95089c0.1799-0.0905,0.4136-0.1185,0.6944-0.1004     c0.4302,0.0391,0.9178,0.1929,1.4554,0.4571l-2.5243,1.172C29.34689,22.78538,29.27619,22.59068,29.27559,22.39487z" style="fill:#D19D0B;"/></g></g></g></svg>