<?xml version="1.0" ?><svg style="enable-background:new 0 0 48 48;" version="1.1" viewBox="0 0 48 48" xml:space="preserve" xmlns="http://www.w3.org/2000/svg" xmlns:xlink="http://www.w3.org/1999/xlink"><g id="Icons"><g><g><path d="M6.69085,16.21889c0-0.32529,0.3479-0.53369,0.6309-0.37339     c2.0938,1.1855,9.0646,4.6466,17.4523,0.2296c8.2699-4.355,14.3199-1.9426,16.0388-1.0626     c0.3079,0.1576,0.4963,0.4717,0.4963,0.8176v15.951c0,0.3253-0.3479,0.5337-0.6309,0.3734     c-2.0938-1.1855-9.0646-4.64661-17.4522-0.22961c-8.2792,4.35481-14.3224,1.94281-16.0394,1.06281     c-0.3076-0.1577-0.4957-0.4717-0.4957-0.8174L6.69085,16.21889z" style="fill:#A6BF86;"/><g><path d="M26.18365,23.9782c-0.2034-0.234-0.4591-0.4024-0.7679-0.5062      c-0.3088-0.1035-0.7714-0.177-1.3877-0.2203c-0.6162-0.0436-1.0119-0.1172-1.1867-0.22181      c-0.1376-0.08179-0.2181-0.19439-0.2414-0.33749c-0.0257-0.1571,0.0183-0.2929,0.1324-0.4076      c0.1766-0.1786,0.4421-0.29691,0.7965-0.3548c0.3431-0.05611,0.6117-0.0299,0.8057,0.0783      c0.194,0.1081,0.3425,0.3133,0.4453,0.6159l1.2109-0.253c-0.1102-0.5529-0.3839-0.9645-0.8213-1.2348      c-0.3316-0.2049-0.7557-0.2956-1.271-0.2742l-0.1931-1.1818l-0.9575,0.15649l0.194,1.18741      c-0.2703,0.0765-0.519,0.1691-0.7203,0.2969c-0.3052,0.1942-0.5231,0.4394-0.6538,0.7363      c-0.1306,0.2969-0.1704,0.5997-0.1201,0.9077c0.0783,0.4791,0.3301,0.8549,0.7551,1.1272      c0.3024,0.1938,0.7938,0.3183,1.474,0.3739c0.5287,0.0435,0.8685,0.0785,1.0197,0.1047      c0.2206,0.0401,0.3814,0.1038,0.4814,0.1905c0.1002,0.0866,0.1622,0.2016,0.1856,0.3447      c0.0364,0.2228-0.0315,0.434-0.2035,0.6329c-0.1719,0.1993-0.4541,0.3309-0.8468,0.3951      c-0.3709,0.0606-0.6808,0.0152-0.9299-0.1364c-0.2487-0.1514-0.4416-0.421-0.5782-0.8083l-1.1677,0.3096      c0.1905,0.6639,0.5191,1.1395,0.9861,1.4261c0.3567,0.2191,0.8012,0.3161,1.3309,0.295l0.18,1.1012l0.9575-0.1564      l-0.1804-1.10411c0.3198-0.08459,0.6102-0.187,0.8362-0.32819c0.3275-0.20481,0.5625-0.4743,0.7054-0.8084      c0.1428-0.334,0.1857-0.6745,0.129-1.02141C26.51955,24.5201,26.38665,24.21189,26.18365,23.9782z" style="fill:#E6F4D0;"/></g><path d="M25.10495,29.4494c-0.01,0-0.02,0.01-0.03,0.01c-0.86,0.32-1.71,0.7-2.55,1.14     c-2.97,1.56-5.92,2.35-8.77,2.35c-1.16,0-2.2-0.14-3.07-0.32c0.1-0.27,0.15-0.57,0.15-0.87c0-1.47-1.18-2.65-2.64-2.65v-8.5     c1.13,0,2.1-0.71,2.47-1.71c1.83,0.58,3.71,0.86,5.61,0.86c1.96,0,3.89-0.31,5.79-0.92h0.02h-0.02c-1.82,0.9-2.99,3.13-2.76,5.6     c0.29,3.07,2.62,5.36,5.22,5.12c0.19-0.02,0.37-0.05,0.55-0.1C25.08495,29.4694,25.09495,29.4694,25.10495,29.4494" style="fill:#E6F4D0;"/><path d="M25.87495,29.1794c0.02,0,0.03,0,0.04-0.01c1.84-0.89,3.01-3.13,2.78-5.61     c-0.29-3.07-2.62-5.36-5.22-5.12c-0.17,0.02-0.34,0.05-0.51,0.09c-0.01,0-0.02,0-0.03,0l-0.01,0.01l0.01-0.01     c0.01,0,0.02,0,0.03,0c0.85-0.31,1.68-0.7,2.51-1.13c2.96-1.56,5.91-2.35,8.76-2.35c1.15,0,2.17,0.13,3.03,0.33     c-0.07,0.23-0.1,0.47-0.1,0.72c0,1.46,1.18,2.64,2.64,2.64v8.5c-1.18,0-2.18,0.78-2.52,1.85c-1.81-0.57-3.67-0.85-5.56-0.85     c-1.96,0-3.91,0.31-5.81,0.93C25.90495,29.1794,25.89495,29.1794,25.87495,29.1794" style="fill:#E6F4D0;"/></g><g><g><path d="M12.18705,27.631v-2.8926c-0.5645,0.4136-0.9444,0.6201-1.1397,0.6201      c-0.0937,0-0.1767-0.03561-0.249-0.1064c-0.0723-0.0713-0.1084-0.1534-0.1084-0.2466c0-0.1079,0.0361-0.1875,0.1074-0.2383      c0.0713-0.0508,0.1963-0.1167,0.377-0.19731c0.2685-0.12059,0.4834-0.24749,0.6445-0.38129      c0.1611-0.1333,0.3037-0.28271,0.4287-0.4483c0.124-0.165,0.2051-0.2666,0.2432-0.3046      c0.0381-0.0386,0.1093-0.0577,0.2138-0.0577c0.1172,0,0.212,0.0435,0.2832,0.1304c0.0713,0.0869,0.1065,0.2066,0.1065,0.3594      v3.63909c0,0.42631-0.1524,0.63921-0.457,0.63921c-0.1348,0-0.2442-0.0434-0.3262-0.1304      C12.22905,27.9288,12.18705,27.8004,12.18705,27.631z" style="fill:#A6BF86;"/><path d="M17.09615,25.7814c0,0.3471-0.0224,0.646-0.0664,0.896c-0.0449,0.25-0.1269,0.477-0.247,0.6801      c-0.1514,0.25-0.3467,0.4429-0.587,0.5786c-0.2402,0.13579-0.5068,0.2037-0.7998,0.2037c-0.3378,0-0.6406-0.0913-0.9091-0.2735      c-0.2676-0.1821-0.4698-0.4345-0.6045-0.7563c-0.0694-0.1763-0.1201-0.3706-0.1524-0.5835      c-0.0322-0.2129-0.0478-0.4434-0.0478-0.6914c0-0.3199,0.0176-0.6079,0.0527-0.8643c0.0361-0.2563,0.0918-0.477,0.167-0.6611      c0.1309-0.3052,0.3223-0.5376,0.5723-0.69781c0.25-0.16009,0.5478-0.24019,0.8945-0.24019c0.2295,0,0.4375,0.0356,0.624,0.1064      c0.1865,0.0713,0.3506,0.17479,0.4912,0.3116c0.1416,0.1367,0.2608,0.3056,0.3584,0.5073      C17.01125,24.6466,17.09615,25.1412,17.09615,25.7814z M16.18215,25.7174c0-0.3877-0.0244-0.7051-0.0733-0.9517      c-0.0488-0.247-0.1308-0.4336-0.2461-0.5595c-0.1162-0.126-0.2763-0.189-0.4804-0.189c-0.293,0-0.4971,0.1406-0.6114,0.4229      c-0.1152,0.2817-0.1718,0.71579-0.1718,1.3032c0,0.3979,0.0244,0.72459,0.0732,0.9785      c0.0488,0.2544,0.1309,0.4468,0.2461,0.57709c0.1162,0.13041,0.2725,0.19541,0.4707,0.19541      c0.2041,0,0.3643-0.0679,0.4805-0.2032c0.1152-0.1357,0.1963-0.3296,0.2431-0.582      C16.15965,26.4571,16.18215,26.1266,16.18215,25.7174z" style="fill:#A6BF86;"/></g><g><path d="M31.61865,23.5841l0.0908-2.8916c-0.5762,0.3965-0.9629,0.5908-1.1582,0.584      c-0.0937-0.0029-0.1758-0.041-0.2451-0.1143c-0.0703-0.0732-0.1035-0.1562-0.1006-0.25      c0.0029-0.1074,0.042-0.1855,0.1143-0.2344c0.0732-0.0488,0.2002-0.1103,0.3838-0.1845      c0.2724-0.1123,0.4912-0.23241,0.6562-0.36141c0.165-0.12789,0.3115-0.27339,0.4424-0.43449      c0.1289-0.1612,0.2129-0.2598,0.2519-0.2969c0.0401-0.0371,0.1114-0.0537,0.2159-0.0508      c0.1172,0.0039,0.2109,0.0498,0.2793,0.1397c0.0683,0.0888,0.0996,0.209,0.0947,0.3623l-0.1143,3.6377      c-0.0136,0.4258-0.1728,0.6338-0.4775,0.624c-0.1348-0.0049-0.2422-0.0518-0.3223-0.1406      C31.65085,23.88289,31.61275,23.753,31.61865,23.5841z" style="fill:#A6BF86;"/><path d="M36.58445,21.8898c-0.0117,0.3476-0.0429,0.6455-0.0947,0.8935      c-0.0527,0.249-0.1426,0.47359-0.2686,0.6729c-0.1591,0.2441-0.3613,0.4316-0.6054,0.5595      c-0.2442,0.128-0.5127,0.1875-0.8057,0.1787c-0.3379-0.0107-0.6377-0.1123-0.9004-0.3027      c-0.2617-0.1904-0.456-0.4492-0.5791-0.7744c-0.0644-0.1787-0.1084-0.375-0.1348-0.5879      c-0.0253-0.2139-0.0332-0.4453-0.0253-0.6933c0.0097-0.3194,0.0361-0.6065,0.08-0.8624      c0.044-0.25481,0.1065-0.4736,0.1875-0.6552c0.1397-0.3008,0.3389-0.5274,0.5938-0.6787      c0.2549-0.1524,0.5547-0.2237,0.9014-0.212c0.2294,0.0069,0.4365,0.0489,0.6201,0.126      c0.1845,0.0772,0.3447,0.1856,0.4814,0.3262c0.1377,0.1416,0.251,0.3144,0.3428,0.5186      C36.53465,20.753,36.60405,21.2511,36.58445,21.8898z M35.67235,21.797c0.0117-0.3867-0.0029-0.70511-0.0439-0.95311      c-0.0411-0.24809-0.1172-0.43749-0.2276-0.56639c-0.1113-0.1299-0.2695-0.1983-0.4736-0.2041      c-0.293-0.0098-0.502,0.125-0.625,0.4033c-0.124,0.2773-0.1943,0.7099-0.2129,1.2969c-0.0127,0.3974,0.001,0.7255,0.042,0.9804      c0.041,0.25589,0.1172,0.4502,0.2285,0.585c0.1113,0.1338,0.2656,0.2031,0.4639,0.20989      c0.2041,0.00591,0.3662-0.05659,0.4873-0.18839c0.1181-0.1319,0.2051-0.3233,0.2607-0.5743      C35.62645,22.5362,35.65865,22.2062,35.67235,21.797z" style="fill:#A6BF86;"/></g></g></g></g></svg>