<?xml version="1.0" ?><svg style="enable-background:new 0 0 48 48;" version="1.1" viewBox="0 0 48 48" xml:space="preserve" xmlns="http://www.w3.org/2000/svg" xmlns:xlink="http://www.w3.org/1999/xlink"><g id="Icons"><g><g><path d="M35.4131,30.71371v1.8199l0.0008,0.0034c0,0.23-0.05,0.45-0.15,0.67     c-0.24,0.59-0.83,1.14-1.67,1.61c-0.32,0.19-0.68,0.36-1.07,0.52c-0.33,0.13-0.69,0.26-1.08,0.37c-0.34,0.11-0.7,0.2-1.07,0.29     c-0.35,0.08-0.71,0.15-1.08,0.21c-0.35,0.06-0.7,0.12-1.07,0.16c-0.37,0.05-0.74,0.08-1.12,0.11c-0.37,0.03-0.75,0.05-1.13,0.06     c-0.5669,0.0149-1.1349,0.0089-1.7017-0.008c-0.6387-0.019-1.275-0.0803-1.9107-0.1423     c-0.3005-0.0293-0.5998-0.0701-0.8976-0.1197c-0.39-0.06-0.76-0.12-1.12-0.2c-0.39-0.08-0.76-0.17-1.12-0.27     c-0.4-0.11-0.78-0.24-1.13-0.37c-0.41-0.16-0.78-0.33-1.12-0.51c-0.94-0.49-1.59-1.07-1.85-1.71c-0.1-0.22-0.15-0.44-0.15-0.67     v-1.82" style="fill:#DB9A16;"/><path d="M15.3483,29.63561c-0.2439,0.3441-0.3744,0.7067-0.3744,1.0814c0,0.56,0.29,1.1,0.82,1.58     c0.02,0.01,0.03,0.03,0.05,0.04c0.3,0.27,0.69,0.53,1.13,0.76c0.34,0.18,0.71,0.35,1.12,0.51c1.83,0.69,4.34,1.12,7.1,1.12     c2.88,0,5.48-0.47,7.33-1.21c0.87-0.36,1.57-0.77,2.07-1.22c0.02-0.02,0.05-0.05,0.07-0.07c0.48-0.46,0.75-0.97,0.75-1.51     c0-0.1388-0.0179-0.2759-0.0528-0.411c0,0-0.0637-0.485-0.2667-0.756" style="fill:#FFC601;"/><path d="M35.4131,26.73331v1.82l0.0008,0.0034c0,0.23-0.05,0.45-0.15,0.67c-0.24,0.59-0.83,1.14-1.67,1.61     c-0.32,0.19-0.68,0.36-1.07,0.52c-0.33,0.13-0.69,0.26-1.08,0.37c-0.34,0.11-0.7,0.2-1.07,0.29c-0.35,0.08-0.71,0.15-1.08,0.21     c-0.35,0.06-0.7,0.12-1.07,0.16c-0.37,0.05-0.74,0.08-1.12,0.11c-0.37,0.03-0.75,0.05-1.13,0.06     c-0.5669,0.0149-1.1349,0.0089-1.7017-0.008c-0.6387-0.0191-1.275-0.0804-1.9107-0.1423     c-0.3005-0.0293-0.5998-0.0701-0.8976-0.1197c-0.39-0.06-0.76-0.12-1.12-0.2c-0.39-0.08-0.76-0.17-1.12-0.27     c-0.4-0.11-0.78-0.24-1.13-0.37c-0.41-0.16-0.78-0.33-1.12-0.51c-0.94-0.49-1.59-1.07-1.85-1.71c-0.1-0.22-0.15-0.44-0.15-0.67     v-1.82" style="fill:#DB9A16;"/><path d="M35.3611,26.32561c0.0349,0.1352,0.0528,0.2723,0.0528,0.411c0,0.5401-0.27,1.0501-0.75,1.51     c-0.02,0.0201-0.05,0.05-0.07,0.07c-0.5,0.4501-1.2,0.86-2.07,1.2201c-1.85,0.74-4.45,1.2099-7.33,1.2099     c-2.76,0-5.27-0.43-7.1-1.12c-0.41-0.1599-0.78-0.33-1.12-0.51c-0.44-0.2299-0.83-0.49-1.13-0.76     c-0.02-0.0099-0.03-0.0299-0.05-0.04c-0.53-0.4799-0.82-1.02-0.82-1.58c0-0.555,0.2863-1.0837,0.8038-1.5646" style="fill:#FFC601;"/><path d="M36.1924,22.92801v1.81989l0.0008,0.0034c0,0.23-0.05,0.45-0.15,0.67     c-0.24,0.59-0.83,1.14-1.67,1.61c-0.32,0.19-0.68,0.36-1.07,0.52c-0.33,0.13-0.69,0.26-1.08,0.37c-0.34,0.11-0.7,0.2-1.07,0.29     c-0.35,0.08-0.71,0.15-1.08,0.21c-0.35,0.06-0.7,0.12-1.07,0.16c-0.37,0.05-0.74,0.08-1.12,0.11c-0.37,0.03-0.75,0.05-1.13,0.06     c-0.5669,0.0149-1.1349,0.0089-1.7017-0.0079c-0.6387-0.0191-1.2751-0.0804-1.9107-0.1423     c-0.3005-0.0293-0.5998-0.0701-0.8976-0.1198c-0.39-0.06-0.76-0.12-1.12-0.2c-0.39-0.08-0.76-0.17-1.12-0.27     c-0.4-0.11-0.78-0.24-1.13-0.37c-0.41-0.16-0.78-0.33-1.12-0.51c-0.94-0.49-1.59-1.07-1.85-1.71c-0.1-0.22-0.15-0.44-0.15-0.67     v-0.9932" style="fill:#DB9A16;"/><path d="M16.0269,23.86251c0.1351,0.2253,0.3185,0.4426,0.5462,0.6488     c0.0201,0.01,0.0301,0.0301,0.0501,0.04c0.3,0.27,0.69,0.53,1.13,0.76c0.34,0.18,0.71,0.3501,1.12,0.51     c1.8299,0.69,4.34,1.12,7.1,1.12c2.88,0,5.4799-0.4699,7.33-1.2099c0.87-0.3601,1.57-0.7701,2.07-1.2201     c0.0199-0.02,0.05-0.05,0.07-0.07c0.48-0.4599,0.75-0.9699,0.75-1.51c0-1.167-1.2657-2.218-3.2857-2.9524l-1.7546-0.4945     l-9.4961,1.4146L16.0269,23.86251z" style="fill:#FFC601;"/><path d="M34.5995,23.06071c-0.8,0.7801-1.88,1.2701-2.94,1.5901c-2.1399,0.6399-4.4499,0.69-6.67,0.57     c-2.08-0.1001-4.1499-0.39-6.2-0.77c-0.9099-0.18-1.8299-0.36-2.7299-0.6l0.01-0.01l5.5899-2.94l9.4901-1.4201l1.7599,0.5     c0.9001,0.32,1.6501,0.7201,2.21,1.1501C35.3196,21.76081,35.1996,22.46081,34.5995,23.06071z" style="opacity:0.1;"/><path d="M11.8068,18.77021v1.82c0,0.23,0.05,0.45,0.15,0.67c0.26,0.64,0.91,1.22,1.85,1.71     c0.34,0.18,0.71,0.35,1.12,0.51c0.35,0.13,0.73,0.26,1.13,0.37c0.36,0.1,0.73,0.19,1.12,0.27c0.36,0.08,0.73,0.14,1.12,0.2     c0.2978,0.0496,0.5971,0.0904,0.8976,0.1197c0.6357,0.062,1.272,0.1233,1.9107,0.14231c0.5668,0.0169,1.1348,0.0229,1.7017,0.008     c0.38-0.01,0.76-0.03,1.13-0.06c0.38-0.03,0.75-0.06,1.12-0.11c0.37-0.04,0.72-0.1,1.07-0.16c0.37-0.06,0.73-0.13,1.08-0.21     c0.37-0.09,0.73-0.18,1.07-0.29c0.39-0.11,0.75-0.24,1.08-0.37c0.39-0.16,0.75-0.33,1.07-0.52c0.84-0.47,1.43-1.02,1.67-1.61     c0.1-0.22,0.15-0.44,0.15-0.67v-0.3897" style="fill:#DB9A16;"/><path d="M31.5018,20.27321v0.01c-0.02,0.02-0.06,0.05-0.07,0.07h-0.01c-0.07,0.07-0.13,0.12-0.2,0.17     c0,0.01-0.01,0.01-0.01,0.01c-0.23,0.18-0.49,0.36-0.78,0.53c-0.32,0.17-0.68,0.35-1.07,0.51c-1.86,0.74-4.46,1.21-7.34,1.21     c-2.76,0-5.27-0.43-7.09-1.12h-0.01c-0.42-0.16-0.78-0.33-1.11-0.51h-0.01c-0.44-0.23-0.82-0.49-1.12-0.76c0,0-0.01,0-0.01-0.01     c-0.02-0.01-0.03-0.02-0.05-0.03c-0.52-0.48-0.81-1.02-0.81-1.58c0-1.14,1.21-2.18,3.16-2.9c0.01-0.01,0.03-0.02,0.04-0.02" style="fill:#FFC601;"/><g><path d="M35.4131,15.47111v1.8199l0.0008,0.0034c0,0.23-0.05,0.45-0.15,0.67      c-0.24,0.59-0.83,1.14-1.67,1.61c-0.32,0.19-0.68,0.36-1.07,0.52c-0.33,0.13-0.69,0.26-1.08,0.37c-0.34,0.11-0.7,0.2-1.07,0.29      c-0.35,0.08-0.71,0.15-1.08,0.21c-0.35,0.06-0.7,0.12-1.07,0.16c-0.37,0.05-0.74,0.08-1.12,0.11c-0.37,0.03-0.75,0.05-1.13,0.06      c-0.5669,0.0149-1.1349,0.009-1.7017-0.0079c-0.6387-0.0191-1.275-0.0804-1.9107-0.1423      c-0.3005-0.0293-0.5998-0.0701-0.8976-0.1198c-0.39-0.06-0.76-0.12-1.12-0.2c-0.39-0.08-0.76-0.17-1.12-0.27      c-0.4-0.11-0.78-0.24-1.13-0.37c-0.41-0.16-0.78-0.33-1.12-0.51c-0.94-0.49-1.59-1.07-1.85-1.71c-0.1-0.22-0.15-0.44-0.15-0.67      v-1.82" style="fill:#DB9A16;"/><path d="M35.4139,15.47441c0,0.5401-0.27,1.0501-0.75,1.51c-0.02,0.0201-0.05,0.05-0.07,0.07      c-0.5,0.4501-1.2,0.86-2.07,1.2201c-1.85,0.74-4.45,1.2099-7.33,1.2099c-2.76,0-5.27-0.43-7.1-1.12      c-0.41-0.1599-0.78-0.33-1.12-0.51c-0.44-0.2299-0.83-0.49-1.13-0.76c-0.02-0.0099-0.03-0.0299-0.05-0.04      c-0.53-0.4799-0.82-1.02-0.82-1.58c0-2.2199,4.58-4.0199,10.22-4.0199S35.4139,13.25451,35.4139,15.47441z" style="fill:#FFC601;"/></g><g><path d="M17.1695,17.95081v1.82c-0.07-0.0301-0.1399-0.07-0.2-0.1001c-0.36-0.19-0.68-0.3899-0.9499-0.61      v-1.82c0.2699,0.2201,0.5899,0.4201,0.9499,0.6101C17.0296,17.88081,17.0995,17.92071,17.1695,17.95081z" style="fill:#E4AC1D;"/><path d="M22.3495,19.32081v1.82c-0.3-0.0301-0.5899-0.07-0.8899-0.12c-0.39-0.06-0.76-0.12-1.12-0.2      c-0.25-0.05-0.4901-0.11-0.7201-0.17v-1.81C20.4496,19.05071,21.3695,19.21081,22.3495,19.32081z" style="fill:#E4AC1D;"/><path d="M18.5096,18.51081v1.82c-0.1401-0.05-0.2801-0.1001-0.42-0.1501      c-0.06-0.0199-0.1101-0.0399-0.1601-0.07v-1.82c0.05,0.0301,0.1001,0.0501,0.1601,0.07      C18.2295,18.41081,18.3695,18.46081,18.5096,18.51081z" style="fill:#E4AC1D;"/><path d="M31.4895,18.62071v1.8201c-0.02,0.01-0.0299,0.02-0.0499,0.02      c-0.3401,0.11-0.7001,0.2-1.0701,0.29c-0.32,0.07-0.6599,0.14-1,0.19v-1.81C30.1296,19.00081,30.8396,18.83081,31.4895,18.62071      z" style="fill:#E4AC1D;"/><path d="M34.3595,17.24071v1.82c-0.2199,0.18-0.4799,0.3501-0.7699,0.5101      c-0.2201,0.13-0.46,0.25-0.7201,0.37v-1.8301C33.4596,17.85081,33.9596,17.56071,34.3595,17.24071z" style="fill:#E4AC1D;"/></g><g><path d="M17.0696,33.15081v1.82c-0.04-0.02-0.07-0.03-0.1001-0.0501      c-0.4099-0.2099-0.7599-0.44-1.05-0.69v-1.8199c0.2901,0.24,0.6501,0.48,1.05,0.69      C16.9996,33.1207,17.0296,33.13081,17.0696,33.15081z" style="fill:#E4AC1D;"/><path d="M22.2496,34.56071v1.8201c-0.2601-0.03-0.5301-0.0701-0.79-0.11c-0.39-0.06-0.76-0.12-1.12-0.2      c-0.28-0.06-0.56-0.12-0.82-0.19v-1.8201C20.3495,34.28081,21.2696,34.45081,22.2496,34.56071z" style="fill:#E4AC1D;"/><path d="M18.4095,33.72081v1.8199c-0.11-0.0299-0.2199-0.0699-0.3199-0.11      c-0.09-0.0299-0.1801-0.07-0.26-0.1099v-1.82c0.0799,0.0399,0.17,0.08,0.26,0.1099      C18.1896,33.65081,18.2995,33.69081,18.4095,33.72081z" style="fill:#E4AC1D;"/><path d="M31.3896,33.90081v1.82c-0.32,0.11-0.6701,0.19-1.0201,0.28c-0.3499,0.08-0.71,0.15-1.08,0.21      c-0.0099,0-0.0099,0-0.0199,0v-1.82C30.0296,34.27081,30.7395,34.10081,31.3896,33.90081z" style="fill:#E4AC1D;"/><path d="M34.2596,32.5708v1.81c-0.2,0.1599-0.42,0.2999-0.67,0.44c-0.25,0.15-0.53,0.2899-0.83,0.4099      v-1.8199C33.3495,33.1608,33.8595,32.8707,34.2596,32.5708z" style="fill:#E4AC1D;"/></g><g><path d="M17.1695,29.22081v1.8199c-0.07-0.0299-0.1399-0.0699-0.2-0.0999      c-0.36-0.19-0.68-0.3901-0.9499-0.61v-1.82c0.2699,0.2199,0.5899,0.4199,0.9499,0.6099      C17.0296,29.15081,17.0995,29.19081,17.1695,29.22081z" style="fill:#E4AC1D;"/><path d="M22.3495,30.59081v1.82c-0.3-0.03-0.5899-0.07-0.8899-0.1201c-0.39-0.06-0.76-0.12-1.12-0.1999      c-0.25-0.0501-0.4901-0.1101-0.7201-0.1701v-1.81C20.4496,30.32081,21.3695,30.48071,22.3495,30.59081z" style="fill:#E4AC1D;"/><path d="M18.5096,29.78081v1.82c-0.1401-0.0501-0.2801-0.1-0.42-0.15      c-0.06-0.0201-0.1101-0.04-0.1601-0.07v-1.8201c0.05,0.0301,0.1001,0.05,0.1601,0.0701      C18.2295,29.68071,18.3695,29.73071,18.5096,29.78081z" style="fill:#E4AC1D;"/><path d="M31.4895,29.89081v1.82c-0.02,0.01-0.0299,0.0199-0.0499,0.0199      c-0.3401,0.1101-0.7001,0.2-1.0701,0.2901c-0.32,0.07-0.6599,0.14-1,0.19v-1.81      C30.1296,30.27081,30.8396,30.10081,31.4895,29.89081z" style="fill:#E4AC1D;"/><path d="M34.3595,28.51081v1.82c-0.2199,0.18-0.4799,0.3499-0.7699,0.51      c-0.2201,0.13-0.46,0.25-0.7201,0.36v-1.82C33.4596,29.12071,33.9596,28.83081,34.3595,28.51081z" style="fill:#E4AC1D;"/></g><g><path d="M18.0896,25.48071v1.82c-0.1201-0.06-0.2301-0.1099-0.34-0.1699      c-0.3-0.16-0.5701-0.3201-0.81-0.5v-1.8201c0.2399,0.18,0.51,0.3401,0.81,0.5      C17.8595,25.37071,17.9695,25.42071,18.0896,25.48071z" style="fill:#E4AC1D;"/><path d="M23.2696,26.80071v1.81c-0.0401,0-0.0901-0.0099-0.13-0.0099      c-0.3-0.03-0.6001-0.07-0.9001-0.1201c-0.39-0.06-0.76-0.12-1.12-0.1999c-0.2-0.0401-0.39-0.08-0.58-0.13v-1.82      C21.3695,26.53081,22.2895,26.69081,23.2696,26.80071z" style="fill:#E4AC1D;"/><path d="M19.4295,26.01081v1.82c-0.2-0.06-0.38-0.12-0.56-0.19c-0.01,0-0.01-0.01-0.02-0.01v-1.8201      c0.01,0,0.01,0.0101,0.02,0.0101C19.0495,25.89081,19.2395,25.95081,19.4295,26.01081z" style="fill:#E4AC1D;"/><path d="M32.4366,26.04071l-0.0271,1.82c-0.06,0.0201-0.1299,0.0401-0.19,0.06      c-0.3399,0.1101-0.6999,0.2-1.0699,0.2901c-0.2801,0.06-0.56,0.12-0.8601,0.17v-1.8201      C31.0495,26.43071,31.7866,26.25081,32.4366,26.04071z" style="fill:#E4AC1D;"/><path d="M35.2972,24.57811l-0.0176,1.8227c-0.26,0.23-0.5601,0.43-0.9101,0.63      c-0.1799,0.11-0.3699,0.2099-0.58,0.3l-0.03-1.8002C34.3595,25.25061,34.9072,24.91801,35.2972,24.57811z" style="fill:#E4AC1D;"/></g><g><path d="M13.6396,21.06071v1.8201c-0.4701-0.2601-0.86-0.54-1.1501-0.85v-1.81      c0.0401,0.05,0.0801,0.0899,0.13,0.13c0.0201,0.0099,0.0301,0.0199,0.05,0.03c0,0.01,0.01,0.01,0.01,0.01      C12.9396,20.63081,13.2696,20.85081,13.6396,21.06071z" style="fill:#E4AC1D;"/><path d="M16.0896,22.04071c0.8199,0.2301,1.74,0.4101,2.73,0.5401v1.81      c-0.17-0.01-0.3401-0.04-0.5201-0.07c-0.39-0.06-0.76-0.12-1.12-0.2001c-0.38-0.08-0.7399-0.1699-1.0899-0.26V22.04071z" style="fill:#E4AC1D;"/><path d="M14.9295,21.66081c0.0201,0.0099,0.0301,0.0099,0.05,0.0199v1.8201      c-0.0199-0.0101-0.0299-0.0101-0.05-0.0201c-0.1799-0.0699-0.3599-0.1499-0.5299-0.2199v-1.82      c0.16,0.08,0.3399,0.15,0.5199,0.22H14.9295z" style="fill:#E4AC1D;"/><path d="M25.8396,22.48071c0.7599-0.11,1.47-0.2599,2.12-0.4499v1.82      c-0.2401,0.0799-0.4901,0.1399-0.75,0.1999c-0.3501,0.0801-0.71,0.1501-1.08,0.2101c-0.1,0.02-0.19,0.0299-0.29,0.0499V22.48071      z" style="fill:#E4AC1D;"/><path d="M30.8296,20.81071v1.81c-0.13,0.0901-0.26,0.17-0.4001,0.25c-0.32,0.19-0.6799,0.36-1.07,0.5201      c-0.01,0-0.0199,0.01-0.0299,0.01v-1.82c0.01,0,0.0199-0.01,0.0299-0.01c0.3901-0.16,0.75-0.3401,1.07-0.5101      C30.5696,20.98071,30.7096,20.89081,30.8296,20.81071z" style="fill:#E4AC1D;"/></g></g><g><path d="M19.168,15.79551l0.8709-0.0532c-0.0372,0.1556-0.0156,0.2812,0.0662,0.3743     c0.0821,0.0948,0.2004,0.143,0.3552,0.1463c0.1763,0.0037,0.3497-0.0526,0.5181-0.1665c0.1691-0.1156,0.3003-0.2903,0.394-0.5268     c0.0883-0.2213,0.0937-0.3886,0.0156-0.5019c-0.077-0.1141-0.2129-0.1728-0.4076-0.177     c-0.243-0.0052-0.4951,0.0782-0.7576,0.2501l-0.6534-0.096l1.1796-1.8687l2.2355,0.0479l-0.2569,0.6472l-1.5949-0.0341     l-0.3761,0.61c0.2195-0.0731,0.4267-0.1075,0.6235-0.1033c0.3751,0.008,0.6479,0.1263,0.8213,0.3549     c0.1714,0.2286,0.1866,0.5215,0.0447,0.8778c-0.1174,0.296-0.3273,0.5595-0.6308,0.7881     c-0.4134,0.3116-0.8743,0.4623-1.3838,0.4514c-0.4069-0.0087-0.7035-0.1047-0.8898-0.2896     C19.1565,16.34231,19.0982,16.09841,19.168,15.79551z" style="fill:#D19D0B;"/><path d="M24.9592,13.20201c0.4264,0.0092,0.711,0.1404,0.8536,0.3946     c0.1695,0.3021,0.1182,0.7948-0.1535,1.4789c-0.2711,0.6825-0.6105,1.1698-1.0183,1.463     c-0.3363,0.2405-0.7185,0.3566-1.1449,0.3475c-0.4294-0.0092-0.7223-0.1516-0.8776-0.4272     c-0.1552-0.2756-0.0959-0.7597,0.1791-1.4522c0.2698-0.6791,0.608-1.1648,1.0158-1.4571     C24.1502,13.30821,24.5318,13.1929,24.9592,13.20201z M24.7314,13.77551c-0.1025-0.0022-0.2041,0.0227-0.3053,0.0746     c-0.1022,0.0503-0.2013,0.1454-0.3007,0.2819c-0.1294,0.1773-0.2781,0.4786-0.4464,0.9011     c-0.1685,0.4242-0.2568,0.7149-0.2677,0.8745c-0.0109,0.1595,0.0133,0.2666,0.0716,0.3203     c0.0577,0.0545,0.1386,0.08241,0.2411,0.0846c0.1014,0.0022,0.203-0.0219,0.3053-0.0738     c0.1012-0.0519,0.2018-0.1462,0.3001-0.2827c0.1294-0.1765,0.2769-0.4752,0.4453-0.8994     c0.1683-0.4226,0.2567-0.7141,0.2686-0.8736c0.0104-0.1596-0.0132-0.2675-0.0719-0.3212     C24.9137,13.80651,24.8329,13.77771,24.7314,13.77551z" style="fill:#D19D0B;"/><g><path d="M28.4045,16.36571l0.6284-1.8729c0.3569,0.0062,0.6411,0.0511,0.8393,0.1363l0.2414-0.5224      c-0.2679-0.0549-0.5814-0.0784-0.9228-0.0846l0.1332-0.3971l-0.4836,0.0092l-0.1318,0.3931      c-0.7404,0.0341-1.3509,0.1649-1.8218,0.4028c-0.3457,0.1756-0.5707,0.387-0.6859,0.6399c0,0-0.1921,0.4288-0.011,0.8341      c0.1097,0.2486,0.3402,0.4568,0.6914,0.6245c0.2609,0.1231,0.5615,0.2117,0.8982,0.2679l-0.165,0.4919l0.4836-0.0093      l0.1438-0.4286c0.1921,0.0141,0.3924,0.0206,0.6041,0.0165c0.4719-0.009,0.8835-0.0605,1.2402-0.1491v-0.5723      c-0.3128,0.1532-0.7299,0.232-1.2512,0.242C28.6799,16.39061,28.5389,16.38111,28.4045,16.36571z M27.7704,16.19001      c-0.1427-0.0736-0.247-0.1806-0.3183-0.3101c-0.236-0.4206-0.0055-0.8337-0.0055-0.8337      c0.0658-0.1266,0.1756-0.2323,0.3292-0.317c0.2075-0.1153,0.4656-0.1875,0.771-0.2198l-0.5901,1.7591      C27.8912,16.24531,27.8278,16.22031,27.7704,16.19001z" style="fill:#D19D0B;"/></g></g></g></g></svg>