<?xml version="1.0" ?><svg style="enable-background:new 0 0 48 48;" version="1.1" viewBox="0 0 48 48" xml:space="preserve" xmlns="http://www.w3.org/2000/svg" xmlns:xlink="http://www.w3.org/1999/xlink"><g id="Icons"><g><path d="M6.6909,16.2189c0-0.3253,0.3478-0.5337,0.6309-0.3734c2.0938,1.1855,9.0646,4.6466,17.4522,0.2296    c8.27-4.355,14.32-1.9426,16.0389-1.0626c0.3078,0.1576,0.4962,0.4717,0.4962,0.8176v15.951c0,0.3253-0.3478,0.5337-0.6309,0.3734    c-2.0938-1.1855-9.0646-4.6466-17.4522-0.2296c-8.2792,4.3548-14.3224,1.9428-16.0393,1.0628    C6.879,32.83,6.6909,32.516,6.6909,32.1703V16.2189z" style="fill:#A6BF86;"/><g><path d="M26.1836,23.9782c-0.2034-0.234-0.4591-0.4024-0.7679-0.5062     c-0.3088-0.1035-0.7714-0.177-1.3877-0.2203c-0.6162-0.0436-1.0119-0.1172-1.1867-0.2218     c-0.1376-0.0818-0.2181-0.1944-0.2414-0.3375c-0.0257-0.1571,0.0183-0.2929,0.1324-0.4076     c0.1766-0.1786,0.4421-0.2969,0.7965-0.3548c0.3431-0.0561,0.6117-0.0299,0.8057,0.0783     c0.194,0.1081,0.3425,0.3133,0.4453,0.6159l1.2109-0.253c-0.1102-0.5529-0.3839-0.9645-0.8213-1.2348     c-0.3316-0.2049-0.7557-0.2956-1.271-0.2742l-0.1931-1.1818l-0.9575,0.1565l0.194,1.1874     c-0.2703,0.0765-0.519,0.1691-0.7203,0.2969c-0.3052,0.1942-0.5231,0.4394-0.6538,0.7363     c-0.1306,0.2969-0.1704,0.5997-0.1201,0.9077c0.0783,0.4791,0.3301,0.8549,0.7551,1.1272     c0.3024,0.1938,0.7938,0.3183,1.474,0.3739c0.5287,0.0435,0.8685,0.0785,1.0197,0.10469     c0.2206,0.0401,0.3814,0.10381,0.4814,0.1905c0.1002,0.0866,0.1622,0.2016,0.1856,0.3447     c0.0364,0.2228-0.0315,0.434-0.2035,0.6329c-0.1719,0.1993-0.4541,0.3309-0.8468,0.3951     c-0.3709,0.0606-0.6808,0.0152-0.9299-0.1364c-0.2487-0.1514-0.4416-0.421-0.5782-0.8083l-1.1677,0.3096     c0.1905,0.6639,0.5191,1.1395,0.9861,1.4261c0.3567,0.2191,0.8012,0.3161,1.3309,0.295l0.18,1.1012l0.9575-0.1564l-0.1804-1.1041     c0.3198-0.0846,0.6102-0.187,0.8362-0.3282c0.3275-0.2048,0.5625-0.4743,0.7054-0.8084c0.1428-0.334,0.1857-0.6745,0.129-1.0214     C26.5195,24.5201,26.3866,24.2119,26.1836,23.9782z" style="fill:#E6F4D0;"/></g><path d="M25.1049,29.4494c-0.01,0-0.02,0.01-0.03,0.01c-0.86,0.32-1.71,0.7-2.55,1.14    c-2.97,1.56-5.92,2.35-8.77,2.35c-1.16,0-2.2-0.14-3.07-0.32c0.1-0.27,0.15-0.57,0.15-0.87c0-1.47-1.18-2.65-2.64-2.65v-8.5    c1.13,0,2.1-0.71,2.47-1.71c1.83,0.58,3.71,0.86,5.61,0.86c1.96,0,3.89-0.31,5.79-0.92h0.02h-0.02c-1.82,0.9-2.99,3.13-2.76,5.6    c0.29,3.07,2.62,5.36,5.22,5.12c0.19-0.02,0.37-0.05,0.55-0.1C25.0849,29.4694,25.0949,29.4694,25.1049,29.4494" style="fill:#E6F4D0;"/><path d="M25.8749,29.1794c0.02,0,0.03,0,0.04-0.01c1.84-0.89,3.01-3.13,2.78-5.61    c-0.29-3.07-2.62-5.36-5.22-5.12c-0.17,0.02-0.34,0.05-0.51,0.09c-0.01,0-0.02,0-0.03,0l-0.01,0.01l0.01-0.01    c0.01,0,0.02,0,0.03,0c0.85-0.31,1.68-0.7,2.51-1.13c2.96-1.56,5.91-2.35,8.76-2.35c1.15,0,2.17,0.13,3.03,0.33    c-0.07,0.23-0.1,0.47-0.1,0.72c0,1.46,1.18,2.64,2.64,2.64v8.5c-1.18,0-2.18,0.78-2.52,1.85c-1.81-0.57-3.67-0.85-5.56-0.85    c-1.96,0-3.91,0.31-5.81,0.93C25.9049,29.1794,25.8949,29.1794,25.8749,29.1794" style="fill:#E6F4D0;"/><path d="M13.4187,27.5164v-2.9785c-0.5537,0.4253-0.9267,0.6382-1.1191,0.6382    c-0.0918,0-0.1728-0.0366-0.2441-0.1099c-0.0703-0.0727-0.1065-0.1572-0.1065-0.2534c0-0.1113,0.0352-0.1928,0.1055-0.2456    c0.0693-0.0522,0.1924-0.1196,0.3691-0.2026c0.2647-0.1245,0.4756-0.2554,0.6338-0.3931c0.1582-0.1372,0.2979-0.291,0.4209-0.4614    c0.1221-0.1699,0.2012-0.2749,0.2383-0.314c0.0371-0.0395,0.1074-0.0591,0.21-0.0591c0.1152,0,0.208,0.045,0.2783,0.1343    c0.0693,0.0894,0.1045,0.2129,0.1045,0.3697v3.7475c0,0.4385-0.1494,0.6582-0.4483,0.6582c-0.1338,0-0.2402-0.0449-0.3213-0.1343    C13.4588,27.8231,13.4187,27.6908,13.4187,27.5164z" style="fill:#A6BF86;"/><path d="M33.6687,23.3036V20.325c-0.5537,0.4253-0.9267,0.6382-1.1191,0.6382    c-0.0918,0-0.1728-0.0366-0.2441-0.1098c-0.0703-0.0728-0.1065-0.1573-0.1065-0.2535c0-0.1113,0.0352-0.1928,0.1055-0.2456    c0.0693-0.0522,0.1924-0.1196,0.3691-0.2026c0.2647-0.1245,0.4756-0.2554,0.6338-0.3931c0.1582-0.1372,0.2979-0.291,0.4209-0.4614    c0.1221-0.1699,0.2012-0.2749,0.2383-0.314c0.0371-0.0395,0.1074-0.059,0.21-0.059c0.1152,0,0.208,0.0449,0.2783,0.1342    c0.0693,0.0894,0.1045,0.2129,0.1045,0.3697v3.7475c0,0.4385-0.1494,0.6582-0.4483,0.6582c-0.1338,0-0.2402-0.0449-0.3213-0.1343    C33.7088,23.6102,33.6687,23.4779,33.6687,23.3036z" style="fill:#A6BF86;"/></g></g></svg>