<?xml version="1.0" ?><svg style="enable-background:new 0 0 48 48;" version="1.1" viewBox="0 0 48 48" xml:space="preserve" xmlns="http://www.w3.org/2000/svg" xmlns:xlink="http://www.w3.org/1999/xlink"><g id="Icons"><g><path d="M35.4131,30.71371v1.8199l0.0008,0.0034c0,0.23-0.05,0.45-0.15,0.67    c-0.24,0.59-0.83,1.14-1.67,1.61c-0.32,0.19-0.68,0.36-1.07,0.52c-0.33,0.13-0.69,0.26-1.08,0.37c-0.34,0.11-0.7,0.2-1.07,0.29    c-0.35,0.08-0.71,0.15-1.08,0.21c-0.35,0.06-0.7,0.12-1.07,0.16c-0.37,0.05-0.74,0.08-1.12,0.11c-0.37,0.03-0.75,0.05-1.13,0.06    c-0.5669,0.0149-1.1349,0.0089-1.7017-0.008c-0.6387-0.019-1.275-0.0803-1.9107-0.1423    c-0.3005-0.0293-0.5998-0.0701-0.8976-0.1197c-0.39-0.06-0.76-0.12-1.12-0.2c-0.39-0.08-0.76-0.17-1.12-0.27    c-0.4-0.11-0.78-0.24-1.13-0.37c-0.41-0.16-0.78-0.33-1.12-0.51c-0.94-0.49-1.59-1.07-1.85-1.71c-0.1-0.22-0.15-0.44-0.15-0.67    v-1.82" style="fill:#DB9A16;"/><path d="M15.3483,29.6356c-0.2439,0.3441-0.3744,0.7067-0.3744,1.0814c0,0.56,0.29,1.1,0.82,1.58    c0.02,0.01,0.03,0.03,0.05,0.04c0.3,0.27,0.69,0.53,1.13,0.76c0.34,0.18,0.71,0.35,1.12,0.51c1.83,0.69,4.34,1.12,7.1,1.12    c2.88,0,5.48-0.47,7.33-1.21c0.87-0.36,1.57-0.77,2.07-1.22c0.02-0.02,0.05-0.05,0.07-0.07c0.48-0.46,0.75-0.97,0.75-1.51    c0-0.1388-0.0179-0.27591-0.0528-0.411c0,0-0.0637-0.485-0.2667-0.756" style="fill:#FFC601;"/><path d="M35.4131,26.7333v1.82l0.0008,0.0034c0,0.23-0.05,0.45-0.15,0.67c-0.24,0.59-0.83,1.14-1.67,1.61    c-0.32,0.19-0.68,0.36-1.07,0.52c-0.33,0.13-0.69,0.26-1.08,0.37c-0.34,0.11-0.7,0.2-1.07,0.29c-0.35,0.08-0.71,0.15-1.08,0.21    c-0.35,0.06-0.7,0.12-1.07,0.16c-0.37,0.05-0.74,0.08-1.12,0.11c-0.37,0.03-0.75,0.05-1.13,0.06    c-0.5669,0.0149-1.1349,0.0089-1.7017-0.008c-0.6387-0.0191-1.275-0.0804-1.9107-0.1423    c-0.3005-0.02931-0.5998-0.0701-0.8976-0.1197c-0.39-0.06-0.76-0.12-1.12-0.2c-0.39-0.08-0.76-0.17-1.12-0.27    c-0.4-0.11-0.78-0.24-1.13-0.37c-0.41-0.16-0.78-0.33-1.12-0.51c-0.94-0.49-1.59-1.07-1.85-1.71c-0.1-0.22-0.15-0.44-0.15-0.67    v-1.82" style="fill:#DB9A16;"/><path d="M35.3611,26.32561c0.0349,0.1352,0.0528,0.2723,0.0528,0.411c0,0.5401-0.27,1.0501-0.75,1.51    c-0.02,0.0201-0.05,0.05-0.07,0.07c-0.5,0.4501-1.2,0.86-2.07,1.2201c-1.85,0.74-4.45,1.2099-7.33,1.2099    c-2.76,0-5.27-0.43-7.1-1.12c-0.41-0.1599-0.78-0.33-1.12-0.51c-0.44-0.2299-0.83-0.49-1.13-0.76    c-0.02-0.0099-0.03-0.0299-0.05-0.04c-0.53-0.4799-0.82-1.02-0.82-1.58c0-0.555,0.2863-1.0837,0.8038-1.5646" style="fill:#FFC601;"/><path d="M36.1924,22.92801v1.8199l0.0008,0.0034c0,0.23-0.05,0.45-0.15,0.67    c-0.24,0.59-0.83,1.14-1.67,1.61c-0.32,0.19-0.68,0.36-1.07,0.52c-0.33,0.13-0.69,0.26-1.08,0.37c-0.34,0.11-0.7,0.2-1.07,0.29    c-0.35,0.08-0.71,0.15-1.08,0.21c-0.35,0.06-0.7,0.12-1.07,0.16c-0.37,0.05-0.74,0.08-1.12,0.11c-0.37,0.03-0.75,0.05-1.13,0.06    c-0.5669,0.0149-1.1349,0.0089-1.7017-0.0079c-0.6387-0.0191-1.2751-0.0804-1.9107-0.14231    c-0.3005-0.02929-0.5998-0.0701-0.8976-0.11979c-0.39-0.06-0.76-0.12-1.12-0.2c-0.39-0.08-0.76-0.17-1.12-0.27    c-0.4-0.11-0.78-0.24-1.13-0.37c-0.41-0.16-0.78-0.33-1.12-0.51c-0.94-0.49-1.59-1.07-1.85-1.71c-0.1-0.22-0.15-0.44-0.15-0.67    V23.7581" style="fill:#DB9A16;"/><path d="M16.0269,23.8625c0.1351,0.2253,0.3185,0.44259,0.5462,0.6488    c0.0201,0.01,0.0301,0.0301,0.0501,0.04c0.3,0.27,0.69,0.53,1.13,0.76c0.34,0.18,0.71,0.3501,1.12,0.51    c1.8299,0.69,4.34,1.12,7.1,1.12c2.88,0,5.4799-0.4699,7.33-1.2099c0.87-0.3601,1.57-0.7701,2.07-1.2201    c0.0199-0.02,0.05-0.05,0.07-0.07c0.48-0.4599,0.75-0.9699,0.75-1.51c0-1.167-1.2657-2.218-3.2857-2.9524l-1.7546-0.4945    l-9.4961,1.4146L16.0269,23.8625z" style="fill:#FFC601;"/><path d="M34.5995,23.06071c-0.8,0.7801-1.88,1.2701-2.94,1.5901c-2.1399,0.6399-4.4499,0.69-6.67,0.57    c-2.08-0.1001-4.1499-0.39-6.2-0.77c-0.9099-0.18-1.8299-0.36-2.7299-0.6l0.01-0.01l5.5899-2.94l9.4901-1.4201l1.7599,0.5    c0.9001,0.32,1.6501,0.7201,2.21,1.1501C35.3196,21.76081,35.1996,22.46081,34.5995,23.06071z" style="opacity:0.1;"/><path d="M11.8068,18.7702v1.82c0,0.23,0.05,0.45,0.15,0.67c0.26,0.64,0.91,1.22,1.85,1.71    c0.34,0.18,0.71,0.35,1.12,0.51c0.35,0.13,0.73,0.26,1.13,0.37c0.36,0.1,0.73,0.19,1.12,0.27c0.36,0.08,0.73,0.14,1.12,0.2    c0.2978,0.0496,0.5971,0.0904,0.8976,0.1197c0.6357,0.062,1.272,0.1233,1.9107,0.1423c0.5668,0.0169,1.1348,0.02289,1.7017,0.008    c0.38-0.01,0.76-0.03,1.13-0.06c0.38-0.03,0.75-0.06,1.12-0.11c0.37-0.04,0.72-0.1,1.07-0.16c0.37-0.06,0.73-0.13,1.08-0.21    c0.37-0.09,0.73-0.18,1.07-0.29c0.39-0.11,0.75-0.24,1.08-0.37c0.39-0.16,0.75-0.33,1.07-0.52c0.84-0.47,1.43-1.02,1.67-1.61    c0.1-0.22,0.15-0.44,0.15-0.67v-0.3897" style="fill:#DB9A16;"/><path d="M31.5018,20.2732v0.01c-0.02,0.02-0.06,0.05-0.07,0.07h-0.01c-0.07,0.07-0.13,0.12-0.2,0.17    c0,0.01-0.01,0.01-0.01,0.01c-0.23,0.18-0.49,0.36-0.78,0.53c-0.32,0.17-0.68,0.35-1.07,0.51c-1.86,0.74-4.46,1.21-7.34,1.21    c-2.76,0-5.27-0.43-7.09-1.12h-0.01c-0.42-0.16-0.78-0.33-1.11-0.51h-0.01c-0.44-0.23-0.82-0.49-1.12-0.76c0,0-0.01,0-0.01-0.01    c-0.02-0.01-0.03-0.02-0.05-0.03c-0.52-0.48-0.81-1.02-0.81-1.58c0-1.14,1.21-2.18,3.16-2.9c0.01-0.01,0.03-0.02,0.04-0.02" style="fill:#FFC601;"/><g><path d="M35.4131,15.4711V17.291l0.0008,0.0034c0,0.23-0.05,0.45-0.15,0.67     c-0.24,0.59-0.83,1.14-1.67,1.61c-0.32,0.19-0.68,0.36-1.07,0.52c-0.33,0.13-0.69,0.26-1.08,0.37c-0.34,0.11-0.7,0.2-1.07,0.29     c-0.35,0.08-0.71,0.15-1.08,0.21c-0.35,0.06-0.7,0.12-1.07,0.16c-0.37,0.05-0.74,0.08-1.12,0.11c-0.37,0.03-0.75,0.05-1.13,0.06     c-0.5669,0.0149-1.1349,0.009-1.7017-0.0079c-0.6387-0.0191-1.275-0.08041-1.9107-0.1423     c-0.3005-0.0293-0.5998-0.07011-0.8976-0.1198c-0.39-0.06-0.76-0.12-1.12-0.2c-0.39-0.08-0.76-0.17-1.12-0.27     c-0.4-0.11-0.78-0.24-1.13-0.37c-0.41-0.16-0.78-0.33-1.12-0.51c-0.94-0.49-1.59-1.07-1.85-1.71c-0.1-0.22-0.15-0.44-0.15-0.67     v-1.82" style="fill:#DB9A16;"/><path d="M35.4139,15.47441c0,0.5401-0.27,1.0501-0.75,1.51c-0.02,0.0201-0.05,0.05-0.07,0.07     c-0.5,0.4501-1.2,0.86-2.07,1.2201c-1.85,0.74-4.45,1.2099-7.33,1.2099c-2.76,0-5.27-0.43-7.1-1.12     c-0.41-0.1599-0.78-0.33-1.12-0.51c-0.44-0.2299-0.83-0.49-1.13-0.76c-0.02-0.0099-0.03-0.0299-0.05-0.04     c-0.53-0.4799-0.82-1.02-0.82-1.58c0-2.2199,4.58-4.0199,10.22-4.0199S35.4139,13.25451,35.4139,15.47441z" style="fill:#FFC601;"/></g><g><path d="M17.1695,17.95081v1.82c-0.07-0.0301-0.1399-0.07-0.2-0.1001c-0.36-0.19-0.68-0.3899-0.9499-0.61     v-1.82c0.2699,0.2201,0.5899,0.4201,0.9499,0.6101C17.0296,17.88081,17.0995,17.92071,17.1695,17.95081z" style="fill:#E4AC1D;"/><path d="M22.3495,19.3208v1.82c-0.3-0.0301-0.5899-0.07-0.8899-0.12c-0.39-0.06-0.76-0.12-1.12-0.2     c-0.25-0.05-0.4901-0.11-0.7201-0.17v-1.81C20.4496,19.0507,21.3695,19.21081,22.3495,19.3208z" style="fill:#E4AC1D;"/><path d="M18.5096,18.51081v1.82c-0.1401-0.05-0.2801-0.1001-0.42-0.1501     c-0.06-0.0199-0.1101-0.0399-0.1601-0.07v-1.82c0.05,0.0301,0.1001,0.0501,0.1601,0.07     C18.2295,18.4108,18.3695,18.46081,18.5096,18.51081z" style="fill:#E4AC1D;"/><path d="M31.4895,18.6207v1.8201c-0.02,0.01-0.0299,0.02-0.0499,0.02c-0.3401,0.11-0.7001,0.2-1.0701,0.29     c-0.32,0.07-0.6599,0.14-1,0.19v-1.81C30.1296,19.0008,30.8396,18.8308,31.4895,18.6207z" style="fill:#E4AC1D;"/><path d="M34.3595,17.24071v1.82c-0.2199,0.18-0.4799,0.3501-0.7699,0.5101     c-0.2201,0.13-0.46,0.25-0.7201,0.37v-1.8301C33.4596,17.85081,33.9596,17.56071,34.3595,17.24071z" style="fill:#E4AC1D;"/></g><g><path d="M17.0696,33.15081v1.82c-0.04-0.02-0.07-0.03-0.1001-0.0501c-0.4099-0.2099-0.7599-0.44-1.05-0.69     v-1.8199c0.2901,0.24,0.6501,0.48,1.05,0.69C16.9996,33.1207,17.0296,33.13081,17.0696,33.15081z" style="fill:#E4AC1D;"/><path d="M22.2496,34.5607v1.8201c-0.2601-0.03-0.5301-0.0701-0.79-0.11c-0.39-0.06-0.76-0.12-1.12-0.2     c-0.28-0.06-0.56-0.12-0.82-0.19v-1.8201C20.3495,34.2808,21.2696,34.45081,22.2496,34.5607z" style="fill:#E4AC1D;"/><path d="M18.4095,33.72081v1.8199c-0.11-0.0299-0.2199-0.0699-0.3199-0.11     c-0.09-0.0299-0.1801-0.07-0.26-0.1099v-1.82c0.0799,0.0399,0.17,0.08,0.26,0.1099     C18.1896,33.65081,18.2995,33.6908,18.4095,33.72081z" style="fill:#E4AC1D;"/><path d="M31.3896,33.90081v1.82c-0.32,0.11-0.6701,0.19-1.0201,0.28c-0.3499,0.08-0.71,0.15-1.08,0.21     c-0.0099,0-0.0099,0-0.0199,0v-1.82C30.0296,34.27081,30.7395,34.1008,31.3896,33.90081z" style="fill:#E4AC1D;"/><path d="M34.2596,32.5708v1.81c-0.2,0.1599-0.42,0.2999-0.67,0.44c-0.25,0.15-0.53,0.2899-0.83,0.4099     v-1.8199C33.3495,33.1608,33.8595,32.8707,34.2596,32.5708z" style="fill:#E4AC1D;"/></g><g><path d="M17.1695,29.2208v1.8199c-0.07-0.0299-0.1399-0.0699-0.2-0.0999     c-0.36-0.19-0.68-0.3901-0.9499-0.61v-1.82c0.2699,0.2199,0.5899,0.4199,0.9499,0.6099     C17.0296,29.1508,17.0995,29.19081,17.1695,29.2208z" style="fill:#E4AC1D;"/><path d="M22.3495,30.59081v1.82c-0.3-0.03-0.5899-0.07-0.8899-0.1201c-0.39-0.06-0.76-0.12-1.12-0.1999     c-0.25-0.0501-0.4901-0.1101-0.7201-0.1701v-1.81C20.4496,30.3208,21.3695,30.48071,22.3495,30.59081z" style="fill:#E4AC1D;"/><path d="M18.5096,29.78081v1.82c-0.1401-0.0501-0.2801-0.1-0.42-0.15     c-0.06-0.0201-0.1101-0.04-0.1601-0.07v-1.8201c0.05,0.0301,0.1001,0.05,0.1601,0.0701     C18.2295,29.6807,18.3695,29.73071,18.5096,29.78081z" style="fill:#E4AC1D;"/><path d="M31.4895,29.8908v1.82c-0.02,0.01-0.0299,0.0199-0.0499,0.0199     c-0.3401,0.1101-0.7001,0.2-1.0701,0.2901c-0.32,0.07-0.6599,0.14-1,0.19v-1.81     C30.1296,30.27081,30.8396,30.10081,31.4895,29.8908z" style="fill:#E4AC1D;"/><path d="M34.3595,28.51081v1.82c-0.2199,0.18-0.4799,0.3499-0.7699,0.51     c-0.2201,0.13-0.46,0.25-0.7201,0.36v-1.82C33.4596,29.1207,33.9596,28.8308,34.3595,28.51081z" style="fill:#E4AC1D;"/></g><g><path d="M18.0896,25.48071v1.82c-0.1201-0.06-0.2301-0.1099-0.34-0.1699c-0.3-0.16-0.5701-0.3201-0.81-0.5     v-1.8201c0.2399,0.18,0.51,0.3401,0.81,0.5C17.8595,25.3707,17.9695,25.42071,18.0896,25.48071z" style="fill:#E4AC1D;"/><path d="M23.2696,26.8007v1.81c-0.0401,0-0.0901-0.0099-0.13-0.0099c-0.3-0.03-0.6001-0.07-0.9001-0.1201     c-0.39-0.06-0.76-0.12-1.12-0.1999c-0.2-0.0401-0.39-0.08-0.58-0.13v-1.82C21.3695,26.53081,22.2895,26.69081,23.2696,26.8007z" style="fill:#E4AC1D;"/><path d="M19.4295,26.01081v1.82c-0.2-0.06-0.38-0.12-0.56-0.19c-0.01,0-0.01-0.01-0.02-0.01v-1.8201     c0.01,0,0.01,0.0101,0.02,0.0101C19.0495,25.8908,19.2395,25.95081,19.4295,26.01081z" style="fill:#E4AC1D;"/><path d="M32.4366,26.0407l-0.0271,1.82c-0.06,0.0201-0.1299,0.0401-0.19,0.06     c-0.3399,0.1101-0.6999,0.2-1.0699,0.2901c-0.2801,0.06-0.56,0.12-0.8601,0.17v-1.8201     C31.0495,26.4307,31.7866,26.2508,32.4366,26.0407z" style="fill:#E4AC1D;"/><path d="M35.2972,24.5781l-0.0176,1.82271c-0.26,0.23-0.5601,0.43-0.9101,0.63     c-0.1799,0.11-0.3699,0.2099-0.58,0.3l-0.03-1.8002C34.3595,25.2506,34.9072,24.918,35.2972,24.5781z" style="fill:#E4AC1D;"/></g><g><path d="M13.6396,21.06071v1.8201c-0.4701-0.2601-0.86-0.54-1.1501-0.85v-1.81     c0.0401,0.05,0.0801,0.0899,0.13,0.13c0.0201,0.0099,0.0301,0.0199,0.05,0.03c0,0.01,0.01,0.01,0.01,0.01     C12.9396,20.6308,13.2696,20.85081,13.6396,21.06071z" style="fill:#E4AC1D;"/><path d="M16.0896,22.0407c0.8199,0.2301,1.74,0.4101,2.73,0.5401v1.81c-0.17-0.01-0.3401-0.04-0.5201-0.07     c-0.39-0.06-0.76-0.12-1.12-0.2001c-0.38-0.08-0.7399-0.1699-1.0899-0.26V22.0407z" style="fill:#E4AC1D;"/><path d="M14.9295,21.6608c0.0201,0.0099,0.0301,0.0099,0.05,0.0199v1.8201     c-0.0199-0.0101-0.0299-0.0101-0.05-0.0201c-0.1799-0.0699-0.3599-0.1499-0.5299-0.2199v-1.82c0.16,0.08,0.3399,0.15,0.5199,0.22     H14.9295z" style="fill:#E4AC1D;"/><path d="M25.8396,22.48071c0.7599-0.11,1.47-0.2599,2.12-0.4499v1.82     c-0.2401,0.0799-0.4901,0.1399-0.75,0.1999c-0.3501,0.0801-0.71,0.1501-1.08,0.2101c-0.1,0.02-0.19,0.0299-0.29,0.0499V22.48071z     " style="fill:#E4AC1D;"/><path d="M30.8296,20.81071v1.81c-0.13,0.0901-0.26,0.17-0.4001,0.25c-0.32,0.19-0.6799,0.36-1.07,0.5201     c-0.01,0-0.0199,0.01-0.0299,0.01v-1.82c0.01,0,0.0199-0.01,0.0299-0.01c0.3901-0.16,0.75-0.3401,1.07-0.5101     C30.5696,20.98071,30.7096,20.8908,30.8296,20.81071z" style="fill:#E4AC1D;"/></g><g><path d="M20.9854,16.783l-0.8607-0.0318l1.1402-2.5607c-0.4179,0.2205-0.8649,0.3785-1.3413,0.4739     l0.2746-0.6166c0.2505-0.04971,0.5435-0.15071,0.879-0.303c0.3356-0.1522,0.6005-0.3345,0.7947-0.5469l0.6984,0.0258     L20.9854,16.783z" style="fill:#D19D0B;"/><path d="M24.5587,13.29731c0.435,0.0161,0.7204,0.1512,0.8564,0.4053     c0.1628,0.301,0.0945,0.7876-0.2048,1.4598c-0.2986,0.6705-0.6602,1.1471-1.0849,1.4296     c-0.3507,0.2328-0.7435,0.34109-1.1784,0.325c-0.437-0.0161-0.7303-0.1618-0.8797-0.4368     c-0.1494-0.27511-0.0727-0.7528,0.2302-1.433c0.2972-0.6674,0.6581-1.1423,1.0828-1.4248     C23.7309,13.38961,24.1238,13.28121,24.5587,13.29731z M24.3079,13.86071c-0.1042-0.0038-0.2088,0.0189-0.3138,0.0683     c-0.105,0.0493-0.2101,0.1409-0.3153,0.2746c-0.1375,0.1736-0.2988,0.4683-0.484,0.8842     c-0.1852,0.4159-0.2858,0.7026-0.302,0.8601c-0.0162,0.1575,0.0046,0.2636,0.0623,0.3181     c0.0577,0.0546,0.1386,0.0838,0.2427,0.0877c0.1042,0.0038,0.2087-0.0189,0.3138-0.0683     c0.105-0.0494,0.2101-0.1409,0.3153-0.2747c0.1367-0.1719,0.2977-0.4658,0.4829-0.8817     c0.1852-0.41591,0.2858-0.7026,0.302-0.8601c0.0162-0.1575-0.0044-0.264-0.0617-0.3193     C24.4927,13.89421,24.412,13.8646,24.3079,13.86071z" style="fill:#D19D0B;"/><g><path d="M28.1203,16.2947l0.6283-1.8729c0.357,0.0062,0.6411,0.0511,0.8393,0.13629l0.2415-0.52239      c-0.268-0.055-0.5815-0.0784-0.9228-0.08461l0.1332-0.39709l-0.4836,0.0092l-0.1319,0.3931      c-0.7403,0.0341-1.3508,0.1649-1.8217,0.40279c-0.3458,0.17561-0.5708,0.387-0.686,0.63991c0,0-0.1921,0.4288-0.011,0.83409      c0.1098,0.24861,0.3402,0.45681,0.6915,0.6244c0.2608,0.1231,0.5614,0.2118,0.8982,0.268l-0.1651,0.4919l0.4836-0.00931      l0.1438-0.42859c0.1921,0.0141,0.3925,0.0205,0.6041,0.0165c0.4719-0.0091,0.8835-0.0605,1.2402-0.1491v-0.5723      c-0.3128,0.1531-0.7298,0.232-1.2512,0.242C28.3956,16.31951,28.2546,16.3101,28.1203,16.2947z M27.4861,16.11891      c-0.1427-0.0735-0.247-0.1805-0.3183-0.31c-0.236-0.4206-0.0055-0.83381-0.0055-0.83381      c0.0658-0.12659,0.1756-0.23219,0.3293-0.31689c0.2075-0.1153,0.4655-0.1875,0.771-0.2198l-0.5902,1.7591      C27.607,16.17421,27.5435,16.14931,27.4861,16.11891z" style="fill:#D19D0B;"/></g></g></g></g></svg>