<?xml version="1.0" ?><svg style="enable-background:new 0 0 48 48;" version="1.1" viewBox="0 0 48 48" xml:space="preserve" xmlns="http://www.w3.org/2000/svg" xmlns:xlink="http://www.w3.org/1999/xlink"><g id="Icons"><g><ellipse cx="23.99998" cy="23.99997" rx="15.25829" ry="15.25829" style="fill:#FFC601;" transform="matrix(0.00717 -0.99997 0.99997 0.00717 -0.17138 47.82734)"/><ellipse cx="24" cy="23.99998" rx="12.34487" ry="12.34482" style="fill:#E09807;" transform="matrix(0.00717 -0.99997 0.99997 0.00717 -0.17141 47.8273)"/><g><path d="M20.6182,30.8864c0,0.10589-0.0264,0.2202-0.0781,0.3432     c-0.0527,0.1231-0.1338,0.2442-0.2461,0.3623c-0.1113,0.1187-0.2539,0.2149-0.4277,0.2891     c-0.1739,0.0737-0.376,0.1108-0.6075,0.1108c-0.1748,0-0.3339-0.0166-0.4775-0.0498c-0.1436-0.0332-0.2734-0.0849-0.3906-0.1553     c-0.1172-0.0703-0.2246-0.1626-0.3233-0.2773c-0.0869-0.104-0.1621-0.2207-0.2236-0.35011     c-0.0625-0.12889-0.1084-0.26659-0.1396-0.41309c-0.0313-0.1465-0.0459-0.3022-0.0459-0.4668     c0-0.26711,0.038-0.5063,0.1162-0.7178c0.0781-0.2114,0.1894-0.392,0.334-0.5424c0.1455-0.1504,0.3144-0.2647,0.5097-0.3433     c0.1944-0.0781,0.4024-0.1177,0.6231-0.1177c0.2685,0,0.5078,0.0537,0.7177,0.1607c0.21,0.10739,0.3702,0.2397,0.4825,0.39739     c0.1113,0.15821,0.1679,0.30721,0.1679,0.44781c0,0.0767-0.0273,0.1445-0.082,0.2036c-0.0547,0.0591-0.1201,0.0884-0.1973,0.0884     c-0.0859,0-0.1504-0.0205-0.1933-0.0611c-0.043-0.041-0.0908-0.1113-0.1436-0.2109c-0.0879-0.1645-0.1914-0.2876-0.3096-0.3691     c-0.1181-0.0816-0.2646-0.1221-0.4384-0.1221c-0.2764,0-0.4961,0.105-0.6602,0.3145c-0.1631,0.20989-0.2451,0.5083-0.2451,0.895     c0,0.2578,0.0361,0.4726,0.1084,0.644s0.1748,0.2993,0.3076,0.3843c0.1328,0.0845,0.2891,0.1265,0.4668,0.1265     c0.1934,0,0.3565-0.0479,0.4902-0.1436c0.1338-0.0962,0.2344-0.2368,0.3028-0.4224c0.0283-0.0879,0.0644-0.1591,0.1064-0.2143     c0.042-0.0552,0.1104-0.0825,0.2041-0.0825c0.0801,0,0.1485,0.0278,0.2061,0.08389     C20.5889,30.734,20.6182,30.8033,20.6182,30.8864z" style="fill:#AA6D0B;"/><path d="M23.4102,29.1334h-1.5146v0.8155h1.3955c0.1025,0,0.1787,0.0229,0.2295,0.0693     c0.0507,0.0459,0.0761,0.1064,0.0761,0.18209c0,0.0757-0.0254,0.13721-0.0752,0.1846c-0.0498,0.0474-0.1269,0.0713-0.2304,0.0713     h-1.3955v0.9443h1.5673c0.1055,0,0.1856,0.0249,0.2383,0.0737c0.0537,0.0494,0.0811,0.1143,0.0811,0.1958     c0,0.0787-0.0274,0.1426-0.0811,0.1915c-0.0527,0.0493-0.1328,0.0737-0.2383,0.0737h-1.8281     c-0.1465,0-0.2519-0.0322-0.3154-0.0972c-0.0645-0.0649-0.0967-0.1699-0.0967-0.3149V29.027     c0-0.09671,0.0147-0.1753,0.043-0.2363c0.0283-0.0616,0.0742-0.106,0.1347-0.1338c0.0616-0.0279,0.1397-0.042,0.2344-0.042     h1.7754c0.1074,0,0.1875,0.0239,0.2393,0.0713c0.0517,0.0478,0.0781,0.1098,0.0781,0.187c0,0.0786-0.0264,0.1416-0.0781,0.1889     C23.5977,29.11,23.5176,29.1334,23.4102,29.1334z" style="fill:#AA6D0B;"/><path d="M25.1933,28.9616l1.293,1.9565v-1.9746c0-0.1284,0.0273-0.2246,0.083-0.2891     c0.0547-0.0639,0.1289-0.0962,0.2226-0.0962c0.0967,0,0.1729,0.0323,0.2286,0.0962c0.0556,0.0645,0.084,0.1607,0.084,0.2891     v2.6113c0,0.29149-0.121,0.437-0.3624,0.437c-0.0605,0-0.1152-0.0088-0.163-0.0259c-0.0489-0.0175-0.0938-0.0449-0.1358-0.083     c-0.042-0.03761-0.082-0.0815-0.1182-0.1323c-0.0361-0.0508-0.0722-0.102-0.1084-0.1553l-1.2617-1.934v1.9453     c0,0.1269-0.0293,0.2231-0.0879,0.2881c-0.0595,0.0644-0.1346,0.0971-0.2265,0.0971c-0.0957,0-0.1719-0.0327-0.2295-0.0986     c-0.0566-0.0654-0.086-0.1611-0.086-0.2866V29.045c0-0.1084,0.0127-0.1938,0.0362-0.2558     c0.0293-0.06791,0.0772-0.1235,0.1435-0.1665c0.0664-0.043,0.1377-0.0645,0.2149-0.0645c0.0605,0,0.1123,0.0098,0.1553,0.0293     c0.0429,0.02,0.08,0.0464,0.1132,0.0796c0.0323,0.0332,0.0655,0.07619,0.0996,0.1289     C25.122,28.8488,25.1572,28.9039,25.1933,28.9616z" style="fill:#AA6D0B;"/><path d="M29.997,29.1696h-0.7334v2.4121c0,0.1391-0.0311,0.2422-0.0937,0.3095     c-0.0614,0.0669-0.1416,0.1006-0.2393,0.1006c-0.0996,0-0.1816-0.0342-0.2441-0.102c-0.0625-0.0679-0.0938-0.1704-0.0938-0.3081     v-2.4121h-0.7334c-0.1152,0-0.2002-0.0249-0.2558-0.0757c-0.0567-0.0508-0.084-0.1172-0.084-0.2002     c0-0.0864,0.0283-0.1543,0.087-0.2041c0.0585-0.0498,0.1425-0.0747,0.2528-0.0747h2.1377c0.1162,0,0.2031,0.0259,0.2598,0.0771     c0.0567,0.05129,0.0849,0.1187,0.0849,0.2017s-0.0292,0.1494-0.0869,0.2002C30.1982,29.1447,30.1113,29.1696,29.997,29.1696z" style="fill:#AA6D0B;"/></g><path d="M23.5043,24.7397V26.56h-6.8657c0.0742-0.6875,0.2974-1.3399,0.6691-1.9551    c0.372-0.6162,1.1058-1.4335,2.2025-2.4511c0.8828-0.8222,1.4244-1.3789,1.624-1.6719c0.2696-0.4043,0.4043-0.80461,0.4043-1.1992    c0-0.4365-0.1172-0.77241-0.3519-1.0078c-0.2345-0.2345-0.5586-0.3515-0.9722-0.3515c-0.4093,0-0.7345,0.123-0.9761,0.369    c-0.2412,0.2472-0.3809,0.6563-0.4179,1.2276l-1.9518-0.1953c0.1162-1.0781,0.481-1.8515,1.0942-2.3213    c0.6133-0.4687,1.3805-0.70311,2.3003-0.70311c1.0083,0,1.8003,0.27151,2.377,0.8145c0.5757,0.5439,0.8642,1.2206,0.8642,2.0293    c0,0.4589-0.0825,0.8973-0.2474,1.3125c-0.1652,0.416-0.4264,0.8515-0.7843,1.3076c-0.2368,0.3017-0.6645,0.7362-1.2827,1.3037    c-0.6177,0.56639-1.0092,0.9432-1.1743,1.1288c-0.1651,0.1855-0.2983,0.3672-0.4009,0.543H23.5043z" style="fill:#AA6D0B;"/><path d="M24,23.9311l1.9516-0.2011c0.0557,0.4413,0.2207,0.7909,0.4946,1.0487    c0.2745,0.2578,0.5905,0.3867,0.9483,0.3867c0.4087,0,0.7549-0.166,1.0386-0.498c0.2832-0.332,0.4248-0.833,0.4248-1.502    c0-0.6278-0.1402-1.0975-0.4213-1.412c-0.2814-0.3134-0.6471-0.4707-1.0978-0.4707c-0.5625,0-1.0664,0.2491-1.5127,0.7461    l-1.5893-0.2304l1.0039-5.3174h5.1787v1.833H26.725l-0.3066,1.73529c0.437-0.21769,0.8828-0.32709,1.3385-0.32709    c0.869,0,1.6054,0.3164,2.2094,0.9472c0.6041,0.63289,0.9062,1.4532,0.9062,2.461c0,0.8407-0.2441,1.5917-0.7319,2.2518    c-0.6646,0.9004-1.5869,1.3516-2.7671,1.3516c-0.9434,0-1.7124-0.2539-2.307-0.7598C24.4716,25.4682,24.1162,24.7865,24,23.9311z" style="fill:#AA6D0B;"/></g></g></svg>