<?xml version="1.0" ?><svg style="enable-background:new 0 0 48 48;" version="1.1" viewBox="0 0 48 48" xml:space="preserve" xmlns="http://www.w3.org/2000/svg" xmlns:xlink="http://www.w3.org/1999/xlink"><g id="Icons"><g><path d="M33.27649,30.68048c-0.3756,0.3756-0.8618,0.7181-1.4252,1.0385    c-0.4309,0.2431-0.906,0.4751-1.4252,0.685c-0.453,0.17679-0.9281,0.3425-1.4363,0.4972    c-0.453,0.14359-0.928,0.2651-1.4252,0.37559c-0.464,0.11051-0.9391,0.20991-1.4252,0.28731    c-0.464,0.0884-0.9391,0.1546-1.4252,0.2099c-0.4862,0.0663-0.9833,0.1105-1.4915,0.1436    c-0.4972,0.04419-0.9944,0.0663-1.5026,0.0884c-0.3425,0.0111-0.685,0.0111-1.0385,0.0111c-0.1547,0-0.3094,0-0.453-0.0111    c-0.5082,0-1.0054-0.011-1.5026-0.04421c-0.5082-0.03309-1.0053-0.06629-1.4915-0.12149    c-0.5192-0.0442-1.0164-0.11051-1.5025-0.1878c-0.5082-0.0774-1.0054-0.1658-1.4915-0.2652    c-0.5193-0.11051-1.0165-0.2431-1.4915-0.3756c-0.5303-0.1437-1.0386-0.3094-1.5026-0.4862    c-0.5413-0.2099-1.0385-0.4419-1.4915-0.6739c-0.5966-0.3204-1.0938-0.6629-1.5025-1.0275    c-0.7403-0.6518-1.1491-1.381-1.1491-2.14331h0.0015v-2.41869l6.8609-3.0455l8.8322-1.2392l8.6745,3.53739l2.7038,2.61361    L33.27649,30.68048z" style="fill:#DB9A16;"/><path d="M15.70419,21.33368c-5.0428,0.7955-8.5994,2.7077-8.5994,4.9284    c0,0.7623,0.429,1.4906,1.1883,2.1425c0.4192,0.3646,0.9292,0.7071,1.5411,1.0275c0.4646,0.232,0.9746,0.464,1.5298,0.6739    c2.4931,0.917,5.9154,1.4915,9.6776,1.4915c3.7509,0,7.1732-0.5745,9.689-1.5026l0.8094-1.8087l-0.4731-2.6362l-9.2604-4.5738    L15.70419,21.33368z" style="fill:#FCC69D;"/><path d="M15.70419,21.33368c-5.0428,0.7955-8.5994,2.7077-8.5994,4.9284    c0,0.7623,0.429,1.4906,1.1883,2.1425c0.4192,0.3646,0.9292,0.7071,1.5411,1.0275c0.4646,0.232,0.9746,0.464,1.5298,0.6739    c2.4931,0.917,5.9154,1.4915,9.6776,1.4915c3.7509,0,7.1732-0.5745,9.689-1.5026l0.8094-1.8087l-0.4731-2.6362l-9.2604-4.5738    L15.70419,21.33368z" style="fill:#FFC601;"/><path d="M34.17409,28.12477l-0.8999,2.56c-0.37,0.37-0.86,0.71-1.4201,1.03    c-0.0399,0.02-0.0799,0.05-0.12,0.07c-0.0099,0-0.0099,0-0.0099,0c-1.61-0.37-3.47-0.86-3.47-0.86c-4.35-0.33-10.67-3-13.75-6.33    c-1.31-1.41-1.17-2.33-0.5801-2.92c0.5701-0.13,1.1601-0.24,1.7801-0.34l6.1-0.26l5.77,2.85l3.9,1.59L34.17409,28.12477z" style="opacity:0.1;"/><g><path d="M15.79539,15.87318l-0.9621,2.2191l-0.0014-0.0006c-1.1734,2.7064,3.4524,7.313,10.3351,10.29709     c6.8827,2.984,13.4172,3.216,14.5906,0.50961l-0.0048-0.002l0.9622-2.2191" style="fill:#DB9A16;"/><ellipse cx="28.25516" cy="21.27522" rx="5.33902" ry="13.58045" style="fill:#FFC601;" transform="matrix(0.39778 -0.91748 0.91748 0.39778 -2.50381 38.7359)"/><g><path d="M28.25219,17.75548c-0.4366,0.1324-0.9354,0.1818-1.4964,0.1482      c-0.5609-0.0336-1.022-0.10191-1.383-0.2051l-0.9024,0.5736c0.6874,0.1951,1.3943,0.2947,2.1207,0.2987l-3.6969,2.2932      l1.0731,0.5142l5.1435-3.1343L28.25219,17.75548z" style="fill:#D19D0B;"/><path d="M33.32619,21.72608l0.6863-0.322l-0.6255-0.3102l-0.6363,0.2954      c-0.0278-0.0153-0.0496-0.0303-0.0779-0.0456c-1.1837-0.6321-2.2334-1.0012-3.1413-1.0981      c-0.6021-0.0665-1.0705-0.0031-1.4139,0.1884c-0.3339,0.186-0.5456,0.52179-0.5991,0.8665      c-0.0667,0.3791,0.1205,0.7784,0.3679,1.123l0.1358,0.1821c0.1841,0.22719,0.415,0.4495,0.6671,0.6694l-1.0413,0.4834      l0.6268,0.3376l0.9061-0.4251c0.3917,0.2873,0.8355,0.5684,1.347,0.8402c0.6624,0.3522,1.2738,0.6203,1.8359,0.7899      l0.411-0.6444c-0.5484-0.07081-1.1913-0.3007-1.9277-0.6969c-0.3774-0.2018-0.6855-0.4123-0.9377-0.6305l2.7206-1.2765      c0.4255,0.2529,0.7386,0.4968,0.936,0.7318l0.7165-0.4068C34.01409,22.16128,33.68399,21.94418,33.32619,21.72608z       M29.28919,22.32168c-0.0129-0.7203,0.5834-0.95091,0.5834-0.95091c0.1799-0.09049,0.4136-0.11859,0.6944-0.10039      c0.4302,0.039,0.9179,0.1928,1.4555,0.457l-2.5244,1.1721C29.36059,22.71228,29.28979,22.51738,29.28919,22.32168z" style="fill:#D19D0B;"/></g></g><g><path d="M9.69149,29.35438v2.47c-0.43-0.24-0.81-0.5-1.15-0.76v-2.46     C8.87149,28.86438,9.25149,29.12438,9.69149,29.35438z" style="fill:#E4AC1D;"/><path d="M14.87149,31.04438v2.46c-0.21-0.04-0.42-0.08-0.63-0.12c-0.52-0.11-1.02-0.24-1.49-0.37     c-0.21-0.06-0.41-0.12-0.61-0.18v-2.46C12.97149,30.63438,13.89149,30.86438,14.87149,31.04438z" style="fill:#E4AC1D;"/><path d="M11.03149,29.97398v2.4604c-0.2-0.0797-0.39-0.1594-0.58-0.249v-2.4604     C10.64149,29.82458,10.83149,29.90428,11.03149,29.97398z" style="fill:#E4AC1D;"/><path d="M24.01149,31.47438v2.38c-0.26,0.03-0.52,0.04-0.79,0.06c-0.44,0.04-0.88,0.07-1.33,0.08v-2.4068     C22.61149,31.57758,23.32149,31.53438,24.01149,31.47438z" style="fill:#E4AC1D;"/><path d="M26.88149,31.10438v2.33c-0.25,0.04-0.49,0.09-0.74,0.13c-0.25,0.05-0.5,0.09-0.75,0.13     l-0.0172-2.3618C25.88429,31.27258,26.39149,31.19438,26.88149,31.10438z" style="fill:#E4AC1D;"/></g><g><path d="M17.24599,20.16598l-0.9204,2.2745c-0.3121-0.3582-0.5761-0.6859-0.7965-1.0343l0.9046-2.3091     C16.68089,19.44418,16.92079,19.81398,17.24599,20.16598z" style="fill:#E4AC1D;"/><path d="M21.37939,23.64128l-0.9233,2.244c-0.1797-0.1158-0.351-0.2141-0.5307-0.3299     c-0.4408-0.2971-0.8555-0.6051-1.2424-0.9019c-0.1722-0.1344-0.346-0.3044-0.5089-0.4351l0.9337-2.241     C19.77959,22.52977,20.53849,23.10677,21.37939,23.64128z" style="fill:#E4AC1D;"/><path d="M18.26969,21.23008l-0.8983,2.2843c-0.1554-0.1489-0.3263-0.2975-0.4688-0.4519l0.9175-2.2674     C17.96319,20.94977,18.11049,21.09048,18.26969,21.23008z" style="fill:#E4AC1D;"/><path d="M29.73919,27.49968l-0.9077,2.2352c-0.2523-0.0697-0.5145-0.1606-0.7723-0.2434     c-0.4229-0.1279-0.7945-0.2672-1.2154-0.42671l0.8877-2.25529C28.40269,27.07028,29.07709,27.29648,29.73919,27.49968z" style="fill:#E4AC1D;"/><path d="M32.54809,28.20088l-0.9418,2.221c-0.2467-0.0567-0.5121-0.1007-0.7589-0.1574     c-0.2504-0.0475-0.4849-0.1174-0.7316-0.1741l0.9042-2.2321C31.51529,27.99398,32.06009,28.10058,32.54809,28.20088z" style="fill:#E4AC1D;"/></g></g></g></svg>