<?xml version="1.0" ?><svg style="enable-background:new 0 0 48 48;" version="1.1" viewBox="0 0 48 48" xml:space="preserve" xmlns="http://www.w3.org/2000/svg" xmlns:xlink="http://www.w3.org/1999/xlink"><g id="Icons"><g><g><g><path d="M9.6126,19.23946c0-0.2983,0.3189-0.4894,0.5785-0.3424      c1.92,1.0871,8.3122,4.2609,16.0037,0.2105c7.5836-3.9935,13.1315-1.7813,14.7077-0.9744      c0.2823,0.1445,0.4551,0.4326,0.4551,0.7497v14.6272c0,0.2983-0.319,0.4894-0.5786,0.3424      c-1.92-1.0871-8.3122-4.26089-16.0037-0.21059c-7.592,3.9934-13.1336,1.78159-14.7081,0.97459      c-0.2821-0.1446-0.4546-0.4325-0.4546-0.7495V19.23946z" style="fill:#A6BF86;"/><g><path d="M27.4874,26.35476c-0.1865-0.2146-0.421-0.369-0.7041-0.4642       c-0.2832-0.0949-0.7074-0.1623-1.2725-0.202c-0.5651-0.04-0.928-0.1075-1.0883-0.2034c-0.1261-0.075-0.2-0.1783-0.2213-0.3095       c-0.0236-0.144,0.0168-0.2686,0.1214-0.3738c0.1619-0.1637,0.4054-0.2722,0.7304-0.3253       c0.3146-0.0514,0.5609-0.0274,0.7388,0.0718c0.1779,0.0991,0.3141,0.2873,0.4084,0.5648l1.1104-0.232       c-0.1011-0.507-0.3521-0.8845-0.7532-1.1323c-0.3041-0.1879-0.693-0.2711-1.1655-0.2515l-0.1771-1.0837l-0.878,0.1435       l0.1779,1.0889c-0.2479,0.0701-0.4759,0.155-0.6605,0.2722c-0.2799,0.1781-0.4797,0.403-0.5995,0.6752       c-0.1198,0.2723-0.1563,0.5499-0.1102,0.8324c0.0718,0.4393,0.3027,0.7839,0.6924,1.0336       c0.2773,0.1777,0.728,0.2919,1.3517,0.34291c0.4848,0.0399,0.7964,0.072,0.9351,0.096       c0.2023,0.0368,0.3497,0.0952,0.4414,0.1747c0.0919,0.0794,0.1488,0.1849,0.1702,0.3161       c0.0334,0.2043-0.0289,0.398-0.1866,0.5803c-0.1576,0.1828-0.4164,0.3035-0.7765,0.3624       c-0.3401,0.0555-0.6243,0.0139-0.8527-0.1251c-0.2281-0.1389-0.405-0.3861-0.5302-0.7412l-1.0708,0.2839       c0.1747,0.6088,0.476,1.0449,0.9042,1.3077c0.3271,0.2009,0.7347,0.2899,1.2205,0.2705l0.165,1.0098l0.8781-0.1434       l-0.1655-1.0125c0.2933-0.0775,0.5596-0.1714,0.7668-0.3009c0.3003-0.1878,0.5158-0.435,0.6469-0.7413       c0.1309-0.3063,0.1703-0.6185,0.1183-0.9366C27.7955,26.85166,27.6736,26.56906,27.4874,26.35476z" style="fill:#E6F4D0;"/></g><path d="M26.4983,31.37186c-0.0092,0-0.0184,0.0092-0.0275,0.0092      c-0.7887,0.2934-1.5681,0.6419-2.3384,1.0454c-2.7235,1.4305-5.4286,2.1549-8.0421,2.1549      c-1.0637,0-2.0174-0.1284-2.8152-0.2934c0.0917-0.2476,0.1375-0.5227,0.1375-0.7978c0-1.348-1.082-2.4301-2.4208-2.4301v-7.7945      c1.0362,0,1.9257-0.6511,2.265-1.5681c1.6781,0.5319,3.402,0.7887,5.1443,0.7887c1.7974,0,3.5672-0.2843,5.3095-0.8437h0.0183      h-0.0183c-1.669,0.8253-2.7419,2.8702-2.5309,5.1352c0.2659,2.8152,2.4025,4.9152,4.7867,4.6951      c0.1742-0.0184,0.3393-0.0459,0.5044-0.0917C26.4799,31.39016,26.4891,31.39016,26.4983,31.37186" style="fill:#E6F4D0;"/><path d="M27.2044,31.12426c0.0183,0,0.0275,0,0.0366-0.0092c1.6873-0.8161,2.7602-2.8702,2.5493-5.1443      c-0.2659-2.8152-2.4025-4.9152-4.7867-4.6951c-0.1559,0.0183-0.3118,0.0459-0.4677,0.0825c-0.0092,0-0.0184,0-0.0275,0      l-0.0092,0.0092l0.0092-0.0092c0.0091,0,0.0183,0,0.0275,0c0.7794-0.2842,1.5405-0.6419,2.3017-1.0362      c2.7143-1.4305,5.4194-2.1549,8.0329-2.1549c1.0546,0,1.9899,0.1192,2.7785,0.3026c-0.0642,0.2109-0.0917,0.431-0.0917,0.6602      c0,1.3388,1.0821,2.4209,2.4209,2.4209v7.7945c-1.0821,0-1.9991,0.7153-2.3108,1.6965      c-1.6598-0.5227-3.3654-0.7795-5.0986-0.7795c-1.7973,0-3.5855,0.2843-5.3278,0.8528      C27.2319,31.12426,27.2227,31.12426,27.2044,31.12426" style="fill:#E6F4D0;"/><path d="M15.782,29.59926v-2.7313c-0.5077,0.39-0.8498,0.5853-1.0262,0.5853      c-0.0842,0-0.1585-0.0336-0.2239-0.1008c-0.0644-0.0667-0.0976-0.1442-0.0976-0.2324c0-0.102,0.0323-0.1768,0.0967-0.2252      c0.0636-0.0479,0.1765-0.1097,0.3385-0.1858c0.2427-0.1141,0.4361-0.2342,0.5812-0.3604      c0.1451-0.1259,0.2732-0.2669,0.386-0.4231c0.1119-0.1558,0.1845-0.2521,0.2185-0.288c0.034-0.0362,0.0985-0.0542,0.1925-0.0542      c0.1057,0,0.1908,0.0413,0.2552,0.1232c0.0636,0.0819,0.0959,0.1952,0.0959,0.339v3.4365c0,0.4021-0.137,0.6035-0.4111,0.6035      c-0.1227,0-0.2203-0.0412-0.2947-0.1231C15.8188,29.88056,15.782,29.75926,15.782,29.59926z" style="fill:#A6BF86;"/><path d="M34.3513,25.73616v-2.7314c-0.5078,0.39-0.8498,0.5852-1.0262,0.5852      c-0.0842,0-0.1585-0.0335-0.2239-0.1006c-0.0644-0.0668-0.0976-0.1443-0.0976-0.2325c0-0.1021,0.0323-0.1768,0.0967-0.2252      c0.0636-0.0479,0.1765-0.1097,0.3385-0.1858c0.2427-0.1142,0.4361-0.2342,0.5812-0.3605      c0.1451-0.1258,0.2732-0.2668,0.3859-0.4231c0.112-0.1558,0.1845-0.2521,0.2186-0.2879      c0.034-0.0362,0.0985-0.0541,0.1925-0.0541c0.1057,0,0.1908,0.0411,0.2552,0.123c0.0636,0.082,0.0959,0.1953,0.0959,0.339      v3.4365c0,0.4021-0.137,0.6036-0.4111,0.6036c-0.1227,0-0.2203-0.0412-0.2947-0.1232      C34.3881,26.01726,34.3513,25.89596,34.3513,25.73616z" style="fill:#A6BF86;"/></g><path d="M36.0258,26.87756v3.5823c0,0.29-0.27,0.49-0.5,0.34c-1.6599-1.09-7.2-4.26-13.87-0.21     c-5.7299,3.47-10.1099,2.25-12.0399,1.34v-2.3114c2.6599,0.66,6.6532,0.3777,11.9132-2.3923     C27.599,24.02616,33.1358,25.64766,36.0258,26.87756z" style="opacity:0.1;"/><path d="M6.6424,14.48996c0-0.2983,0.319-0.4894,0.5786-0.3424c1.92,1.0871,8.3122,4.2609,16.0037,0.2105     c7.5836-3.9935,13.1315-1.7813,14.7077-0.9744c0.2823,0.1445,0.455,0.4326,0.455,0.7497v14.6272     c0,0.2982-0.3189,0.4893-0.5785,0.3424c-1.92-1.0871-8.3122-4.261-16.0037-0.2106c-7.592,3.9933-13.1337,1.7816-14.7081,0.9746     c-0.2821-0.1446-0.4546-0.4325-0.4546-0.7495L6.6424,14.48996z" style="fill:#A6BF86;"/><g><path d="M24.5173,21.60526c-0.1865-0.2146-0.421-0.369-0.7042-0.4642      c-0.2831-0.0949-0.7073-0.1623-1.2725-0.202c-0.565-0.04-0.9279-0.1075-1.0882-0.2034c-0.1262-0.075-0.2-0.1783-0.2214-0.3095      c-0.0235-0.1441,0.0168-0.2686,0.1215-0.3738c0.1619-0.1638,0.4054-0.2722,0.7303-0.3253      c0.3147-0.0515,0.561-0.0274,0.7389,0.0718c0.1779,0.0991,0.314,0.2873,0.4083,0.5648l1.1104-0.232      c-0.101-0.5071-0.352-0.8845-0.7531-1.1324c-0.3041-0.1879-0.693-0.271-1.1655-0.2514l-0.1771-1.0837l-0.878,0.1435      l0.1779,1.08879c-0.2479,0.0702-0.476,0.1551-0.6606,0.2723c-0.2798,0.1781-0.4796,0.4029-0.5995,0.6752      c-0.1198,0.2722-0.1562,0.5499-0.1101,0.8324c0.0718,0.4393,0.3027,0.7839,0.6924,1.0336      c0.2773,0.1777,0.7279,0.2919,1.3517,0.3429c0.4848,0.0399,0.7964,0.072,0.935,0.096c0.2023,0.0367,0.3498,0.0952,0.4415,0.1747      c0.0919,0.0794,0.1487,0.1848,0.1702,0.3161c0.0334,0.2043-0.0289,0.3979-0.1866,0.5803      c-0.1577,0.1828-0.4164,0.3035-0.7766,0.3623c-0.3401,0.0556-0.6242,0.014-0.8527-0.125      c-0.228-0.1389-0.4049-0.3861-0.5302-0.7413l-1.0708,0.2839c0.1747,0.6088,0.476,1.045,0.9043,1.3078      c0.3271,0.2009,0.7347,0.2898,1.2204,0.2705l0.1651,1.0098l0.878-0.1434l-0.1654-1.0125      c0.2932-0.0776,0.5595-0.1715,0.7668-0.3009c0.3003-0.1878,0.5158-0.435,0.6468-0.7413      c0.131-0.3063,0.1703-0.6186,0.1183-0.9367C24.8253,22.10216,24.7035,21.81956,24.5173,21.60526z" style="fill:#E6F4D0;"/></g><path d="M23.5281,26.62236c-0.0091,0-0.0183,0.0091-0.0275,0.0091     c-0.7886,0.2935-1.5681,0.642-2.3383,1.0454c-2.7235,1.4306-5.4287,2.155-8.0421,2.155c-1.0638,0-2.0174-0.1284-2.8152-0.2935     c0.0917-0.2475,0.1375-0.5226,0.1375-0.7977c0-1.348-1.0821-2.4301-2.4209-2.4301v-7.7945c1.0362,0,1.9257-0.6511,2.265-1.5681     c1.6781,0.5319,3.4021,0.7886,5.1444,0.7886c1.7973,0,3.5671-0.2842,5.3094-0.8436h0.0184h-0.0184     c-1.6689,0.8253-2.7418,2.8702-2.5309,5.1352c0.2659,2.8152,2.4026,4.9151,4.7868,4.6951     c0.1742-0.0184,0.3393-0.0459,0.5043-0.0918C23.5098,26.64066,23.519,26.64066,23.5281,26.62236" style="fill:#E6F4D0;"/><path d="M24.2342,26.37476c0.0184,0,0.0275,0,0.0367-0.0092c1.6873-0.8161,2.7602-2.8702,2.5493-5.1444     c-0.266-2.8152-2.4026-4.9151-4.7868-4.695c-0.1559,0.0183-0.3118,0.0458-0.4677,0.0825c-0.0091,0-0.0183,0-0.0275,0     l-0.0091,0.0092l0.0091-0.0092c0.0092,0,0.0184,0,0.0275,0c0.7795-0.2843,1.5406-0.6419,2.3017-1.0362     c2.7143-1.4305,5.4195-2.155,8.033-2.155c1.0545,0,1.9899,0.1193,2.7785,0.3027c-0.0642,0.2109-0.0917,0.431-0.0917,0.6602     c0,1.3388,1.082,2.4209,2.4209,2.4209v7.7945c-1.0821,0-1.9991,0.7153-2.3109,1.6965c-1.6598-0.5227-3.3654-0.7795-5.0985-0.7795     c-1.7973,0-3.5855,0.2843-5.3278,0.8528C24.2617,26.37476,24.2526,26.37476,24.2342,26.37476" style="fill:#E6F4D0;"/></g><g><g><g><path d="M10.2588,24.71246l0.044-2.27c-0.4283,0.3161-0.7159,0.4733-0.863,0.4705       c-0.0699-0.0014-0.1309-0.0303-0.184-0.088c-0.0532-0.05651-0.0785-0.1209-0.077-0.1944       c0.0016-0.0844,0.0293-0.1466,0.0831-0.1854c0.0538-0.0387,0.1489-0.0887,0.2851-0.1488       c0.2032-0.0914,0.3655-0.1883,0.4892-0.2908c0.1226-0.1026,0.231-0.2175,0.3263-0.3459       c0.0966-0.1271,0.1584-0.2055,0.1879-0.2351c0.0283-0.0296,0.0816-0.0443,0.16-0.0428       c0.088,0.0017,0.1585,0.0381,0.2102,0.1066c0.0517,0.0698,0.0764,0.1643,0.0741,0.2837l-0.0553,2.8571       c-0.0065,0.3339-0.123,0.4993-0.3509,0.4949c-0.1024-0.002-0.1825-0.0385-0.2427-0.1072       C10.2856,24.94696,10.2562,24.84626,10.2588,24.71246z" style="fill:#A6BF86;"/><path d="M13.93,23.33146c-0.0052,0.2725-0.0267,0.5072-0.0642,0.7031       c-0.0363,0.1946-0.1013,0.3719-0.1948,0.5293c-0.1159,0.1943-0.2659,0.3433-0.4476,0.4459       c-0.1817,0.1027-0.3816,0.1531-0.6022,0.1488c-0.252-0.0049-0.4772-0.0816-0.6758-0.2278       c-0.1973-0.1473-0.3442-0.3479-0.4406-0.603c-0.0492-0.1385-0.0836-0.2923-0.1044-0.4603       c-0.0209-0.1669-0.0295-0.3479-0.0257-0.5432c0.0049-0.2508,0.0225-0.4772,0.0529-0.678       c0.0304-0.2008,0.0748-0.3724,0.1342-0.5159c0.1035-0.238,0.2493-0.4173,0.4386-0.5391       c0.1893-0.1229,0.4147-0.1813,0.6739-0.1763c0.1712,0.0033,0.3262,0.0341,0.4649,0.0934       c0.1388,0.0582,0.259,0.1413,0.363,0.2507c0.104,0.1093,0.1907,0.2437,0.2611,0.4042       C13.8834,22.43936,13.9398,22.82876,13.93,23.33146z M13.2475,23.26886c0.0059-0.305-0.0074-0.5537-0.041-0.7485       c-0.0324-0.1948-0.0911-0.34191-0.176-0.4424c-0.0848-0.1018-0.2032-0.15351-0.3563-0.15651       c-0.2194-0.0042-0.3747,0.1037-0.4646,0.3239c-0.0898,0.219-0.1386,0.5593-0.1476,1.0198       c-0.006,0.3135,0.0071,0.5694,0.0394,0.7702c0.0335,0.1996,0.0921,0.3515,0.1757,0.4556       c0.0848,0.1042,0.2008,0.1571,0.3491,0.16c0.1531,0.0029,0.2746-0.0478,0.3623-0.1522       c0.0888-0.1044,0.1521-0.2552,0.1909-0.4534C13.2182,23.84836,13.2413,23.58946,13.2475,23.26886z" style="fill:#A6BF86;"/><path d="M16.8945,23.38886c-0.0053,0.2724-0.0267,0.5072-0.0643,0.703       c-0.0363,0.1947-0.1013,0.3719-0.1948,0.5293c-0.1159,0.1944-0.2659,0.3434-0.4476,0.446       c-0.1816,0.1026-0.3816,0.153-0.6022,0.1488c-0.252-0.0049-0.4772-0.0816-0.6758-0.2278       c-0.1973-0.1473-0.3442-0.3479-0.4406-0.6031c-0.0491-0.1384-0.0836-0.2922-0.1044-0.4603       c-0.0209-0.1668-0.0295-0.3479-0.0257-0.5432c0.0049-0.2507,0.0225-0.4771,0.0529-0.6779       c0.0304-0.2008,0.0748-0.3724,0.1342-0.516c0.1035-0.238,0.2493-0.4173,0.4386-0.539c0.1893-0.123,0.4147-0.1813,0.6739-0.1763       c0.1712,0.0033,0.3262,0.034,0.4649,0.0934c0.1388,0.0582,0.259,0.1413,0.363,0.2506c0.104,0.1094,0.1907,0.2437,0.2611,0.4043       C16.8478,22.49676,16.9042,22.88616,16.8945,23.38886z M16.2119,23.32616c0.0059-0.305-0.0074-0.5537-0.041-0.7485       c-0.0324-0.1948-0.0911-0.3418-0.176-0.4424c-0.0848-0.1017-0.2032-0.1534-0.3563-0.1564       c-0.2194-0.0042-0.3747,0.1037-0.4646,0.3239c-0.0898,0.2189-0.1386,0.5593-0.1475,1.0198       c-0.0061,0.3134,0.007,0.5694,0.0393,0.7702c0.0335,0.1996,0.0921,0.3515,0.1757,0.4556       c0.0848,0.1042,0.2008,0.15709,0.3491,0.1599c0.1531,0.003,0.2747-0.0477,0.3623-0.1521       c0.0889-0.1045,0.1521-0.2552,0.1909-0.4534C16.1826,23.90566,16.2057,23.64686,16.2119,23.32616z" style="fill:#A6BF86;"/></g></g><g><g><path d="M28.2483,21.47516l0.044-2.27c-0.4283,0.3161-0.7158,0.4734-0.863,0.4705       c-0.0698-0.0013-0.1308-0.0302-0.184-0.088c-0.0532-0.0565-0.0785-0.1209-0.077-0.1944       c0.0016-0.0844,0.0293-0.1466,0.0832-0.1853c0.0537-0.0388,0.1488-0.0888,0.285-0.1489       c0.2032-0.0913,0.3655-0.1883,0.4892-0.2908c0.1226-0.1025,0.231-0.2174,0.3263-0.3458       c0.0965-0.1272,0.1585-0.2056,0.1879-0.2352c0.0283-0.0296,0.0816-0.0442,0.16-0.0427c0.088,0.0017,0.1586,0.038,0.2102,0.1066       c0.0517,0.0697,0.0764,0.1642,0.0741,0.2836l-0.0553,2.8571c-0.0064,0.334-0.123,0.4993-0.3509,0.4949       c-0.1024-0.002-0.1825-0.0385-0.2427-0.1072C28.2751,21.70966,28.2457,21.60896,28.2483,21.47516z" style="fill:#A6BF86;"/><path d="M31.9195,20.09426c-0.0052,0.2724-0.0267,0.5072-0.0642,0.703       c-0.0363,0.1947-0.1013,0.3719-0.1948,0.5293c-0.1159,0.1943-0.2659,0.3434-0.4476,0.446s-0.3816,0.153-0.6022,0.1487       c-0.252-0.0048-0.4772-0.0816-0.6758-0.2277c-0.1973-0.1473-0.3442-0.348-0.4406-0.6031       c-0.0492-0.1384-0.0836-0.2923-0.1044-0.4603c-0.0209-0.1668-0.0294-0.3479-0.0257-0.5432       c0.0048-0.2507,0.0225-0.4771,0.0529-0.6779c0.0304-0.2008,0.0748-0.3724,0.1342-0.516       c0.1035-0.238,0.2493-0.4173,0.4386-0.539c0.1893-0.123,0.4147-0.1813,0.6739-0.1763c0.1712,0.0033,0.3262,0.034,0.4649,0.0934       c0.1388,0.0581,0.259,0.1413,0.363,0.2506c0.104,0.1094,0.1908,0.24369,0.2611,0.4043       C31.8729,19.20206,31.9293,19.59156,31.9195,20.09426z M31.237,20.03156c0.0059-0.305-0.0074-0.5537-0.041-0.7485       c-0.0324-0.1948-0.0911-0.3418-0.176-0.4424c-0.0848-0.1017-0.2032-0.1535-0.3563-0.1564       c-0.2194-0.0043-0.3747,0.1037-0.4646,0.3238c-0.0898,0.219-0.1386,0.5593-0.1476,1.0199       c-0.006,0.3134,0.0071,0.5693,0.0394,0.7701c0.0336,0.1997,0.0921,0.3516,0.1757,0.4557       c0.0849,0.1041,0.2009,0.157,0.3491,0.1599c0.1531,0.003,0.2746-0.0477,0.3623-0.1522       c0.0888-0.10439,0.1521-0.25509,0.1909-0.45329C31.2077,20.61106,31.2308,20.35226,31.237,20.03156z" style="fill:#A6BF86;"/><path d="M34.884,20.15156c-0.0053,0.2725-0.0267,0.5072-0.0643,0.7031       c-0.0362,0.1946-0.1012,0.3719-0.1948,0.5293c-0.1159,0.1943-0.2659,0.3433-0.4476,0.446       c-0.1816,0.1026-0.3816,0.153-0.6022,0.1487c-0.252-0.0049-0.4772-0.0816-0.6758-0.2277       c-0.1973-0.1474-0.3442-0.348-0.4406-0.6031c-0.0491-0.1385-0.0836-0.2923-0.1044-0.4603       c-0.0208-0.1669-0.0295-0.3479-0.0257-0.5432c0.0049-0.2508,0.0225-0.4771,0.0529-0.678       c0.0304-0.2008,0.0748-0.3724,0.1342-0.5159c0.1035-0.238,0.2493-0.4173,0.4386-0.5391       c0.1893-0.1229,0.4147-0.1813,0.6739-0.1763c0.1713,0.0033,0.3263,0.0341,0.4649,0.0934       c0.1388,0.0582,0.259,0.1413,0.363,0.2507c0.104,0.10929,0.1907,0.2437,0.2611,0.4042       C34.8373,19.25946,34.8937,19.64886,34.884,20.15156z M34.2015,20.08896c0.0058-0.305-0.0075-0.5537-0.041-0.7485       c-0.0325-0.1948-0.0912-0.3419-0.176-0.4424c-0.0849-0.1018-0.2033-0.1535-0.3564-0.1565       c-0.2194-0.0042-0.3746,0.1037-0.4646,0.3239c-0.0898,0.219-0.1386,0.5593-0.1475,1.0198       c-0.0061,0.3135,0.007,0.5694,0.0393,0.7702c0.0335,0.1996,0.0922,0.35151,0.1757,0.45571       c0.0848,0.1041,0.2008,0.157,0.3491,0.1599c0.1531,0.0029,0.2747-0.0478,0.3624-0.1522       c0.0888-0.1044,0.152-0.2551,0.1908-0.45341C34.1721,20.66846,34.1952,20.40956,34.2015,20.08896z" style="fill:#A6BF86;"/></g></g></g></g></g></svg>