<?xml version="1.0" ?><svg style="enable-background:new 0 0 48 48;" version="1.1" viewBox="0 0 48 48" xml:space="preserve" xmlns="http://www.w3.org/2000/svg" xmlns:xlink="http://www.w3.org/1999/xlink"><g id="Icons"><g><path d="M33.27649,30.68047c-0.3756,0.37561-0.8618,0.71811-1.4252,1.03851    c-0.4309,0.2431-0.906,0.4751-1.4252,0.685c-0.453,0.1768-0.9281,0.34249-1.4363,0.4972c-0.453,0.1436-0.928,0.2651-1.4252,0.3756    c-0.464,0.1105-0.9391,0.2099-1.4252,0.2873c-0.464,0.08839-0.9391,0.1546-1.4252,0.2099    c-0.4862,0.0663-0.9833,0.11049-1.4915,0.1436c-0.4972,0.0442-0.9944,0.0663-1.5026,0.0884    c-0.3425,0.0111-0.685,0.0111-1.0385,0.0111c-0.1547,0-0.3094,0-0.453-0.0111c-0.5082,0-1.0054-0.011-1.5026-0.0442    c-0.5082-0.0331-1.0053-0.06631-1.4915-0.1215c-0.5192-0.0442-1.0164-0.1105-1.5025-0.18781    c-0.5082-0.07739-1.0054-0.16579-1.4915-0.26519c-0.5193-0.1105-1.0165-0.2431-1.4915-0.3756    c-0.5303-0.1437-1.0386-0.3094-1.5026-0.48621c-0.5413-0.20989-1.0385-0.44189-1.4915-0.67389    c-0.5966-0.3204-1.0938-0.6629-1.5025-1.0275c-0.7403-0.6518-1.1491-1.381-1.1491-2.1433h0.0015v-2.4187l6.8609-3.0455    l8.8322-1.2392l8.6745,3.5374l2.7038,2.6136L33.27649,30.68047z" style="fill:#DB9A16;"/><path d="M15.70419,21.33368c-5.0428,0.7955-8.5994,2.7077-8.5994,4.9284    c0,0.7623,0.4289,1.4906,1.1883,2.1425c0.4192,0.3646,0.9291,0.7071,1.5411,1.0275c0.4646,0.232,0.9746,0.464,1.5298,0.6739    c2.4931,0.917,5.9154,1.49149,9.6776,1.49149c3.7509,0,7.1732-0.57449,9.6889-1.50259l0.8095-1.8088l-0.4732-2.6361    l-9.2603-4.5739L15.70419,21.33368z" style="fill:#FCC69D;"/><path d="M15.70419,21.33368c-5.0428,0.7955-8.5994,2.7077-8.5994,4.9284    c0,0.7623,0.4289,1.4906,1.1883,2.1425c0.4192,0.3646,0.9291,0.7071,1.5411,1.0275c0.4646,0.232,0.9746,0.464,1.5298,0.6739    c2.4931,0.917,5.9154,1.49149,9.6776,1.49149c3.7509,0,7.1732-0.57449,9.6889-1.50259l0.8095-1.8088l-0.4732-2.6361    l-9.2603-4.5739L15.70419,21.33368z" style="fill:#FFC601;"/><path d="M34.17409,28.12468l-0.8999,2.56c-0.37,0.37-0.86,0.71-1.4201,1.0301    c-0.04,0.0199-0.0799,0.0499-0.12,0.07c-0.0099,0-0.0099,0-0.0099,0c-1.6101-0.37-3.47-0.8601-3.47-0.8601    c-4.35-0.3299-10.67-3-13.75-6.3299c-1.31-1.4101-1.17-2.3301-0.5801-2.9201c0.57-0.1299,1.1601-0.24,1.7801-0.34l6.0999-0.26    l5.7701,2.85l3.9,1.59L34.17409,28.12468z" style="opacity:0.1;"/><path d="M15.79539,15.87318l-0.9621,2.2191l-0.0014-0.0006c-1.1734,2.7064,3.4524,7.313,10.3351,10.2971    c6.8827,2.984,13.4172,3.216,14.5906,0.5096l-0.0048-0.002l0.9622-2.2191" style="fill:#DB9A16;"/><ellipse cx="28.25516" cy="21.27523" rx="5.33902" ry="13.58045" style="fill:#FFC601;" transform="matrix(0.39778 -0.91748 0.91748 0.39778 -2.50381 38.7359)"/><g><path d="M9.69149,29.35428l0.0131,2.4701c-0.4677-0.2486-0.8231-0.5-1.1631-0.76v-2.4601     C8.87149,28.86438,9.25149,29.12438,9.69149,29.35428z" style="fill:#E4AC1D;"/><path d="M14.87149,31.04428v2.4601c-0.21-0.04-0.42-0.0801-0.63-0.12c-0.52-0.11-1.02-0.24-1.49-0.37     c-0.21-0.06-0.41-0.12-0.61-0.18v-2.46C12.97149,30.63438,13.89149,30.86438,14.87149,31.04428z" style="fill:#E4AC1D;"/><path d="M11.03149,29.97398v2.4604c-0.2-0.0797-0.39-0.1594-0.58-0.2491v-2.4604     C10.65229,29.82298,10.82809,29.88447,11.03149,29.97398z" style="fill:#E4AC1D;"/><path d="M24.01149,31.47428v2.38c-0.26,0.0301-0.52,0.0401-0.79,0.06c-0.44,0.0401-0.88,0.07-1.33,0.0801     v-2.4068C22.61149,31.57758,23.32149,31.53428,24.01149,31.47428z" style="fill:#E4AC1D;"/><path d="M26.88149,31.10428v2.3301c-0.25,0.0399-0.49,0.09-0.74,0.13c-0.25,0.05-0.5,0.09-0.75,0.13     l-0.0172-2.36191C25.88429,31.27247,26.39149,31.19438,26.88149,31.10428z" style="fill:#E4AC1D;"/></g><g><path d="M17.24599,20.16598l-0.9204,2.27449c-0.3121-0.35819-0.5761-0.686-0.7965-1.03429l0.9046-2.3091     C16.68089,19.44408,16.92069,19.81388,17.24599,20.16598z" style="fill:#E4AC1D;"/><path d="M21.37939,23.64118l-0.9233,2.2441c-0.1797-0.11581-0.351-0.2142-0.5307-0.33     c-0.4408-0.297-0.8556-0.6051-1.2424-0.9019c-0.1722-0.1343-0.346-0.3044-0.5089-0.435l0.9336-2.241     C19.77959,22.52968,20.53849,23.10678,21.37939,23.64118z" style="fill:#E4AC1D;"/><path d="M18.26969,21.23008l-0.8983,2.2842c-0.1554-0.1489-0.3263-0.2974-0.4688-0.45181l0.9175-2.26739     C17.96309,20.94968,18.11049,21.09038,18.26969,21.23008z" style="fill:#E4AC1D;"/><path d="M29.73919,27.49958l-0.9077,2.2352c-0.2523-0.0697-0.5145-0.1605-0.7723-0.24331     c-0.4229-0.12789-0.7945-0.26719-1.2154-0.42669l0.8877-2.2554C28.40259,27.07018,29.07699,27.29638,29.73919,27.49958z" style="fill:#E4AC1D;"/><path d="M32.54809,28.20088l-0.9418,2.221c-0.2467-0.0568-0.5121-0.1008-0.7589-0.1575     c-0.2505-0.0474-0.4849-0.1173-0.7317-0.174l0.9043-2.2321C31.51529,27.99398,32.06009,28.10047,32.54809,28.20088z" style="fill:#E4AC1D;"/></g><g><path d="M34.36359,22.81198l0.5989-0.2809l-0.5459-0.2707l-0.5552,0.2578     c-0.0243-0.0133-0.0432-0.0264-0.0679-0.0398c-1.033-0.5516-1.9488-0.8736-2.7411-0.9582     c-0.5253-0.058-0.9341-0.00271-1.2337,0.1644c-0.2914,0.1623-0.476,0.4554-0.5228,0.7561     c-0.0582,0.33079,0.1051,0.6793,0.3211,0.9799l0.1184,0.15889c0.1606,0.19831,0.3621,0.39221,0.5822,0.58411l-0.9086,0.4218     l0.5468,0.2946l0.7907-0.3709c0.3418,0.2507,0.729,0.4959,1.1753,0.7332c0.5781,0.3073,1.1115,0.54119,1.602,0.68919     l0.3587-0.56229c-0.4786-0.0618-1.0395-0.2624-1.6821-0.6081c-0.3293-0.1761-0.5982-0.3598-0.8183-0.5502l2.3739-1.1138     c0.3714,0.2206,0.6446,0.43339,0.8169,0.6385l0.6252-0.3549C34.96379,23.19178,34.67589,23.00228,34.36359,22.81198z      M30.84099,23.33178c-0.0113-0.6285,0.509-0.8298,0.509-0.8298c0.157-0.0789,0.3609-0.1034,0.606-0.08751     c0.3753,0.034,0.8009,0.16831,1.27,0.39881l-2.2027,1.0226C30.90329,23.67258,30.84159,23.50258,30.84099,23.33178z" style="fill:#D19D0B;"/><g><g><g><path d="M22.41809,20.80928l-1.0456-0.5203l3.0284-2.1471c-0.6565,0.0045-1.3098-0.0756-1.9598-0.2403        l0.7292-0.517c0.3415,0.0871,0.7681,0.1424,1.2797,0.1658c0.5115,0.0234,0.9546-0.0258,1.3291-0.1477l0.8484,0.4222        L22.41809,20.80928z" style="fill:#D19D0B;"/><path d="M29.04289,19.02698c0.5284,0.2629,0.7965,0.5712,0.8044,0.9248        c0.0116,0.4198-0.3801,0.9115-1.1751,1.4751c-0.7931,0.5623-1.5417,0.8775-2.2459,0.9458        c-0.5811,0.05579-1.1359-0.0477-1.6642-0.3107c-0.5309-0.2641-0.802-0.5883-0.8133-0.9723        c-0.0114-0.3841,0.3852-0.8613,1.1897-1.4317c0.7893-0.55951,1.536-0.8734,2.2402-0.9417        C27.95979,18.66047,28.51459,18.76398,29.04289,19.02698z M28.37659,19.49938c-0.1265-0.063-0.2703-0.0972-0.4315-0.1026        c-0.1612-0.0055-0.3491,0.035-0.5638,0.1213c-0.2798,0.1116-0.6656,0.3417-1.1574,0.69039        c-0.4919,0.34871-0.7976,0.60431-0.917,0.76691c-0.1195,0.1625-0.1607,0.2898-0.1238,0.3818        c0.037,0.092,0.1187,0.1695,0.2453,0.2324c0.1265,0.063,0.2703,0.0972,0.4315,0.1027        c0.1612,0.0054,0.3491-0.0351,0.5638-0.1214c0.2779-0.1102,0.6627-0.3397,1.1546-0.68841        c0.4918-0.34869,0.7975-0.60429,0.917-0.76679c0.1194-0.1626,0.1612-0.29021,0.1251-0.3829        C28.58439,19.64018,28.50309,19.56228,28.37659,19.49938z" style="fill:#D19D0B;"/></g></g></g></g></g></g></svg>