<?xml version="1.0" ?><svg style="enable-background:new 0 0 48 48;" version="1.1" viewBox="0 0 48 48" xml:space="preserve" xmlns="http://www.w3.org/2000/svg" xmlns:xlink="http://www.w3.org/1999/xlink"><g id="Icons"><g><g><path d="M6.6909,16.2189c0-0.32531,0.3478-0.5337,0.6309-0.3734     c2.0938,1.1855,9.0646,4.6466,17.4522,0.2296c8.27-4.355,14.32-1.9426,16.0389-1.0626c0.3079,0.1576,0.4962,0.4717,0.4962,0.8176     v15.951c0,0.3253-0.3478,0.5337-0.6309,0.3734c-2.0937-1.1855-9.0645-4.6466-17.4522-0.2296     c-8.2792,4.3548-14.3224,1.9428-16.0393,1.0628C6.8791,32.83,6.6909,32.516,6.6909,32.1703V16.2189z" style="fill:#A6BF86;"/><g><path d="M26.1836,23.9782c-0.2034-0.234-0.4591-0.4024-0.7679-0.5062      c-0.3088-0.1035-0.7714-0.177-1.3877-0.2203c-0.6162-0.0436-1.0119-0.1172-1.1867-0.2218      c-0.1376-0.0818-0.2181-0.1944-0.2414-0.3375c-0.0257-0.1571,0.0183-0.2929,0.1324-0.4076      c0.1766-0.1786,0.4421-0.2969,0.7965-0.3548c0.3431-0.0561,0.6117-0.0299,0.8057,0.0783      c0.194,0.1081,0.3425,0.31329,0.4453,0.6159l1.2109-0.253c-0.1102-0.5529-0.3839-0.9645-0.8213-1.2348      c-0.3316-0.2049-0.7557-0.2956-1.271-0.2742l-0.1931-1.1818l-0.9575,0.1565l0.194,1.1874      c-0.2703,0.0765-0.519,0.1691-0.7203,0.2969c-0.3052,0.1942-0.5231,0.43939-0.6538,0.7363      c-0.1306,0.2969-0.1704,0.5997-0.1201,0.9077c0.0783,0.4791,0.3301,0.8549,0.7551,1.1272      c0.3024,0.1938,0.7938,0.3183,1.474,0.3739c0.5287,0.0435,0.8685,0.0785,1.0197,0.1047      c0.2206,0.0401,0.3814,0.1038,0.4814,0.1905c0.1002,0.0866,0.1622,0.2016,0.1856,0.3447      c0.0364,0.2228-0.0315,0.434-0.2035,0.6329c-0.1719,0.1993-0.4541,0.3309-0.8468,0.3951      c-0.3709,0.0606-0.6808,0.0152-0.9299-0.1364c-0.2487-0.1514-0.4416-0.421-0.5782-0.8083l-1.1677,0.3096      c0.1905,0.6639,0.5191,1.13949,0.9861,1.4261c0.3567,0.2191,0.8012,0.3161,1.3309,0.295l0.18,1.1012l0.9575-0.1564      l-0.1804-1.1041c0.3198-0.0846,0.6102-0.187,0.8362-0.3282c0.3275-0.2048,0.5625-0.4743,0.7054-0.8084      c0.1428-0.334,0.1857-0.6745,0.129-1.0214C26.5195,24.5201,26.3866,24.2119,26.1836,23.9782z" style="fill:#E6F4D0;"/></g><path d="M25.1049,29.4494c-0.01,0-0.02,0.01-0.03,0.01c-0.86,0.32-1.71,0.7-2.55,1.14     c-2.97,1.56-5.92,2.35-8.77,2.35c-1.16,0-2.2-0.14-3.07-0.32c0.1-0.27,0.15-0.57,0.15-0.87c0-1.47-1.18-2.65-2.64-2.65v-8.5     c1.13,0,2.1-0.71,2.47-1.71c1.83,0.58,3.71,0.86,5.61,0.86c1.96,0,3.89-0.31,5.79-0.92h0.02h-0.02c-1.82,0.9-2.99,3.13-2.76,5.6     c0.29,3.07,2.62,5.36,5.22,5.12c0.19-0.02,0.37-0.05,0.55-0.1C25.0849,29.4694,25.0949,29.4694,25.1049,29.4494" style="fill:#E6F4D0;"/><path d="M25.8749,29.1794c0.02,0,0.03,0,0.04-0.01c1.84-0.89,3.01-3.13,2.78-5.61     c-0.29-3.07-2.62-5.36-5.22-5.12c-0.17,0.02-0.34,0.05-0.51,0.09c-0.01,0-0.02,0-0.03,0l-0.01,0.01l0.01-0.01     c0.01,0,0.02,0,0.03,0c0.85-0.31,1.68-0.7,2.51-1.13c2.96-1.56,5.91-2.35,8.76-2.35c1.15,0,2.17,0.13,3.03,0.33     c-0.07,0.23-0.1,0.47-0.1,0.72c0,1.46,1.18,2.64,2.64,2.64v8.5c-1.18,0-2.18,0.78-2.52,1.85c-1.81-0.57-3.67-0.85-5.56-0.85     c-1.96,0-3.91,0.31-5.81,0.93C25.9049,29.1794,25.8949,29.1794,25.8749,29.1794" style="fill:#E6F4D0;"/></g><g><g><g><path d="M10.8797,27.0627v-2.2704c-0.422,0.3243-0.7066,0.4871-0.8537,0.4871       c-0.0699,0-0.1314-0.0277-0.1857-0.0844c-0.0542-0.0555-0.0808-0.11941-0.0808-0.1929c0-0.0844,0.0266-0.1471,0.0796-0.1869       c0.0531-0.0398,0.1471-0.09161,0.2822-0.1543c0.2013-0.09531,0.3617-0.1954,0.4835-0.30031       c0.1206-0.10489,0.2267-0.22179,0.3195-0.35209c0.0941-0.129,0.1543-0.2086,0.1833-0.2387       c0.0277-0.0301,0.0808-0.0458,0.1591-0.0458c0.0881,0,0.1592,0.0349,0.2123,0.1025c0.053,0.0687,0.0795,0.1627,0.0795,0.28209       v2.85771c0,0.334-0.1133,0.5016-0.3412,0.5016c-0.1025,0-0.1833-0.035-0.2448-0.1025       C10.911,27.2967,10.8797,27.19659,10.8797,27.0627z" style="fill:#A6BF86;"/><path d="M14.5235,25.611c0,0.2725-0.0169,0.5076-0.0506,0.7042       c-0.0326,0.1953-0.0941,0.3737-0.1845,0.5329c-0.1122,0.19649-0.2593,0.34849-0.4389,0.4546       c-0.1797,0.1061-0.3786,0.1603-0.5993,0.1603c-0.252,0-0.4787-0.0723-0.68-0.2146c-0.2002-0.1435-0.3509-0.3412-0.4522-0.5944       c-0.0518-0.1375-0.0892-0.2906-0.1133-0.4582c-0.0241-0.1664-0.0362-0.3473-0.0362-0.5426       c0-0.2508,0.0133-0.4775,0.0398-0.6788c0.0265-0.2014,0.0675-0.37381,0.1242-0.5185c0.0989-0.24,0.2411-0.422,0.428-0.5474       c0.1869-0.1266,0.4112-0.1893,0.6704-0.1893c0.1712,0,0.3268,0.0277,0.4667,0.08439       c0.1398,0.0554,0.2616,0.13621,0.3677,0.24351s0.1954,0.24,0.2689,0.3991C14.4596,24.7199,14.5235,25.1082,14.5235,25.611z        M13.8398,25.56159c0-0.30509-0.018-0.55349-0.0554-0.74759c-0.0362-0.1941-0.0977-0.34-0.1845-0.4389       c-0.0868-0.1001-0.2062-0.14951-0.3593-0.14951c-0.2195,0-0.3726,0.11091-0.4582,0.33281       c-0.0856,0.2206-0.1278,0.5619-0.1278,1.0225c0,0.3135,0.0181,0.5691,0.0542,0.7692c0.0374,0.199,0.0989,0.3497,0.1845,0.4522       c0.0868,0.1025,0.2038,0.1531,0.3521,0.1531c0.1531,0,0.2737-0.053,0.3593-0.1591c0.0868-0.1061,0.1471-0.2581,0.1821-0.457       C13.8218,26.1415,13.8398,25.8823,13.8398,25.56159z" style="fill:#A6BF86;"/><path d="M17.4885,25.611c0,0.2725-0.0169,0.5076-0.0507,0.7042       c-0.0325,0.1953-0.094,0.3737-0.1844,0.5329c-0.1122,0.19649-0.2593,0.34849-0.4389,0.4546       c-0.1797,0.1061-0.3787,0.1603-0.5993,0.1603c-0.252,0-0.4787-0.0723-0.6801-0.2146       c-0.2001-0.1435-0.3508-0.3412-0.4521-0.5944c-0.0519-0.1375-0.0892-0.2906-0.1134-0.4582       c-0.0241-0.1664-0.0361-0.3473-0.0361-0.5426c0-0.2508,0.0132-0.4775,0.0398-0.6788       c0.0265-0.2014,0.0675-0.37381,0.1241-0.5185c0.0989-0.24,0.2412-0.422,0.4281-0.5474       c0.1869-0.1266,0.4112-0.1893,0.6704-0.1893c0.1712,0,0.3268,0.0277,0.4666,0.08439       c0.1399,0.0554,0.2617,0.13621,0.3678,0.24351s0.1953,0.24,0.2689,0.3991C17.4246,24.7199,17.4885,25.1082,17.4885,25.611z        M16.8048,25.56159c0-0.30509-0.0181-0.55349-0.0555-0.74759c-0.0361-0.1941-0.0976-0.34-0.1844-0.4389       c-0.0869-0.1001-0.2062-0.14951-0.3594-0.14951c-0.2194,0-0.3725,0.11091-0.4581,0.33281       c-0.0857,0.2206-0.1279,0.5619-0.1279,1.0225c0,0.3135,0.0181,0.5691,0.0543,0.7692c0.0374,0.199,0.0989,0.3497,0.1845,0.4522       c0.0868,0.1025,0.2038,0.1531,0.3521,0.1531c0.1531,0,0.2737-0.053,0.3593-0.1591c0.0868-0.1061,0.1471-0.2581,0.1821-0.457       C16.7867,26.1415,16.8048,25.8823,16.8048,25.56159z" style="fill:#A6BF86;"/></g></g><g><g><path d="M30.917,23.494l0.1004-2.2683c-0.4359,0.3054-0.7274,0.4554-0.8744,0.44889       c-0.0698-0.0031-0.13-0.03349-0.1817-0.09249c-0.0518-0.0578-0.0755-0.1228-0.0722-0.1963       c0.0037-0.0843,0.033-0.1458,0.0877-0.1832c0.0548-0.0374,0.151-0.085,0.2887-0.1417c0.2054-0.08631,0.37-0.1792,0.4963-0.2786       c0.1251-0.0994,0.2363-0.2116,0.3348-0.3376c0.0997-0.1247,0.1634-0.2016,0.1937-0.2304       c0.029-0.0289,0.0827-0.0422,0.161-0.03871c0.0879,0.00391,0.1575,0.04191,0.2075,0.11171       c0.0499,0.071,0.0723,0.1662,0.067,0.2854l-0.1263,2.85489c-0.0148,0.33371-0.1354,0.49611-0.3631,0.486       c-0.1024-0.0045-0.1815-0.043-0.24-0.1132C30.938,23.729,30.9111,23.6277,30.917,23.494z" style="fill:#A6BF86;"/><path d="M34.6215,22.2047c-0.0121,0.2723-0.0393,0.5064-0.0818,0.7013       c-0.0411,0.1937-0.1104,0.3692-0.2078,0.5242c-0.1207,0.19139-0.2744,0.3367-0.4586,0.4347       c-0.1842,0.0981-0.3853,0.1435-0.6057,0.1338c-0.2518-0.0112-0.4751-0.0935-0.6699-0.2445       c-0.1937-0.1522-0.3355-0.3564-0.4255-0.6139c-0.0457-0.1396-0.0763-0.2942-0.093-0.46271       c-0.0167-0.1673-0.0207-0.3485-0.0121-0.5437c0.0111-0.2505,0.0343-0.4764,0.0697-0.6764c0.0354-0.2,0.084-0.3704,0.147-0.5125       c0.1094-0.2353,0.2596-0.4109,0.4519-0.5279c0.1923-0.1183,0.4191-0.171,0.6781-0.15951       c0.171,0.0076,0.3252,0.0421,0.4624,0.10491c0.1373,0.0616,0.2554,0.1477,0.3567,0.2596       c0.1012,0.1119,0.1845,0.2484,0.2509,0.4106C34.597,21.3117,34.6437,21.7024,34.6215,22.2047z M33.9407,22.1251       c0.0134-0.3048,0.0063-0.5537-0.0224-0.7493c-0.0276-0.1955-0.0826-0.344-0.1649-0.4466       c-0.0823-0.1038-0.1994-0.1585-0.3524-0.1653c-0.2192-0.0097-0.3771,0.0944-0.4724,0.3122       c-0.0953,0.2167-0.1525,0.5557-0.1729,1.0159c-0.0139,0.3132-0.0071,0.5693,0.0202,0.7709       c0.0285,0.2004,0.0833,0.35369,0.1643,0.4599c0.0822,0.1062,0.1968,0.162,0.345,0.1685       c0.153,0.0068,0.2758-0.0409,0.366-0.1431c0.0914-0.1022,0.1583-0.2513,0.2021-0.4485       C33.8969,22.7037,33.9265,22.4455,33.9407,22.1251z" style="fill:#A6BF86;"/><path d="M37.5835,22.3358c-0.012,0.2722-0.0393,0.5064-0.0817,0.7012       c-0.0411,0.1937-0.1105,0.3693-0.2078,0.5243c-0.1208,0.1914-0.2744,0.3367-0.4586,0.4347       c-0.1842,0.0981-0.3853,0.1435-0.6058,0.1337c-0.2517-0.0111-0.475-0.0934-0.6699-0.2444       c-0.1936-0.1522-0.3354-0.3564-0.4254-0.6139c-0.0457-0.1396-0.0763-0.2942-0.093-0.4627       c-0.0167-0.1673-0.0208-0.3486-0.0121-0.5437c0.011-0.2506,0.0343-0.4764,0.0697-0.6764s0.084-0.37049,0.147-0.5125       c0.1094-0.2353,0.2596-0.4109,0.4518-0.528c0.1923-0.1182,0.4192-0.1709,0.6782-0.1594       c0.171,0.0075,0.3252,0.0421,0.4624,0.10489c0.1373,0.06161,0.2554,0.14771,0.3566,0.25961       c0.1013,0.1119,0.1846,0.2483,0.251,0.4106C37.5591,21.4428,37.6058,21.8335,37.5835,22.3358z M36.9027,22.2562       c0.0135-0.3048,0.0064-0.5537-0.0223-0.7493c-0.0276-0.1956-0.0826-0.344-0.1649-0.4466       c-0.0823-0.1039-0.1994-0.1585-0.3524-0.1653c-0.2192-0.0097-0.3771,0.0944-0.4725,0.3122       c-0.0952,0.2167-0.1525,0.5557-0.1728,1.0159c-0.0139,0.3131-0.0071,0.5693,0.0202,0.7709       c0.0285,0.2004,0.0833,0.3537,0.1643,0.4598c0.0822,0.1063,0.1968,0.162,0.3449,0.1686       c0.153,0.0068,0.2758-0.0409,0.366-0.1431c0.0915-0.1022,0.1584-0.2513,0.2021-0.4485       C36.859,22.8348,36.8885,22.5766,36.9027,22.2562z" style="fill:#A6BF86;"/></g></g></g></g></g></svg>