<?xml version="1.0" ?><svg style="enable-background:new 0 0 48 48;" version="1.1" viewBox="0 0 48 48" xml:space="preserve" xmlns="http://www.w3.org/2000/svg" xmlns:xlink="http://www.w3.org/1999/xlink"><g id="Icons"><g><path d="M38.70213,15.89066h-23.0117h-5.3199c-1.0501,0-1.9101-0.0767-1.9101,0.9833v2.4366v10.27v0.61    c0,1.0599-0.0695,1.92,0.9805,1.92h6.5396h22.7216c0.463,0,0.8384-0.3753,0.8384-0.8383v-14.5434    C39.54052,16.26586,39.16513,15.89066,38.70213,15.89066z" style="fill:#A6BF86;"/><path d="M38.04493,19.97936v8.0399c-1.43,0-2.59,1.1601-2.59,2.5901h-22.9c0-1.43-1.16-2.5901-2.59-2.5901    h-0.01c0-2.3299,0.01-5.7099,0.01-8.0399c1.43,0,2.59-1.16,2.59-2.5899h22.9    C35.45493,18.81936,36.61493,19.97936,38.04493,19.97936z" style="fill:#E6F4D0;"/><circle cx="23.9999" cy="23.99999" r="6.6106" style="fill:#A6BF86;"/><path d="M26.63232,24.40136c-0.1911-0.3094-0.4553-0.5527-0.7932-0.7314    c-0.338-0.1781-0.8596-0.3508-1.5651-0.5175c-0.7049-0.1671-1.1492-0.3272-1.3318-0.4815    c-0.1438-0.1205-0.2158-0.2662-0.2158-0.4363c0-0.1867,0.0768-0.3357,0.2305-0.4468c0.2383-0.1734,0.5681-0.2601,0.9893-0.2601    c0.4079,0,0.7139,0.08109,0.9181,0.2431c0.2041,0.1619,0.3371,0.4275,0.399,0.7973l1.4498-0.0637    c-0.023-0.661-0.262-1.1893-0.7173-1.585c-0.3452-0.2999-0.819-0.4852-1.4196-0.5579v-1.4049h-1.1382v1.4115    c-0.3275,0.0375-0.6329,0.0975-0.8901,0.2075c-0.3901,0.167-0.6887,0.4097-0.8962,0.7287    c-0.2075,0.3191-0.3109,0.6622-0.3109,1.0281c0,0.5695,0.2204,1.0523,0.661,1.4479c0.3135,0.2816,0.8588,0.5188,1.6357,0.7118    c0.604,0.1504,0.9908,0.2553,1.1608,0.3142c0.2479,0.0882,0.422,0.1923,0.5213,0.3116c0.0996,0.1193,0.1497,0.2642,0.1497,0.4342    c0,0.2648-0.1185,0.4965-0.3553,0.6944c-0.2368,0.1982-0.5884,0.2971-1.0552,0.2971c-0.4409,0-0.7911-0.1112-1.0508-0.3338    c-0.2593-0.2223-0.4315-0.571-0.5164-1.0453l-1.4105,0.1376c0.0949,0.8047,0.3853,1.4174,0.8718,1.8376    c0.3715,0.3212,0.8679,0.5175,1.4851,0.5932v1.3092h1.1382v-1.3124c0.3862-0.0374,0.7419-0.1011,1.0302-0.2218    c0.4179-0.1751,0.7409-0.4427,0.9696-0.8024c0.2286-0.3598,0.3427-0.7458,0.3427-1.1583    C26.91872,25.09236,26.82323,24.71036,26.63232,24.40136z" style="fill:#E6F4D0;"/><g><path d="M13.96173,25.83966v-2.9785c-0.5537,0.4253-0.9268,0.6381-1.1192,0.6381     c-0.0917,0-0.1728-0.0366-0.2441-0.1098c-0.0703-0.0728-0.1064-0.1572-0.1064-0.2535c0-0.1113,0.0351-0.1928,0.1054-0.2455     c0.0694-0.0523,0.1924-0.1197,0.3692-0.2027c0.2646-0.1245,0.4756-0.2554,0.6338-0.393     c0.1582-0.1373,0.2978-0.2911,0.4209-0.4615c0.122-0.1699,0.2011-0.2749,0.2382-0.3139c0.0371-0.0396,0.1075-0.0591,0.21-0.0591     c0.1152,0,0.208,0.0449,0.2783,0.1343c0.0694,0.0893,0.1045,0.2128,0.1045,0.3696v3.7475c0,0.4385-0.1494,0.6582-0.4482,0.6582     c-0.1338,0-0.2403-0.0449-0.3213-0.1342C14.00173,26.14626,13.96173,26.01396,13.96173,25.83966z" style="fill:#A6BF86;"/><path d="M33.93832,25.83966v-2.9785c-0.5538,0.4253-0.9268,0.6381-1.1192,0.6381     c-0.0918,0-0.1728-0.0366-0.2441-0.1098c-0.0703-0.0728-0.1065-0.1572-0.1065-0.2535c0-0.1113,0.0352-0.1928,0.1055-0.2455     c0.0693-0.0523,0.1924-0.1197,0.3691-0.2027c0.2647-0.1245,0.4756-0.2554,0.6338-0.393     c0.1582-0.1373,0.2979-0.2911,0.4209-0.4615c0.1221-0.1699,0.2012-0.2749,0.2383-0.3139c0.0371-0.0396,0.1074-0.0591,0.21-0.0591     c0.1152,0,0.208,0.0449,0.2783,0.1343c0.0693,0.0893,0.1045,0.2128,0.1045,0.3696v3.7475c0,0.4385-0.1494,0.6582-0.4483,0.6582     c-0.1338,0-0.2402-0.0449-0.3213-0.1342C33.97832,26.14626,33.93832,26.01396,33.93832,25.83966z" style="fill:#A6BF86;"/></g></g></g></svg>