<?xml version="1.0" encoding="utf-8"?>
<!-- Svg Vector Icons : http://www.onlinewebfonts.com/icon -->
<!DOCTYPE svg PUBLIC "-//W3C//DTD SVG 1.1//EN" "http://www.w3.org/Graphics/SVG/1.1/DTD/svg11.dtd">
<svg version="1.1" xmlns="http://www.w3.org/2000/svg" xmlns:xlink="http://www.w3.org/1999/xlink" x="0px" y="0px" viewBox="0 0 1000 1000" enable-background="new 0 0 1000 1000" xml:space="preserve">
<metadata> Svg Vector Icons : http://www.onlinewebfonts.com/icon </metadata>
<g><g transform="translate(0.000000,512.000000) scale(0.100000,-0.100000)"><path d="M1785.7,4998.6c-120.8-28.8-214.8-86.3-301.1-184.1c-153.4-166.9-172.6-270.4-163-882.2c5.7-460.3,7.7-471.8,55.6-575.3c65.2-141.9,145.8-230.1,270.4-299.2l101.6-55.6l811.2-5.8l809.3-5.8v-209v-210.9h-531.2c-293.4,0-588.8-9.6-655.9-21.1c-429.6-69-774.8-414.2-843.8-843.8c-11.5-71-21.1-466-21.1-934V-41.3L817.2-873.6c-274.2-460.3-525.5-891.8-558.1-962.7c-32.6-71-80.5-211-107.4-310.7l-49.9-182.2l-1.9-815.1c0-807.4,0-817,44.1-939.7c115.1-316.4,339.4-540.8,657.8-655.9l122.7-44.1h4075.3h4075.3l124.6,44.1c312.6,113.2,542.7,343.3,655.9,659.7c44.1,118.9,44.1,136.2,44.1,916.7c0,1139.2,28.8,1045.2-696.2,2249.6L8691.6-66.3l-9.6,901.4l-9.6,901.4l-49.9,138.1c-113.2,306.8-337.5,529.3-650.1,642.5l-124.7,44.1l-2036.7,5.7l-2038.6,5.8v209v209l801.6,5.8c792,5.8,799.7,5.8,889.8,49.9c115.1,57.5,230.1,172.6,287.7,287.7c42.2,86.3,44.1,111.2,49.9,631c3.8,339.4-1.9,569.6-15.3,617.5c-28.8,109.3-130.4,249.3-232,322.2c-172.6,122.7-134.2,120.8-1992.6,118.9C2299.7,5023.5,1858.6,5015.9,1785.7,4998.6z M5304.9,4593.9c105.5-53.7,117-115.1,117-588.8c0-483.3-11.5-533.1-134.2-594.5c-63.3-32.6-184.1-34.5-1722.2-34.5c-1823.8,0-1754.8-3.8-1816.1,117c-42.2,80.5-42.2,933.9,0,1014.5c61.4,118.9-26.9,113.1,1818,115.1C5005.7,4622.7,5258.8,4618.9,5304.9,4593.9z M7907.3,2114.3c122.7-55.6,260.8-195.6,318.4-320.3c44.1-94,44.1-107.4,49.9-886l5.7-792H4999.9H1718.6l5.8,792c5.7,778.6,5.7,792.1,49.9,886c47.9,105.5,174.5,245.5,262.7,291.5c153.4,82.5,84.4,80.5,2991.7,76.7l2780.8-3.8L7907.3,2114.3z M8868.1-1124.9c404.6-677,514-876.4,565.7-1022.2l63.3-182.2v-795.9c0-794,0-795.9-46-895.6c-55.6-126.6-212.9-274.2-337.5-324.1c-94-36.4-191.8-36.4-4113.6-36.4s-4019.7,0-4113.6,36.4c-124.7,49.9-281.9,197.5-337.5,324.1c-46,97.8-46,111.2-51.8,828.5c-5.8,774.8,3.8,895.6,94,1127.7c21.1,55.6,264.6,477.5,540.8,939.7l502.5,838.1h3365.7h3365.7L8868.1-1124.9z"/><path d="M2625.7-756.7c-74.8-61.4-92.1-138.1-53.7-228.2c46-109.3,118.9-130.4,418.1-122.7l249.3,5.8l55.6,63.3c38.4,44.1,55.6,82.5,55.6,130.4c0,164.9-69,199.4-410.4,199.4C2692.8-708.7,2679.4-710.6,2625.7-756.7z"/><path d="M4298-727.9c-115.1-46-138.1-209-47.9-310.7l55.6-63.3l249.3-5.8c299.2-7.7,372.1,13.4,418.1,122.7c38.4,90.1,21.1,166.8-53.7,228.2c-55.6,46-65.2,47.9-318.3,46C4457.2-710.6,4319.1-718.3,4298-727.9z"/><path d="M5889.8-773.9c-76.7-76.7-88.2-170.7-26.9-245.5c63.3-80.5,128.5-95.9,389.3-88.2c209,5.8,247.4,11.5,295.4,46c69,51.8,97.8,155.3,63.3,237.8c-40.3,97.8-99.7,115.1-395.1,115.1H5955L5889.8-773.9z"/><path d="M7531.4-764.3c-105.5-105.5-103.6-115.1,145.7-619.5c128.5-258.9,247.4-475.6,274.3-496.7c117-94,308.8-3.8,308.8,143.8c0,92.1-416.2,928.2-490.9,987.7C7694.4-689.5,7598.5-695.3,7531.4-764.3z"/><path d="M1795.3-1589c-44.1-44.1-55.6-72.9-55.6-136.2c0-63.3,11.5-92,55.6-136.2l55.6-55.6h280h280l61.4,55.6c51.8,46,63.3,69,63.3,136.2c0,67.1-11.5,90.1-63.3,136.2l-61.4,55.6h-280h-280L1795.3-1589z"/><path d="M3440.8-1571.7c-61.4-49.9-84.4-151.5-51.8-232c44.1-103.6,76.7-113.2,389.3-113.2c274.2,0,285.8,1.9,329.9,46c24.9,24.9,51.8,69,59.5,95.9c17.3,69-5.8,140-59.5,195.6c-44.1,44.1-55.6,46-331.8,46C3517.5-1533.4,3484.9-1537.2,3440.8-1571.7z"/><path d="M5105.4-1556.4c-92.1-51.8-122.7-155.3-76.7-251.2c46-95.9,92.1-109.3,395.1-109.3h270.4l55.6,55.6c44.1,44.1,55.6,72.9,55.6,136.2c0,63.3-11.5,92.1-55.6,136.2l-55.6,55.6H5418C5247.3-1533.4,5128.4-1542.9,5105.4-1556.4z"/><path d="M6704.8-1589c-44.1-44.1-55.6-72.9-55.6-136.2c0-63.3,11.5-92,55.6-136.2l55.6-55.6h270.4c159.2,0,287.7,9.6,316.4,21.1c63.3,28.8,115.1,138.1,97.8,205.2c-5.8,28.8-34.5,74.8-63.3,105.5l-49.9,51.8h-285.7h-285.8L6704.8-1589z"/><path d="M982.2-2806.8c-86.3-86.3-86.3-205.2,0-291.5l46-46h3971.7h3971.7l46,46c86.3,86.3,86.3,205.2,0,291.5l-46,46H4999.9H1028.2L982.2-2806.8z"/></g></g>
</svg>